<?xml version="1.0" encoding="UTF-8" standalone="no"?>
<!DOCTYPE svg PUBLIC "-//W3C//DTD SVG 1.1//EN"
 "http://www.w3.org/Graphics/SVG/1.1/DTD/svg11.dtd">
<!-- Generated by graphviz version 2.26.3 (20100126.1600)
 -->
<!-- Title: G Pages: 1 -->
<svg width="208pt" height="554pt"
 viewBox="0.00 0.00 208.00 554.00" xmlns="http://www.w3.org/2000/svg" xmlns:xlink="http://www.w3.org/1999/xlink">
<g id="graph1" class="graph" transform="scale(1 1) rotate(0) translate(4 550)">
<title>G</title>
<!-- Node1 -->
<g id="node1" class="node"><title>Node1</title>
<polygon fill="#bfbfbf" stroke="black" points="0,-0.5 0,-89.5 200,-89.5 200,-0.5 0,-0.5"/>
<text text-anchor="middle" x="100" y="-76.5" font-family="Helvetica,sans-Serif" font-size="10.00">jdungeon.core.world.bonus.StrengthBonus</text>
<polyline fill="none" stroke="black" points="0,-68.5 200,-68.5 "/>
<text text-anchor="start" x="8" y="-55.5" font-family="Helvetica,sans-Serif" font-size="10.00">&#45; serialVersionUID</text>
<polyline fill="none" stroke="black" points="0,-47.5 200,-47.5 "/>
<text text-anchor="start" x="8" y="-34.5" font-family="Helvetica,sans-Serif" font-size="10.00">+ StrengthBonus()</text>
<text text-anchor="start" x="8" y="-21.5" font-family="Helvetica,sans-Serif" font-size="10.00"># areaBuff()</text>
<text text-anchor="start" x="8" y="-8.5" font-family="Helvetica,sans-Serif" font-size="10.00"># buff()</text>
</g>
<!-- Node2 -->
<g id="node2" class="node"><title>Node2</title>
<a xlink:href="classjdungeon_1_1core_1_1world_1_1bonus_1_1_bonus.html" target="_top" xlink:title="{jdungeon.core.world.bonus.Bonus\n|&#45; level\l&#45; serialVersionUID\l|+ Bonus()\l+ hitBy()\l+ near()\l+ getLevel()\l# buff()\l# areaBuff()\l}">
<polygon fill="none" stroke="black" points="18,-126.5 18,-267.5 182,-267.5 182,-126.5 18,-126.5"/>
<text text-anchor="middle" x="100" y="-254.5" font-family="Helvetica,sans-Serif" font-size="10.00">jdungeon.core.world.bonus.Bonus</text>
<polyline fill="none" stroke="black" points="18,-246.5 182,-246.5 "/>
<text text-anchor="start" x="26" y="-233.5" font-family="Helvetica,sans-Serif" font-size="10.00">&#45; level</text>
<text text-anchor="start" x="26" y="-220.5" font-family="Helvetica,sans-Serif" font-size="10.00">&#45; serialVersionUID</text>
<polyline fill="none" stroke="black" points="18,-212.5 182,-212.5 "/>
<text text-anchor="start" x="26" y="-199.5" font-family="Helvetica,sans-Serif" font-size="10.00">+ Bonus()</text>
<text text-anchor="start" x="26" y="-186.5" font-family="Helvetica,sans-Serif" font-size="10.00">+ hitBy()</text>
<text text-anchor="start" x="26" y="-173.5" font-family="Helvetica,sans-Serif" font-size="10.00">+ near()</text>
<text text-anchor="start" x="26" y="-160.5" font-family="Helvetica,sans-Serif" font-size="10.00">+ getLevel()</text>
<text text-anchor="start" x="26" y="-147.5" font-family="Helvetica,sans-Serif" font-size="10.00"># buff()</text>
<text text-anchor="start" x="26" y="-134.5" font-family="Helvetica,sans-Serif" font-size="10.00"># areaBuff()</text>
</a>
</g>
<!-- Node2&#45;&gt;Node1 -->
<g id="edge2" class="edge"><title>Node2&#45;&gt;Node1</title>
<path fill="none" stroke="midnightblue" d="M100,-116.149C100,-107.133 100,-98.2083 100,-89.8855"/>
<polygon fill="none" stroke="midnightblue" points="96.5001,-116.34 100,-126.34 103.5,-116.34 96.5001,-116.34"/>
</g>
<!-- Node3 -->
<g id="node4" class="node"><title>Node3</title>
<a xlink:href="classjdungeon_1_1core_1_1world_1_1_entity.html" target="_top" xlink:title="{jdungeon.core.world.Entity\n|&#45; w\l&#45; serialVersionUID\l|+ setWorld()\l+ getWorld()\l+ hitBy()\l+ hitsTo()\l+ near()\l+ clone()\l}">
<polygon fill="none" stroke="black" points="34,-304.5 34,-445.5 166,-445.5 166,-304.5 34,-304.5"/>
<text text-anchor="middle" x="100" y="-432.5" font-family="Helvetica,sans-Serif" font-size="10.00">jdungeon.core.world.Entity</text>
<polyline fill="none" stroke="black" points="34,-424.5 166,-424.5 "/>
<text text-anchor="start" x="42" y="-411.5" font-family="Helvetica,sans-Serif" font-size="10.00">&#45; w</text>
<text text-anchor="start" x="42" y="-398.5" font-family="Helvetica,sans-Serif" font-size="10.00">&#45; serialVersionUID</text>
<polyline fill="none" stroke="black" points="34,-390.5 166,-390.5 "/>
<text text-anchor="start" x="42" y="-377.5" font-family="Helvetica,sans-Serif" font-size="10.00">+ setWorld()</text>
<text text-anchor="start" x="42" y="-364.5" font-family="Helvetica,sans-Serif" font-size="10.00">+ getWorld()</text>
<text text-anchor="start" x="42" y="-351.5" font-family="Helvetica,sans-Serif" font-size="10.00">+ hitBy()</text>
<text text-anchor="start" x="42" y="-338.5" font-family="Helvetica,sans-Serif" font-size="10.00">+ hitsTo()</text>
<text text-anchor="start" x="42" y="-325.5" font-family="Helvetica,sans-Serif" font-size="10.00">+ near()</text>
<text text-anchor="start" x="42" y="-312.5" font-family="Helvetica,sans-Serif" font-size="10.00">+ clone()</text>
</a>
</g>
<!-- Node3&#45;&gt;Node2 -->
<g id="edge4" class="edge"><title>Node3&#45;&gt;Node2</title>
<path fill="none" stroke="midnightblue" d="M100,-294.354C100,-285.401 100,-276.334 100,-267.521"/>
<polygon fill="none" stroke="midnightblue" points="96.5001,-294.394 100,-304.394 103.5,-294.394 96.5001,-294.394"/>
</g>
<!-- Node4 -->
<g id="node6" class="node"><title>Node4</title>
<polygon fill="none" stroke="#bfbfbf" points="66.5,-482.5 66.5,-545.5 133.5,-545.5 133.5,-482.5 66.5,-482.5"/>
<text text-anchor="middle" x="100" y="-532.5" font-family="Helvetica,sans-Serif" font-size="10.00">Serializable</text>
<polyline fill="none" stroke="#bfbfbf" points="66.5,-524.5 133.5,-524.5 "/>
<text text-anchor="middle" x="100" y="-511.5" font-family="Helvetica,sans-Serif" font-size="10.00"> </text>
<polyline fill="none" stroke="#bfbfbf" points="66.5,-503.5 133.5,-503.5 "/>
<text text-anchor="middle" x="100" y="-490.5" font-family="Helvetica,sans-Serif" font-size="10.00"> </text>
</g>
<!-- Node4&#45;&gt;Node3 -->
<g id="edge6" class="edge"><title>Node4&#45;&gt;Node3</title>
<path fill="none" stroke="midnightblue" d="M100,-472.453C100,-463.942 100,-454.76 100,-445.553"/>
<polygon fill="none" stroke="midnightblue" points="96.5001,-472.459 100,-482.459 103.5,-472.459 96.5001,-472.459"/>
</g>
</g>
</svg>
