<?xml version="1.0" encoding="UTF-8" standalone="no"?>
<!DOCTYPE svg PUBLIC "-//W3C//DTD SVG 1.1//EN"
 "http://www.w3.org/Graphics/SVG/1.1/DTD/svg11.dtd">
<!-- Generated by graphviz version 2.26.3 (20100126.1600)
 -->
<!-- Title: G Pages: 1 -->
<svg width="861pt" height="1958pt"
 viewBox="0.00 0.00 860.72 1958.00" xmlns="http://www.w3.org/2000/svg" xmlns:xlink="http://www.w3.org/1999/xlink">
<g id="graph1" class="graph" transform="scale(1 1) rotate(0) translate(4 1954)">
<title>G</title>
<!-- Node1 -->
<g id="node1" class="node"><title>Node1</title>
<polygon fill="#bfbfbf" stroke="black" points="700.723,-1499 700.723,-1731 852.723,-1731 852.723,-1499 700.723,-1499"/>
<text text-anchor="middle" x="776.723" y="-1718" font-family="Helvetica,sans-Serif" font-size="10.00">jdungeon.core.world.Player</text>
<polyline fill="none" stroke="black" points="700.723,-1710 852.723,-1710 "/>
<text text-anchor="start" x="708.723" y="-1697" font-family="Helvetica,sans-Serif" font-size="10.00">&#45; experience</text>
<text text-anchor="start" x="708.723" y="-1684" font-family="Helvetica,sans-Serif" font-size="10.00">&#45; name</text>
<text text-anchor="start" x="708.723" y="-1671" font-family="Helvetica,sans-Serif" font-size="10.00">&#45; serialVersionUID</text>
<polyline fill="none" stroke="black" points="700.723,-1663 852.723,-1663 "/>
<text text-anchor="start" x="708.723" y="-1650" font-family="Helvetica,sans-Serif" font-size="10.00">+ Player()</text>
<text text-anchor="start" x="708.723" y="-1637" font-family="Helvetica,sans-Serif" font-size="10.00">+ setWorld()</text>
<text text-anchor="start" x="708.723" y="-1624" font-family="Helvetica,sans-Serif" font-size="10.00">+ getName()</text>
<text text-anchor="start" x="708.723" y="-1611" font-family="Helvetica,sans-Serif" font-size="10.00">+ setName()</text>
<text text-anchor="start" x="708.723" y="-1598" font-family="Helvetica,sans-Serif" font-size="10.00">+ getExperienceForNextLevel()</text>
<text text-anchor="start" x="708.723" y="-1585" font-family="Helvetica,sans-Serif" font-size="10.00">+ getExperience()</text>
<text text-anchor="start" x="708.723" y="-1572" font-family="Helvetica,sans-Serif" font-size="10.00">+ moveLeft()</text>
<text text-anchor="start" x="708.723" y="-1559" font-family="Helvetica,sans-Serif" font-size="10.00">+ moveRight()</text>
<text text-anchor="start" x="708.723" y="-1546" font-family="Helvetica,sans-Serif" font-size="10.00">+ moveUp()</text>
<text text-anchor="start" x="708.723" y="-1533" font-family="Helvetica,sans-Serif" font-size="10.00">+ moveDown()</text>
<text text-anchor="start" x="708.723" y="-1520" font-family="Helvetica,sans-Serif" font-size="10.00">+ awardExperience()</text>
<text text-anchor="start" x="708.723" y="-1507" font-family="Helvetica,sans-Serif" font-size="10.00">&#45; move()</text>
</g>
<!-- Node5 -->
<g id="node8" class="node"><title>Node5</title>
<a xlink:href="classjdungeon_1_1core_1_1world_1_1_world.html" target="_top" xlink:title="{jdungeon.core.world.World\n|&#45; board\l&#45; player\l&#45; boss\l&#45; observers\l&#45; hurtEntities\l&#45; playerObserver\l&#45; bossObserver\l&#45; sizeX\l&#45; sizeY\l&#45; serialVersionUID\l|+ World()\l+ clone()\l+ getX()\l+ getY()\l+ getHurtEntities()\l+ subscribe()\l+ unsubscribe()\l+ add()\l+ add()\l+ add()\l+ add()\l+ remove()\l+ remove()\l+ getPlayer()\l+ getBoss()\l+ syncEvent()\l+ replace()\l~ addHurtEntity()\l~ removeHurtEntity()\l~ notifyChange()\l~ notifyChange()\l~ notifyChange()\l~ notifyChange()\l~ getEntityInPoint()\l# move()\l# moveDelta()\l# clearView()\l&#45; area()\l}">
<polygon fill="none" stroke="black" points="435.723,-800.5 435.723,-1331.5 567.723,-1331.5 567.723,-800.5 435.723,-800.5"/>
<text text-anchor="middle" x="501.723" y="-1318.5" font-family="Helvetica,sans-Serif" font-size="10.00">jdungeon.core.world.World</text>
<polyline fill="none" stroke="black" points="435.723,-1310.5 567.723,-1310.5 "/>
<text text-anchor="start" x="443.723" y="-1297.5" font-family="Helvetica,sans-Serif" font-size="10.00">&#45; board</text>
<text text-anchor="start" x="443.723" y="-1284.5" font-family="Helvetica,sans-Serif" font-size="10.00">&#45; player</text>
<text text-anchor="start" x="443.723" y="-1271.5" font-family="Helvetica,sans-Serif" font-size="10.00">&#45; boss</text>
<text text-anchor="start" x="443.723" y="-1258.5" font-family="Helvetica,sans-Serif" font-size="10.00">&#45; observers</text>
<text text-anchor="start" x="443.723" y="-1245.5" font-family="Helvetica,sans-Serif" font-size="10.00">&#45; hurtEntities</text>
<text text-anchor="start" x="443.723" y="-1232.5" font-family="Helvetica,sans-Serif" font-size="10.00">&#45; playerObserver</text>
<text text-anchor="start" x="443.723" y="-1219.5" font-family="Helvetica,sans-Serif" font-size="10.00">&#45; bossObserver</text>
<text text-anchor="start" x="443.723" y="-1206.5" font-family="Helvetica,sans-Serif" font-size="10.00">&#45; sizeX</text>
<text text-anchor="start" x="443.723" y="-1193.5" font-family="Helvetica,sans-Serif" font-size="10.00">&#45; sizeY</text>
<text text-anchor="start" x="443.723" y="-1180.5" font-family="Helvetica,sans-Serif" font-size="10.00">&#45; serialVersionUID</text>
<polyline fill="none" stroke="black" points="435.723,-1172.5 567.723,-1172.5 "/>
<text text-anchor="start" x="443.723" y="-1159.5" font-family="Helvetica,sans-Serif" font-size="10.00">+ World()</text>
<text text-anchor="start" x="443.723" y="-1146.5" font-family="Helvetica,sans-Serif" font-size="10.00">+ clone()</text>
<text text-anchor="start" x="443.723" y="-1133.5" font-family="Helvetica,sans-Serif" font-size="10.00">+ getX()</text>
<text text-anchor="start" x="443.723" y="-1120.5" font-family="Helvetica,sans-Serif" font-size="10.00">+ getY()</text>
<text text-anchor="start" x="443.723" y="-1107.5" font-family="Helvetica,sans-Serif" font-size="10.00">+ getHurtEntities()</text>
<text text-anchor="start" x="443.723" y="-1094.5" font-family="Helvetica,sans-Serif" font-size="10.00">+ subscribe()</text>
<text text-anchor="start" x="443.723" y="-1081.5" font-family="Helvetica,sans-Serif" font-size="10.00">+ unsubscribe()</text>
<text text-anchor="start" x="443.723" y="-1068.5" font-family="Helvetica,sans-Serif" font-size="10.00">+ add()</text>
<text text-anchor="start" x="443.723" y="-1055.5" font-family="Helvetica,sans-Serif" font-size="10.00">+ add()</text>
<text text-anchor="start" x="443.723" y="-1042.5" font-family="Helvetica,sans-Serif" font-size="10.00">+ add()</text>
<text text-anchor="start" x="443.723" y="-1029.5" font-family="Helvetica,sans-Serif" font-size="10.00">+ add()</text>
<text text-anchor="start" x="443.723" y="-1016.5" font-family="Helvetica,sans-Serif" font-size="10.00">+ remove()</text>
<text text-anchor="start" x="443.723" y="-1003.5" font-family="Helvetica,sans-Serif" font-size="10.00">+ remove()</text>
<text text-anchor="start" x="443.723" y="-990.5" font-family="Helvetica,sans-Serif" font-size="10.00">+ getPlayer()</text>
<text text-anchor="start" x="443.723" y="-977.5" font-family="Helvetica,sans-Serif" font-size="10.00">+ getBoss()</text>
<text text-anchor="start" x="443.723" y="-964.5" font-family="Helvetica,sans-Serif" font-size="10.00">+ syncEvent()</text>
<text text-anchor="start" x="443.723" y="-951.5" font-family="Helvetica,sans-Serif" font-size="10.00">+ replace()</text>
<text text-anchor="start" x="443.723" y="-938.5" font-family="Helvetica,sans-Serif" font-size="10.00">~ addHurtEntity()</text>
<text text-anchor="start" x="443.723" y="-925.5" font-family="Helvetica,sans-Serif" font-size="10.00">~ removeHurtEntity()</text>
<text text-anchor="start" x="443.723" y="-912.5" font-family="Helvetica,sans-Serif" font-size="10.00">~ notifyChange()</text>
<text text-anchor="start" x="443.723" y="-899.5" font-family="Helvetica,sans-Serif" font-size="10.00">~ notifyChange()</text>
<text text-anchor="start" x="443.723" y="-886.5" font-family="Helvetica,sans-Serif" font-size="10.00">~ notifyChange()</text>
<text text-anchor="start" x="443.723" y="-873.5" font-family="Helvetica,sans-Serif" font-size="10.00">~ notifyChange()</text>
<text text-anchor="start" x="443.723" y="-860.5" font-family="Helvetica,sans-Serif" font-size="10.00">~ getEntityInPoint()</text>
<text text-anchor="start" x="443.723" y="-847.5" font-family="Helvetica,sans-Serif" font-size="10.00"># move()</text>
<text text-anchor="start" x="443.723" y="-834.5" font-family="Helvetica,sans-Serif" font-size="10.00"># moveDelta()</text>
<text text-anchor="start" x="443.723" y="-821.5" font-family="Helvetica,sans-Serif" font-size="10.00"># clearView()</text>
<text text-anchor="start" x="443.723" y="-808.5" font-family="Helvetica,sans-Serif" font-size="10.00">&#45; area()</text>
</a>
</g>
<!-- Node1&#45;&gt;Node5 -->
<g id="edge30" class="edge"><title>Node1&#45;&gt;Node5</title>
<path fill="none" stroke="#9a32cd" stroke-dasharray="5,2" d="M732.259,-1489.14C720.065,-1457.65 706.189,-1424.25 691.723,-1394 654.882,-1316.97 606.578,-1233.77 567.895,-1170.43"/>
<polygon fill="#9a32cd" stroke="#9a32cd" points="735.988,-1498.84 728.201,-1491.12 734.195,-1494.17 732.401,-1489.51 732.401,-1489.51 732.401,-1489.51 734.195,-1494.17 736.601,-1487.89 735.988,-1498.84 735.988,-1498.84"/>
<text text-anchor="middle" x="696.223" y="-1360.5" font-family="Helvetica,sans-Serif" font-size="10.00">player</text>
</g>
<!-- Node2 -->
<g id="node2" class="node"><title>Node2</title>
<a xlink:href="classjdungeon_1_1core_1_1world_1_1_vulnerable.html" target="_top" xlink:title="{jdungeon.core.world.Vulnerable\n|&#45; HP\l&#45; maxHP\l&#45; level\l&#45; strength\l&#45; strengthBonus\l&#45; observers\l&#45; serialVersionUID\l|+ Vulnerable()\l+ getLevel()\l+ getHP()\l+ hitBy()\l+ hitsTo()\l+ heal()\l+ hurtBy()\l+ getStrength()\l+ getRawStrength()\l+ getStrengthBonus()\l+ setStrength()\l+ setStrengthBonus()\l+ setMaxHealth()\l+ getMaxHealth()\l+ setLevel()\l+ awardExperience()\l+ getExperience()\l+ subscribe()\l+ unsubscribe()\l# die()\l}">
<polygon fill="none" stroke="black" points="444.723,-169 444.723,-557 596.723,-557 596.723,-169 444.723,-169"/>
<text text-anchor="middle" x="520.723" y="-544" font-family="Helvetica,sans-Serif" font-size="10.00">jdungeon.core.world.Vulnerable</text>
<polyline fill="none" stroke="black" points="444.723,-536 596.723,-536 "/>
<text text-anchor="start" x="452.723" y="-523" font-family="Helvetica,sans-Serif" font-size="10.00">&#45; HP</text>
<text text-anchor="start" x="452.723" y="-510" font-family="Helvetica,sans-Serif" font-size="10.00">&#45; maxHP</text>
<text text-anchor="start" x="452.723" y="-497" font-family="Helvetica,sans-Serif" font-size="10.00">&#45; level</text>
<text text-anchor="start" x="452.723" y="-484" font-family="Helvetica,sans-Serif" font-size="10.00">&#45; strength</text>
<text text-anchor="start" x="452.723" y="-471" font-family="Helvetica,sans-Serif" font-size="10.00">&#45; strengthBonus</text>
<text text-anchor="start" x="452.723" y="-458" font-family="Helvetica,sans-Serif" font-size="10.00">&#45; observers</text>
<text text-anchor="start" x="452.723" y="-445" font-family="Helvetica,sans-Serif" font-size="10.00">&#45; serialVersionUID</text>
<polyline fill="none" stroke="black" points="444.723,-437 596.723,-437 "/>
<text text-anchor="start" x="452.723" y="-424" font-family="Helvetica,sans-Serif" font-size="10.00">+ Vulnerable()</text>
<text text-anchor="start" x="452.723" y="-411" font-family="Helvetica,sans-Serif" font-size="10.00">+ getLevel()</text>
<text text-anchor="start" x="452.723" y="-398" font-family="Helvetica,sans-Serif" font-size="10.00">+ getHP()</text>
<text text-anchor="start" x="452.723" y="-385" font-family="Helvetica,sans-Serif" font-size="10.00">+ hitBy()</text>
<text text-anchor="start" x="452.723" y="-372" font-family="Helvetica,sans-Serif" font-size="10.00">+ hitsTo()</text>
<text text-anchor="start" x="452.723" y="-359" font-family="Helvetica,sans-Serif" font-size="10.00">+ heal()</text>
<text text-anchor="start" x="452.723" y="-346" font-family="Helvetica,sans-Serif" font-size="10.00">+ hurtBy()</text>
<text text-anchor="start" x="452.723" y="-333" font-family="Helvetica,sans-Serif" font-size="10.00">+ getStrength()</text>
<text text-anchor="start" x="452.723" y="-320" font-family="Helvetica,sans-Serif" font-size="10.00">+ getRawStrength()</text>
<text text-anchor="start" x="452.723" y="-307" font-family="Helvetica,sans-Serif" font-size="10.00">+ getStrengthBonus()</text>
<text text-anchor="start" x="452.723" y="-294" font-family="Helvetica,sans-Serif" font-size="10.00">+ setStrength()</text>
<text text-anchor="start" x="452.723" y="-281" font-family="Helvetica,sans-Serif" font-size="10.00">+ setStrengthBonus()</text>
<text text-anchor="start" x="452.723" y="-268" font-family="Helvetica,sans-Serif" font-size="10.00">+ setMaxHealth()</text>
<text text-anchor="start" x="452.723" y="-255" font-family="Helvetica,sans-Serif" font-size="10.00">+ getMaxHealth()</text>
<text text-anchor="start" x="452.723" y="-242" font-family="Helvetica,sans-Serif" font-size="10.00">+ setLevel()</text>
<text text-anchor="start" x="452.723" y="-229" font-family="Helvetica,sans-Serif" font-size="10.00">+ awardExperience()</text>
<text text-anchor="start" x="452.723" y="-216" font-family="Helvetica,sans-Serif" font-size="10.00">+ getExperience()</text>
<text text-anchor="start" x="452.723" y="-203" font-family="Helvetica,sans-Serif" font-size="10.00">+ subscribe()</text>
<text text-anchor="start" x="452.723" y="-190" font-family="Helvetica,sans-Serif" font-size="10.00">+ unsubscribe()</text>
<text text-anchor="start" x="452.723" y="-177" font-family="Helvetica,sans-Serif" font-size="10.00"># die()</text>
</a>
</g>
<!-- Node2&#45;&gt;Node1 -->
<g id="edge2" class="edge"><title>Node2&#45;&gt;Node1</title>
<path fill="none" stroke="midnightblue" d="M601.508,-495.214C614.692,-521.26 626.901,-548.925 635.723,-576 740.966,-899.011 767.698,-1303.24 774.457,-1498.61"/>
<polygon fill="none" stroke="midnightblue" points="604.493,-493.365 596.808,-486.072 598.268,-496.566 604.493,-493.365"/>
</g>
<!-- Node10 -->
<g id="node21" class="node"><title>Node10</title>
<a xlink:href="classjdungeon_1_1core_1_1world_1_1creatures_1_1_monster.html" target="_top" xlink:title="{jdungeon.core.world.creatures.Monster\n|&#45; serialVersionUID\l|+ Monster()\l+ awardExperience()\l+ getExperience()\l+ hurtBy()\l&#45; computeHealth()\l&#45; computeStrength()\l}">
<polygon fill="none" stroke="black" points="500.223,-1 500.223,-129 685.223,-129 685.223,-1 500.223,-1"/>
<text text-anchor="middle" x="592.723" y="-116" font-family="Helvetica,sans-Serif" font-size="10.00">jdungeon.core.world.creatures.Monster</text>
<polyline fill="none" stroke="black" points="500.223,-108 685.223,-108 "/>
<text text-anchor="start" x="508.223" y="-95" font-family="Helvetica,sans-Serif" font-size="10.00">&#45; serialVersionUID</text>
<polyline fill="none" stroke="black" points="500.223,-87 685.223,-87 "/>
<text text-anchor="start" x="508.223" y="-74" font-family="Helvetica,sans-Serif" font-size="10.00">+ Monster()</text>
<text text-anchor="start" x="508.223" y="-61" font-family="Helvetica,sans-Serif" font-size="10.00">+ awardExperience()</text>
<text text-anchor="start" x="508.223" y="-48" font-family="Helvetica,sans-Serif" font-size="10.00">+ getExperience()</text>
<text text-anchor="start" x="508.223" y="-35" font-family="Helvetica,sans-Serif" font-size="10.00">+ hurtBy()</text>
<text text-anchor="start" x="508.223" y="-22" font-family="Helvetica,sans-Serif" font-size="10.00">&#45; computeHealth()</text>
<text text-anchor="start" x="508.223" y="-9" font-family="Helvetica,sans-Serif" font-size="10.00">&#45; computeStrength()</text>
</a>
</g>
<!-- Node2&#45;&gt;Node10 -->
<g id="edge26" class="edge"><title>Node2&#45;&gt;Node10</title>
<path fill="none" stroke="midnightblue" d="M570.066,-158.775C572.564,-148.434 574.963,-138.507 577.203,-129.236"/>
<polygon fill="none" stroke="midnightblue" points="566.588,-158.265 567.642,-168.808 573.392,-159.909 566.588,-158.265"/>
</g>
<!-- Node3 -->
<g id="node4" class="node"><title>Node3</title>
<a xlink:href="classjdungeon_1_1core_1_1world_1_1_entity.html" target="_top" xlink:title="{jdungeon.core.world.Entity\n|&#45; w\l&#45; serialVersionUID\l|+ setWorld()\l+ getWorld()\l+ hitBy()\l+ hitsTo()\l+ near()\l+ clone()\l}">
<polygon fill="none" stroke="black" points="308.723,-608.5 308.723,-749.5 440.723,-749.5 440.723,-608.5 308.723,-608.5"/>
<text text-anchor="middle" x="374.723" y="-736.5" font-family="Helvetica,sans-Serif" font-size="10.00">jdungeon.core.world.Entity</text>
<polyline fill="none" stroke="black" points="308.723,-728.5 440.723,-728.5 "/>
<text text-anchor="start" x="316.723" y="-715.5" font-family="Helvetica,sans-Serif" font-size="10.00">&#45; w</text>
<text text-anchor="start" x="316.723" y="-702.5" font-family="Helvetica,sans-Serif" font-size="10.00">&#45; serialVersionUID</text>
<polyline fill="none" stroke="black" points="308.723,-694.5 440.723,-694.5 "/>
<text text-anchor="start" x="316.723" y="-681.5" font-family="Helvetica,sans-Serif" font-size="10.00">+ setWorld()</text>
<text text-anchor="start" x="316.723" y="-668.5" font-family="Helvetica,sans-Serif" font-size="10.00">+ getWorld()</text>
<text text-anchor="start" x="316.723" y="-655.5" font-family="Helvetica,sans-Serif" font-size="10.00">+ hitBy()</text>
<text text-anchor="start" x="316.723" y="-642.5" font-family="Helvetica,sans-Serif" font-size="10.00">+ hitsTo()</text>
<text text-anchor="start" x="316.723" y="-629.5" font-family="Helvetica,sans-Serif" font-size="10.00">+ near()</text>
<text text-anchor="start" x="316.723" y="-616.5" font-family="Helvetica,sans-Serif" font-size="10.00">+ clone()</text>
</a>
</g>
<!-- Node3&#45;&gt;Node2 -->
<g id="edge4" class="edge"><title>Node3&#45;&gt;Node2</title>
<path fill="none" stroke="midnightblue" d="M411.581,-599.224C421.742,-577.233 433.152,-552.537 444.664,-527.621"/>
<polygon fill="none" stroke="midnightblue" points="408.323,-597.931 407.306,-608.477 414.678,-600.867 408.323,-597.931"/>
</g>
<!-- Node4 -->
<g id="node6" class="node"><title>Node4</title>
<polygon fill="none" stroke="#bfbfbf" points="174.223,-1886.5 174.223,-1949.5 241.223,-1949.5 241.223,-1886.5 174.223,-1886.5"/>
<text text-anchor="middle" x="207.723" y="-1936.5" font-family="Helvetica,sans-Serif" font-size="10.00">Serializable</text>
<polyline fill="none" stroke="#bfbfbf" points="174.223,-1928.5 241.223,-1928.5 "/>
<text text-anchor="middle" x="207.723" y="-1915.5" font-family="Helvetica,sans-Serif" font-size="10.00"> </text>
<polyline fill="none" stroke="#bfbfbf" points="174.223,-1907.5 241.223,-1907.5 "/>
<text text-anchor="middle" x="207.723" y="-1894.5" font-family="Helvetica,sans-Serif" font-size="10.00"> </text>
</g>
<!-- Node4&#45;&gt;Node3 -->
<g id="edge6" class="edge"><title>Node4&#45;&gt;Node3</title>
<path fill="none" stroke="midnightblue" d="M164.221,-1907.72C128.113,-1896.63 79.0372,-1875.07 55.7227,-1836 -44.9452,-1667.31 14.8055,-1586.14 55.7227,-1394 109.091,-1143.4 256.821,-874.189 331.016,-749.645"/>
<polygon fill="none" stroke="midnightblue" points="163.45,-1911.14 174.03,-1910.57 165.406,-1904.41 163.45,-1911.14"/>
</g>
<!-- Node4&#45;&gt;Node5 -->
<g id="edge10" class="edge"><title>Node4&#45;&gt;Node5</title>
<path fill="none" stroke="midnightblue" d="M242.136,-1878.31C251.356,-1865.59 260.268,-1850.91 265.723,-1836 333.46,-1650.83 242.743,-1581.5 303.723,-1394 332.78,-1304.65 390.051,-1214.05 435.555,-1150.77"/>
<polygon fill="none" stroke="midnightblue" points="239.285,-1876.28 236.066,-1886.37 244.877,-1880.49 239.285,-1876.28"/>
</g>
<!-- Node6 -->
<g id="node11" class="node"><title>Node6</title>
<a xlink:href="interfacejdungeon_1_1core_1_1world_1_1_vulnerable_observer.html" target="_top" xlink:title="{jdungeon.core.world.VulnerableObserver\n||+ onDeath()\l}">
<polygon fill="none" stroke="black" points="64.7227,-1583.5 64.7227,-1646.5 256.723,-1646.5 256.723,-1583.5 64.7227,-1583.5"/>
<text text-anchor="middle" x="160.723" y="-1633.5" font-family="Helvetica,sans-Serif" font-size="10.00">jdungeon.core.world.VulnerableObserver</text>
<polyline fill="none" stroke="black" points="64.7227,-1625.5 256.723,-1625.5 "/>
<text text-anchor="middle" x="160.723" y="-1612.5" font-family="Helvetica,sans-Serif" font-size="10.00"> </text>
<polyline fill="none" stroke="black" points="64.7227,-1604.5 256.723,-1604.5 "/>
<text text-anchor="start" x="72.7227" y="-1591.5" font-family="Helvetica,sans-Serif" font-size="10.00">+ onDeath()</text>
</a>
</g>
<!-- Node4&#45;&gt;Node6 -->
<g id="edge14" class="edge"><title>Node4&#45;&gt;Node6</title>
<path fill="none" stroke="midnightblue" d="M201.261,-1876.34C191.763,-1815.11 174.234,-1702.1 165.679,-1646.95"/>
<polygon fill="none" stroke="midnightblue" points="197.834,-1877.09 202.826,-1886.43 204.752,-1876.01 197.834,-1877.09"/>
</g>
<!-- Node7 -->
<g id="node14" class="node"><title>Node7</title>
<a xlink:href="classjdungeon_1_1core_1_1world_1_1_board.html" target="_top" xlink:title="{jdungeon.core.world.Board\n|&#45; name\l&#45; cells\l&#45; entities\l&#45; sizeY\l&#45; sizeX\l&#45; serialVersionUID\l&#45; MAX_SIZE\l&#45; MIN_SIZE\l|+ Board()\l+ getSizeY()\l+ getSizeX()\l+ replace()\l+ setName()\l+ getName()\l+ iterator()\l+ filter()\l# neighbours()\l# neighbours()\l# in()\l# in()\l# add()\l# add()\l# remove()\l# contains()\l# move()\l# move()\l# getEntityPos()\l&#45; initMatrix()\l&#45; isValidPoint()\l&#45; isValidPoint()\l&#45; warpTo()\l}">
<polygon fill="none" stroke="black" points="312.723,-1395 312.723,-1835 444.723,-1835 444.723,-1395 312.723,-1395"/>
<text text-anchor="middle" x="378.723" y="-1822" font-family="Helvetica,sans-Serif" font-size="10.00">jdungeon.core.world.Board</text>
<polyline fill="none" stroke="black" points="312.723,-1814 444.723,-1814 "/>
<text text-anchor="start" x="320.723" y="-1801" font-family="Helvetica,sans-Serif" font-size="10.00">&#45; name</text>
<text text-anchor="start" x="320.723" y="-1788" font-family="Helvetica,sans-Serif" font-size="10.00">&#45; cells</text>
<text text-anchor="start" x="320.723" y="-1775" font-family="Helvetica,sans-Serif" font-size="10.00">&#45; entities</text>
<text text-anchor="start" x="320.723" y="-1762" font-family="Helvetica,sans-Serif" font-size="10.00">&#45; sizeY</text>
<text text-anchor="start" x="320.723" y="-1749" font-family="Helvetica,sans-Serif" font-size="10.00">&#45; sizeX</text>
<text text-anchor="start" x="320.723" y="-1736" font-family="Helvetica,sans-Serif" font-size="10.00">&#45; serialVersionUID</text>
<text text-anchor="start" x="320.723" y="-1723" font-family="Helvetica,sans-Serif" font-size="10.00">&#45; MAX_SIZE</text>
<text text-anchor="start" x="320.723" y="-1710" font-family="Helvetica,sans-Serif" font-size="10.00">&#45; MIN_SIZE</text>
<polyline fill="none" stroke="black" points="312.723,-1702 444.723,-1702 "/>
<text text-anchor="start" x="320.723" y="-1689" font-family="Helvetica,sans-Serif" font-size="10.00">+ Board()</text>
<text text-anchor="start" x="320.723" y="-1676" font-family="Helvetica,sans-Serif" font-size="10.00">+ getSizeY()</text>
<text text-anchor="start" x="320.723" y="-1663" font-family="Helvetica,sans-Serif" font-size="10.00">+ getSizeX()</text>
<text text-anchor="start" x="320.723" y="-1650" font-family="Helvetica,sans-Serif" font-size="10.00">+ replace()</text>
<text text-anchor="start" x="320.723" y="-1637" font-family="Helvetica,sans-Serif" font-size="10.00">+ setName()</text>
<text text-anchor="start" x="320.723" y="-1624" font-family="Helvetica,sans-Serif" font-size="10.00">+ getName()</text>
<text text-anchor="start" x="320.723" y="-1611" font-family="Helvetica,sans-Serif" font-size="10.00">+ iterator()</text>
<text text-anchor="start" x="320.723" y="-1598" font-family="Helvetica,sans-Serif" font-size="10.00">+ filter()</text>
<text text-anchor="start" x="320.723" y="-1585" font-family="Helvetica,sans-Serif" font-size="10.00"># neighbours()</text>
<text text-anchor="start" x="320.723" y="-1572" font-family="Helvetica,sans-Serif" font-size="10.00"># neighbours()</text>
<text text-anchor="start" x="320.723" y="-1559" font-family="Helvetica,sans-Serif" font-size="10.00"># in()</text>
<text text-anchor="start" x="320.723" y="-1546" font-family="Helvetica,sans-Serif" font-size="10.00"># in()</text>
<text text-anchor="start" x="320.723" y="-1533" font-family="Helvetica,sans-Serif" font-size="10.00"># add()</text>
<text text-anchor="start" x="320.723" y="-1520" font-family="Helvetica,sans-Serif" font-size="10.00"># add()</text>
<text text-anchor="start" x="320.723" y="-1507" font-family="Helvetica,sans-Serif" font-size="10.00"># remove()</text>
<text text-anchor="start" x="320.723" y="-1494" font-family="Helvetica,sans-Serif" font-size="10.00"># contains()</text>
<text text-anchor="start" x="320.723" y="-1481" font-family="Helvetica,sans-Serif" font-size="10.00"># move()</text>
<text text-anchor="start" x="320.723" y="-1468" font-family="Helvetica,sans-Serif" font-size="10.00"># move()</text>
<text text-anchor="start" x="320.723" y="-1455" font-family="Helvetica,sans-Serif" font-size="10.00"># getEntityPos()</text>
<text text-anchor="start" x="320.723" y="-1442" font-family="Helvetica,sans-Serif" font-size="10.00">&#45; initMatrix()</text>
<text text-anchor="start" x="320.723" y="-1429" font-family="Helvetica,sans-Serif" font-size="10.00">&#45; isValidPoint()</text>
<text text-anchor="start" x="320.723" y="-1416" font-family="Helvetica,sans-Serif" font-size="10.00">&#45; isValidPoint()</text>
<text text-anchor="start" x="320.723" y="-1403" font-family="Helvetica,sans-Serif" font-size="10.00">&#45; warpTo()</text>
</a>
</g>
<!-- Node4&#45;&gt;Node7 -->
<g id="edge18" class="edge"><title>Node4&#45;&gt;Node7</title>
<path fill="none" stroke="midnightblue" d="M250.627,-1902.65C267.677,-1894.65 286.178,-1883.28 298.723,-1868 307.053,-1857.85 314.519,-1846.83 321.212,-1835.25"/>
<polygon fill="none" stroke="midnightblue" points="249.082,-1899.5 241.351,-1906.75 251.912,-1905.91 249.082,-1899.5"/>
</g>
<!-- Node5&#45;&gt;Node3 -->
<g id="edge8" class="edge"><title>Node5&#45;&gt;Node3</title>
<path fill="none" stroke="#9a32cd" stroke-dasharray="5,2" d="M432.534,-855.165C420.055,-817.14 407.872,-780.014 397.933,-749.726"/>
<polygon fill="#9a32cd" stroke="#9a32cd" points="435.712,-864.849 428.318,-856.75 434.153,-860.098 432.594,-855.347 432.594,-855.347 432.594,-855.347 434.153,-860.098 436.869,-853.944 435.712,-864.849 435.712,-864.849"/>
<text text-anchor="middle" x="408.723" y="-772.5" font-family="Helvetica,sans-Serif" font-size="10.00">w</text>
</g>
<!-- Node6&#45;&gt;Node5 -->
<g id="edge12" class="edge"><title>Node6&#45;&gt;Node5</title>
<path fill="none" stroke="#9a32cd" stroke-dasharray="5,2" d="M159.491,-1572.84C159.636,-1518.28 165.923,-1421.7 203.723,-1350 258.465,-1246.16 365.634,-1158.66 435.421,-1109.28"/>
<polygon fill="#9a32cd" stroke="#9a32cd" points="159.536,-1583.18 154.992,-1573.2 159.514,-1578.18 159.492,-1573.18 159.492,-1573.18 159.492,-1573.18 159.514,-1578.18 163.992,-1573.16 159.536,-1583.18 159.536,-1583.18"/>
<text text-anchor="middle" x="237.223" y="-1367" font-family="Helvetica,sans-Serif" font-size="10.00">bossObserver</text>
<text text-anchor="middle" x="237.223" y="-1354" font-family="Helvetica,sans-Serif" font-size="10.00">playerObserver</text>
</g>
<!-- Node7&#45;&gt;Node5 -->
<g id="edge16" class="edge"><title>Node7&#45;&gt;Node5</title>
<path fill="none" stroke="#9a32cd" stroke-dasharray="5,2" d="M430.336,-1384.63C434.243,-1367.19 438.205,-1349.51 442.156,-1331.87"/>
<polygon fill="#9a32cd" stroke="#9a32cd" points="428.043,-1394.86 425.838,-1384.12 429.136,-1389.98 430.229,-1385.11 430.229,-1385.11 430.229,-1385.11 429.136,-1389.98 434.62,-1386.09 428.043,-1394.86 428.043,-1394.86"/>
<text text-anchor="middle" x="448.223" y="-1360.5" font-family="Helvetica,sans-Serif" font-size="10.00">board</text>
</g>
<!-- Node8 -->
<g id="node17" class="node"><title>Node8</title>
<polygon fill="none" stroke="#bfbfbf" points="304.223,-1886.5 304.223,-1949.5 411.223,-1949.5 411.223,-1886.5 304.223,-1886.5"/>
<text text-anchor="middle" x="357.723" y="-1936.5" font-family="Helvetica,sans-Serif" font-size="10.00">Map&lt; Entity, Point &gt;</text>
<polyline fill="none" stroke="#bfbfbf" points="304.223,-1928.5 411.223,-1928.5 "/>
<text text-anchor="middle" x="357.723" y="-1915.5" font-family="Helvetica,sans-Serif" font-size="10.00"> </text>
<polyline fill="none" stroke="#bfbfbf" points="304.223,-1907.5 411.223,-1907.5 "/>
<text text-anchor="middle" x="357.723" y="-1894.5" font-family="Helvetica,sans-Serif" font-size="10.00"> </text>
</g>
<!-- Node8&#45;&gt;Node7 -->
<g id="edge20" class="edge"><title>Node8&#45;&gt;Node7</title>
<path fill="none" stroke="#9a32cd" stroke-dasharray="5,2" d="M360.606,-1876.4C361.44,-1864.37 362.412,-1850.34 363.466,-1835.14"/>
<polygon fill="#9a32cd" stroke="#9a32cd" points="359.911,-1886.43 356.113,-1876.14 360.256,-1881.44 360.602,-1876.46 360.602,-1876.46 360.602,-1876.46 360.256,-1881.44 365.091,-1876.77 359.911,-1886.43 359.911,-1886.43"/>
<text text-anchor="middle" x="378.723" y="-1858.5" font-family="Helvetica,sans-Serif" font-size="10.00">entities</text>
</g>
<!-- Node9 -->
<g id="node19" class="node"><title>Node9</title>
<polygon fill="none" stroke="#bfbfbf" points="428.223,-1886.5 428.223,-1949.5 503.223,-1949.5 503.223,-1886.5 428.223,-1886.5"/>
<text text-anchor="middle" x="465.723" y="-1936.5" font-family="Helvetica,sans-Serif" font-size="10.00">Set&lt; Entity &gt;</text>
<polyline fill="none" stroke="#bfbfbf" points="428.223,-1928.5 503.223,-1928.5 "/>
<text text-anchor="middle" x="465.723" y="-1915.5" font-family="Helvetica,sans-Serif" font-size="10.00"> </text>
<polyline fill="none" stroke="#bfbfbf" points="428.223,-1907.5 503.223,-1907.5 "/>
<text text-anchor="middle" x="465.723" y="-1894.5" font-family="Helvetica,sans-Serif" font-size="10.00"> </text>
</g>
<!-- Node9&#45;&gt;Node7 -->
<g id="edge22" class="edge"><title>Node9&#45;&gt;Node7</title>
<path fill="none" stroke="#9a32cd" stroke-dasharray="5,2" d="M453.882,-1876.76C450.405,-1864.65 446.339,-1850.49 441.931,-1835.14"/>
<polygon fill="#9a32cd" stroke="#9a32cd" points="456.658,-1886.43 449.573,-1878.06 455.278,-1881.63 453.899,-1876.82 453.899,-1876.82 453.899,-1876.82 455.278,-1881.63 458.224,-1875.58 456.658,-1886.43 456.658,-1886.43"/>
<text text-anchor="middle" x="461.223" y="-1858.5" font-family="Helvetica,sans-Serif" font-size="10.00">cells</text>
</g>
<!-- Node10&#45;&gt;Node5 -->
<g id="edge24" class="edge"><title>Node10&#45;&gt;Node5</title>
<path fill="none" stroke="#9a32cd" stroke-dasharray="5,2" d="M603.214,-139.184C604.251,-148.86 605.135,-158.655 605.723,-168 612.847,-281.337 614.174,-674.597 601.723,-750 594.199,-795.561 581.566,-843.61 567.765,-888.11"/>
<polygon fill="#9a32cd" stroke="#9a32cd" points="602.085,-129.167 607.677,-138.6 602.645,-134.135 603.205,-139.104 603.205,-139.104 603.205,-139.104 602.645,-134.135 598.734,-139.608 602.085,-129.167 602.085,-129.167"/>
<text text-anchor="middle" x="620.723" y="-580.5" font-family="Helvetica,sans-Serif" font-size="10.00">boss</text>
</g>
<!-- Node11 -->
<g id="node24" class="node"><title>Node11</title>
<polygon fill="none" stroke="#bfbfbf" points="462.723,-1583.5 462.723,-1646.5 570.723,-1646.5 570.723,-1583.5 462.723,-1583.5"/>
<text text-anchor="middle" x="516.723" y="-1633.5" font-family="Helvetica,sans-Serif" font-size="10.00">Set&lt; MapObserver &gt;</text>
<polyline fill="none" stroke="#bfbfbf" points="462.723,-1625.5 570.723,-1625.5 "/>
<text text-anchor="middle" x="516.723" y="-1612.5" font-family="Helvetica,sans-Serif" font-size="10.00"> </text>
<polyline fill="none" stroke="#bfbfbf" points="462.723,-1604.5 570.723,-1604.5 "/>
<text text-anchor="middle" x="516.723" y="-1591.5" font-family="Helvetica,sans-Serif" font-size="10.00"> </text>
</g>
<!-- Node11&#45;&gt;Node5 -->
<g id="edge28" class="edge"><title>Node11&#45;&gt;Node5</title>
<path fill="none" stroke="#9a32cd" stroke-dasharray="5,2" d="M515.57,-1572.81C514.128,-1520.03 511.536,-1425.16 508.981,-1331.67"/>
<polygon fill="#9a32cd" stroke="#9a32cd" points="515.851,-1583.11 511.08,-1573.24 515.715,-1578.11 515.578,-1573.11 515.578,-1573.11 515.578,-1573.11 515.715,-1578.11 520.077,-1572.99 515.851,-1583.11 515.851,-1583.11"/>
<text text-anchor="middle" x="531.223" y="-1360.5" font-family="Helvetica,sans-Serif" font-size="10.00">observers</text>
</g>
<!-- Node12 -->
<g id="node27" class="node"><title>Node12</title>
<polygon fill="none" stroke="#bfbfbf" points="588.223,-1583.5 588.223,-1646.5 683.223,-1646.5 683.223,-1583.5 588.223,-1583.5"/>
<text text-anchor="middle" x="635.723" y="-1633.5" font-family="Helvetica,sans-Serif" font-size="10.00">Set&lt; Vulnerable &gt;</text>
<polyline fill="none" stroke="#bfbfbf" points="588.223,-1625.5 683.223,-1625.5 "/>
<text text-anchor="middle" x="635.723" y="-1612.5" font-family="Helvetica,sans-Serif" font-size="10.00"> </text>
<polyline fill="none" stroke="#bfbfbf" points="588.223,-1604.5 683.223,-1604.5 "/>
<text text-anchor="middle" x="635.723" y="-1591.5" font-family="Helvetica,sans-Serif" font-size="10.00"> </text>
</g>
<!-- Node12&#45;&gt;Node5 -->
<g id="edge32" class="edge"><title>Node12&#45;&gt;Node5</title>
<path fill="none" stroke="#9a32cd" stroke-dasharray="5,2" d="M625.507,-1573.14C612.639,-1520.43 589.435,-1425.36 566.567,-1331.67"/>
<polygon fill="#9a32cd" stroke="#9a32cd" points="627.939,-1583.11 621.196,-1574.46 626.753,-1578.25 625.568,-1573.4 625.568,-1573.4 625.568,-1573.4 626.753,-1578.25 629.94,-1572.33 627.939,-1583.11 627.939,-1583.11"/>
<text text-anchor="middle" x="601.723" y="-1360.5" font-family="Helvetica,sans-Serif" font-size="10.00">hurtEntities</text>
</g>
<!-- Node13 -->
<g id="node29" class="node"><title>Node13</title>
<polygon fill="none" stroke="#bfbfbf" points="458.223,-647.5 458.223,-710.5 593.223,-710.5 593.223,-647.5 458.223,-647.5"/>
<text text-anchor="middle" x="525.723" y="-697.5" font-family="Helvetica,sans-Serif" font-size="10.00">Set&lt; VulnerableObserver &gt;</text>
<polyline fill="none" stroke="#bfbfbf" points="458.223,-689.5 593.223,-689.5 "/>
<text text-anchor="middle" x="525.723" y="-676.5" font-family="Helvetica,sans-Serif" font-size="10.00"> </text>
<polyline fill="none" stroke="#bfbfbf" points="458.223,-668.5 593.223,-668.5 "/>
<text text-anchor="middle" x="525.723" y="-655.5" font-family="Helvetica,sans-Serif" font-size="10.00"> </text>
</g>
<!-- Node13&#45;&gt;Node2 -->
<g id="edge34" class="edge"><title>Node13&#45;&gt;Node2</title>
<path fill="none" stroke="#9a32cd" stroke-dasharray="5,2" d="M525.061,-637.147C524.717,-615.45 524.271,-587.226 523.795,-557.155"/>
<polygon fill="#9a32cd" stroke="#9a32cd" points="525.22,-647.254 520.563,-637.326 525.141,-642.255 525.062,-637.255 525.062,-637.255 525.062,-637.255 525.141,-642.255 529.562,-637.184 525.22,-647.254 525.22,-647.254"/>
<text text-anchor="middle" x="545.223" y="-580.5" font-family="Helvetica,sans-Serif" font-size="10.00">observers</text>
</g>
</g>
</svg>
