<?xml version="1.0" encoding="UTF-8" standalone="no"?>
<!DOCTYPE svg PUBLIC "-//W3C//DTD SVG 1.1//EN"
 "http://www.w3.org/Graphics/SVG/1.1/DTD/svg11.dtd">
<!-- Generated by graphviz version 2.26.3 (20100126.1600)
 -->
<!-- Title: G Pages: 1 -->
<svg width="162pt" height="200pt"
 viewBox="0.00 0.00 162.00 200.00" xmlns="http://www.w3.org/2000/svg" xmlns:xlink="http://www.w3.org/1999/xlink">
<g id="graph1" class="graph" transform="scale(1 1) rotate(0) translate(4 196)">
<title>G</title>
<!-- Node1 -->
<g id="node1" class="node"><title>Node1</title>
<polygon fill="#bfbfbf" stroke="black" points="0,-1 0,-77 154,-77 154,-1 0,-1"/>
<text text-anchor="middle" x="77" y="-64" font-family="Helvetica,sans-Serif" font-size="10.00">jdungeon.frontend.BasicImages</text>
<polyline fill="none" stroke="black" points="0,-56 154,-56 "/>
<text text-anchor="start" x="8" y="-43" font-family="Helvetica,sans-Serif" font-size="10.00">&#45; map</text>
<polyline fill="none" stroke="black" points="0,-35 154,-35 "/>
<text text-anchor="start" x="8" y="-22" font-family="Helvetica,sans-Serif" font-size="10.00">+ BasicImages()</text>
<text text-anchor="start" x="8" y="-9" font-family="Helvetica,sans-Serif" font-size="10.00">+ GiveImage()</text>
</g>
<!-- Node2 -->
<g id="node2" class="node"><title>Node2</title>
<polygon fill="none" stroke="#bfbfbf" points="9.5,-128.5 9.5,-191.5 144.5,-191.5 144.5,-128.5 9.5,-128.5"/>
<text text-anchor="middle" x="77" y="-178.5" font-family="Helvetica,sans-Serif" font-size="10.00">HashMap&lt; String, Image &gt;</text>
<polyline fill="none" stroke="#bfbfbf" points="9.5,-170.5 144.5,-170.5 "/>
<text text-anchor="middle" x="77" y="-157.5" font-family="Helvetica,sans-Serif" font-size="10.00"> </text>
<polyline fill="none" stroke="#bfbfbf" points="9.5,-149.5 144.5,-149.5 "/>
<text text-anchor="middle" x="77" y="-136.5" font-family="Helvetica,sans-Serif" font-size="10.00"> </text>
</g>
<!-- Node2&#45;&gt;Node1 -->
<g id="edge2" class="edge"><title>Node2&#45;&gt;Node1</title>
<path fill="none" stroke="#9a32cd" stroke-dasharray="5,2" d="M77,-117.892C77,-104.608 77,-90.0181 77,-77.0361"/>
<polygon fill="#9a32cd" stroke="#9a32cd" points="77,-128.209 72.5001,-118.209 77,-123.209 77.0001,-118.209 77.0001,-118.209 77.0001,-118.209 77,-123.209 81.5001,-118.209 77,-128.209 77,-128.209"/>
<text text-anchor="middle" x="86.5" y="-100.5" font-family="Helvetica,sans-Serif" font-size="10.00">map</text>
</g>
</g>
</svg>
