<?xml version="1.0" encoding="UTF-8" standalone="no"?>
<!DOCTYPE svg PUBLIC "-//W3C//DTD SVG 1.1//EN"
 "http://www.w3.org/Graphics/SVG/1.1/DTD/svg11.dtd">
<!-- Generated by graphviz version 2.26.3 (20100126.1600)
 -->
<!-- Title: G Pages: 1 -->
<svg width="949pt" height="1932pt"
 viewBox="0.00 0.00 949.00 1932.00" xmlns="http://www.w3.org/2000/svg" xmlns:xlink="http://www.w3.org/1999/xlink">
<g id="graph1" class="graph" transform="scale(1 1) rotate(0) translate(4 1928)">
<title>G</title>
<!-- Node1 -->
<g id="node1" class="node"><title>Node1</title>
<polygon fill="#bfbfbf" stroke="black" points="235,-1022 235,-1124 399,-1124 399,-1022 235,-1022"/>
<text text-anchor="middle" x="317" y="-1111" font-family="Helvetica,sans-Serif" font-size="10.00">jdungeon.core.world.scenery.Wall</text>
<polyline fill="none" stroke="black" points="235,-1103 399,-1103 "/>
<text text-anchor="start" x="243" y="-1090" font-family="Helvetica,sans-Serif" font-size="10.00">&#45; serialVersionUID</text>
<text text-anchor="start" x="243" y="-1077" font-family="Helvetica,sans-Serif" font-size="10.00">&#45; singleton</text>
<polyline fill="none" stroke="black" points="235,-1069 399,-1069 "/>
<text text-anchor="start" x="243" y="-1056" font-family="Helvetica,sans-Serif" font-size="10.00">+ hitBy()</text>
<text text-anchor="start" x="243" y="-1043" font-family="Helvetica,sans-Serif" font-size="10.00">+ getInstance()</text>
<text text-anchor="start" x="243" y="-1030" font-family="Helvetica,sans-Serif" font-size="10.00">&#45; Wall()</text>
</g>
<!-- Node1&#45;&gt;Node1 -->
<g id="edge38" class="edge"><title>Node1&#45;&gt;Node1</title>
<path fill="none" stroke="#9a32cd" stroke-dasharray="5,2" d="M407.405,-1103.29C413.38,-1096.26 417,-1086.17 417,-1073 417,-1054.68 409.992,-1042.3 399.385,-1035.86"/>
<polygon fill="#9a32cd" stroke="#9a32cd" points="399.385,-1110.14 404.071,-1100.22 403.188,-1106.89 406.992,-1103.65 406.992,-1103.65 406.992,-1103.65 403.188,-1106.89 409.913,-1107.07 399.385,-1110.14 399.385,-1110.14"/>
<text text-anchor="middle" x="437" y="-1070.5" font-family="Helvetica,sans-Serif" font-size="10.00">singleton</text>
</g>
<!-- Node2 -->
<g id="node2" class="node"><title>Node2</title>
<a xlink:href="classjdungeon_1_1core_1_1world_1_1_entity.html" target="_top" xlink:title="{jdungeon.core.world.Entity\n|&#45; w\l&#45; serialVersionUID\l|+ setWorld()\l+ getWorld()\l+ hitBy()\l+ hitsTo()\l+ near()\l+ clone()\l}">
<polygon fill="none" stroke="black" points="293,-1518.5 293,-1659.5 425,-1659.5 425,-1518.5 293,-1518.5"/>
<text text-anchor="middle" x="359" y="-1646.5" font-family="Helvetica,sans-Serif" font-size="10.00">jdungeon.core.world.Entity</text>
<polyline fill="none" stroke="black" points="293,-1638.5 425,-1638.5 "/>
<text text-anchor="start" x="301" y="-1625.5" font-family="Helvetica,sans-Serif" font-size="10.00">&#45; w</text>
<text text-anchor="start" x="301" y="-1612.5" font-family="Helvetica,sans-Serif" font-size="10.00">&#45; serialVersionUID</text>
<polyline fill="none" stroke="black" points="293,-1604.5 425,-1604.5 "/>
<text text-anchor="start" x="301" y="-1591.5" font-family="Helvetica,sans-Serif" font-size="10.00">+ setWorld()</text>
<text text-anchor="start" x="301" y="-1578.5" font-family="Helvetica,sans-Serif" font-size="10.00">+ getWorld()</text>
<text text-anchor="start" x="301" y="-1565.5" font-family="Helvetica,sans-Serif" font-size="10.00">+ hitBy()</text>
<text text-anchor="start" x="301" y="-1552.5" font-family="Helvetica,sans-Serif" font-size="10.00">+ hitsTo()</text>
<text text-anchor="start" x="301" y="-1539.5" font-family="Helvetica,sans-Serif" font-size="10.00">+ near()</text>
<text text-anchor="start" x="301" y="-1526.5" font-family="Helvetica,sans-Serif" font-size="10.00">+ clone()</text>
</a>
</g>
<!-- Node2&#45;&gt;Node1 -->
<g id="edge2" class="edge"><title>Node2&#45;&gt;Node1</title>
<path fill="none" stroke="midnightblue" d="M352.422,-1508.19C343.677,-1400.75 328.476,-1214 321.164,-1124.16"/>
<polygon fill="none" stroke="midnightblue" points="348.948,-1508.65 353.248,-1518.33 355.925,-1508.08 348.948,-1508.65"/>
</g>
<!-- Node10 -->
<g id="node21" class="node"><title>Node10</title>
<a xlink:href="classjdungeon_1_1core_1_1world_1_1_vulnerable.html" target="_top" xlink:title="{jdungeon.core.world.Vulnerable\n|&#45; HP\l&#45; maxHP\l&#45; level\l&#45; strength\l&#45; strengthBonus\l&#45; observers\l&#45; serialVersionUID\l|+ Vulnerable()\l+ getLevel()\l+ getHP()\l+ hitBy()\l+ hitsTo()\l+ heal()\l+ hurtBy()\l+ getStrength()\l+ getRawStrength()\l+ getStrengthBonus()\l+ setStrength()\l+ setStrengthBonus()\l+ setMaxHealth()\l+ getMaxHealth()\l+ setLevel()\l+ awardExperience()\l+ getExperience()\l+ subscribe()\l+ unsubscribe()\l# die()\l}">
<polygon fill="none" stroke="black" points="475,-879 475,-1267 627,-1267 627,-879 475,-879"/>
<text text-anchor="middle" x="551" y="-1254" font-family="Helvetica,sans-Serif" font-size="10.00">jdungeon.core.world.Vulnerable</text>
<polyline fill="none" stroke="black" points="475,-1246 627,-1246 "/>
<text text-anchor="start" x="483" y="-1233" font-family="Helvetica,sans-Serif" font-size="10.00">&#45; HP</text>
<text text-anchor="start" x="483" y="-1220" font-family="Helvetica,sans-Serif" font-size="10.00">&#45; maxHP</text>
<text text-anchor="start" x="483" y="-1207" font-family="Helvetica,sans-Serif" font-size="10.00">&#45; level</text>
<text text-anchor="start" x="483" y="-1194" font-family="Helvetica,sans-Serif" font-size="10.00">&#45; strength</text>
<text text-anchor="start" x="483" y="-1181" font-family="Helvetica,sans-Serif" font-size="10.00">&#45; strengthBonus</text>
<text text-anchor="start" x="483" y="-1168" font-family="Helvetica,sans-Serif" font-size="10.00">&#45; observers</text>
<text text-anchor="start" x="483" y="-1155" font-family="Helvetica,sans-Serif" font-size="10.00">&#45; serialVersionUID</text>
<polyline fill="none" stroke="black" points="475,-1147 627,-1147 "/>
<text text-anchor="start" x="483" y="-1134" font-family="Helvetica,sans-Serif" font-size="10.00">+ Vulnerable()</text>
<text text-anchor="start" x="483" y="-1121" font-family="Helvetica,sans-Serif" font-size="10.00">+ getLevel()</text>
<text text-anchor="start" x="483" y="-1108" font-family="Helvetica,sans-Serif" font-size="10.00">+ getHP()</text>
<text text-anchor="start" x="483" y="-1095" font-family="Helvetica,sans-Serif" font-size="10.00">+ hitBy()</text>
<text text-anchor="start" x="483" y="-1082" font-family="Helvetica,sans-Serif" font-size="10.00">+ hitsTo()</text>
<text text-anchor="start" x="483" y="-1069" font-family="Helvetica,sans-Serif" font-size="10.00">+ heal()</text>
<text text-anchor="start" x="483" y="-1056" font-family="Helvetica,sans-Serif" font-size="10.00">+ hurtBy()</text>
<text text-anchor="start" x="483" y="-1043" font-family="Helvetica,sans-Serif" font-size="10.00">+ getStrength()</text>
<text text-anchor="start" x="483" y="-1030" font-family="Helvetica,sans-Serif" font-size="10.00">+ getRawStrength()</text>
<text text-anchor="start" x="483" y="-1017" font-family="Helvetica,sans-Serif" font-size="10.00">+ getStrengthBonus()</text>
<text text-anchor="start" x="483" y="-1004" font-family="Helvetica,sans-Serif" font-size="10.00">+ setStrength()</text>
<text text-anchor="start" x="483" y="-991" font-family="Helvetica,sans-Serif" font-size="10.00">+ setStrengthBonus()</text>
<text text-anchor="start" x="483" y="-978" font-family="Helvetica,sans-Serif" font-size="10.00">+ setMaxHealth()</text>
<text text-anchor="start" x="483" y="-965" font-family="Helvetica,sans-Serif" font-size="10.00">+ getMaxHealth()</text>
<text text-anchor="start" x="483" y="-952" font-family="Helvetica,sans-Serif" font-size="10.00">+ setLevel()</text>
<text text-anchor="start" x="483" y="-939" font-family="Helvetica,sans-Serif" font-size="10.00">+ awardExperience()</text>
<text text-anchor="start" x="483" y="-926" font-family="Helvetica,sans-Serif" font-size="10.00">+ getExperience()</text>
<text text-anchor="start" x="483" y="-913" font-family="Helvetica,sans-Serif" font-size="10.00">+ subscribe()</text>
<text text-anchor="start" x="483" y="-900" font-family="Helvetica,sans-Serif" font-size="10.00">+ unsubscribe()</text>
<text text-anchor="start" x="483" y="-887" font-family="Helvetica,sans-Serif" font-size="10.00"># die()</text>
</a>
</g>
<!-- Node2&#45;&gt;Node10 -->
<g id="edge26" class="edge"><title>Node2&#45;&gt;Node10</title>
<path fill="none" stroke="midnightblue" d="M388.903,-1508.64C412.899,-1444.15 447.603,-1350.88 478.749,-1267.18"/>
<polygon fill="none" stroke="midnightblue" points="385.501,-1507.74 385.294,-1518.33 392.062,-1510.18 385.501,-1507.74"/>
</g>
<!-- Node3 -->
<g id="node4" class="node"><title>Node3</title>
<polygon fill="none" stroke="#bfbfbf" points="458.5,-1860.5 458.5,-1923.5 525.5,-1923.5 525.5,-1860.5 458.5,-1860.5"/>
<text text-anchor="middle" x="492" y="-1910.5" font-family="Helvetica,sans-Serif" font-size="10.00">Serializable</text>
<polyline fill="none" stroke="#bfbfbf" points="458.5,-1902.5 525.5,-1902.5 "/>
<text text-anchor="middle" x="492" y="-1889.5" font-family="Helvetica,sans-Serif" font-size="10.00"> </text>
<polyline fill="none" stroke="#bfbfbf" points="458.5,-1881.5 525.5,-1881.5 "/>
<text text-anchor="middle" x="492" y="-1868.5" font-family="Helvetica,sans-Serif" font-size="10.00"> </text>
</g>
<!-- Node3&#45;&gt;Node2 -->
<g id="edge4" class="edge"><title>Node3&#45;&gt;Node2</title>
<path fill="none" stroke="midnightblue" d="M474.043,-1851.09C452.513,-1802.04 416.07,-1719.02 389.968,-1659.55"/>
<polygon fill="none" stroke="midnightblue" points="470.919,-1852.68 478.143,-1860.43 477.329,-1849.87 470.919,-1852.68"/>
</g>
<!-- Node4 -->
<g id="node6" class="node"><title>Node4</title>
<a xlink:href="classjdungeon_1_1core_1_1world_1_1_world.html" target="_top" xlink:title="{jdungeon.core.world.World\n|&#45; board\l&#45; player\l&#45; boss\l&#45; observers\l&#45; hurtEntities\l&#45; playerObserver\l&#45; bossObserver\l&#45; sizeX\l&#45; sizeY\l&#45; serialVersionUID\l|+ World()\l+ clone()\l+ getX()\l+ getY()\l+ getHurtEntities()\l+ subscribe()\l+ unsubscribe()\l+ add()\l+ add()\l+ add()\l+ add()\l+ remove()\l+ remove()\l+ getPlayer()\l+ getBoss()\l+ syncEvent()\l+ replace()\l~ addHurtEntity()\l~ removeHurtEntity()\l~ notifyChange()\l~ notifyChange()\l~ notifyChange()\l~ notifyChange()\l~ getEntityInPoint()\l# move()\l# moveDelta()\l# clearView()\l&#45; area()\l}">
<polygon fill="none" stroke="black" points="552,-0.5 552,-531.5 684,-531.5 684,-0.5 552,-0.5"/>
<text text-anchor="middle" x="618" y="-518.5" font-family="Helvetica,sans-Serif" font-size="10.00">jdungeon.core.world.World</text>
<polyline fill="none" stroke="black" points="552,-510.5 684,-510.5 "/>
<text text-anchor="start" x="560" y="-497.5" font-family="Helvetica,sans-Serif" font-size="10.00">&#45; board</text>
<text text-anchor="start" x="560" y="-484.5" font-family="Helvetica,sans-Serif" font-size="10.00">&#45; player</text>
<text text-anchor="start" x="560" y="-471.5" font-family="Helvetica,sans-Serif" font-size="10.00">&#45; boss</text>
<text text-anchor="start" x="560" y="-458.5" font-family="Helvetica,sans-Serif" font-size="10.00">&#45; observers</text>
<text text-anchor="start" x="560" y="-445.5" font-family="Helvetica,sans-Serif" font-size="10.00">&#45; hurtEntities</text>
<text text-anchor="start" x="560" y="-432.5" font-family="Helvetica,sans-Serif" font-size="10.00">&#45; playerObserver</text>
<text text-anchor="start" x="560" y="-419.5" font-family="Helvetica,sans-Serif" font-size="10.00">&#45; bossObserver</text>
<text text-anchor="start" x="560" y="-406.5" font-family="Helvetica,sans-Serif" font-size="10.00">&#45; sizeX</text>
<text text-anchor="start" x="560" y="-393.5" font-family="Helvetica,sans-Serif" font-size="10.00">&#45; sizeY</text>
<text text-anchor="start" x="560" y="-380.5" font-family="Helvetica,sans-Serif" font-size="10.00">&#45; serialVersionUID</text>
<polyline fill="none" stroke="black" points="552,-372.5 684,-372.5 "/>
<text text-anchor="start" x="560" y="-359.5" font-family="Helvetica,sans-Serif" font-size="10.00">+ World()</text>
<text text-anchor="start" x="560" y="-346.5" font-family="Helvetica,sans-Serif" font-size="10.00">+ clone()</text>
<text text-anchor="start" x="560" y="-333.5" font-family="Helvetica,sans-Serif" font-size="10.00">+ getX()</text>
<text text-anchor="start" x="560" y="-320.5" font-family="Helvetica,sans-Serif" font-size="10.00">+ getY()</text>
<text text-anchor="start" x="560" y="-307.5" font-family="Helvetica,sans-Serif" font-size="10.00">+ getHurtEntities()</text>
<text text-anchor="start" x="560" y="-294.5" font-family="Helvetica,sans-Serif" font-size="10.00">+ subscribe()</text>
<text text-anchor="start" x="560" y="-281.5" font-family="Helvetica,sans-Serif" font-size="10.00">+ unsubscribe()</text>
<text text-anchor="start" x="560" y="-268.5" font-family="Helvetica,sans-Serif" font-size="10.00">+ add()</text>
<text text-anchor="start" x="560" y="-255.5" font-family="Helvetica,sans-Serif" font-size="10.00">+ add()</text>
<text text-anchor="start" x="560" y="-242.5" font-family="Helvetica,sans-Serif" font-size="10.00">+ add()</text>
<text text-anchor="start" x="560" y="-229.5" font-family="Helvetica,sans-Serif" font-size="10.00">+ add()</text>
<text text-anchor="start" x="560" y="-216.5" font-family="Helvetica,sans-Serif" font-size="10.00">+ remove()</text>
<text text-anchor="start" x="560" y="-203.5" font-family="Helvetica,sans-Serif" font-size="10.00">+ remove()</text>
<text text-anchor="start" x="560" y="-190.5" font-family="Helvetica,sans-Serif" font-size="10.00">+ getPlayer()</text>
<text text-anchor="start" x="560" y="-177.5" font-family="Helvetica,sans-Serif" font-size="10.00">+ getBoss()</text>
<text text-anchor="start" x="560" y="-164.5" font-family="Helvetica,sans-Serif" font-size="10.00">+ syncEvent()</text>
<text text-anchor="start" x="560" y="-151.5" font-family="Helvetica,sans-Serif" font-size="10.00">+ replace()</text>
<text text-anchor="start" x="560" y="-138.5" font-family="Helvetica,sans-Serif" font-size="10.00">~ addHurtEntity()</text>
<text text-anchor="start" x="560" y="-125.5" font-family="Helvetica,sans-Serif" font-size="10.00">~ removeHurtEntity()</text>
<text text-anchor="start" x="560" y="-112.5" font-family="Helvetica,sans-Serif" font-size="10.00">~ notifyChange()</text>
<text text-anchor="start" x="560" y="-99.5" font-family="Helvetica,sans-Serif" font-size="10.00">~ notifyChange()</text>
<text text-anchor="start" x="560" y="-86.5" font-family="Helvetica,sans-Serif" font-size="10.00">~ notifyChange()</text>
<text text-anchor="start" x="560" y="-73.5" font-family="Helvetica,sans-Serif" font-size="10.00">~ notifyChange()</text>
<text text-anchor="start" x="560" y="-60.5" font-family="Helvetica,sans-Serif" font-size="10.00">~ getEntityInPoint()</text>
<text text-anchor="start" x="560" y="-47.5" font-family="Helvetica,sans-Serif" font-size="10.00"># move()</text>
<text text-anchor="start" x="560" y="-34.5" font-family="Helvetica,sans-Serif" font-size="10.00"># moveDelta()</text>
<text text-anchor="start" x="560" y="-21.5" font-family="Helvetica,sans-Serif" font-size="10.00"># clearView()</text>
<text text-anchor="start" x="560" y="-8.5" font-family="Helvetica,sans-Serif" font-size="10.00">&#45; area()</text>
</a>
</g>
<!-- Node3&#45;&gt;Node4 -->
<g id="edge8" class="edge"><title>Node3&#45;&gt;Node4</title>
<path fill="none" stroke="midnightblue" d="M535.2,-1877.41C566.024,-1864.64 605.655,-1842.9 627,-1810 680.884,-1726.94 655,-1688.01 655,-1589 655,-1589 655,-1589 655,-699 655,-644.772 652.083,-586.862 647.888,-531.613"/>
<polygon fill="none" stroke="midnightblue" points="533.54,-1874.3 525.537,-1881.24 536.123,-1880.81 533.54,-1874.3"/>
</g>
<!-- Node5 -->
<g id="node9" class="node"><title>Node5</title>
<a xlink:href="interfacejdungeon_1_1core_1_1world_1_1_vulnerable_observer.html" target="_top" xlink:title="{jdungeon.core.world.VulnerableObserver\n||+ onDeath()\l}">
<polygon fill="none" stroke="black" points="0,-1286.5 0,-1349.5 192,-1349.5 192,-1286.5 0,-1286.5"/>
<text text-anchor="middle" x="96" y="-1336.5" font-family="Helvetica,sans-Serif" font-size="10.00">jdungeon.core.world.VulnerableObserver</text>
<polyline fill="none" stroke="black" points="0,-1328.5 192,-1328.5 "/>
<text text-anchor="middle" x="96" y="-1315.5" font-family="Helvetica,sans-Serif" font-size="10.00"> </text>
<polyline fill="none" stroke="black" points="0,-1307.5 192,-1307.5 "/>
<text text-anchor="start" x="8" y="-1294.5" font-family="Helvetica,sans-Serif" font-size="10.00">+ onDeath()</text>
</a>
</g>
<!-- Node3&#45;&gt;Node5 -->
<g id="edge12" class="edge"><title>Node3&#45;&gt;Node5</title>
<path fill="none" stroke="midnightblue" d="M448.143,-1885.39C401.625,-1876.2 328.8,-1855.27 284,-1810 150.543,-1675.13 109.919,-1435.66 99.3163,-1349.76"/>
<polygon fill="none" stroke="midnightblue" points="447.749,-1888.87 458.222,-1887.28 449.038,-1881.99 447.749,-1888.87"/>
</g>
<!-- Node6 -->
<g id="node12" class="node"><title>Node6</title>
<a xlink:href="classjdungeon_1_1core_1_1world_1_1_board.html" target="_top" xlink:title="{jdungeon.core.world.Board\n|&#45; name\l&#45; cells\l&#45; entities\l&#45; sizeY\l&#45; sizeX\l&#45; serialVersionUID\l&#45; MAX_SIZE\l&#45; MIN_SIZE\l|+ Board()\l+ getSizeY()\l+ getSizeX()\l+ replace()\l+ setName()\l+ getName()\l+ iterator()\l+ filter()\l# neighbours()\l# neighbours()\l# in()\l# in()\l# add()\l# add()\l# remove()\l# contains()\l# move()\l# move()\l# getEntityPos()\l&#45; initMatrix()\l&#45; isValidPoint()\l&#45; isValidPoint()\l&#45; warpTo()\l}">
<polygon fill="none" stroke="black" points="683,-1369 683,-1809 815,-1809 815,-1369 683,-1369"/>
<text text-anchor="middle" x="749" y="-1796" font-family="Helvetica,sans-Serif" font-size="10.00">jdungeon.core.world.Board</text>
<polyline fill="none" stroke="black" points="683,-1788 815,-1788 "/>
<text text-anchor="start" x="691" y="-1775" font-family="Helvetica,sans-Serif" font-size="10.00">&#45; name</text>
<text text-anchor="start" x="691" y="-1762" font-family="Helvetica,sans-Serif" font-size="10.00">&#45; cells</text>
<text text-anchor="start" x="691" y="-1749" font-family="Helvetica,sans-Serif" font-size="10.00">&#45; entities</text>
<text text-anchor="start" x="691" y="-1736" font-family="Helvetica,sans-Serif" font-size="10.00">&#45; sizeY</text>
<text text-anchor="start" x="691" y="-1723" font-family="Helvetica,sans-Serif" font-size="10.00">&#45; sizeX</text>
<text text-anchor="start" x="691" y="-1710" font-family="Helvetica,sans-Serif" font-size="10.00">&#45; serialVersionUID</text>
<text text-anchor="start" x="691" y="-1697" font-family="Helvetica,sans-Serif" font-size="10.00">&#45; MAX_SIZE</text>
<text text-anchor="start" x="691" y="-1684" font-family="Helvetica,sans-Serif" font-size="10.00">&#45; MIN_SIZE</text>
<polyline fill="none" stroke="black" points="683,-1676 815,-1676 "/>
<text text-anchor="start" x="691" y="-1663" font-family="Helvetica,sans-Serif" font-size="10.00">+ Board()</text>
<text text-anchor="start" x="691" y="-1650" font-family="Helvetica,sans-Serif" font-size="10.00">+ getSizeY()</text>
<text text-anchor="start" x="691" y="-1637" font-family="Helvetica,sans-Serif" font-size="10.00">+ getSizeX()</text>
<text text-anchor="start" x="691" y="-1624" font-family="Helvetica,sans-Serif" font-size="10.00">+ replace()</text>
<text text-anchor="start" x="691" y="-1611" font-family="Helvetica,sans-Serif" font-size="10.00">+ setName()</text>
<text text-anchor="start" x="691" y="-1598" font-family="Helvetica,sans-Serif" font-size="10.00">+ getName()</text>
<text text-anchor="start" x="691" y="-1585" font-family="Helvetica,sans-Serif" font-size="10.00">+ iterator()</text>
<text text-anchor="start" x="691" y="-1572" font-family="Helvetica,sans-Serif" font-size="10.00">+ filter()</text>
<text text-anchor="start" x="691" y="-1559" font-family="Helvetica,sans-Serif" font-size="10.00"># neighbours()</text>
<text text-anchor="start" x="691" y="-1546" font-family="Helvetica,sans-Serif" font-size="10.00"># neighbours()</text>
<text text-anchor="start" x="691" y="-1533" font-family="Helvetica,sans-Serif" font-size="10.00"># in()</text>
<text text-anchor="start" x="691" y="-1520" font-family="Helvetica,sans-Serif" font-size="10.00"># in()</text>
<text text-anchor="start" x="691" y="-1507" font-family="Helvetica,sans-Serif" font-size="10.00"># add()</text>
<text text-anchor="start" x="691" y="-1494" font-family="Helvetica,sans-Serif" font-size="10.00"># add()</text>
<text text-anchor="start" x="691" y="-1481" font-family="Helvetica,sans-Serif" font-size="10.00"># remove()</text>
<text text-anchor="start" x="691" y="-1468" font-family="Helvetica,sans-Serif" font-size="10.00"># contains()</text>
<text text-anchor="start" x="691" y="-1455" font-family="Helvetica,sans-Serif" font-size="10.00"># move()</text>
<text text-anchor="start" x="691" y="-1442" font-family="Helvetica,sans-Serif" font-size="10.00"># move()</text>
<text text-anchor="start" x="691" y="-1429" font-family="Helvetica,sans-Serif" font-size="10.00"># getEntityPos()</text>
<text text-anchor="start" x="691" y="-1416" font-family="Helvetica,sans-Serif" font-size="10.00">&#45; initMatrix()</text>
<text text-anchor="start" x="691" y="-1403" font-family="Helvetica,sans-Serif" font-size="10.00">&#45; isValidPoint()</text>
<text text-anchor="start" x="691" y="-1390" font-family="Helvetica,sans-Serif" font-size="10.00">&#45; isValidPoint()</text>
<text text-anchor="start" x="691" y="-1377" font-family="Helvetica,sans-Serif" font-size="10.00">&#45; warpTo()</text>
</a>
</g>
<!-- Node3&#45;&gt;Node6 -->
<g id="edge16" class="edge"><title>Node3&#45;&gt;Node6</title>
<path fill="none" stroke="midnightblue" d="M535.621,-1884.57C581.624,-1875.9 650.031,-1860.39 669,-1842 679.17,-1832.14 688.052,-1821 695.807,-1809.02"/>
<polygon fill="none" stroke="midnightblue" points="534.799,-1881.16 525.599,-1886.41 536.068,-1888.04 534.799,-1881.16"/>
</g>
<!-- Node4&#45;&gt;Node2 -->
<g id="edge6" class="edge"><title>Node4&#45;&gt;Node2</title>
<path fill="none" stroke="#9a32cd" stroke-dasharray="5,2" d="M543.134,-309.576C459.748,-362.508 328.25,-460.04 264,-582 121.676,-852.16 166.413,-968.514 226,-1268 243.951,-1358.22 287.712,-1454.87 320.162,-1518.26"/>
<polygon fill="#9a32cd" stroke="#9a32cd" points="551.801,-304.125 545.732,-313.258 547.568,-306.787 543.336,-309.449 543.336,-309.449 543.336,-309.449 547.568,-306.787 540.94,-305.64 551.801,-304.125 551.801,-304.125"/>
<text text-anchor="middle" x="179" y="-844.5" font-family="Helvetica,sans-Serif" font-size="10.00">w</text>
</g>
<!-- Node5&#45;&gt;Node4 -->
<g id="edge10" class="edge"><title>Node5&#45;&gt;Node4</title>
<path fill="none" stroke="#9a32cd" stroke-dasharray="5,2" d="M88.6256,-1276.29C69.1275,-1152.36 28.3621,-780.639 193,-550 285.548,-420.35 457.26,-332.888 551.62,-292.193"/>
<polygon fill="#9a32cd" stroke="#9a32cd" points="90.2706,-1286.48 84.2351,-1277.33 89.4741,-1281.55 88.6776,-1276.61 88.6776,-1276.61 88.6776,-1276.61 89.4741,-1281.55 93.1201,-1275.9 90.2706,-1286.48 90.2706,-1286.48"/>
<text text-anchor="middle" x="117.5" y="-851" font-family="Helvetica,sans-Serif" font-size="10.00">bossObserver</text>
<text text-anchor="middle" x="117.5" y="-838" font-family="Helvetica,sans-Serif" font-size="10.00">playerObserver</text>
</g>
<!-- Node6&#45;&gt;Node4 -->
<g id="edge14" class="edge"><title>Node6&#45;&gt;Node4</title>
<path fill="none" stroke="#9a32cd" stroke-dasharray="5,2" d="M737.94,-1358.65C726.227,-1147.66 704.441,-826.98 669,-550 668.221,-543.913 667.4,-537.758 666.543,-531.556"/>
<polygon fill="#9a32cd" stroke="#9a32cd" points="738.508,-1368.93 733.463,-1359.19 738.232,-1363.94 737.956,-1358.94 737.956,-1358.94 737.956,-1358.94 738.232,-1363.94 742.45,-1358.7 738.508,-1368.93 738.508,-1368.93"/>
<text text-anchor="middle" x="713.5" y="-844.5" font-family="Helvetica,sans-Serif" font-size="10.00">board</text>
</g>
<!-- Node7 -->
<g id="node15" class="node"><title>Node7</title>
<polygon fill="none" stroke="#bfbfbf" points="674.5,-1860.5 674.5,-1923.5 781.5,-1923.5 781.5,-1860.5 674.5,-1860.5"/>
<text text-anchor="middle" x="728" y="-1910.5" font-family="Helvetica,sans-Serif" font-size="10.00">Map&lt; Entity, Point &gt;</text>
<polyline fill="none" stroke="#bfbfbf" points="674.5,-1902.5 781.5,-1902.5 "/>
<text text-anchor="middle" x="728" y="-1889.5" font-family="Helvetica,sans-Serif" font-size="10.00"> </text>
<polyline fill="none" stroke="#bfbfbf" points="674.5,-1881.5 781.5,-1881.5 "/>
<text text-anchor="middle" x="728" y="-1868.5" font-family="Helvetica,sans-Serif" font-size="10.00"> </text>
</g>
<!-- Node7&#45;&gt;Node6 -->
<g id="edge18" class="edge"><title>Node7&#45;&gt;Node6</title>
<path fill="none" stroke="#9a32cd" stroke-dasharray="5,2" d="M730.883,-1850.4C731.717,-1838.37 732.69,-1824.34 733.743,-1809.14"/>
<polygon fill="#9a32cd" stroke="#9a32cd" points="730.188,-1860.43 726.39,-1850.14 730.534,-1855.44 730.879,-1850.46 730.879,-1850.46 730.879,-1850.46 730.534,-1855.44 735.369,-1850.77 730.188,-1860.43 730.188,-1860.43"/>
<text text-anchor="middle" x="748" y="-1832.5" font-family="Helvetica,sans-Serif" font-size="10.00">entities</text>
</g>
<!-- Node8 -->
<g id="node17" class="node"><title>Node8</title>
<polygon fill="none" stroke="#bfbfbf" points="798.5,-1860.5 798.5,-1923.5 873.5,-1923.5 873.5,-1860.5 798.5,-1860.5"/>
<text text-anchor="middle" x="836" y="-1910.5" font-family="Helvetica,sans-Serif" font-size="10.00">Set&lt; Entity &gt;</text>
<polyline fill="none" stroke="#bfbfbf" points="798.5,-1902.5 873.5,-1902.5 "/>
<text text-anchor="middle" x="836" y="-1889.5" font-family="Helvetica,sans-Serif" font-size="10.00"> </text>
<polyline fill="none" stroke="#bfbfbf" points="798.5,-1881.5 873.5,-1881.5 "/>
<text text-anchor="middle" x="836" y="-1868.5" font-family="Helvetica,sans-Serif" font-size="10.00"> </text>
</g>
<!-- Node8&#45;&gt;Node6 -->
<g id="edge20" class="edge"><title>Node8&#45;&gt;Node6</title>
<path fill="none" stroke="#9a32cd" stroke-dasharray="5,2" d="M824.159,-1850.76C820.682,-1838.65 816.616,-1824.49 812.208,-1809.14"/>
<polygon fill="#9a32cd" stroke="#9a32cd" points="826.936,-1860.43 819.851,-1852.06 825.556,-1855.63 824.176,-1850.82 824.176,-1850.82 824.176,-1850.82 825.556,-1855.63 828.501,-1849.58 826.936,-1860.43 826.936,-1860.43"/>
<text text-anchor="middle" x="831.5" y="-1832.5" font-family="Helvetica,sans-Serif" font-size="10.00">cells</text>
</g>
<!-- Node9 -->
<g id="node19" class="node"><title>Node9</title>
<a xlink:href="classjdungeon_1_1core_1_1world_1_1creatures_1_1_monster.html" target="_top" xlink:title="{jdungeon.core.world.creatures.Monster\n|&#45; serialVersionUID\l|+ Monster()\l+ awardExperience()\l+ getExperience()\l+ hurtBy()\l&#45; computeHealth()\l&#45; computeStrength()\l}">
<polygon fill="none" stroke="black" points="272.5,-635 272.5,-763 457.5,-763 457.5,-635 272.5,-635"/>
<text text-anchor="middle" x="365" y="-750" font-family="Helvetica,sans-Serif" font-size="10.00">jdungeon.core.world.creatures.Monster</text>
<polyline fill="none" stroke="black" points="272.5,-742 457.5,-742 "/>
<text text-anchor="start" x="280.5" y="-729" font-family="Helvetica,sans-Serif" font-size="10.00">&#45; serialVersionUID</text>
<polyline fill="none" stroke="black" points="272.5,-721 457.5,-721 "/>
<text text-anchor="start" x="280.5" y="-708" font-family="Helvetica,sans-Serif" font-size="10.00">+ Monster()</text>
<text text-anchor="start" x="280.5" y="-695" font-family="Helvetica,sans-Serif" font-size="10.00">+ awardExperience()</text>
<text text-anchor="start" x="280.5" y="-682" font-family="Helvetica,sans-Serif" font-size="10.00">+ getExperience()</text>
<text text-anchor="start" x="280.5" y="-669" font-family="Helvetica,sans-Serif" font-size="10.00">+ hurtBy()</text>
<text text-anchor="start" x="280.5" y="-656" font-family="Helvetica,sans-Serif" font-size="10.00">&#45; computeHealth()</text>
<text text-anchor="start" x="280.5" y="-643" font-family="Helvetica,sans-Serif" font-size="10.00">&#45; computeStrength()</text>
</a>
</g>
<!-- Node9&#45;&gt;Node4 -->
<g id="edge22" class="edge"><title>Node9&#45;&gt;Node4</title>
<path fill="none" stroke="#9a32cd" stroke-dasharray="5,2" d="M407.795,-625.759C447.242,-558.246 506.393,-457.012 551.908,-379.113"/>
<polygon fill="#9a32cd" stroke="#9a32cd" points="402.603,-634.643 403.763,-623.739 405.126,-630.326 407.648,-626.009 407.648,-626.009 407.648,-626.009 405.126,-630.326 411.534,-628.279 402.603,-634.643 402.603,-634.643"/>
<text text-anchor="middle" x="457" y="-554.5" font-family="Helvetica,sans-Serif" font-size="10.00">boss</text>
</g>
<!-- Node10&#45;&gt;Node9 -->
<g id="edge24" class="edge"><title>Node10&#45;&gt;Node9</title>
<path fill="none" stroke="midnightblue" d="M470.449,-887.014C468.966,-883.981 467.483,-880.975 466,-878 446.66,-839.199 422.928,-796.908 403.328,-763.18"/>
<polygon fill="none" stroke="midnightblue" points="467.381,-888.71 474.891,-896.183 473.681,-885.658 467.381,-888.71"/>
</g>
<!-- Node13 -->
<g id="node28" class="node"><title>Node13</title>
<a xlink:href="classjdungeon_1_1core_1_1world_1_1_player.html" target="_top" xlink:title="{jdungeon.core.world.Player\n|&#45; experience\l&#45; name\l&#45; serialVersionUID\l|+ Player()\l+ setWorld()\l+ getName()\l+ setName()\l+ getExperienceForNextLevel()\l+ getExperience()\l+ moveLeft()\l+ moveRight()\l+ moveUp()\l+ moveDown()\l+ awardExperience()\l&#45; move()\l}">
<polygon fill="none" stroke="black" points="475,-583 475,-815 627,-815 627,-583 475,-583"/>
<text text-anchor="middle" x="551" y="-802" font-family="Helvetica,sans-Serif" font-size="10.00">jdungeon.core.world.Player</text>
<polyline fill="none" stroke="black" points="475,-794 627,-794 "/>
<text text-anchor="start" x="483" y="-781" font-family="Helvetica,sans-Serif" font-size="10.00">&#45; experience</text>
<text text-anchor="start" x="483" y="-768" font-family="Helvetica,sans-Serif" font-size="10.00">&#45; name</text>
<text text-anchor="start" x="483" y="-755" font-family="Helvetica,sans-Serif" font-size="10.00">&#45; serialVersionUID</text>
<polyline fill="none" stroke="black" points="475,-747 627,-747 "/>
<text text-anchor="start" x="483" y="-734" font-family="Helvetica,sans-Serif" font-size="10.00">+ Player()</text>
<text text-anchor="start" x="483" y="-721" font-family="Helvetica,sans-Serif" font-size="10.00">+ setWorld()</text>
<text text-anchor="start" x="483" y="-708" font-family="Helvetica,sans-Serif" font-size="10.00">+ getName()</text>
<text text-anchor="start" x="483" y="-695" font-family="Helvetica,sans-Serif" font-size="10.00">+ setName()</text>
<text text-anchor="start" x="483" y="-682" font-family="Helvetica,sans-Serif" font-size="10.00">+ getExperienceForNextLevel()</text>
<text text-anchor="start" x="483" y="-669" font-family="Helvetica,sans-Serif" font-size="10.00">+ getExperience()</text>
<text text-anchor="start" x="483" y="-656" font-family="Helvetica,sans-Serif" font-size="10.00">+ moveLeft()</text>
<text text-anchor="start" x="483" y="-643" font-family="Helvetica,sans-Serif" font-size="10.00">+ moveRight()</text>
<text text-anchor="start" x="483" y="-630" font-family="Helvetica,sans-Serif" font-size="10.00">+ moveUp()</text>
<text text-anchor="start" x="483" y="-617" font-family="Helvetica,sans-Serif" font-size="10.00">+ moveDown()</text>
<text text-anchor="start" x="483" y="-604" font-family="Helvetica,sans-Serif" font-size="10.00">+ awardExperience()</text>
<text text-anchor="start" x="483" y="-591" font-family="Helvetica,sans-Serif" font-size="10.00">&#45; move()</text>
</a>
</g>
<!-- Node10&#45;&gt;Node13 -->
<g id="edge34" class="edge"><title>Node10&#45;&gt;Node13</title>
<path fill="none" stroke="midnightblue" d="M551,-868.722C551,-850.47 551,-832.441 551,-815.336"/>
<polygon fill="none" stroke="midnightblue" points="547.5,-868.879 551,-878.879 554.5,-868.879 547.5,-868.879"/>
</g>
<!-- Node11 -->
<g id="node24" class="node"><title>Node11</title>
<polygon fill="none" stroke="#bfbfbf" points="483.5,-1557.5 483.5,-1620.5 618.5,-1620.5 618.5,-1557.5 483.5,-1557.5"/>
<text text-anchor="middle" x="551" y="-1607.5" font-family="Helvetica,sans-Serif" font-size="10.00">Set&lt; VulnerableObserver &gt;</text>
<polyline fill="none" stroke="#bfbfbf" points="483.5,-1599.5 618.5,-1599.5 "/>
<text text-anchor="middle" x="551" y="-1586.5" font-family="Helvetica,sans-Serif" font-size="10.00"> </text>
<polyline fill="none" stroke="#bfbfbf" points="483.5,-1578.5 618.5,-1578.5 "/>
<text text-anchor="middle" x="551" y="-1565.5" font-family="Helvetica,sans-Serif" font-size="10.00"> </text>
</g>
<!-- Node11&#45;&gt;Node10 -->
<g id="edge28" class="edge"><title>Node11&#45;&gt;Node10</title>
<path fill="none" stroke="#9a32cd" stroke-dasharray="5,2" d="M551,-1547.17C551,-1486.38 551,-1369.69 551,-1267.29"/>
<polygon fill="#9a32cd" stroke="#9a32cd" points="551,-1557.5 546.5,-1547.5 551,-1552.5 551,-1547.5 551,-1547.5 551,-1547.5 551,-1552.5 555.5,-1547.5 551,-1557.5 551,-1557.5"/>
<text text-anchor="middle" x="572.5" y="-1315.5" font-family="Helvetica,sans-Serif" font-size="10.00">observers</text>
</g>
<!-- Node12 -->
<g id="node26" class="node"><title>Node12</title>
<polygon fill="none" stroke="#bfbfbf" points="721,-667.5 721,-730.5 829,-730.5 829,-667.5 721,-667.5"/>
<text text-anchor="middle" x="775" y="-717.5" font-family="Helvetica,sans-Serif" font-size="10.00">Set&lt; MapObserver &gt;</text>
<polyline fill="none" stroke="#bfbfbf" points="721,-709.5 829,-709.5 "/>
<text text-anchor="middle" x="775" y="-696.5" font-family="Helvetica,sans-Serif" font-size="10.00"> </text>
<polyline fill="none" stroke="#bfbfbf" points="721,-688.5 829,-688.5 "/>
<text text-anchor="middle" x="775" y="-675.5" font-family="Helvetica,sans-Serif" font-size="10.00"> </text>
</g>
<!-- Node12&#45;&gt;Node4 -->
<g id="edge30" class="edge"><title>Node12&#45;&gt;Node4</title>
<path fill="none" stroke="#9a32cd" stroke-dasharray="5,2" d="M760.013,-657.665C742.456,-609.245 712.188,-525.767 684.095,-448.287"/>
<polygon fill="#9a32cd" stroke="#9a32cd" points="763.455,-667.16 755.816,-659.293 761.751,-662.46 760.047,-657.759 760.047,-657.759 760.047,-657.759 761.751,-662.46 764.277,-656.225 763.455,-667.16 763.455,-667.16"/>
<text text-anchor="middle" x="745.5" y="-554.5" font-family="Helvetica,sans-Serif" font-size="10.00">observers</text>
</g>
<!-- Node13&#45;&gt;Node4 -->
<g id="edge32" class="edge"><title>Node13&#45;&gt;Node4</title>
<path fill="none" stroke="#9a32cd" stroke-dasharray="5,2" d="M570.508,-572.925C572.562,-559.651 574.702,-545.824 576.887,-531.702"/>
<polygon fill="#9a32cd" stroke="#9a32cd" points="568.955,-582.964 566.037,-572.393 569.719,-578.023 570.484,-573.082 570.484,-573.082 570.484,-573.082 569.719,-578.023 574.931,-573.77 568.955,-582.964 568.955,-582.964"/>
<text text-anchor="middle" x="585.5" y="-554.5" font-family="Helvetica,sans-Serif" font-size="10.00">player</text>
</g>
<!-- Node14 -->
<g id="node31" class="node"><title>Node14</title>
<polygon fill="none" stroke="#bfbfbf" points="846.5,-667.5 846.5,-730.5 941.5,-730.5 941.5,-667.5 846.5,-667.5"/>
<text text-anchor="middle" x="894" y="-717.5" font-family="Helvetica,sans-Serif" font-size="10.00">Set&lt; Vulnerable &gt;</text>
<polyline fill="none" stroke="#bfbfbf" points="846.5,-709.5 941.5,-709.5 "/>
<text text-anchor="middle" x="894" y="-696.5" font-family="Helvetica,sans-Serif" font-size="10.00"> </text>
<polyline fill="none" stroke="#bfbfbf" points="846.5,-688.5 941.5,-688.5 "/>
<text text-anchor="middle" x="894" y="-675.5" font-family="Helvetica,sans-Serif" font-size="10.00"> </text>
</g>
<!-- Node14&#45;&gt;Node4 -->
<g id="edge36" class="edge"><title>Node14&#45;&gt;Node4</title>
<path fill="none" stroke="#9a32cd" stroke-dasharray="5,2" d="M876.282,-657.86C865.971,-635.047 852.228,-606.435 838,-582 791.076,-501.414 729.965,-414.821 684.062,-352.697"/>
<polygon fill="#9a32cd" stroke="#9a32cd" points="880.482,-667.253 872.292,-659.961 878.441,-662.689 876.4,-658.124 876.4,-658.124 876.4,-658.124 878.441,-662.689 880.508,-656.287 880.482,-667.253 880.482,-667.253"/>
<text text-anchor="middle" x="847" y="-554.5" font-family="Helvetica,sans-Serif" font-size="10.00">hurtEntities</text>
</g>
</g>
</svg>
