<?xml version="1.0" encoding="UTF-8" standalone="no"?>
<!DOCTYPE svg PUBLIC "-//W3C//DTD SVG 1.1//EN"
 "http://www.w3.org/Graphics/SVG/1.1/DTD/svg11.dtd">
<!-- Generated by graphviz version 2.26.3 (20100126.1600)
 -->
<!-- Title: G Pages: 1 -->
<svg width="1073pt" height="1790pt"
 viewBox="0.00 0.00 1073.06 1790.00" xmlns="http://www.w3.org/2000/svg" xmlns:xlink="http://www.w3.org/1999/xlink">
<g id="graph1" class="graph" transform="scale(1 1) rotate(0) translate(4 1786)">
<title>G</title>
<!-- Node1 -->
<g id="node1" class="node"><title>Node1</title>
<polygon fill="#bfbfbf" stroke="black" points="867.034,-1279 867.034,-1667 1019.03,-1667 1019.03,-1279 867.034,-1279"/>
<text text-anchor="middle" x="943.034" y="-1654" font-family="Helvetica,sans-Serif" font-size="10.00">jdungeon.core.world.Vulnerable</text>
<polyline fill="none" stroke="black" points="867.034,-1646 1019.03,-1646 "/>
<text text-anchor="start" x="875.034" y="-1633" font-family="Helvetica,sans-Serif" font-size="10.00">&#45; HP</text>
<text text-anchor="start" x="875.034" y="-1620" font-family="Helvetica,sans-Serif" font-size="10.00">&#45; maxHP</text>
<text text-anchor="start" x="875.034" y="-1607" font-family="Helvetica,sans-Serif" font-size="10.00">&#45; level</text>
<text text-anchor="start" x="875.034" y="-1594" font-family="Helvetica,sans-Serif" font-size="10.00">&#45; strength</text>
<text text-anchor="start" x="875.034" y="-1581" font-family="Helvetica,sans-Serif" font-size="10.00">&#45; strengthBonus</text>
<text text-anchor="start" x="875.034" y="-1568" font-family="Helvetica,sans-Serif" font-size="10.00">&#45; observers</text>
<text text-anchor="start" x="875.034" y="-1555" font-family="Helvetica,sans-Serif" font-size="10.00">&#45; serialVersionUID</text>
<polyline fill="none" stroke="black" points="867.034,-1547 1019.03,-1547 "/>
<text text-anchor="start" x="875.034" y="-1534" font-family="Helvetica,sans-Serif" font-size="10.00">+ Vulnerable()</text>
<text text-anchor="start" x="875.034" y="-1521" font-family="Helvetica,sans-Serif" font-size="10.00">+ getLevel()</text>
<text text-anchor="start" x="875.034" y="-1508" font-family="Helvetica,sans-Serif" font-size="10.00">+ getHP()</text>
<text text-anchor="start" x="875.034" y="-1495" font-family="Helvetica,sans-Serif" font-size="10.00">+ hitBy()</text>
<text text-anchor="start" x="875.034" y="-1482" font-family="Helvetica,sans-Serif" font-size="10.00">+ hitsTo()</text>
<text text-anchor="start" x="875.034" y="-1469" font-family="Helvetica,sans-Serif" font-size="10.00">+ heal()</text>
<text text-anchor="start" x="875.034" y="-1456" font-family="Helvetica,sans-Serif" font-size="10.00">+ hurtBy()</text>
<text text-anchor="start" x="875.034" y="-1443" font-family="Helvetica,sans-Serif" font-size="10.00">+ getStrength()</text>
<text text-anchor="start" x="875.034" y="-1430" font-family="Helvetica,sans-Serif" font-size="10.00">+ getRawStrength()</text>
<text text-anchor="start" x="875.034" y="-1417" font-family="Helvetica,sans-Serif" font-size="10.00">+ getStrengthBonus()</text>
<text text-anchor="start" x="875.034" y="-1404" font-family="Helvetica,sans-Serif" font-size="10.00">+ setStrength()</text>
<text text-anchor="start" x="875.034" y="-1391" font-family="Helvetica,sans-Serif" font-size="10.00">+ setStrengthBonus()</text>
<text text-anchor="start" x="875.034" y="-1378" font-family="Helvetica,sans-Serif" font-size="10.00">+ setMaxHealth()</text>
<text text-anchor="start" x="875.034" y="-1365" font-family="Helvetica,sans-Serif" font-size="10.00">+ getMaxHealth()</text>
<text text-anchor="start" x="875.034" y="-1352" font-family="Helvetica,sans-Serif" font-size="10.00">+ setLevel()</text>
<text text-anchor="start" x="875.034" y="-1339" font-family="Helvetica,sans-Serif" font-size="10.00">+ awardExperience()</text>
<text text-anchor="start" x="875.034" y="-1326" font-family="Helvetica,sans-Serif" font-size="10.00">+ getExperience()</text>
<text text-anchor="start" x="875.034" y="-1313" font-family="Helvetica,sans-Serif" font-size="10.00">+ subscribe()</text>
<text text-anchor="start" x="875.034" y="-1300" font-family="Helvetica,sans-Serif" font-size="10.00">+ unsubscribe()</text>
<text text-anchor="start" x="875.034" y="-1287" font-family="Helvetica,sans-Serif" font-size="10.00"># die()</text>
</g>
<!-- Node9 -->
<g id="node19" class="node"><title>Node9</title>
<a xlink:href="classjdungeon_1_1core_1_1world_1_1creatures_1_1_monster.html" target="_top" xlink:title="{jdungeon.core.world.creatures.Monster\n|&#45; serialVersionUID\l|+ Monster()\l+ awardExperience()\l+ getExperience()\l+ hurtBy()\l&#45; computeHealth()\l&#45; computeStrength()\l}">
<polygon fill="none" stroke="black" points="664.534,-943 664.534,-1071 849.534,-1071 849.534,-943 664.534,-943"/>
<text text-anchor="middle" x="757.034" y="-1058" font-family="Helvetica,sans-Serif" font-size="10.00">jdungeon.core.world.creatures.Monster</text>
<polyline fill="none" stroke="black" points="664.534,-1050 849.534,-1050 "/>
<text text-anchor="start" x="672.534" y="-1037" font-family="Helvetica,sans-Serif" font-size="10.00">&#45; serialVersionUID</text>
<polyline fill="none" stroke="black" points="664.534,-1029 849.534,-1029 "/>
<text text-anchor="start" x="672.534" y="-1016" font-family="Helvetica,sans-Serif" font-size="10.00">+ Monster()</text>
<text text-anchor="start" x="672.534" y="-1003" font-family="Helvetica,sans-Serif" font-size="10.00">+ awardExperience()</text>
<text text-anchor="start" x="672.534" y="-990" font-family="Helvetica,sans-Serif" font-size="10.00">+ getExperience()</text>
<text text-anchor="start" x="672.534" y="-977" font-family="Helvetica,sans-Serif" font-size="10.00">+ hurtBy()</text>
<text text-anchor="start" x="672.534" y="-964" font-family="Helvetica,sans-Serif" font-size="10.00">&#45; computeHealth()</text>
<text text-anchor="start" x="672.534" y="-951" font-family="Helvetica,sans-Serif" font-size="10.00">&#45; computeStrength()</text>
</a>
</g>
<!-- Node1&#45;&gt;Node9 -->
<g id="edge24" class="edge"><title>Node1&#45;&gt;Node9</title>
<path fill="none" stroke="midnightblue" d="M863.267,-1273.15C834.263,-1200.49 803.506,-1123.43 782.592,-1071.03"/>
<polygon fill="none" stroke="midnightblue" points="860.021,-1274.46 866.978,-1282.45 866.522,-1271.87 860.021,-1274.46"/>
</g>
<!-- Node11 -->
<g id="node24" class="node"><title>Node11</title>
<a xlink:href="classjdungeon_1_1core_1_1world_1_1_player.html" target="_top" xlink:title="{jdungeon.core.world.Player\n|&#45; experience\l&#45; name\l&#45; serialVersionUID\l|+ Player()\l+ setWorld()\l+ getName()\l+ setName()\l+ getExperienceForNextLevel()\l+ getExperience()\l+ moveLeft()\l+ moveRight()\l+ moveUp()\l+ moveDown()\l+ awardExperience()\l&#45; move()\l}">
<polygon fill="none" stroke="black" points="867.034,-891 867.034,-1123 1019.03,-1123 1019.03,-891 867.034,-891"/>
<text text-anchor="middle" x="943.034" y="-1110" font-family="Helvetica,sans-Serif" font-size="10.00">jdungeon.core.world.Player</text>
<polyline fill="none" stroke="black" points="867.034,-1102 1019.03,-1102 "/>
<text text-anchor="start" x="875.034" y="-1089" font-family="Helvetica,sans-Serif" font-size="10.00">&#45; experience</text>
<text text-anchor="start" x="875.034" y="-1076" font-family="Helvetica,sans-Serif" font-size="10.00">&#45; name</text>
<text text-anchor="start" x="875.034" y="-1063" font-family="Helvetica,sans-Serif" font-size="10.00">&#45; serialVersionUID</text>
<polyline fill="none" stroke="black" points="867.034,-1055 1019.03,-1055 "/>
<text text-anchor="start" x="875.034" y="-1042" font-family="Helvetica,sans-Serif" font-size="10.00">+ Player()</text>
<text text-anchor="start" x="875.034" y="-1029" font-family="Helvetica,sans-Serif" font-size="10.00">+ setWorld()</text>
<text text-anchor="start" x="875.034" y="-1016" font-family="Helvetica,sans-Serif" font-size="10.00">+ getName()</text>
<text text-anchor="start" x="875.034" y="-1003" font-family="Helvetica,sans-Serif" font-size="10.00">+ setName()</text>
<text text-anchor="start" x="875.034" y="-990" font-family="Helvetica,sans-Serif" font-size="10.00">+ getExperienceForNextLevel()</text>
<text text-anchor="start" x="875.034" y="-977" font-family="Helvetica,sans-Serif" font-size="10.00">+ getExperience()</text>
<text text-anchor="start" x="875.034" y="-964" font-family="Helvetica,sans-Serif" font-size="10.00">+ moveLeft()</text>
<text text-anchor="start" x="875.034" y="-951" font-family="Helvetica,sans-Serif" font-size="10.00">+ moveRight()</text>
<text text-anchor="start" x="875.034" y="-938" font-family="Helvetica,sans-Serif" font-size="10.00">+ moveUp()</text>
<text text-anchor="start" x="875.034" y="-925" font-family="Helvetica,sans-Serif" font-size="10.00">+ moveDown()</text>
<text text-anchor="start" x="875.034" y="-912" font-family="Helvetica,sans-Serif" font-size="10.00">+ awardExperience()</text>
<text text-anchor="start" x="875.034" y="-899" font-family="Helvetica,sans-Serif" font-size="10.00">&#45; move()</text>
</a>
</g>
<!-- Node1&#45;&gt;Node11 -->
<g id="edge30" class="edge"><title>Node1&#45;&gt;Node11</title>
<path fill="none" stroke="midnightblue" d="M943.034,-1268.48C943.034,-1218.66 943.034,-1167.08 943.034,-1123.03"/>
<polygon fill="none" stroke="midnightblue" points="939.534,-1268.75 943.034,-1278.75 946.534,-1268.75 939.534,-1268.75"/>
</g>
<!-- Node2 -->
<g id="node2" class="node"><title>Node2</title>
<a xlink:href="classjdungeon_1_1core_1_1world_1_1_entity.html" target="_top" xlink:title="{jdungeon.core.world.Entity\n|&#45; w\l&#45; serialVersionUID\l|+ setWorld()\l+ getWorld()\l+ hitBy()\l+ hitsTo()\l+ near()\l+ clone()\l}">
<polygon fill="none" stroke="black" points="415.034,-0.5 415.034,-141.5 547.034,-141.5 547.034,-0.5 415.034,-0.5"/>
<text text-anchor="middle" x="481.034" y="-128.5" font-family="Helvetica,sans-Serif" font-size="10.00">jdungeon.core.world.Entity</text>
<polyline fill="none" stroke="black" points="415.034,-120.5 547.034,-120.5 "/>
<text text-anchor="start" x="423.034" y="-107.5" font-family="Helvetica,sans-Serif" font-size="10.00">&#45; w</text>
<text text-anchor="start" x="423.034" y="-94.5" font-family="Helvetica,sans-Serif" font-size="10.00">&#45; serialVersionUID</text>
<polyline fill="none" stroke="black" points="415.034,-86.5 547.034,-86.5 "/>
<text text-anchor="start" x="423.034" y="-73.5" font-family="Helvetica,sans-Serif" font-size="10.00">+ setWorld()</text>
<text text-anchor="start" x="423.034" y="-60.5" font-family="Helvetica,sans-Serif" font-size="10.00">+ getWorld()</text>
<text text-anchor="start" x="423.034" y="-47.5" font-family="Helvetica,sans-Serif" font-size="10.00">+ hitBy()</text>
<text text-anchor="start" x="423.034" y="-34.5" font-family="Helvetica,sans-Serif" font-size="10.00">+ hitsTo()</text>
<text text-anchor="start" x="423.034" y="-21.5" font-family="Helvetica,sans-Serif" font-size="10.00">+ near()</text>
<text text-anchor="start" x="423.034" y="-8.5" font-family="Helvetica,sans-Serif" font-size="10.00">+ clone()</text>
</a>
</g>
<!-- Node2&#45;&gt;Node1 -->
<g id="edge2" class="edge"><title>Node2&#45;&gt;Node1</title>
<path fill="none" stroke="midnightblue" d="M555.252,-135.617C681.49,-251.048 933.51,-506.879 1028.03,-786 1091.04,-972.065 1060.68,-1034.29 1028.03,-1228 1025.21,-1244.76 1021.37,-1261.9 1016.88,-1278.95"/>
<polygon fill="none" stroke="midnightblue" points="557.242,-132.696 547.491,-128.552 552.53,-137.872 557.242,-132.696"/>
</g>
<!-- Node3 -->
<g id="node4" class="node"><title>Node3</title>
<polygon fill="none" stroke="#bfbfbf" points="42.534,-1441.5 42.534,-1504.5 109.534,-1504.5 109.534,-1441.5 42.534,-1441.5"/>
<text text-anchor="middle" x="76.034" y="-1491.5" font-family="Helvetica,sans-Serif" font-size="10.00">Serializable</text>
<polyline fill="none" stroke="#bfbfbf" points="42.534,-1483.5 109.534,-1483.5 "/>
<text text-anchor="middle" x="76.034" y="-1470.5" font-family="Helvetica,sans-Serif" font-size="10.00"> </text>
<polyline fill="none" stroke="#bfbfbf" points="42.534,-1462.5 109.534,-1462.5 "/>
<text text-anchor="middle" x="76.034" y="-1449.5" font-family="Helvetica,sans-Serif" font-size="10.00"> </text>
</g>
<!-- Node3&#45;&gt;Node2 -->
<g id="edge4" class="edge"><title>Node3&#45;&gt;Node2</title>
<path fill="none" stroke="midnightblue" d="M63.4532,-1431.47C32.6109,-1322.84 -39.4201,-1022.39 29.034,-786 105.318,-522.57 310.841,-262.986 416.45,-141.824"/>
<polygon fill="none" stroke="midnightblue" points="60.1744,-1432.73 66.3033,-1441.37 66.9014,-1430.79 60.1744,-1432.73"/>
</g>
<!-- Node4 -->
<g id="node6" class="node"><title>Node4</title>
<a xlink:href="classjdungeon_1_1core_1_1world_1_1_world.html" target="_top" xlink:title="{jdungeon.core.world.World\n|&#45; board\l&#45; player\l&#45; boss\l&#45; observers\l&#45; hurtEntities\l&#45; playerObserver\l&#45; bossObserver\l&#45; sizeX\l&#45; sizeY\l&#45; serialVersionUID\l|+ World()\l+ clone()\l+ getX()\l+ getY()\l+ getHurtEntities()\l+ subscribe()\l+ unsubscribe()\l+ add()\l+ add()\l+ add()\l+ add()\l+ remove()\l+ remove()\l+ getPlayer()\l+ getBoss()\l+ syncEvent()\l+ replace()\l~ addHurtEntity()\l~ removeHurtEntity()\l~ notifyChange()\l~ notifyChange()\l~ notifyChange()\l~ notifyChange()\l~ getEntityInPoint()\l# move()\l# moveDelta()\l# clearView()\l&#45; area()\l}">
<polygon fill="none" stroke="black" points="415.034,-192.5 415.034,-723.5 547.034,-723.5 547.034,-192.5 415.034,-192.5"/>
<text text-anchor="middle" x="481.034" y="-710.5" font-family="Helvetica,sans-Serif" font-size="10.00">jdungeon.core.world.World</text>
<polyline fill="none" stroke="black" points="415.034,-702.5 547.034,-702.5 "/>
<text text-anchor="start" x="423.034" y="-689.5" font-family="Helvetica,sans-Serif" font-size="10.00">&#45; board</text>
<text text-anchor="start" x="423.034" y="-676.5" font-family="Helvetica,sans-Serif" font-size="10.00">&#45; player</text>
<text text-anchor="start" x="423.034" y="-663.5" font-family="Helvetica,sans-Serif" font-size="10.00">&#45; boss</text>
<text text-anchor="start" x="423.034" y="-650.5" font-family="Helvetica,sans-Serif" font-size="10.00">&#45; observers</text>
<text text-anchor="start" x="423.034" y="-637.5" font-family="Helvetica,sans-Serif" font-size="10.00">&#45; hurtEntities</text>
<text text-anchor="start" x="423.034" y="-624.5" font-family="Helvetica,sans-Serif" font-size="10.00">&#45; playerObserver</text>
<text text-anchor="start" x="423.034" y="-611.5" font-family="Helvetica,sans-Serif" font-size="10.00">&#45; bossObserver</text>
<text text-anchor="start" x="423.034" y="-598.5" font-family="Helvetica,sans-Serif" font-size="10.00">&#45; sizeX</text>
<text text-anchor="start" x="423.034" y="-585.5" font-family="Helvetica,sans-Serif" font-size="10.00">&#45; sizeY</text>
<text text-anchor="start" x="423.034" y="-572.5" font-family="Helvetica,sans-Serif" font-size="10.00">&#45; serialVersionUID</text>
<polyline fill="none" stroke="black" points="415.034,-564.5 547.034,-564.5 "/>
<text text-anchor="start" x="423.034" y="-551.5" font-family="Helvetica,sans-Serif" font-size="10.00">+ World()</text>
<text text-anchor="start" x="423.034" y="-538.5" font-family="Helvetica,sans-Serif" font-size="10.00">+ clone()</text>
<text text-anchor="start" x="423.034" y="-525.5" font-family="Helvetica,sans-Serif" font-size="10.00">+ getX()</text>
<text text-anchor="start" x="423.034" y="-512.5" font-family="Helvetica,sans-Serif" font-size="10.00">+ getY()</text>
<text text-anchor="start" x="423.034" y="-499.5" font-family="Helvetica,sans-Serif" font-size="10.00">+ getHurtEntities()</text>
<text text-anchor="start" x="423.034" y="-486.5" font-family="Helvetica,sans-Serif" font-size="10.00">+ subscribe()</text>
<text text-anchor="start" x="423.034" y="-473.5" font-family="Helvetica,sans-Serif" font-size="10.00">+ unsubscribe()</text>
<text text-anchor="start" x="423.034" y="-460.5" font-family="Helvetica,sans-Serif" font-size="10.00">+ add()</text>
<text text-anchor="start" x="423.034" y="-447.5" font-family="Helvetica,sans-Serif" font-size="10.00">+ add()</text>
<text text-anchor="start" x="423.034" y="-434.5" font-family="Helvetica,sans-Serif" font-size="10.00">+ add()</text>
<text text-anchor="start" x="423.034" y="-421.5" font-family="Helvetica,sans-Serif" font-size="10.00">+ add()</text>
<text text-anchor="start" x="423.034" y="-408.5" font-family="Helvetica,sans-Serif" font-size="10.00">+ remove()</text>
<text text-anchor="start" x="423.034" y="-395.5" font-family="Helvetica,sans-Serif" font-size="10.00">+ remove()</text>
<text text-anchor="start" x="423.034" y="-382.5" font-family="Helvetica,sans-Serif" font-size="10.00">+ getPlayer()</text>
<text text-anchor="start" x="423.034" y="-369.5" font-family="Helvetica,sans-Serif" font-size="10.00">+ getBoss()</text>
<text text-anchor="start" x="423.034" y="-356.5" font-family="Helvetica,sans-Serif" font-size="10.00">+ syncEvent()</text>
<text text-anchor="start" x="423.034" y="-343.5" font-family="Helvetica,sans-Serif" font-size="10.00">+ replace()</text>
<text text-anchor="start" x="423.034" y="-330.5" font-family="Helvetica,sans-Serif" font-size="10.00">~ addHurtEntity()</text>
<text text-anchor="start" x="423.034" y="-317.5" font-family="Helvetica,sans-Serif" font-size="10.00">~ removeHurtEntity()</text>
<text text-anchor="start" x="423.034" y="-304.5" font-family="Helvetica,sans-Serif" font-size="10.00">~ notifyChange()</text>
<text text-anchor="start" x="423.034" y="-291.5" font-family="Helvetica,sans-Serif" font-size="10.00">~ notifyChange()</text>
<text text-anchor="start" x="423.034" y="-278.5" font-family="Helvetica,sans-Serif" font-size="10.00">~ notifyChange()</text>
<text text-anchor="start" x="423.034" y="-265.5" font-family="Helvetica,sans-Serif" font-size="10.00">~ notifyChange()</text>
<text text-anchor="start" x="423.034" y="-252.5" font-family="Helvetica,sans-Serif" font-size="10.00">~ getEntityInPoint()</text>
<text text-anchor="start" x="423.034" y="-239.5" font-family="Helvetica,sans-Serif" font-size="10.00"># move()</text>
<text text-anchor="start" x="423.034" y="-226.5" font-family="Helvetica,sans-Serif" font-size="10.00"># moveDelta()</text>
<text text-anchor="start" x="423.034" y="-213.5" font-family="Helvetica,sans-Serif" font-size="10.00"># clearView()</text>
<text text-anchor="start" x="423.034" y="-200.5" font-family="Helvetica,sans-Serif" font-size="10.00">&#45; area()</text>
</a>
</g>
<!-- Node3&#45;&gt;Node4 -->
<g id="edge8" class="edge"><title>Node3&#45;&gt;Node4</title>
<path fill="none" stroke="midnightblue" d="M70.0066,-1431.44C51.8175,-1300.77 2.06359,-900.226 58.034,-786 132.658,-633.705 315.859,-531.856 414.905,-485.926"/>
<polygon fill="none" stroke="midnightblue" points="66.5557,-1432.03 71.4122,-1441.45 73.4877,-1431.06 66.5557,-1432.03"/>
</g>
<!-- Node5 -->
<g id="node9" class="node"><title>Node5</title>
<a xlink:href="interfacejdungeon_1_1core_1_1world_1_1_vulnerable_observer.html" target="_top" xlink:title="{jdungeon.core.world.VulnerableObserver\n||+ onDeath()\l}">
<polygon fill="none" stroke="black" points="67.034,-975.5 67.034,-1038.5 259.034,-1038.5 259.034,-975.5 67.034,-975.5"/>
<text text-anchor="middle" x="163.034" y="-1025.5" font-family="Helvetica,sans-Serif" font-size="10.00">jdungeon.core.world.VulnerableObserver</text>
<polyline fill="none" stroke="black" points="67.034,-1017.5 259.034,-1017.5 "/>
<text text-anchor="middle" x="163.034" y="-1004.5" font-family="Helvetica,sans-Serif" font-size="10.00"> </text>
<polyline fill="none" stroke="black" points="67.034,-996.5 259.034,-996.5 "/>
<text text-anchor="start" x="75.034" y="-983.5" font-family="Helvetica,sans-Serif" font-size="10.00">+ onDeath()</text>
</a>
</g>
<!-- Node3&#45;&gt;Node5 -->
<g id="edge12" class="edge"><title>Node3&#45;&gt;Node5</title>
<path fill="none" stroke="midnightblue" d="M83.8234,-1431.28C101.002,-1339.27 141.823,-1120.61 157.114,-1038.71"/>
<polygon fill="none" stroke="midnightblue" points="80.3403,-1430.86 81.9455,-1441.34 87.2214,-1432.15 80.3403,-1430.86"/>
</g>
<!-- Node6 -->
<g id="node12" class="node"><title>Node6</title>
<a xlink:href="classjdungeon_1_1core_1_1world_1_1_board.html" target="_top" xlink:title="{jdungeon.core.world.Board\n|&#45; name\l&#45; cells\l&#45; entities\l&#45; sizeY\l&#45; sizeX\l&#45; serialVersionUID\l&#45; MAX_SIZE\l&#45; MIN_SIZE\l|+ Board()\l+ getSizeY()\l+ getSizeX()\l+ replace()\l+ setName()\l+ getName()\l+ iterator()\l+ filter()\l# neighbours()\l# neighbours()\l# in()\l# in()\l# add()\l# add()\l# remove()\l# contains()\l# move()\l# move()\l# getEntityPos()\l&#45; initMatrix()\l&#45; isValidPoint()\l&#45; isValidPoint()\l&#45; warpTo()\l}">
<polygon fill="none" stroke="black" points="277.034,-787 277.034,-1227 409.034,-1227 409.034,-787 277.034,-787"/>
<text text-anchor="middle" x="343.034" y="-1214" font-family="Helvetica,sans-Serif" font-size="10.00">jdungeon.core.world.Board</text>
<polyline fill="none" stroke="black" points="277.034,-1206 409.034,-1206 "/>
<text text-anchor="start" x="285.034" y="-1193" font-family="Helvetica,sans-Serif" font-size="10.00">&#45; name</text>
<text text-anchor="start" x="285.034" y="-1180" font-family="Helvetica,sans-Serif" font-size="10.00">&#45; cells</text>
<text text-anchor="start" x="285.034" y="-1167" font-family="Helvetica,sans-Serif" font-size="10.00">&#45; entities</text>
<text text-anchor="start" x="285.034" y="-1154" font-family="Helvetica,sans-Serif" font-size="10.00">&#45; sizeY</text>
<text text-anchor="start" x="285.034" y="-1141" font-family="Helvetica,sans-Serif" font-size="10.00">&#45; sizeX</text>
<text text-anchor="start" x="285.034" y="-1128" font-family="Helvetica,sans-Serif" font-size="10.00">&#45; serialVersionUID</text>
<text text-anchor="start" x="285.034" y="-1115" font-family="Helvetica,sans-Serif" font-size="10.00">&#45; MAX_SIZE</text>
<text text-anchor="start" x="285.034" y="-1102" font-family="Helvetica,sans-Serif" font-size="10.00">&#45; MIN_SIZE</text>
<polyline fill="none" stroke="black" points="277.034,-1094 409.034,-1094 "/>
<text text-anchor="start" x="285.034" y="-1081" font-family="Helvetica,sans-Serif" font-size="10.00">+ Board()</text>
<text text-anchor="start" x="285.034" y="-1068" font-family="Helvetica,sans-Serif" font-size="10.00">+ getSizeY()</text>
<text text-anchor="start" x="285.034" y="-1055" font-family="Helvetica,sans-Serif" font-size="10.00">+ getSizeX()</text>
<text text-anchor="start" x="285.034" y="-1042" font-family="Helvetica,sans-Serif" font-size="10.00">+ replace()</text>
<text text-anchor="start" x="285.034" y="-1029" font-family="Helvetica,sans-Serif" font-size="10.00">+ setName()</text>
<text text-anchor="start" x="285.034" y="-1016" font-family="Helvetica,sans-Serif" font-size="10.00">+ getName()</text>
<text text-anchor="start" x="285.034" y="-1003" font-family="Helvetica,sans-Serif" font-size="10.00">+ iterator()</text>
<text text-anchor="start" x="285.034" y="-990" font-family="Helvetica,sans-Serif" font-size="10.00">+ filter()</text>
<text text-anchor="start" x="285.034" y="-977" font-family="Helvetica,sans-Serif" font-size="10.00"># neighbours()</text>
<text text-anchor="start" x="285.034" y="-964" font-family="Helvetica,sans-Serif" font-size="10.00"># neighbours()</text>
<text text-anchor="start" x="285.034" y="-951" font-family="Helvetica,sans-Serif" font-size="10.00"># in()</text>
<text text-anchor="start" x="285.034" y="-938" font-family="Helvetica,sans-Serif" font-size="10.00"># in()</text>
<text text-anchor="start" x="285.034" y="-925" font-family="Helvetica,sans-Serif" font-size="10.00"># add()</text>
<text text-anchor="start" x="285.034" y="-912" font-family="Helvetica,sans-Serif" font-size="10.00"># add()</text>
<text text-anchor="start" x="285.034" y="-899" font-family="Helvetica,sans-Serif" font-size="10.00"># remove()</text>
<text text-anchor="start" x="285.034" y="-886" font-family="Helvetica,sans-Serif" font-size="10.00"># contains()</text>
<text text-anchor="start" x="285.034" y="-873" font-family="Helvetica,sans-Serif" font-size="10.00"># move()</text>
<text text-anchor="start" x="285.034" y="-860" font-family="Helvetica,sans-Serif" font-size="10.00"># move()</text>
<text text-anchor="start" x="285.034" y="-847" font-family="Helvetica,sans-Serif" font-size="10.00"># getEntityPos()</text>
<text text-anchor="start" x="285.034" y="-834" font-family="Helvetica,sans-Serif" font-size="10.00">&#45; initMatrix()</text>
<text text-anchor="start" x="285.034" y="-821" font-family="Helvetica,sans-Serif" font-size="10.00">&#45; isValidPoint()</text>
<text text-anchor="start" x="285.034" y="-808" font-family="Helvetica,sans-Serif" font-size="10.00">&#45; isValidPoint()</text>
<text text-anchor="start" x="285.034" y="-795" font-family="Helvetica,sans-Serif" font-size="10.00">&#45; warpTo()</text>
</a>
</g>
<!-- Node3&#45;&gt;Node6 -->
<g id="edge16" class="edge"><title>Node3&#45;&gt;Node6</title>
<path fill="none" stroke="midnightblue" d="M106.266,-1433.29C136.524,-1393.71 184.557,-1331.3 227.034,-1278 244.944,-1255.53 254.08,-1253.12 268.034,-1228 271.083,-1222.51 274.038,-1216.87 276.899,-1211.13"/>
<polygon fill="none" stroke="midnightblue" points="103.377,-1431.31 100.088,-1441.38 108.94,-1435.56 103.377,-1431.31"/>
</g>
<!-- Node4&#45;&gt;Node2 -->
<g id="edge6" class="edge"><title>Node4&#45;&gt;Node2</title>
<path fill="none" stroke="#9a32cd" stroke-dasharray="5,2" d="M481.034,-182.259C481.034,-167.795 481.034,-154.085 481.034,-141.549"/>
<polygon fill="#9a32cd" stroke="#9a32cd" points="481.034,-192.387 476.534,-182.387 481.034,-187.387 481.034,-182.387 481.034,-182.387 481.034,-182.387 481.034,-187.387 485.534,-182.387 481.034,-192.387 481.034,-192.387"/>
<text text-anchor="middle" x="485.034" y="-164.5" font-family="Helvetica,sans-Serif" font-size="10.00">w</text>
</g>
<!-- Node5&#45;&gt;Node4 -->
<g id="edge10" class="edge"><title>Node5&#45;&gt;Node4</title>
<path fill="none" stroke="#9a32cd" stroke-dasharray="5,2" d="M180.643,-965.806C200.332,-920.794 233.951,-846.969 268.034,-786 313.341,-704.954 371.023,-616.9 414.931,-552.451"/>
<polygon fill="#9a32cd" stroke="#9a32cd" points="176.539,-975.232 176.405,-964.267 178.535,-970.648 180.531,-966.063 180.531,-966.063 180.531,-966.063 178.535,-970.648 184.656,-967.859 176.539,-975.232 176.539,-975.232"/>
<text text-anchor="middle" x="323.534" y="-759" font-family="Helvetica,sans-Serif" font-size="10.00">bossObserver</text>
<text text-anchor="middle" x="323.534" y="-746" font-family="Helvetica,sans-Serif" font-size="10.00">playerObserver</text>
</g>
<!-- Node6&#45;&gt;Node4 -->
<g id="edge14" class="edge"><title>Node6&#45;&gt;Node4</title>
<path fill="none" stroke="#9a32cd" stroke-dasharray="5,2" d="M400.814,-777.137C405.503,-758.483 410.263,-739.547 415.004,-720.685"/>
<polygon fill="#9a32cd" stroke="#9a32cd" points="398.369,-786.864 396.442,-776.069 399.588,-782.015 400.807,-777.166 400.807,-777.166 400.807,-777.166 399.588,-782.015 405.171,-778.263 398.369,-786.864 398.369,-786.864"/>
<text text-anchor="middle" x="420.534" y="-752.5" font-family="Helvetica,sans-Serif" font-size="10.00">board</text>
</g>
<!-- Node7 -->
<g id="node15" class="node"><title>Node7</title>
<polygon fill="none" stroke="#bfbfbf" points="235.534,-1441.5 235.534,-1504.5 342.534,-1504.5 342.534,-1441.5 235.534,-1441.5"/>
<text text-anchor="middle" x="289.034" y="-1491.5" font-family="Helvetica,sans-Serif" font-size="10.00">Map&lt; Entity, Point &gt;</text>
<polyline fill="none" stroke="#bfbfbf" points="235.534,-1483.5 342.534,-1483.5 "/>
<text text-anchor="middle" x="289.034" y="-1470.5" font-family="Helvetica,sans-Serif" font-size="10.00"> </text>
<polyline fill="none" stroke="#bfbfbf" points="235.534,-1462.5 342.534,-1462.5 "/>
<text text-anchor="middle" x="289.034" y="-1449.5" font-family="Helvetica,sans-Serif" font-size="10.00"> </text>
</g>
<!-- Node7&#45;&gt;Node6 -->
<g id="edge18" class="edge"><title>Node7&#45;&gt;Node6</title>
<path fill="none" stroke="#9a32cd" stroke-dasharray="5,2" d="M293.867,-1431.29C299.293,-1384.47 308.52,-1304.84 317.525,-1227.13"/>
<polygon fill="#9a32cd" stroke="#9a32cd" points="292.703,-1441.34 289.384,-1430.88 293.279,-1436.37 293.854,-1431.4 293.854,-1431.4 293.854,-1431.4 293.279,-1436.37 298.324,-1431.92 292.703,-1441.34 292.703,-1441.34"/>
<text text-anchor="middle" x="331.034" y="-1250.5" font-family="Helvetica,sans-Serif" font-size="10.00">entities</text>
</g>
<!-- Node8 -->
<g id="node17" class="node"><title>Node8</title>
<polygon fill="none" stroke="#bfbfbf" points="359.534,-1441.5 359.534,-1504.5 434.534,-1504.5 434.534,-1441.5 359.534,-1441.5"/>
<text text-anchor="middle" x="397.034" y="-1491.5" font-family="Helvetica,sans-Serif" font-size="10.00">Set&lt; Entity &gt;</text>
<polyline fill="none" stroke="#bfbfbf" points="359.534,-1483.5 434.534,-1483.5 "/>
<text text-anchor="middle" x="397.034" y="-1470.5" font-family="Helvetica,sans-Serif" font-size="10.00"> </text>
<polyline fill="none" stroke="#bfbfbf" points="359.534,-1462.5 434.534,-1462.5 "/>
<text text-anchor="middle" x="397.034" y="-1449.5" font-family="Helvetica,sans-Serif" font-size="10.00"> </text>
</g>
<!-- Node8&#45;&gt;Node6 -->
<g id="edge20" class="edge"><title>Node8&#45;&gt;Node6</title>
<path fill="none" stroke="#9a32cd" stroke-dasharray="5,2" d="M392.201,-1431.29C386.775,-1384.47 377.548,-1304.84 368.543,-1227.13"/>
<polygon fill="#9a32cd" stroke="#9a32cd" points="393.365,-1441.34 387.744,-1431.92 392.789,-1436.37 392.214,-1431.4 392.214,-1431.4 392.214,-1431.4 392.789,-1436.37 396.684,-1430.88 393.365,-1441.34 393.365,-1441.34"/>
<text text-anchor="middle" x="382.534" y="-1250.5" font-family="Helvetica,sans-Serif" font-size="10.00">cells</text>
</g>
<!-- Node9&#45;&gt;Node4 -->
<g id="edge22" class="edge"><title>Node9&#45;&gt;Node4</title>
<path fill="none" stroke="#9a32cd" stroke-dasharray="5,2" d="M724.746,-933.371C705.45,-890.138 680.082,-834.613 656.034,-786 621.549,-716.29 580.755,-639.533 547.232,-577.809"/>
<polygon fill="#9a32cd" stroke="#9a32cd" points="728.893,-942.682 720.714,-935.377 726.859,-938.114 724.824,-933.547 724.824,-933.547 724.824,-933.547 726.859,-938.114 728.935,-931.716 728.893,-942.682 728.893,-942.682"/>
<text text-anchor="middle" x="653.034" y="-752.5" font-family="Helvetica,sans-Serif" font-size="10.00">boss</text>
</g>
<!-- Node10 -->
<g id="node22" class="node"><title>Node10</title>
<polygon fill="none" stroke="#bfbfbf" points="427.034,-975.5 427.034,-1038.5 535.034,-1038.5 535.034,-975.5 427.034,-975.5"/>
<text text-anchor="middle" x="481.034" y="-1025.5" font-family="Helvetica,sans-Serif" font-size="10.00">Set&lt; MapObserver &gt;</text>
<polyline fill="none" stroke="#bfbfbf" points="427.034,-1017.5 535.034,-1017.5 "/>
<text text-anchor="middle" x="481.034" y="-1004.5" font-family="Helvetica,sans-Serif" font-size="10.00"> </text>
<polyline fill="none" stroke="#bfbfbf" points="427.034,-996.5 535.034,-996.5 "/>
<text text-anchor="middle" x="481.034" y="-983.5" font-family="Helvetica,sans-Serif" font-size="10.00"> </text>
</g>
<!-- Node10&#45;&gt;Node4 -->
<g id="edge26" class="edge"><title>Node10&#45;&gt;Node4</title>
<path fill="none" stroke="#9a32cd" stroke-dasharray="5,2" d="M481.034,-964.814C481.034,-912.029 481.034,-817.164 481.034,-723.666"/>
<polygon fill="#9a32cd" stroke="#9a32cd" points="481.034,-975.11 476.534,-965.11 481.034,-970.11 481.034,-965.11 481.034,-965.11 481.034,-965.11 481.034,-970.11 485.534,-965.111 481.034,-975.11 481.034,-975.11"/>
<text text-anchor="middle" x="502.534" y="-752.5" font-family="Helvetica,sans-Serif" font-size="10.00">observers</text>
</g>
<!-- Node11&#45;&gt;Node4 -->
<g id="edge28" class="edge"><title>Node11&#45;&gt;Node4</title>
<path fill="none" stroke="#9a32cd" stroke-dasharray="5,2" d="M906.799,-881.337C894.222,-848.679 878.103,-814.654 858.034,-786 771.933,-663.066 630.034,-556.494 547.073,-500.311"/>
<polygon fill="#9a32cd" stroke="#9a32cd" points="910.421,-890.962 902.687,-883.188 908.66,-886.283 906.899,-881.603 906.899,-881.603 906.899,-881.603 908.66,-886.283 911.111,-880.018 910.421,-890.962 910.421,-890.962"/>
<text text-anchor="middle" x="855.534" y="-752.5" font-family="Helvetica,sans-Serif" font-size="10.00">player</text>
</g>
<!-- Node12 -->
<g id="node27" class="node"><title>Node12</title>
<polygon fill="none" stroke="#bfbfbf" points="552.534,-975.5 552.534,-1038.5 647.534,-1038.5 647.534,-975.5 552.534,-975.5"/>
<text text-anchor="middle" x="600.034" y="-1025.5" font-family="Helvetica,sans-Serif" font-size="10.00">Set&lt; Vulnerable &gt;</text>
<polyline fill="none" stroke="#bfbfbf" points="552.534,-1017.5 647.534,-1017.5 "/>
<text text-anchor="middle" x="600.034" y="-1004.5" font-family="Helvetica,sans-Serif" font-size="10.00"> </text>
<polyline fill="none" stroke="#bfbfbf" points="552.534,-996.5 647.534,-996.5 "/>
<text text-anchor="middle" x="600.034" y="-983.5" font-family="Helvetica,sans-Serif" font-size="10.00"> </text>
</g>
<!-- Node12&#45;&gt;Node4 -->
<g id="edge32" class="edge"><title>Node12&#45;&gt;Node4</title>
<path fill="none" stroke="#9a32cd" stroke-dasharray="5,2" d="M590.961,-965.144C579.534,-912.426 558.928,-817.359 538.619,-723.666"/>
<polygon fill="#9a32cd" stroke="#9a32cd" points="593.122,-975.11 586.605,-966.291 592.063,-970.224 591.003,-965.337 591.003,-965.337 591.003,-965.337 592.063,-970.224 595.401,-964.384 593.122,-975.11 593.122,-975.11"/>
<text text-anchor="middle" x="573.034" y="-752.5" font-family="Helvetica,sans-Serif" font-size="10.00">hurtEntities</text>
</g>
<!-- Node13 -->
<g id="node29" class="node"><title>Node13</title>
<polygon fill="none" stroke="#bfbfbf" points="875.534,-1718.5 875.534,-1781.5 1010.53,-1781.5 1010.53,-1718.5 875.534,-1718.5"/>
<text text-anchor="middle" x="943.034" y="-1768.5" font-family="Helvetica,sans-Serif" font-size="10.00">Set&lt; VulnerableObserver &gt;</text>
<polyline fill="none" stroke="#bfbfbf" points="875.534,-1760.5 1010.53,-1760.5 "/>
<text text-anchor="middle" x="943.034" y="-1747.5" font-family="Helvetica,sans-Serif" font-size="10.00"> </text>
<polyline fill="none" stroke="#bfbfbf" points="875.534,-1739.5 1010.53,-1739.5 "/>
<text text-anchor="middle" x="943.034" y="-1726.5" font-family="Helvetica,sans-Serif" font-size="10.00"> </text>
</g>
<!-- Node13&#45;&gt;Node1 -->
<g id="edge34" class="edge"><title>Node13&#45;&gt;Node1</title>
<path fill="none" stroke="#9a32cd" stroke-dasharray="5,2" d="M943.034,-1708.4C943.034,-1696.3 943.034,-1682.24 943.034,-1667.11"/>
<polygon fill="#9a32cd" stroke="#9a32cd" points="943.034,-1718.49 938.534,-1708.49 943.034,-1713.49 943.034,-1708.49 943.034,-1708.49 943.034,-1708.49 943.034,-1713.49 947.534,-1708.49 943.034,-1718.49 943.034,-1718.49"/>
<text text-anchor="middle" x="964.534" y="-1690.5" font-family="Helvetica,sans-Serif" font-size="10.00">observers</text>
</g>
</g>
</svg>
