<?xml version="1.0" encoding="UTF-8" standalone="no"?>
<!DOCTYPE svg PUBLIC "-//W3C//DTD SVG 1.1//EN"
 "http://www.w3.org/Graphics/SVG/1.1/DTD/svg11.dtd">
<!-- Generated by graphviz version 2.26.3 (20100126.1600)
 -->
<!-- Title: G Pages: 1 -->
<svg width="128pt" height="342pt"
 viewBox="0.00 0.00 128.00 342.00" xmlns="http://www.w3.org/2000/svg" xmlns:xlink="http://www.w3.org/1999/xlink">
<g id="graph1" class="graph" transform="scale(1 1) rotate(0) translate(4 338)">
<title>G</title>
<!-- Node1 -->
<g id="node1" class="node"><title>Node1</title>
<polygon fill="#bfbfbf" stroke="black" points="-0.5,-1 -0.5,-233 120.5,-233 120.5,-1 -0.5,-1"/>
<text text-anchor="middle" x="60" y="-220" font-family="Helvetica,sans-Serif" font-size="10.00">jdungeon.frontend.Menu</text>
<polyline fill="none" stroke="black" points="-0.5,-212 120.5,-212 "/>
<text text-anchor="start" x="7.5" y="-199" font-family="Helvetica,sans-Serif" font-size="10.00">&#45; menu</text>
<text text-anchor="start" x="7.5" y="-186" font-family="Helvetica,sans-Serif" font-size="10.00">&#45; game</text>
<text text-anchor="start" x="7.5" y="-173" font-family="Helvetica,sans-Serif" font-size="10.00">&#45; select</text>
<text text-anchor="start" x="7.5" y="-160" font-family="Helvetica,sans-Serif" font-size="10.00">&#45; nGame</text>
<text text-anchor="start" x="7.5" y="-147" font-family="Helvetica,sans-Serif" font-size="10.00">&#45; lGame</text>
<text text-anchor="start" x="7.5" y="-134" font-family="Helvetica,sans-Serif" font-size="10.00">&#45; sGame</text>
<text text-anchor="start" x="7.5" y="-121" font-family="Helvetica,sans-Serif" font-size="10.00">&#45; exit</text>
<text text-anchor="start" x="7.5" y="-108" font-family="Helvetica,sans-Serif" font-size="10.00">&#45; restart</text>
<text text-anchor="start" x="7.5" y="-95" font-family="Helvetica,sans-Serif" font-size="10.00">&#45; endGame</text>
<text text-anchor="start" x="7.5" y="-82" font-family="Helvetica,sans-Serif" font-size="10.00">&#45; file</text>
<text text-anchor="start" x="7.5" y="-69" font-family="Helvetica,sans-Serif" font-size="10.00">&#45; event</text>
<text text-anchor="start" x="7.5" y="-56" font-family="Helvetica,sans-Serif" font-size="10.00">&#45; serialVersionUID</text>
<polyline fill="none" stroke="black" points="-0.5,-48 120.5,-48 "/>
<text text-anchor="start" x="7.5" y="-35" font-family="Helvetica,sans-Serif" font-size="10.00">+ NewGame()</text>
<text text-anchor="start" x="7.5" y="-22" font-family="Helvetica,sans-Serif" font-size="10.00">+ addOptions()</text>
<text text-anchor="start" x="7.5" y="-9" font-family="Helvetica,sans-Serif" font-size="10.00">+ removeOptions()</text>
</g>
<!-- Node2 -->
<g id="node2" class="node"><title>Node2</title>
<polygon fill="none" stroke="#bfbfbf" points="35,-270.5 35,-333.5 85,-333.5 85,-270.5 35,-270.5"/>
<text text-anchor="middle" x="60" y="-320.5" font-family="Helvetica,sans-Serif" font-size="10.00">JFrame</text>
<polyline fill="none" stroke="#bfbfbf" points="35,-312.5 85,-312.5 "/>
<text text-anchor="middle" x="60" y="-299.5" font-family="Helvetica,sans-Serif" font-size="10.00"> </text>
<polyline fill="none" stroke="#bfbfbf" points="35,-291.5 85,-291.5 "/>
<text text-anchor="middle" x="60" y="-278.5" font-family="Helvetica,sans-Serif" font-size="10.00"> </text>
</g>
<!-- Node2&#45;&gt;Node1 -->
<g id="edge2" class="edge"><title>Node2&#45;&gt;Node1</title>
<path fill="none" stroke="midnightblue" d="M60,-260.144C60,-251.849 60,-242.769 60,-233.335"/>
<polygon fill="none" stroke="midnightblue" points="56.5001,-260.197 60,-270.197 63.5001,-260.197 56.5001,-260.197"/>
</g>
</g>
</svg>
