<?xml version="1.0" encoding="UTF-8" standalone="no"?>
<!DOCTYPE svg PUBLIC "-//W3C//DTD SVG 1.1//EN"
 "http://www.w3.org/Graphics/SVG/1.1/DTD/svg11.dtd">
<!-- Generated by graphviz version 2.26.3 (20100126.1600)
 -->
<!-- Title: G Pages: 1 -->
<svg width="200pt" height="554pt"
 viewBox="0.00 0.00 200.00 554.00" xmlns="http://www.w3.org/2000/svg" xmlns:xlink="http://www.w3.org/1999/xlink">
<g id="graph1" class="graph" transform="scale(1 1) rotate(0) translate(4 550)">
<title>G</title>
<!-- Node1 -->
<g id="node1" class="node"><title>Node1</title>
<polygon fill="#bfbfbf" stroke="black" points="0,-0.5 0,-89.5 192,-89.5 192,-0.5 0,-0.5"/>
<text text-anchor="middle" x="96" y="-76.5" font-family="Helvetica,sans-Serif" font-size="10.00">jdungeon.core.world.bonus.HealthBonus</text>
<polyline fill="none" stroke="black" points="0,-68.5 192,-68.5 "/>
<text text-anchor="start" x="8" y="-55.5" font-family="Helvetica,sans-Serif" font-size="10.00">&#45; serialVersionUID</text>
<polyline fill="none" stroke="black" points="0,-47.5 192,-47.5 "/>
<text text-anchor="start" x="8" y="-34.5" font-family="Helvetica,sans-Serif" font-size="10.00">+ HealthBonus()</text>
<text text-anchor="start" x="8" y="-21.5" font-family="Helvetica,sans-Serif" font-size="10.00"># areaBuff()</text>
<text text-anchor="start" x="8" y="-8.5" font-family="Helvetica,sans-Serif" font-size="10.00"># buff()</text>
</g>
<!-- Node2 -->
<g id="node2" class="node"><title>Node2</title>
<a xlink:href="classjdungeon_1_1core_1_1world_1_1bonus_1_1_bonus.html" target="_top" xlink:title="{jdungeon.core.world.bonus.Bonus\n|&#45; level\l&#45; serialVersionUID\l|+ Bonus()\l+ hitBy()\l+ near()\l+ getLevel()\l# buff()\l# areaBuff()\l}">
<polygon fill="none" stroke="black" points="14,-126.5 14,-267.5 178,-267.5 178,-126.5 14,-126.5"/>
<text text-anchor="middle" x="96" y="-254.5" font-family="Helvetica,sans-Serif" font-size="10.00">jdungeon.core.world.bonus.Bonus</text>
<polyline fill="none" stroke="black" points="14,-246.5 178,-246.5 "/>
<text text-anchor="start" x="22" y="-233.5" font-family="Helvetica,sans-Serif" font-size="10.00">&#45; level</text>
<text text-anchor="start" x="22" y="-220.5" font-family="Helvetica,sans-Serif" font-size="10.00">&#45; serialVersionUID</text>
<polyline fill="none" stroke="black" points="14,-212.5 178,-212.5 "/>
<text text-anchor="start" x="22" y="-199.5" font-family="Helvetica,sans-Serif" font-size="10.00">+ Bonus()</text>
<text text-anchor="start" x="22" y="-186.5" font-family="Helvetica,sans-Serif" font-size="10.00">+ hitBy()</text>
<text text-anchor="start" x="22" y="-173.5" font-family="Helvetica,sans-Serif" font-size="10.00">+ near()</text>
<text text-anchor="start" x="22" y="-160.5" font-family="Helvetica,sans-Serif" font-size="10.00">+ getLevel()</text>
<text text-anchor="start" x="22" y="-147.5" font-family="Helvetica,sans-Serif" font-size="10.00"># buff()</text>
<text text-anchor="start" x="22" y="-134.5" font-family="Helvetica,sans-Serif" font-size="10.00"># areaBuff()</text>
</a>
</g>
<!-- Node2&#45;&gt;Node1 -->
<g id="edge2" class="edge"><title>Node2&#45;&gt;Node1</title>
<path fill="none" stroke="midnightblue" d="M96,-116.149C96,-107.133 96,-98.2083 96,-89.8855"/>
<polygon fill="none" stroke="midnightblue" points="92.5001,-116.34 96,-126.34 99.5001,-116.34 92.5001,-116.34"/>
</g>
<!-- Node3 -->
<g id="node4" class="node"><title>Node3</title>
<a xlink:href="classjdungeon_1_1core_1_1world_1_1_entity.html" target="_top" xlink:title="{jdungeon.core.world.Entity\n|&#45; w\l&#45; serialVersionUID\l|+ setWorld()\l+ getWorld()\l+ hitBy()\l+ hitsTo()\l+ near()\l+ clone()\l}">
<polygon fill="none" stroke="black" points="30,-304.5 30,-445.5 162,-445.5 162,-304.5 30,-304.5"/>
<text text-anchor="middle" x="96" y="-432.5" font-family="Helvetica,sans-Serif" font-size="10.00">jdungeon.core.world.Entity</text>
<polyline fill="none" stroke="black" points="30,-424.5 162,-424.5 "/>
<text text-anchor="start" x="38" y="-411.5" font-family="Helvetica,sans-Serif" font-size="10.00">&#45; w</text>
<text text-anchor="start" x="38" y="-398.5" font-family="Helvetica,sans-Serif" font-size="10.00">&#45; serialVersionUID</text>
<polyline fill="none" stroke="black" points="30,-390.5 162,-390.5 "/>
<text text-anchor="start" x="38" y="-377.5" font-family="Helvetica,sans-Serif" font-size="10.00">+ setWorld()</text>
<text text-anchor="start" x="38" y="-364.5" font-family="Helvetica,sans-Serif" font-size="10.00">+ getWorld()</text>
<text text-anchor="start" x="38" y="-351.5" font-family="Helvetica,sans-Serif" font-size="10.00">+ hitBy()</text>
<text text-anchor="start" x="38" y="-338.5" font-family="Helvetica,sans-Serif" font-size="10.00">+ hitsTo()</text>
<text text-anchor="start" x="38" y="-325.5" font-family="Helvetica,sans-Serif" font-size="10.00">+ near()</text>
<text text-anchor="start" x="38" y="-312.5" font-family="Helvetica,sans-Serif" font-size="10.00">+ clone()</text>
</a>
</g>
<!-- Node3&#45;&gt;Node2 -->
<g id="edge4" class="edge"><title>Node3&#45;&gt;Node2</title>
<path fill="none" stroke="midnightblue" d="M96,-294.354C96,-285.401 96,-276.334 96,-267.521"/>
<polygon fill="none" stroke="midnightblue" points="92.5001,-294.394 96,-304.394 99.5001,-294.394 92.5001,-294.394"/>
</g>
<!-- Node4 -->
<g id="node6" class="node"><title>Node4</title>
<polygon fill="none" stroke="#bfbfbf" points="62.5,-482.5 62.5,-545.5 129.5,-545.5 129.5,-482.5 62.5,-482.5"/>
<text text-anchor="middle" x="96" y="-532.5" font-family="Helvetica,sans-Serif" font-size="10.00">Serializable</text>
<polyline fill="none" stroke="#bfbfbf" points="62.5,-524.5 129.5,-524.5 "/>
<text text-anchor="middle" x="96" y="-511.5" font-family="Helvetica,sans-Serif" font-size="10.00"> </text>
<polyline fill="none" stroke="#bfbfbf" points="62.5,-503.5 129.5,-503.5 "/>
<text text-anchor="middle" x="96" y="-490.5" font-family="Helvetica,sans-Serif" font-size="10.00"> </text>
</g>
<!-- Node4&#45;&gt;Node3 -->
<g id="edge6" class="edge"><title>Node4&#45;&gt;Node3</title>
<path fill="none" stroke="midnightblue" d="M96,-472.453C96,-463.942 96,-454.76 96,-445.553"/>
<polygon fill="none" stroke="midnightblue" points="92.5001,-472.459 96,-482.459 99.5001,-472.459 92.5001,-472.459"/>
</g>
</g>
</svg>
