<?xml version="1.0" encoding="UTF-8" standalone="no"?>
<!DOCTYPE svg PUBLIC "-//W3C//DTD SVG 1.1//EN"
 "http://www.w3.org/Graphics/SVG/1.1/DTD/svg11.dtd">
<!-- Generated by graphviz version 2.26.3 (20100126.1600)
 -->
<!-- Title: G Pages: 1 -->
<svg width="154pt" height="226pt"
 viewBox="0.00 0.00 154.00 226.00" xmlns="http://www.w3.org/2000/svg" xmlns:xlink="http://www.w3.org/1999/xlink">
<g id="graph1" class="graph" transform="scale(1 1) rotate(0) translate(4 222)">
<title>G</title>
<!-- Node1 -->
<g id="node1" class="node"><title>Node1</title>
<polygon fill="#bfbfbf" stroke="black" points="0,-1 0,-103 146,-103 146,-1 0,-1"/>
<text text-anchor="middle" x="73" y="-90" font-family="Helvetica,sans-Serif" font-size="10.00">jdungeon.parser.GameReader</text>
<polyline fill="none" stroke="black" points="0,-82 146,-82 "/>
<text text-anchor="start" x="8" y="-69" font-family="Helvetica,sans-Serif" font-size="10.00">~ game</text>
<polyline fill="none" stroke="black" points="0,-61 146,-61 "/>
<text text-anchor="start" x="8" y="-48" font-family="Helvetica,sans-Serif" font-size="10.00">+ newGameReader()</text>
<text text-anchor="start" x="8" y="-35" font-family="Helvetica,sans-Serif" font-size="10.00">+ getGameData()</text>
<text text-anchor="start" x="8" y="-22" font-family="Helvetica,sans-Serif" font-size="10.00">+ getGameData()</text>
<text text-anchor="start" x="8" y="-9" font-family="Helvetica,sans-Serif" font-size="10.00">+ close()</text>
</g>
<!-- Node2 -->
<g id="node2" class="node"><title>Node2</title>
<polygon fill="none" stroke="#bfbfbf" points="30.5,-154.5 30.5,-217.5 115.5,-217.5 115.5,-154.5 30.5,-154.5"/>
<text text-anchor="middle" x="73" y="-204.5" font-family="Helvetica,sans-Serif" font-size="10.00">BufferedReader</text>
<polyline fill="none" stroke="#bfbfbf" points="30.5,-196.5 115.5,-196.5 "/>
<text text-anchor="middle" x="73" y="-183.5" font-family="Helvetica,sans-Serif" font-size="10.00"> </text>
<polyline fill="none" stroke="#bfbfbf" points="30.5,-175.5 115.5,-175.5 "/>
<text text-anchor="middle" x="73" y="-162.5" font-family="Helvetica,sans-Serif" font-size="10.00"> </text>
</g>
<!-- Node2&#45;&gt;Node1 -->
<g id="edge2" class="edge"><title>Node2&#45;&gt;Node1</title>
<path fill="none" stroke="#9a32cd" stroke-dasharray="5,2" d="M73,-144.187C73,-131.195 73,-116.723 73,-103.169"/>
<polygon fill="#9a32cd" stroke="#9a32cd" points="73,-154.244 68.5001,-144.244 73,-149.244 73.0001,-144.244 73.0001,-144.244 73.0001,-144.244 73,-149.244 77.5001,-144.244 73,-154.244 73,-154.244"/>
<text text-anchor="middle" x="85.5" y="-126.5" font-family="Helvetica,sans-Serif" font-size="10.00">game</text>
</g>
</g>
</svg>
