<?xml version="1.0" encoding="UTF-8" standalone="no"?>
<!DOCTYPE svg PUBLIC "-//W3C//DTD SVG 1.1//EN"
 "http://www.w3.org/Graphics/SVG/1.1/DTD/svg11.dtd">
<!-- Generated by graphviz version 2.26.3 (20100126.1600)
 -->
<!-- Title: G Pages: 1 -->
<svg width="582pt" height="968pt"
 viewBox="0.00 0.00 582.00 968.00" xmlns="http://www.w3.org/2000/svg" xmlns:xlink="http://www.w3.org/1999/xlink">
<g id="graph1" class="graph" transform="scale(1 1) rotate(0) translate(4 964)">
<title>G</title>
<!-- Node1 -->
<g id="node1" class="node"><title>Node1</title>
<polygon fill="#bfbfbf" stroke="black" points="196.5,-127 196.5,-255 381.5,-255 381.5,-127 196.5,-127"/>
<text text-anchor="middle" x="289" y="-242" font-family="Helvetica,sans-Serif" font-size="10.00">jdungeon.core.world.creatures.Monster</text>
<polyline fill="none" stroke="black" points="196.5,-234 381.5,-234 "/>
<text text-anchor="start" x="204.5" y="-221" font-family="Helvetica,sans-Serif" font-size="10.00">&#45; serialVersionUID</text>
<polyline fill="none" stroke="black" points="196.5,-213 381.5,-213 "/>
<text text-anchor="start" x="204.5" y="-200" font-family="Helvetica,sans-Serif" font-size="10.00">+ Monster()</text>
<text text-anchor="start" x="204.5" y="-187" font-family="Helvetica,sans-Serif" font-size="10.00">+ awardExperience()</text>
<text text-anchor="start" x="204.5" y="-174" font-family="Helvetica,sans-Serif" font-size="10.00">+ getExperience()</text>
<text text-anchor="start" x="204.5" y="-161" font-family="Helvetica,sans-Serif" font-size="10.00">+ hurtBy()</text>
<text text-anchor="start" x="204.5" y="-148" font-family="Helvetica,sans-Serif" font-size="10.00">&#45; computeHealth()</text>
<text text-anchor="start" x="204.5" y="-135" font-family="Helvetica,sans-Serif" font-size="10.00">&#45; computeStrength()</text>
</g>
<!-- Node5 -->
<g id="node9" class="node"><title>Node5</title>
<a xlink:href="classjdungeon_1_1core_1_1world_1_1creatures_1_1_dragon.html" target="_top" xlink:title="{jdungeon.core.world.creatures.Dragon\n|&#45; serialVersionUID\l&#45; F\l&#45; S\l|+ Dragon()\l}">
<polygon fill="none" stroke="black" points="0,-0.5 0,-89.5 182,-89.5 182,-0.5 0,-0.5"/>
<text text-anchor="middle" x="91" y="-76.5" font-family="Helvetica,sans-Serif" font-size="10.00">jdungeon.core.world.creatures.Dragon</text>
<polyline fill="none" stroke="black" points="0,-68.5 182,-68.5 "/>
<text text-anchor="start" x="8" y="-55.5" font-family="Helvetica,sans-Serif" font-size="10.00">&#45; serialVersionUID</text>
<text text-anchor="start" x="8" y="-42.5" font-family="Helvetica,sans-Serif" font-size="10.00">&#45; F</text>
<text text-anchor="start" x="8" y="-29.5" font-family="Helvetica,sans-Serif" font-size="10.00">&#45; S</text>
<polyline fill="none" stroke="black" points="0,-21.5 182,-21.5 "/>
<text text-anchor="start" x="8" y="-8.5" font-family="Helvetica,sans-Serif" font-size="10.00">+ Dragon()</text>
</a>
</g>
<!-- Node1&#45;&gt;Node5 -->
<g id="edge8" class="edge"><title>Node1&#45;&gt;Node5</title>
<path fill="none" stroke="midnightblue" d="M193.737,-120.755C179.404,-110.187 164.968,-99.5417 151.63,-89.7069"/>
<polygon fill="none" stroke="midnightblue" points="192.029,-123.844 202.154,-126.962 196.183,-118.21 192.029,-123.844"/>
</g>
<!-- Node6 -->
<g id="node11" class="node"><title>Node6</title>
<a xlink:href="classjdungeon_1_1core_1_1world_1_1creatures_1_1_golem.html" target="_top" xlink:title="{jdungeon.core.world.creatures.Golem\n|&#45; serialVersionUID\l&#45; S\l&#45; F\l|+ Golem()\l}">
<polygon fill="none" stroke="black" points="199.5,-0.5 199.5,-89.5 378.5,-89.5 378.5,-0.5 199.5,-0.5"/>
<text text-anchor="middle" x="289" y="-76.5" font-family="Helvetica,sans-Serif" font-size="10.00">jdungeon.core.world.creatures.Golem</text>
<polyline fill="none" stroke="black" points="199.5,-68.5 378.5,-68.5 "/>
<text text-anchor="start" x="207.5" y="-55.5" font-family="Helvetica,sans-Serif" font-size="10.00">&#45; serialVersionUID</text>
<text text-anchor="start" x="207.5" y="-42.5" font-family="Helvetica,sans-Serif" font-size="10.00">&#45; S</text>
<text text-anchor="start" x="207.5" y="-29.5" font-family="Helvetica,sans-Serif" font-size="10.00">&#45; F</text>
<polyline fill="none" stroke="black" points="199.5,-21.5 378.5,-21.5 "/>
<text text-anchor="start" x="207.5" y="-8.5" font-family="Helvetica,sans-Serif" font-size="10.00">+ Golem()</text>
</a>
</g>
<!-- Node1&#45;&gt;Node6 -->
<g id="edge10" class="edge"><title>Node1&#45;&gt;Node6</title>
<path fill="none" stroke="midnightblue" d="M289,-116.902C289,-107.612 289,-98.3468 289,-89.7069"/>
<polygon fill="none" stroke="midnightblue" points="285.5,-116.962 289,-126.962 292.5,-116.962 285.5,-116.962"/>
</g>
<!-- Node7 -->
<g id="node13" class="node"><title>Node7</title>
<a xlink:href="classjdungeon_1_1core_1_1world_1_1creatures_1_1_snake.html" target="_top" xlink:title="{jdungeon.core.world.creatures.Snake\n|&#45; serialVersionUID\l&#45; S\l&#45; F\l|+ Snake()\l}">
<polygon fill="none" stroke="black" points="396,-0.5 396,-89.5 574,-89.5 574,-0.5 396,-0.5"/>
<text text-anchor="middle" x="485" y="-76.5" font-family="Helvetica,sans-Serif" font-size="10.00">jdungeon.core.world.creatures.Snake</text>
<polyline fill="none" stroke="black" points="396,-68.5 574,-68.5 "/>
<text text-anchor="start" x="404" y="-55.5" font-family="Helvetica,sans-Serif" font-size="10.00">&#45; serialVersionUID</text>
<text text-anchor="start" x="404" y="-42.5" font-family="Helvetica,sans-Serif" font-size="10.00">&#45; S</text>
<text text-anchor="start" x="404" y="-29.5" font-family="Helvetica,sans-Serif" font-size="10.00">&#45; F</text>
<polyline fill="none" stroke="black" points="396,-21.5 574,-21.5 "/>
<text text-anchor="start" x="404" y="-8.5" font-family="Helvetica,sans-Serif" font-size="10.00">+ Snake()</text>
</a>
</g>
<!-- Node1&#45;&gt;Node7 -->
<g id="edge12" class="edge"><title>Node1&#45;&gt;Node7</title>
<path fill="none" stroke="midnightblue" d="M383.301,-120.755C397.489,-110.187 411.78,-99.5417 424.983,-89.7069"/>
<polygon fill="none" stroke="midnightblue" points="380.897,-118.182 374.968,-126.962 385.079,-123.795 380.897,-118.182"/>
</g>
<!-- Node2 -->
<g id="node2" class="node"><title>Node2</title>
<a xlink:href="classjdungeon_1_1core_1_1world_1_1_vulnerable.html" target="_top" xlink:title="{jdungeon.core.world.Vulnerable\n|&#45; HP\l&#45; maxHP\l&#45; level\l&#45; strength\l&#45; strengthBonus\l&#45; observers\l&#45; serialVersionUID\l|+ Vulnerable()\l+ getLevel()\l+ getHP()\l+ hitBy()\l+ hitsTo()\l+ heal()\l+ hurtBy()\l+ getStrength()\l+ getRawStrength()\l+ getStrengthBonus()\l+ setStrength()\l+ setStrengthBonus()\l+ setMaxHealth()\l+ getMaxHealth()\l+ setLevel()\l+ awardExperience()\l+ getExperience()\l+ subscribe()\l+ unsubscribe()\l# die()\l}">
<polygon fill="none" stroke="black" points="213,-293 213,-681 365,-681 365,-293 213,-293"/>
<text text-anchor="middle" x="289" y="-668" font-family="Helvetica,sans-Serif" font-size="10.00">jdungeon.core.world.Vulnerable</text>
<polyline fill="none" stroke="black" points="213,-660 365,-660 "/>
<text text-anchor="start" x="221" y="-647" font-family="Helvetica,sans-Serif" font-size="10.00">&#45; HP</text>
<text text-anchor="start" x="221" y="-634" font-family="Helvetica,sans-Serif" font-size="10.00">&#45; maxHP</text>
<text text-anchor="start" x="221" y="-621" font-family="Helvetica,sans-Serif" font-size="10.00">&#45; level</text>
<text text-anchor="start" x="221" y="-608" font-family="Helvetica,sans-Serif" font-size="10.00">&#45; strength</text>
<text text-anchor="start" x="221" y="-595" font-family="Helvetica,sans-Serif" font-size="10.00">&#45; strengthBonus</text>
<text text-anchor="start" x="221" y="-582" font-family="Helvetica,sans-Serif" font-size="10.00">&#45; observers</text>
<text text-anchor="start" x="221" y="-569" font-family="Helvetica,sans-Serif" font-size="10.00">&#45; serialVersionUID</text>
<polyline fill="none" stroke="black" points="213,-561 365,-561 "/>
<text text-anchor="start" x="221" y="-548" font-family="Helvetica,sans-Serif" font-size="10.00">+ Vulnerable()</text>
<text text-anchor="start" x="221" y="-535" font-family="Helvetica,sans-Serif" font-size="10.00">+ getLevel()</text>
<text text-anchor="start" x="221" y="-522" font-family="Helvetica,sans-Serif" font-size="10.00">+ getHP()</text>
<text text-anchor="start" x="221" y="-509" font-family="Helvetica,sans-Serif" font-size="10.00">+ hitBy()</text>
<text text-anchor="start" x="221" y="-496" font-family="Helvetica,sans-Serif" font-size="10.00">+ hitsTo()</text>
<text text-anchor="start" x="221" y="-483" font-family="Helvetica,sans-Serif" font-size="10.00">+ heal()</text>
<text text-anchor="start" x="221" y="-470" font-family="Helvetica,sans-Serif" font-size="10.00">+ hurtBy()</text>
<text text-anchor="start" x="221" y="-457" font-family="Helvetica,sans-Serif" font-size="10.00">+ getStrength()</text>
<text text-anchor="start" x="221" y="-444" font-family="Helvetica,sans-Serif" font-size="10.00">+ getRawStrength()</text>
<text text-anchor="start" x="221" y="-431" font-family="Helvetica,sans-Serif" font-size="10.00">+ getStrengthBonus()</text>
<text text-anchor="start" x="221" y="-418" font-family="Helvetica,sans-Serif" font-size="10.00">+ setStrength()</text>
<text text-anchor="start" x="221" y="-405" font-family="Helvetica,sans-Serif" font-size="10.00">+ setStrengthBonus()</text>
<text text-anchor="start" x="221" y="-392" font-family="Helvetica,sans-Serif" font-size="10.00">+ setMaxHealth()</text>
<text text-anchor="start" x="221" y="-379" font-family="Helvetica,sans-Serif" font-size="10.00">+ getMaxHealth()</text>
<text text-anchor="start" x="221" y="-366" font-family="Helvetica,sans-Serif" font-size="10.00">+ setLevel()</text>
<text text-anchor="start" x="221" y="-353" font-family="Helvetica,sans-Serif" font-size="10.00">+ awardExperience()</text>
<text text-anchor="start" x="221" y="-340" font-family="Helvetica,sans-Serif" font-size="10.00">+ getExperience()</text>
<text text-anchor="start" x="221" y="-327" font-family="Helvetica,sans-Serif" font-size="10.00">+ subscribe()</text>
<text text-anchor="start" x="221" y="-314" font-family="Helvetica,sans-Serif" font-size="10.00">+ unsubscribe()</text>
<text text-anchor="start" x="221" y="-301" font-family="Helvetica,sans-Serif" font-size="10.00"># die()</text>
</a>
</g>
<!-- Node2&#45;&gt;Node1 -->
<g id="edge2" class="edge"><title>Node2&#45;&gt;Node1</title>
<path fill="none" stroke="midnightblue" d="M289,-282.703C289,-273.071 289,-263.813 289,-255.131"/>
<polygon fill="none" stroke="midnightblue" points="285.5,-282.866 289,-292.866 292.5,-282.866 285.5,-282.866"/>
</g>
<!-- Node3 -->
<g id="node4" class="node"><title>Node3</title>
<a xlink:href="classjdungeon_1_1core_1_1world_1_1_entity.html" target="_top" xlink:title="{jdungeon.core.world.Entity\n|&#45; w\l&#45; serialVersionUID\l|+ setWorld()\l+ getWorld()\l+ hitBy()\l+ hitsTo()\l+ near()\l+ clone()\l}">
<polygon fill="none" stroke="black" points="223,-718.5 223,-859.5 355,-859.5 355,-718.5 223,-718.5"/>
<text text-anchor="middle" x="289" y="-846.5" font-family="Helvetica,sans-Serif" font-size="10.00">jdungeon.core.world.Entity</text>
<polyline fill="none" stroke="black" points="223,-838.5 355,-838.5 "/>
<text text-anchor="start" x="231" y="-825.5" font-family="Helvetica,sans-Serif" font-size="10.00">&#45; w</text>
<text text-anchor="start" x="231" y="-812.5" font-family="Helvetica,sans-Serif" font-size="10.00">&#45; serialVersionUID</text>
<polyline fill="none" stroke="black" points="223,-804.5 355,-804.5 "/>
<text text-anchor="start" x="231" y="-791.5" font-family="Helvetica,sans-Serif" font-size="10.00">+ setWorld()</text>
<text text-anchor="start" x="231" y="-778.5" font-family="Helvetica,sans-Serif" font-size="10.00">+ getWorld()</text>
<text text-anchor="start" x="231" y="-765.5" font-family="Helvetica,sans-Serif" font-size="10.00">+ hitBy()</text>
<text text-anchor="start" x="231" y="-752.5" font-family="Helvetica,sans-Serif" font-size="10.00">+ hitsTo()</text>
<text text-anchor="start" x="231" y="-739.5" font-family="Helvetica,sans-Serif" font-size="10.00">+ near()</text>
<text text-anchor="start" x="231" y="-726.5" font-family="Helvetica,sans-Serif" font-size="10.00">+ clone()</text>
</a>
</g>
<!-- Node3&#45;&gt;Node2 -->
<g id="edge4" class="edge"><title>Node3&#45;&gt;Node2</title>
<path fill="none" stroke="midnightblue" d="M289,-707.928C289,-699.346 289,-690.377 289,-681.174"/>
<polygon fill="none" stroke="midnightblue" points="285.5,-708.194 289,-718.194 292.5,-708.194 285.5,-708.194"/>
</g>
<!-- Node4 -->
<g id="node6" class="node"><title>Node4</title>
<polygon fill="none" stroke="#bfbfbf" points="255.5,-896.5 255.5,-959.5 322.5,-959.5 322.5,-896.5 255.5,-896.5"/>
<text text-anchor="middle" x="289" y="-946.5" font-family="Helvetica,sans-Serif" font-size="10.00">Serializable</text>
<polyline fill="none" stroke="#bfbfbf" points="255.5,-938.5 322.5,-938.5 "/>
<text text-anchor="middle" x="289" y="-925.5" font-family="Helvetica,sans-Serif" font-size="10.00"> </text>
<polyline fill="none" stroke="#bfbfbf" points="255.5,-917.5 322.5,-917.5 "/>
<text text-anchor="middle" x="289" y="-904.5" font-family="Helvetica,sans-Serif" font-size="10.00"> </text>
</g>
<!-- Node4&#45;&gt;Node3 -->
<g id="edge6" class="edge"><title>Node4&#45;&gt;Node3</title>
<path fill="none" stroke="midnightblue" d="M289,-886.453C289,-877.942 289,-868.76 289,-859.553"/>
<polygon fill="none" stroke="midnightblue" points="285.5,-886.459 289,-896.459 292.5,-886.459 285.5,-886.459"/>
</g>
</g>
</svg>
