<?xml version="1.0" encoding="UTF-8" standalone="no"?>
<!DOCTYPE svg PUBLIC "-//W3C//DTD SVG 1.1//EN"
 "http://www.w3.org/Graphics/SVG/1.1/DTD/svg11.dtd">
<!-- Generated by graphviz version 2.26.3 (20100126.1600)
 -->
<!-- Title: G Pages: 1 -->
<svg width="464pt" height="486pt"
 viewBox="0.00 0.00 464.00 486.00" xmlns="http://www.w3.org/2000/svg" xmlns:xlink="http://www.w3.org/1999/xlink">
<g id="graph1" class="graph" transform="scale(1 1) rotate(0) translate(4 482)">
<title>G</title>
<!-- Node1 -->
<g id="node1" class="node"><title>Node1</title>
<polygon fill="#bfbfbf" stroke="black" points="151.5,-1 151.5,-233 272.5,-233 272.5,-1 151.5,-1"/>
<text text-anchor="middle" x="212" y="-220" font-family="Helvetica,sans-Serif" font-size="10.00">jdungeon.frontend.Menu</text>
<polyline fill="none" stroke="black" points="151.5,-212 272.5,-212 "/>
<text text-anchor="start" x="159.5" y="-199" font-family="Helvetica,sans-Serif" font-size="10.00">&#45; menu</text>
<text text-anchor="start" x="159.5" y="-186" font-family="Helvetica,sans-Serif" font-size="10.00">&#45; game</text>
<text text-anchor="start" x="159.5" y="-173" font-family="Helvetica,sans-Serif" font-size="10.00">&#45; select</text>
<text text-anchor="start" x="159.5" y="-160" font-family="Helvetica,sans-Serif" font-size="10.00">&#45; nGame</text>
<text text-anchor="start" x="159.5" y="-147" font-family="Helvetica,sans-Serif" font-size="10.00">&#45; lGame</text>
<text text-anchor="start" x="159.5" y="-134" font-family="Helvetica,sans-Serif" font-size="10.00">&#45; sGame</text>
<text text-anchor="start" x="159.5" y="-121" font-family="Helvetica,sans-Serif" font-size="10.00">&#45; exit</text>
<text text-anchor="start" x="159.5" y="-108" font-family="Helvetica,sans-Serif" font-size="10.00">&#45; restart</text>
<text text-anchor="start" x="159.5" y="-95" font-family="Helvetica,sans-Serif" font-size="10.00">&#45; endGame</text>
<text text-anchor="start" x="159.5" y="-82" font-family="Helvetica,sans-Serif" font-size="10.00">&#45; file</text>
<text text-anchor="start" x="159.5" y="-69" font-family="Helvetica,sans-Serif" font-size="10.00">&#45; event</text>
<text text-anchor="start" x="159.5" y="-56" font-family="Helvetica,sans-Serif" font-size="10.00">&#45; serialVersionUID</text>
<polyline fill="none" stroke="black" points="151.5,-48 272.5,-48 "/>
<text text-anchor="start" x="159.5" y="-35" font-family="Helvetica,sans-Serif" font-size="10.00">+ NewGame()</text>
<text text-anchor="start" x="159.5" y="-22" font-family="Helvetica,sans-Serif" font-size="10.00">+ addOptions()</text>
<text text-anchor="start" x="159.5" y="-9" font-family="Helvetica,sans-Serif" font-size="10.00">+ removeOptions()</text>
</g>
<!-- Node2 -->
<g id="node2" class="node"><title>Node2</title>
<polygon fill="none" stroke="#bfbfbf" points="0,-375.5 0,-438.5 50,-438.5 50,-375.5 0,-375.5"/>
<text text-anchor="middle" x="25" y="-425.5" font-family="Helvetica,sans-Serif" font-size="10.00">JFrame</text>
<polyline fill="none" stroke="#bfbfbf" points="0,-417.5 50,-417.5 "/>
<text text-anchor="middle" x="25" y="-404.5" font-family="Helvetica,sans-Serif" font-size="10.00"> </text>
<polyline fill="none" stroke="#bfbfbf" points="0,-396.5 50,-396.5 "/>
<text text-anchor="middle" x="25" y="-383.5" font-family="Helvetica,sans-Serif" font-size="10.00"> </text>
</g>
<!-- Node2&#45;&gt;Node1 -->
<g id="edge2" class="edge"><title>Node2&#45;&gt;Node1</title>
<path fill="none" stroke="midnightblue" d="M43.2418,-365.98C48.0588,-356.004 53.4671,-345.482 59,-336 86.8163,-288.329 121.832,-237.656 151.344,-197.072"/>
<polygon fill="none" stroke="midnightblue" points="39.9333,-364.789 38.8197,-375.325 46.2607,-367.783 39.9333,-364.789"/>
</g>
<!-- Node3 -->
<g id="node4" class="node"><title>Node3</title>
<polygon fill="none" stroke="#bfbfbf" points="67.5,-375.5 67.5,-438.5 132.5,-438.5 132.5,-375.5 67.5,-375.5"/>
<text text-anchor="middle" x="100" y="-425.5" font-family="Helvetica,sans-Serif" font-size="10.00">JMenuItem</text>
<polyline fill="none" stroke="#bfbfbf" points="67.5,-417.5 132.5,-417.5 "/>
<text text-anchor="middle" x="100" y="-404.5" font-family="Helvetica,sans-Serif" font-size="10.00"> </text>
<polyline fill="none" stroke="#bfbfbf" points="67.5,-396.5 132.5,-396.5 "/>
<text text-anchor="middle" x="100" y="-383.5" font-family="Helvetica,sans-Serif" font-size="10.00"> </text>
</g>
<!-- Node3&#45;&gt;Node1 -->
<g id="edge4" class="edge"><title>Node3&#45;&gt;Node1</title>
<path fill="none" stroke="#9a32cd" stroke-dasharray="5,2" d="M108.658,-365.684C115.9,-334.007 127.389,-289.506 142,-252 144.875,-244.62 148.038,-237.116 151.381,-229.618"/>
<polygon fill="#9a32cd" stroke="#9a32cd" points="106.458,-375.492 104.256,-364.75 107.552,-370.614 108.647,-365.735 108.647,-365.735 108.647,-365.735 107.552,-370.614 113.038,-366.72 106.458,-375.492 106.458,-375.492"/>
<text text-anchor="middle" x="163.5" y="-308.5" font-family="Helvetica,sans-Serif" font-size="10.00">lGame</text>
<text text-anchor="middle" x="163.5" y="-295.5" font-family="Helvetica,sans-Serif" font-size="10.00">endGame</text>
<text text-anchor="middle" x="163.5" y="-282.5" font-family="Helvetica,sans-Serif" font-size="10.00">restart</text>
<text text-anchor="middle" x="163.5" y="-269.5" font-family="Helvetica,sans-Serif" font-size="10.00">exit</text>
<text text-anchor="middle" x="163.5" y="-256.5" font-family="Helvetica,sans-Serif" font-size="10.00">sGame</text>
</g>
<!-- Node4 -->
<g id="node6" class="node"><title>Node4</title>
<polygon fill="none" stroke="#bfbfbf" points="149.5,-375.5 149.5,-438.5 210.5,-438.5 210.5,-375.5 149.5,-375.5"/>
<text text-anchor="middle" x="180" y="-425.5" font-family="Helvetica,sans-Serif" font-size="10.00">JMenuBar</text>
<polyline fill="none" stroke="#bfbfbf" points="149.5,-417.5 210.5,-417.5 "/>
<text text-anchor="middle" x="180" y="-404.5" font-family="Helvetica,sans-Serif" font-size="10.00"> </text>
<polyline fill="none" stroke="#bfbfbf" points="149.5,-396.5 210.5,-396.5 "/>
<text text-anchor="middle" x="180" y="-383.5" font-family="Helvetica,sans-Serif" font-size="10.00"> </text>
</g>
<!-- Node4&#45;&gt;Node1 -->
<g id="edge6" class="edge"><title>Node4&#45;&gt;Node1</title>
<path fill="none" stroke="#9a32cd" stroke-dasharray="5,2" d="M184.573,-365.16C187.986,-333.966 192.77,-290.317 197,-252 197.673,-245.906 198.364,-239.657 199.062,-233.348"/>
<polygon fill="#9a32cd" stroke="#9a32cd" points="183.471,-375.235 180.085,-364.805 184.014,-370.265 184.558,-365.294 184.558,-365.294 184.558,-365.294 184.014,-370.265 189.031,-365.784 183.471,-375.235 183.471,-375.235"/>
<text text-anchor="middle" x="209.5" y="-282.5" font-family="Helvetica,sans-Serif" font-size="10.00">menu</text>
</g>
<!-- Node5 -->
<g id="node8" class="node"><title>Node5</title>
<polygon fill="none" stroke="#bfbfbf" points="228,-375.5 228,-438.5 260,-438.5 260,-375.5 228,-375.5"/>
<text text-anchor="middle" x="244" y="-425.5" font-family="Helvetica,sans-Serif" font-size="10.00">File</text>
<polyline fill="none" stroke="#bfbfbf" points="228,-417.5 260,-417.5 "/>
<text text-anchor="middle" x="244" y="-404.5" font-family="Helvetica,sans-Serif" font-size="10.00"> </text>
<polyline fill="none" stroke="#bfbfbf" points="228,-396.5 260,-396.5 "/>
<text text-anchor="middle" x="244" y="-383.5" font-family="Helvetica,sans-Serif" font-size="10.00"> </text>
</g>
<!-- Node5&#45;&gt;Node1 -->
<g id="edge8" class="edge"><title>Node5&#45;&gt;Node1</title>
<path fill="none" stroke="#9a32cd" stroke-dasharray="5,2" d="M239.39,-365.225C235.574,-330.643 229.963,-279.789 224.811,-233.102"/>
<polygon fill="#9a32cd" stroke="#9a32cd" points="240.515,-375.413 234.945,-365.967 239.966,-370.443 239.418,-365.473 239.418,-365.473 239.418,-365.473 239.966,-370.443 243.89,-364.98 240.515,-375.413 240.515,-375.413"/>
<text text-anchor="middle" x="239.5" y="-282.5" font-family="Helvetica,sans-Serif" font-size="10.00">file</text>
</g>
<!-- Node6 -->
<g id="node10" class="node"><title>Node6</title>
<polygon fill="none" stroke="#bfbfbf" points="278,-375.5 278,-438.5 324,-438.5 324,-375.5 278,-375.5"/>
<text text-anchor="middle" x="301" y="-425.5" font-family="Helvetica,sans-Serif" font-size="10.00">JMenu</text>
<polyline fill="none" stroke="#bfbfbf" points="278,-417.5 324,-417.5 "/>
<text text-anchor="middle" x="301" y="-404.5" font-family="Helvetica,sans-Serif" font-size="10.00"> </text>
<polyline fill="none" stroke="#bfbfbf" points="278,-396.5 324,-396.5 "/>
<text text-anchor="middle" x="301" y="-383.5" font-family="Helvetica,sans-Serif" font-size="10.00"> </text>
</g>
<!-- Node6&#45;&gt;Node1 -->
<g id="edge10" class="edge"><title>Node6&#45;&gt;Node1</title>
<path fill="none" stroke="#9a32cd" stroke-dasharray="5,2" d="M288.316,-365.672C277.701,-331.081 262.021,-279.991 247.631,-233.102"/>
<polygon fill="#9a32cd" stroke="#9a32cd" points="291.306,-375.413 284.07,-367.173 289.839,-370.633 288.372,-365.853 288.372,-365.853 288.372,-365.853 289.839,-370.633 292.674,-364.533 291.306,-375.413 291.306,-375.413"/>
<text text-anchor="middle" x="288" y="-295.5" font-family="Helvetica,sans-Serif" font-size="10.00">game</text>
<text text-anchor="middle" x="288" y="-282.5" font-family="Helvetica,sans-Serif" font-size="10.00">nGame</text>
<text text-anchor="middle" x="288" y="-269.5" font-family="Helvetica,sans-Serif" font-size="10.00">select</text>
</g>
<!-- Node7 -->
<g id="node12" class="node"><title>Node7</title>
<a xlink:href="interfacejdungeon_1_1frontend_1_1_g_u_i.html" target="_top" xlink:title="{jdungeon.frontend.GUI\n||+ NewGame()\l+ save()\l+ load()\l+ updatePoint()\l+ quit()\l+ end()\l+ restart()\l}">
<polygon fill="none" stroke="black" points="341.5,-336.5 341.5,-477.5 456.5,-477.5 456.5,-336.5 341.5,-336.5"/>
<text text-anchor="middle" x="399" y="-464.5" font-family="Helvetica,sans-Serif" font-size="10.00">jdungeon.frontend.GUI</text>
<polyline fill="none" stroke="black" points="341.5,-456.5 456.5,-456.5 "/>
<text text-anchor="middle" x="399" y="-443.5" font-family="Helvetica,sans-Serif" font-size="10.00"> </text>
<polyline fill="none" stroke="black" points="341.5,-435.5 456.5,-435.5 "/>
<text text-anchor="start" x="349.5" y="-422.5" font-family="Helvetica,sans-Serif" font-size="10.00">+ NewGame()</text>
<text text-anchor="start" x="349.5" y="-409.5" font-family="Helvetica,sans-Serif" font-size="10.00">+ save()</text>
<text text-anchor="start" x="349.5" y="-396.5" font-family="Helvetica,sans-Serif" font-size="10.00">+ load()</text>
<text text-anchor="start" x="349.5" y="-383.5" font-family="Helvetica,sans-Serif" font-size="10.00">+ updatePoint()</text>
<text text-anchor="start" x="349.5" y="-370.5" font-family="Helvetica,sans-Serif" font-size="10.00">+ quit()</text>
<text text-anchor="start" x="349.5" y="-357.5" font-family="Helvetica,sans-Serif" font-size="10.00">+ end()</text>
<text text-anchor="start" x="349.5" y="-344.5" font-family="Helvetica,sans-Serif" font-size="10.00">+ restart()</text>
</a>
</g>
<!-- Node7&#45;&gt;Node1 -->
<g id="edge12" class="edge"><title>Node7&#45;&gt;Node1</title>
<path fill="none" stroke="#9a32cd" stroke-dasharray="5,2" d="M354.102,-327.481C339.804,-303 323.631,-276.146 308,-252 296.904,-234.859 284.578,-216.842 272.559,-199.753"/>
<polygon fill="#9a32cd" stroke="#9a32cd" points="359.28,-336.384 350.363,-330.002 356.766,-332.062 354.252,-327.74 354.252,-327.74 354.252,-327.74 356.766,-332.062 358.142,-325.477 359.28,-336.384 359.28,-336.384"/>
<text text-anchor="middle" x="358.5" y="-282.5" font-family="Helvetica,sans-Serif" font-size="10.00">event</text>
</g>
</g>
</svg>
