<?xml version="1.0" encoding="UTF-8" standalone="no"?>
<!DOCTYPE svg PUBLIC "-//W3C//DTD SVG 1.1//EN"
 "http://www.w3.org/Graphics/SVG/1.1/DTD/svg11.dtd">
<!-- Generated by graphviz version 2.26.3 (20100126.1600)
 -->
<!-- Title: G Pages: 1 -->
<svg width="1121pt" height="1932pt"
 viewBox="0.00 0.00 1121.00 1932.00" xmlns="http://www.w3.org/2000/svg" xmlns:xlink="http://www.w3.org/1999/xlink">
<g id="graph1" class="graph" transform="scale(1 1) rotate(0) translate(4 1928)">
<title>G</title>
<!-- Node1 -->
<g id="node1" class="node"><title>Node1</title>
<polygon fill="#bfbfbf" stroke="black" points="235,-654.5 235,-743.5 427,-743.5 427,-654.5 235,-654.5"/>
<text text-anchor="middle" x="331" y="-730.5" font-family="Helvetica,sans-Serif" font-size="10.00">jdungeon.core.world.bonus.HealthBonus</text>
<polyline fill="none" stroke="black" points="235,-722.5 427,-722.5 "/>
<text text-anchor="start" x="243" y="-709.5" font-family="Helvetica,sans-Serif" font-size="10.00">&#45; serialVersionUID</text>
<polyline fill="none" stroke="black" points="235,-701.5 427,-701.5 "/>
<text text-anchor="start" x="243" y="-688.5" font-family="Helvetica,sans-Serif" font-size="10.00">+ HealthBonus()</text>
<text text-anchor="start" x="243" y="-675.5" font-family="Helvetica,sans-Serif" font-size="10.00"># areaBuff()</text>
<text text-anchor="start" x="243" y="-662.5" font-family="Helvetica,sans-Serif" font-size="10.00"># buff()</text>
</g>
<!-- Node2 -->
<g id="node2" class="node"><title>Node2</title>
<a xlink:href="classjdungeon_1_1core_1_1world_1_1bonus_1_1_bonus.html" target="_top" xlink:title="{jdungeon.core.world.bonus.Bonus\n|&#45; level\l&#45; serialVersionUID\l|+ Bonus()\l+ hitBy()\l+ near()\l+ getLevel()\l# buff()\l# areaBuff()\l}">
<polygon fill="none" stroke="black" points="256,-1002.5 256,-1143.5 420,-1143.5 420,-1002.5 256,-1002.5"/>
<text text-anchor="middle" x="338" y="-1130.5" font-family="Helvetica,sans-Serif" font-size="10.00">jdungeon.core.world.bonus.Bonus</text>
<polyline fill="none" stroke="black" points="256,-1122.5 420,-1122.5 "/>
<text text-anchor="start" x="264" y="-1109.5" font-family="Helvetica,sans-Serif" font-size="10.00">&#45; level</text>
<text text-anchor="start" x="264" y="-1096.5" font-family="Helvetica,sans-Serif" font-size="10.00">&#45; serialVersionUID</text>
<polyline fill="none" stroke="black" points="256,-1088.5 420,-1088.5 "/>
<text text-anchor="start" x="264" y="-1075.5" font-family="Helvetica,sans-Serif" font-size="10.00">+ Bonus()</text>
<text text-anchor="start" x="264" y="-1062.5" font-family="Helvetica,sans-Serif" font-size="10.00">+ hitBy()</text>
<text text-anchor="start" x="264" y="-1049.5" font-family="Helvetica,sans-Serif" font-size="10.00">+ near()</text>
<text text-anchor="start" x="264" y="-1036.5" font-family="Helvetica,sans-Serif" font-size="10.00">+ getLevel()</text>
<text text-anchor="start" x="264" y="-1023.5" font-family="Helvetica,sans-Serif" font-size="10.00"># buff()</text>
<text text-anchor="start" x="264" y="-1010.5" font-family="Helvetica,sans-Serif" font-size="10.00"># areaBuff()</text>
</a>
</g>
<!-- Node2&#45;&gt;Node1 -->
<g id="edge2" class="edge"><title>Node2&#45;&gt;Node1</title>
<path fill="none" stroke="midnightblue" d="M336.487,-992.186C335.063,-916.106 332.983,-804.953 331.836,-743.68"/>
<polygon fill="none" stroke="midnightblue" points="332.989,-992.281 336.675,-1002.21 339.987,-992.15 332.989,-992.281"/>
</g>
<!-- Node3 -->
<g id="node4" class="node"><title>Node3</title>
<a xlink:href="classjdungeon_1_1core_1_1world_1_1_entity.html" target="_top" xlink:title="{jdungeon.core.world.Entity\n|&#45; w\l&#45; serialVersionUID\l|+ setWorld()\l+ getWorld()\l+ hitBy()\l+ hitsTo()\l+ near()\l+ clone()\l}">
<polygon fill="none" stroke="black" points="292,-1518.5 292,-1659.5 424,-1659.5 424,-1518.5 292,-1518.5"/>
<text text-anchor="middle" x="358" y="-1646.5" font-family="Helvetica,sans-Serif" font-size="10.00">jdungeon.core.world.Entity</text>
<polyline fill="none" stroke="black" points="292,-1638.5 424,-1638.5 "/>
<text text-anchor="start" x="300" y="-1625.5" font-family="Helvetica,sans-Serif" font-size="10.00">&#45; w</text>
<text text-anchor="start" x="300" y="-1612.5" font-family="Helvetica,sans-Serif" font-size="10.00">&#45; serialVersionUID</text>
<polyline fill="none" stroke="black" points="292,-1604.5 424,-1604.5 "/>
<text text-anchor="start" x="300" y="-1591.5" font-family="Helvetica,sans-Serif" font-size="10.00">+ setWorld()</text>
<text text-anchor="start" x="300" y="-1578.5" font-family="Helvetica,sans-Serif" font-size="10.00">+ getWorld()</text>
<text text-anchor="start" x="300" y="-1565.5" font-family="Helvetica,sans-Serif" font-size="10.00">+ hitBy()</text>
<text text-anchor="start" x="300" y="-1552.5" font-family="Helvetica,sans-Serif" font-size="10.00">+ hitsTo()</text>
<text text-anchor="start" x="300" y="-1539.5" font-family="Helvetica,sans-Serif" font-size="10.00">+ near()</text>
<text text-anchor="start" x="300" y="-1526.5" font-family="Helvetica,sans-Serif" font-size="10.00">+ clone()</text>
</a>
</g>
<!-- Node3&#45;&gt;Node2 -->
<g id="edge4" class="edge"><title>Node3&#45;&gt;Node2</title>
<path fill="none" stroke="midnightblue" d="M354.871,-1508.26C350.988,-1408.09 344.43,-1238.89 340.738,-1143.64"/>
<polygon fill="none" stroke="midnightblue" points="351.376,-1508.48 355.261,-1518.33 358.371,-1508.21 351.376,-1508.48"/>
</g>
<!-- Node11 -->
<g id="node23" class="node"><title>Node11</title>
<a xlink:href="classjdungeon_1_1core_1_1world_1_1_vulnerable.html" target="_top" xlink:title="{jdungeon.core.world.Vulnerable\n|&#45; HP\l&#45; maxHP\l&#45; level\l&#45; strength\l&#45; strengthBonus\l&#45; observers\l&#45; serialVersionUID\l|+ Vulnerable()\l+ getLevel()\l+ getHP()\l+ hitBy()\l+ hitsTo()\l+ heal()\l+ hurtBy()\l+ getStrength()\l+ getRawStrength()\l+ getStrengthBonus()\l+ setStrength()\l+ setStrengthBonus()\l+ setMaxHealth()\l+ getMaxHealth()\l+ setLevel()\l+ awardExperience()\l+ getExperience()\l+ subscribe()\l+ unsubscribe()\l# die()\l}">
<polygon fill="none" stroke="black" points="445,-879 445,-1267 597,-1267 597,-879 445,-879"/>
<text text-anchor="middle" x="521" y="-1254" font-family="Helvetica,sans-Serif" font-size="10.00">jdungeon.core.world.Vulnerable</text>
<polyline fill="none" stroke="black" points="445,-1246 597,-1246 "/>
<text text-anchor="start" x="453" y="-1233" font-family="Helvetica,sans-Serif" font-size="10.00">&#45; HP</text>
<text text-anchor="start" x="453" y="-1220" font-family="Helvetica,sans-Serif" font-size="10.00">&#45; maxHP</text>
<text text-anchor="start" x="453" y="-1207" font-family="Helvetica,sans-Serif" font-size="10.00">&#45; level</text>
<text text-anchor="start" x="453" y="-1194" font-family="Helvetica,sans-Serif" font-size="10.00">&#45; strength</text>
<text text-anchor="start" x="453" y="-1181" font-family="Helvetica,sans-Serif" font-size="10.00">&#45; strengthBonus</text>
<text text-anchor="start" x="453" y="-1168" font-family="Helvetica,sans-Serif" font-size="10.00">&#45; observers</text>
<text text-anchor="start" x="453" y="-1155" font-family="Helvetica,sans-Serif" font-size="10.00">&#45; serialVersionUID</text>
<polyline fill="none" stroke="black" points="445,-1147 597,-1147 "/>
<text text-anchor="start" x="453" y="-1134" font-family="Helvetica,sans-Serif" font-size="10.00">+ Vulnerable()</text>
<text text-anchor="start" x="453" y="-1121" font-family="Helvetica,sans-Serif" font-size="10.00">+ getLevel()</text>
<text text-anchor="start" x="453" y="-1108" font-family="Helvetica,sans-Serif" font-size="10.00">+ getHP()</text>
<text text-anchor="start" x="453" y="-1095" font-family="Helvetica,sans-Serif" font-size="10.00">+ hitBy()</text>
<text text-anchor="start" x="453" y="-1082" font-family="Helvetica,sans-Serif" font-size="10.00">+ hitsTo()</text>
<text text-anchor="start" x="453" y="-1069" font-family="Helvetica,sans-Serif" font-size="10.00">+ heal()</text>
<text text-anchor="start" x="453" y="-1056" font-family="Helvetica,sans-Serif" font-size="10.00">+ hurtBy()</text>
<text text-anchor="start" x="453" y="-1043" font-family="Helvetica,sans-Serif" font-size="10.00">+ getStrength()</text>
<text text-anchor="start" x="453" y="-1030" font-family="Helvetica,sans-Serif" font-size="10.00">+ getRawStrength()</text>
<text text-anchor="start" x="453" y="-1017" font-family="Helvetica,sans-Serif" font-size="10.00">+ getStrengthBonus()</text>
<text text-anchor="start" x="453" y="-1004" font-family="Helvetica,sans-Serif" font-size="10.00">+ setStrength()</text>
<text text-anchor="start" x="453" y="-991" font-family="Helvetica,sans-Serif" font-size="10.00">+ setStrengthBonus()</text>
<text text-anchor="start" x="453" y="-978" font-family="Helvetica,sans-Serif" font-size="10.00">+ setMaxHealth()</text>
<text text-anchor="start" x="453" y="-965" font-family="Helvetica,sans-Serif" font-size="10.00">+ getMaxHealth()</text>
<text text-anchor="start" x="453" y="-952" font-family="Helvetica,sans-Serif" font-size="10.00">+ setLevel()</text>
<text text-anchor="start" x="453" y="-939" font-family="Helvetica,sans-Serif" font-size="10.00">+ awardExperience()</text>
<text text-anchor="start" x="453" y="-926" font-family="Helvetica,sans-Serif" font-size="10.00">+ getExperience()</text>
<text text-anchor="start" x="453" y="-913" font-family="Helvetica,sans-Serif" font-size="10.00">+ subscribe()</text>
<text text-anchor="start" x="453" y="-900" font-family="Helvetica,sans-Serif" font-size="10.00">+ unsubscribe()</text>
<text text-anchor="start" x="453" y="-887" font-family="Helvetica,sans-Serif" font-size="10.00"># die()</text>
</a>
</g>
<!-- Node3&#45;&gt;Node11 -->
<g id="edge28" class="edge"><title>Node3&#45;&gt;Node11</title>
<path fill="none" stroke="midnightblue" d="M383.386,-1508.64C403.758,-1444.15 433.22,-1350.88 459.662,-1267.18"/>
<polygon fill="none" stroke="midnightblue" points="379.998,-1507.74 380.323,-1518.33 386.672,-1509.85 379.998,-1507.74"/>
</g>
<!-- Node4 -->
<g id="node6" class="node"><title>Node4</title>
<polygon fill="none" stroke="#bfbfbf" points="543.5,-1860.5 543.5,-1923.5 610.5,-1923.5 610.5,-1860.5 543.5,-1860.5"/>
<text text-anchor="middle" x="577" y="-1910.5" font-family="Helvetica,sans-Serif" font-size="10.00">Serializable</text>
<polyline fill="none" stroke="#bfbfbf" points="543.5,-1902.5 610.5,-1902.5 "/>
<text text-anchor="middle" x="577" y="-1889.5" font-family="Helvetica,sans-Serif" font-size="10.00"> </text>
<polyline fill="none" stroke="#bfbfbf" points="543.5,-1881.5 610.5,-1881.5 "/>
<text text-anchor="middle" x="577" y="-1868.5" font-family="Helvetica,sans-Serif" font-size="10.00"> </text>
</g>
<!-- Node4&#45;&gt;Node3 -->
<g id="edge6" class="edge"><title>Node4&#45;&gt;Node3</title>
<path fill="none" stroke="midnightblue" d="M533.859,-1873.99C505.289,-1860.16 468.826,-1838.58 445,-1810 408.825,-1766.61 386.453,-1706.37 373.47,-1659.74"/>
<polygon fill="none" stroke="midnightblue" points="532.676,-1877.31 543.216,-1878.39 535.651,-1870.97 532.676,-1877.31"/>
</g>
<!-- Node5 -->
<g id="node8" class="node"><title>Node5</title>
<a xlink:href="classjdungeon_1_1core_1_1world_1_1_world.html" target="_top" xlink:title="{jdungeon.core.world.World\n|&#45; board\l&#45; player\l&#45; boss\l&#45; observers\l&#45; hurtEntities\l&#45; playerObserver\l&#45; bossObserver\l&#45; sizeX\l&#45; sizeY\l&#45; serialVersionUID\l|+ World()\l+ clone()\l+ getX()\l+ getY()\l+ getHurtEntities()\l+ subscribe()\l+ unsubscribe()\l+ add()\l+ add()\l+ add()\l+ add()\l+ remove()\l+ remove()\l+ getPlayer()\l+ getBoss()\l+ syncEvent()\l+ replace()\l~ addHurtEntity()\l~ removeHurtEntity()\l~ notifyChange()\l~ notifyChange()\l~ notifyChange()\l~ notifyChange()\l~ getEntityInPoint()\l# move()\l# moveDelta()\l# clearView()\l&#45; area()\l}">
<polygon fill="none" stroke="black" points="721,-0.5 721,-531.5 853,-531.5 853,-0.5 721,-0.5"/>
<text text-anchor="middle" x="787" y="-518.5" font-family="Helvetica,sans-Serif" font-size="10.00">jdungeon.core.world.World</text>
<polyline fill="none" stroke="black" points="721,-510.5 853,-510.5 "/>
<text text-anchor="start" x="729" y="-497.5" font-family="Helvetica,sans-Serif" font-size="10.00">&#45; board</text>
<text text-anchor="start" x="729" y="-484.5" font-family="Helvetica,sans-Serif" font-size="10.00">&#45; player</text>
<text text-anchor="start" x="729" y="-471.5" font-family="Helvetica,sans-Serif" font-size="10.00">&#45; boss</text>
<text text-anchor="start" x="729" y="-458.5" font-family="Helvetica,sans-Serif" font-size="10.00">&#45; observers</text>
<text text-anchor="start" x="729" y="-445.5" font-family="Helvetica,sans-Serif" font-size="10.00">&#45; hurtEntities</text>
<text text-anchor="start" x="729" y="-432.5" font-family="Helvetica,sans-Serif" font-size="10.00">&#45; playerObserver</text>
<text text-anchor="start" x="729" y="-419.5" font-family="Helvetica,sans-Serif" font-size="10.00">&#45; bossObserver</text>
<text text-anchor="start" x="729" y="-406.5" font-family="Helvetica,sans-Serif" font-size="10.00">&#45; sizeX</text>
<text text-anchor="start" x="729" y="-393.5" font-family="Helvetica,sans-Serif" font-size="10.00">&#45; sizeY</text>
<text text-anchor="start" x="729" y="-380.5" font-family="Helvetica,sans-Serif" font-size="10.00">&#45; serialVersionUID</text>
<polyline fill="none" stroke="black" points="721,-372.5 853,-372.5 "/>
<text text-anchor="start" x="729" y="-359.5" font-family="Helvetica,sans-Serif" font-size="10.00">+ World()</text>
<text text-anchor="start" x="729" y="-346.5" font-family="Helvetica,sans-Serif" font-size="10.00">+ clone()</text>
<text text-anchor="start" x="729" y="-333.5" font-family="Helvetica,sans-Serif" font-size="10.00">+ getX()</text>
<text text-anchor="start" x="729" y="-320.5" font-family="Helvetica,sans-Serif" font-size="10.00">+ getY()</text>
<text text-anchor="start" x="729" y="-307.5" font-family="Helvetica,sans-Serif" font-size="10.00">+ getHurtEntities()</text>
<text text-anchor="start" x="729" y="-294.5" font-family="Helvetica,sans-Serif" font-size="10.00">+ subscribe()</text>
<text text-anchor="start" x="729" y="-281.5" font-family="Helvetica,sans-Serif" font-size="10.00">+ unsubscribe()</text>
<text text-anchor="start" x="729" y="-268.5" font-family="Helvetica,sans-Serif" font-size="10.00">+ add()</text>
<text text-anchor="start" x="729" y="-255.5" font-family="Helvetica,sans-Serif" font-size="10.00">+ add()</text>
<text text-anchor="start" x="729" y="-242.5" font-family="Helvetica,sans-Serif" font-size="10.00">+ add()</text>
<text text-anchor="start" x="729" y="-229.5" font-family="Helvetica,sans-Serif" font-size="10.00">+ add()</text>
<text text-anchor="start" x="729" y="-216.5" font-family="Helvetica,sans-Serif" font-size="10.00">+ remove()</text>
<text text-anchor="start" x="729" y="-203.5" font-family="Helvetica,sans-Serif" font-size="10.00">+ remove()</text>
<text text-anchor="start" x="729" y="-190.5" font-family="Helvetica,sans-Serif" font-size="10.00">+ getPlayer()</text>
<text text-anchor="start" x="729" y="-177.5" font-family="Helvetica,sans-Serif" font-size="10.00">+ getBoss()</text>
<text text-anchor="start" x="729" y="-164.5" font-family="Helvetica,sans-Serif" font-size="10.00">+ syncEvent()</text>
<text text-anchor="start" x="729" y="-151.5" font-family="Helvetica,sans-Serif" font-size="10.00">+ replace()</text>
<text text-anchor="start" x="729" y="-138.5" font-family="Helvetica,sans-Serif" font-size="10.00">~ addHurtEntity()</text>
<text text-anchor="start" x="729" y="-125.5" font-family="Helvetica,sans-Serif" font-size="10.00">~ removeHurtEntity()</text>
<text text-anchor="start" x="729" y="-112.5" font-family="Helvetica,sans-Serif" font-size="10.00">~ notifyChange()</text>
<text text-anchor="start" x="729" y="-99.5" font-family="Helvetica,sans-Serif" font-size="10.00">~ notifyChange()</text>
<text text-anchor="start" x="729" y="-86.5" font-family="Helvetica,sans-Serif" font-size="10.00">~ notifyChange()</text>
<text text-anchor="start" x="729" y="-73.5" font-family="Helvetica,sans-Serif" font-size="10.00">~ notifyChange()</text>
<text text-anchor="start" x="729" y="-60.5" font-family="Helvetica,sans-Serif" font-size="10.00">~ getEntityInPoint()</text>
<text text-anchor="start" x="729" y="-47.5" font-family="Helvetica,sans-Serif" font-size="10.00"># move()</text>
<text text-anchor="start" x="729" y="-34.5" font-family="Helvetica,sans-Serif" font-size="10.00"># moveDelta()</text>
<text text-anchor="start" x="729" y="-21.5" font-family="Helvetica,sans-Serif" font-size="10.00"># clearView()</text>
<text text-anchor="start" x="729" y="-8.5" font-family="Helvetica,sans-Serif" font-size="10.00">&#45; area()</text>
</a>
</g>
<!-- Node4&#45;&gt;Node5 -->
<g id="edge10" class="edge"><title>Node4&#45;&gt;Node5</title>
<path fill="none" stroke="midnightblue" d="M619.5,-1867.03C690.851,-1821.53 827,-1717.84 827,-1589 827,-1589 827,-1589 827,-699 827,-644.739 823.847,-586.815 819.311,-531.561"/>
<polygon fill="none" stroke="midnightblue" points="617.324,-1864.26 610.716,-1872.54 621.046,-1870.19 617.324,-1864.26"/>
</g>
<!-- Node6 -->
<g id="node11" class="node"><title>Node6</title>
<a xlink:href="interfacejdungeon_1_1core_1_1world_1_1_vulnerable_observer.html" target="_top" xlink:title="{jdungeon.core.world.VulnerableObserver\n||+ onDeath()\l}">
<polygon fill="none" stroke="black" points="0,-1286.5 0,-1349.5 192,-1349.5 192,-1286.5 0,-1286.5"/>
<text text-anchor="middle" x="96" y="-1336.5" font-family="Helvetica,sans-Serif" font-size="10.00">jdungeon.core.world.VulnerableObserver</text>
<polyline fill="none" stroke="black" points="0,-1328.5 192,-1328.5 "/>
<text text-anchor="middle" x="96" y="-1315.5" font-family="Helvetica,sans-Serif" font-size="10.00"> </text>
<polyline fill="none" stroke="black" points="0,-1307.5 192,-1307.5 "/>
<text text-anchor="start" x="8" y="-1294.5" font-family="Helvetica,sans-Serif" font-size="10.00">+ onDeath()</text>
</a>
</g>
<!-- Node4&#45;&gt;Node6 -->
<g id="edge14" class="edge"><title>Node4&#45;&gt;Node6</title>
<path fill="none" stroke="midnightblue" d="M533.305,-1884.78C460.749,-1871.99 319.745,-1843.54 283,-1810 142.446,-1681.72 106.821,-1436.57 98.4207,-1349.58"/>
<polygon fill="none" stroke="midnightblue" points="533.041,-1888.28 543.493,-1886.55 534.24,-1881.39 533.041,-1888.28"/>
</g>
<!-- Node7 -->
<g id="node14" class="node"><title>Node7</title>
<a xlink:href="classjdungeon_1_1core_1_1world_1_1_board.html" target="_top" xlink:title="{jdungeon.core.world.Board\n|&#45; name\l&#45; cells\l&#45; entities\l&#45; sizeY\l&#45; sizeX\l&#45; serialVersionUID\l&#45; MAX_SIZE\l&#45; MIN_SIZE\l|+ Board()\l+ getSizeY()\l+ getSizeX()\l+ replace()\l+ setName()\l+ getName()\l+ iterator()\l+ filter()\l# neighbours()\l# neighbours()\l# in()\l# in()\l# add()\l# add()\l# remove()\l# contains()\l# move()\l# move()\l# getEntityPos()\l&#45; initMatrix()\l&#45; isValidPoint()\l&#45; isValidPoint()\l&#45; warpTo()\l}">
<polygon fill="none" stroke="black" points="855,-1369 855,-1809 987,-1809 987,-1369 855,-1369"/>
<text text-anchor="middle" x="921" y="-1796" font-family="Helvetica,sans-Serif" font-size="10.00">jdungeon.core.world.Board</text>
<polyline fill="none" stroke="black" points="855,-1788 987,-1788 "/>
<text text-anchor="start" x="863" y="-1775" font-family="Helvetica,sans-Serif" font-size="10.00">&#45; name</text>
<text text-anchor="start" x="863" y="-1762" font-family="Helvetica,sans-Serif" font-size="10.00">&#45; cells</text>
<text text-anchor="start" x="863" y="-1749" font-family="Helvetica,sans-Serif" font-size="10.00">&#45; entities</text>
<text text-anchor="start" x="863" y="-1736" font-family="Helvetica,sans-Serif" font-size="10.00">&#45; sizeY</text>
<text text-anchor="start" x="863" y="-1723" font-family="Helvetica,sans-Serif" font-size="10.00">&#45; sizeX</text>
<text text-anchor="start" x="863" y="-1710" font-family="Helvetica,sans-Serif" font-size="10.00">&#45; serialVersionUID</text>
<text text-anchor="start" x="863" y="-1697" font-family="Helvetica,sans-Serif" font-size="10.00">&#45; MAX_SIZE</text>
<text text-anchor="start" x="863" y="-1684" font-family="Helvetica,sans-Serif" font-size="10.00">&#45; MIN_SIZE</text>
<polyline fill="none" stroke="black" points="855,-1676 987,-1676 "/>
<text text-anchor="start" x="863" y="-1663" font-family="Helvetica,sans-Serif" font-size="10.00">+ Board()</text>
<text text-anchor="start" x="863" y="-1650" font-family="Helvetica,sans-Serif" font-size="10.00">+ getSizeY()</text>
<text text-anchor="start" x="863" y="-1637" font-family="Helvetica,sans-Serif" font-size="10.00">+ getSizeX()</text>
<text text-anchor="start" x="863" y="-1624" font-family="Helvetica,sans-Serif" font-size="10.00">+ replace()</text>
<text text-anchor="start" x="863" y="-1611" font-family="Helvetica,sans-Serif" font-size="10.00">+ setName()</text>
<text text-anchor="start" x="863" y="-1598" font-family="Helvetica,sans-Serif" font-size="10.00">+ getName()</text>
<text text-anchor="start" x="863" y="-1585" font-family="Helvetica,sans-Serif" font-size="10.00">+ iterator()</text>
<text text-anchor="start" x="863" y="-1572" font-family="Helvetica,sans-Serif" font-size="10.00">+ filter()</text>
<text text-anchor="start" x="863" y="-1559" font-family="Helvetica,sans-Serif" font-size="10.00"># neighbours()</text>
<text text-anchor="start" x="863" y="-1546" font-family="Helvetica,sans-Serif" font-size="10.00"># neighbours()</text>
<text text-anchor="start" x="863" y="-1533" font-family="Helvetica,sans-Serif" font-size="10.00"># in()</text>
<text text-anchor="start" x="863" y="-1520" font-family="Helvetica,sans-Serif" font-size="10.00"># in()</text>
<text text-anchor="start" x="863" y="-1507" font-family="Helvetica,sans-Serif" font-size="10.00"># add()</text>
<text text-anchor="start" x="863" y="-1494" font-family="Helvetica,sans-Serif" font-size="10.00"># add()</text>
<text text-anchor="start" x="863" y="-1481" font-family="Helvetica,sans-Serif" font-size="10.00"># remove()</text>
<text text-anchor="start" x="863" y="-1468" font-family="Helvetica,sans-Serif" font-size="10.00"># contains()</text>
<text text-anchor="start" x="863" y="-1455" font-family="Helvetica,sans-Serif" font-size="10.00"># move()</text>
<text text-anchor="start" x="863" y="-1442" font-family="Helvetica,sans-Serif" font-size="10.00"># move()</text>
<text text-anchor="start" x="863" y="-1429" font-family="Helvetica,sans-Serif" font-size="10.00"># getEntityPos()</text>
<text text-anchor="start" x="863" y="-1416" font-family="Helvetica,sans-Serif" font-size="10.00">&#45; initMatrix()</text>
<text text-anchor="start" x="863" y="-1403" font-family="Helvetica,sans-Serif" font-size="10.00">&#45; isValidPoint()</text>
<text text-anchor="start" x="863" y="-1390" font-family="Helvetica,sans-Serif" font-size="10.00">&#45; isValidPoint()</text>
<text text-anchor="start" x="863" y="-1377" font-family="Helvetica,sans-Serif" font-size="10.00">&#45; warpTo()</text>
</a>
</g>
<!-- Node4&#45;&gt;Node7 -->
<g id="edge18" class="edge"><title>Node4&#45;&gt;Node7</title>
<path fill="none" stroke="midnightblue" d="M621.153,-1889.05C687.625,-1883.74 809.041,-1870.36 841,-1842 851.853,-1832.37 861.247,-1821.28 869.376,-1809.23"/>
<polygon fill="none" stroke="midnightblue" points="620.68,-1885.58 610.979,-1889.83 621.218,-1892.56 620.68,-1885.58"/>
</g>
<!-- Node5&#45;&gt;Node3 -->
<g id="edge8" class="edge"><title>Node5&#45;&gt;Node3</title>
<path fill="none" stroke="#9a32cd" stroke-dasharray="5,2" d="M710.558,-282.938C583.339,-315.714 331.717,-401.117 226,-582 44.9453,-891.786 235.15,-1345.38 320.779,-1518.4"/>
<polygon fill="#9a32cd" stroke="#9a32cd" points="720.615,-280.391 712.027,-287.209 715.768,-281.619 710.921,-282.847 710.921,-282.847 710.921,-282.847 715.768,-281.619 709.816,-278.484 720.615,-280.391 720.615,-280.391"/>
<text text-anchor="middle" x="157" y="-844.5" font-family="Helvetica,sans-Serif" font-size="10.00">w</text>
</g>
<!-- Node6&#45;&gt;Node5 -->
<g id="edge12" class="edge"><title>Node6&#45;&gt;Node5</title>
<path fill="none" stroke="#9a32cd" stroke-dasharray="5,2" d="M87.3608,-1276.39C63.8021,-1150.51 11.6966,-769.002 193,-550 333.135,-380.727 597.789,-305.528 720.91,-278.572"/>
<polygon fill="#9a32cd" stroke="#9a32cd" points="89.2741,-1286.39 82.9751,-1277.42 88.3345,-1281.48 87.3949,-1276.57 87.3949,-1276.57 87.3949,-1276.57 88.3345,-1281.48 91.8147,-1275.72 89.2741,-1286.39 89.2741,-1286.39"/>
<text text-anchor="middle" x="107.5" y="-851" font-family="Helvetica,sans-Serif" font-size="10.00">bossObserver</text>
<text text-anchor="middle" x="107.5" y="-838" font-family="Helvetica,sans-Serif" font-size="10.00">playerObserver</text>
</g>
<!-- Node7&#45;&gt;Node5 -->
<g id="edge16" class="edge"><title>Node7&#45;&gt;Node5</title>
<path fill="none" stroke="#9a32cd" stroke-dasharray="5,2" d="M910.609,-1358.56C899.35,-1147.51 877.855,-826.796 841,-550 840.189,-543.906 839.331,-537.744 838.434,-531.536"/>
<polygon fill="#9a32cd" stroke="#9a32cd" points="911.154,-1368.84 906.131,-1359.1 910.889,-1363.85 910.625,-1358.86 910.625,-1358.86 910.625,-1358.86 910.889,-1363.85 915.118,-1358.62 911.154,-1368.84 911.154,-1368.84"/>
<text text-anchor="middle" x="886.5" y="-844.5" font-family="Helvetica,sans-Serif" font-size="10.00">board</text>
</g>
<!-- Node8 -->
<g id="node17" class="node"><title>Node8</title>
<polygon fill="none" stroke="#bfbfbf" points="846.5,-1860.5 846.5,-1923.5 953.5,-1923.5 953.5,-1860.5 846.5,-1860.5"/>
<text text-anchor="middle" x="900" y="-1910.5" font-family="Helvetica,sans-Serif" font-size="10.00">Map&lt; Entity, Point &gt;</text>
<polyline fill="none" stroke="#bfbfbf" points="846.5,-1902.5 953.5,-1902.5 "/>
<text text-anchor="middle" x="900" y="-1889.5" font-family="Helvetica,sans-Serif" font-size="10.00"> </text>
<polyline fill="none" stroke="#bfbfbf" points="846.5,-1881.5 953.5,-1881.5 "/>
<text text-anchor="middle" x="900" y="-1868.5" font-family="Helvetica,sans-Serif" font-size="10.00"> </text>
</g>
<!-- Node8&#45;&gt;Node7 -->
<g id="edge20" class="edge"><title>Node8&#45;&gt;Node7</title>
<path fill="none" stroke="#9a32cd" stroke-dasharray="5,2" d="M902.883,-1850.4C903.717,-1838.37 904.69,-1824.34 905.743,-1809.14"/>
<polygon fill="#9a32cd" stroke="#9a32cd" points="902.188,-1860.43 898.39,-1850.14 902.534,-1855.44 902.879,-1850.46 902.879,-1850.46 902.879,-1850.46 902.534,-1855.44 907.369,-1850.77 902.188,-1860.43 902.188,-1860.43"/>
<text text-anchor="middle" x="920" y="-1832.5" font-family="Helvetica,sans-Serif" font-size="10.00">entities</text>
</g>
<!-- Node9 -->
<g id="node19" class="node"><title>Node9</title>
<polygon fill="none" stroke="#bfbfbf" points="970.5,-1860.5 970.5,-1923.5 1045.5,-1923.5 1045.5,-1860.5 970.5,-1860.5"/>
<text text-anchor="middle" x="1008" y="-1910.5" font-family="Helvetica,sans-Serif" font-size="10.00">Set&lt; Entity &gt;</text>
<polyline fill="none" stroke="#bfbfbf" points="970.5,-1902.5 1045.5,-1902.5 "/>
<text text-anchor="middle" x="1008" y="-1889.5" font-family="Helvetica,sans-Serif" font-size="10.00"> </text>
<polyline fill="none" stroke="#bfbfbf" points="970.5,-1881.5 1045.5,-1881.5 "/>
<text text-anchor="middle" x="1008" y="-1868.5" font-family="Helvetica,sans-Serif" font-size="10.00"> </text>
</g>
<!-- Node9&#45;&gt;Node7 -->
<g id="edge22" class="edge"><title>Node9&#45;&gt;Node7</title>
<path fill="none" stroke="#9a32cd" stroke-dasharray="5,2" d="M996.159,-1850.76C992.682,-1838.65 988.616,-1824.49 984.208,-1809.14"/>
<polygon fill="#9a32cd" stroke="#9a32cd" points="998.936,-1860.43 991.851,-1852.06 997.556,-1855.63 996.176,-1850.82 996.176,-1850.82 996.176,-1850.82 997.556,-1855.63 1000.5,-1849.58 998.936,-1860.43 998.936,-1860.43"/>
<text text-anchor="middle" x="1003.5" y="-1832.5" font-family="Helvetica,sans-Serif" font-size="10.00">cells</text>
</g>
<!-- Node10 -->
<g id="node21" class="node"><title>Node10</title>
<a xlink:href="classjdungeon_1_1core_1_1world_1_1creatures_1_1_monster.html" target="_top" xlink:title="{jdungeon.core.world.creatures.Monster\n|&#45; serialVersionUID\l|+ Monster()\l+ awardExperience()\l+ getExperience()\l+ hurtBy()\l&#45; computeHealth()\l&#45; computeStrength()\l}">
<polygon fill="none" stroke="black" points="614.5,-635 614.5,-763 799.5,-763 799.5,-635 614.5,-635"/>
<text text-anchor="middle" x="707" y="-750" font-family="Helvetica,sans-Serif" font-size="10.00">jdungeon.core.world.creatures.Monster</text>
<polyline fill="none" stroke="black" points="614.5,-742 799.5,-742 "/>
<text text-anchor="start" x="622.5" y="-729" font-family="Helvetica,sans-Serif" font-size="10.00">&#45; serialVersionUID</text>
<polyline fill="none" stroke="black" points="614.5,-721 799.5,-721 "/>
<text text-anchor="start" x="622.5" y="-708" font-family="Helvetica,sans-Serif" font-size="10.00">+ Monster()</text>
<text text-anchor="start" x="622.5" y="-695" font-family="Helvetica,sans-Serif" font-size="10.00">+ awardExperience()</text>
<text text-anchor="start" x="622.5" y="-682" font-family="Helvetica,sans-Serif" font-size="10.00">+ getExperience()</text>
<text text-anchor="start" x="622.5" y="-669" font-family="Helvetica,sans-Serif" font-size="10.00">+ hurtBy()</text>
<text text-anchor="start" x="622.5" y="-656" font-family="Helvetica,sans-Serif" font-size="10.00">&#45; computeHealth()</text>
<text text-anchor="start" x="622.5" y="-643" font-family="Helvetica,sans-Serif" font-size="10.00">&#45; computeStrength()</text>
</a>
</g>
<!-- Node10&#45;&gt;Node5 -->
<g id="edge24" class="edge"><title>Node10&#45;&gt;Node5</title>
<path fill="none" stroke="#9a32cd" stroke-dasharray="5,2" d="M720.745,-624.604C725.712,-597.723 731.645,-565.607 737.892,-531.797"/>
<polygon fill="#9a32cd" stroke="#9a32cd" points="718.89,-634.643 716.282,-623.992 719.799,-629.726 720.707,-624.81 720.707,-624.81 720.707,-624.81 719.799,-629.726 725.132,-625.627 718.89,-634.643 718.89,-634.643"/>
<text text-anchor="middle" x="743" y="-554.5" font-family="Helvetica,sans-Serif" font-size="10.00">boss</text>
</g>
<!-- Node11&#45;&gt;Node10 -->
<g id="edge26" class="edge"><title>Node11&#45;&gt;Node10</title>
<path fill="none" stroke="midnightblue" d="M601.536,-911.063C627.432,-858.991 654.642,-804.278 674.937,-763.471"/>
<polygon fill="none" stroke="midnightblue" points="598.375,-909.558 597.056,-920.071 604.643,-912.675 598.375,-909.558"/>
</g>
<!-- Node14 -->
<g id="node30" class="node"><title>Node14</title>
<a xlink:href="classjdungeon_1_1core_1_1world_1_1_player.html" target="_top" xlink:title="{jdungeon.core.world.Player\n|&#45; experience\l&#45; name\l&#45; serialVersionUID\l|+ Player()\l+ setWorld()\l+ getName()\l+ setName()\l+ getExperienceForNextLevel()\l+ getExperience()\l+ moveLeft()\l+ moveRight()\l+ moveUp()\l+ moveDown()\l+ awardExperience()\l&#45; move()\l}">
<polygon fill="none" stroke="black" points="445,-583 445,-815 597,-815 597,-583 445,-583"/>
<text text-anchor="middle" x="521" y="-802" font-family="Helvetica,sans-Serif" font-size="10.00">jdungeon.core.world.Player</text>
<polyline fill="none" stroke="black" points="445,-794 597,-794 "/>
<text text-anchor="start" x="453" y="-781" font-family="Helvetica,sans-Serif" font-size="10.00">&#45; experience</text>
<text text-anchor="start" x="453" y="-768" font-family="Helvetica,sans-Serif" font-size="10.00">&#45; name</text>
<text text-anchor="start" x="453" y="-755" font-family="Helvetica,sans-Serif" font-size="10.00">&#45; serialVersionUID</text>
<polyline fill="none" stroke="black" points="445,-747 597,-747 "/>
<text text-anchor="start" x="453" y="-734" font-family="Helvetica,sans-Serif" font-size="10.00">+ Player()</text>
<text text-anchor="start" x="453" y="-721" font-family="Helvetica,sans-Serif" font-size="10.00">+ setWorld()</text>
<text text-anchor="start" x="453" y="-708" font-family="Helvetica,sans-Serif" font-size="10.00">+ getName()</text>
<text text-anchor="start" x="453" y="-695" font-family="Helvetica,sans-Serif" font-size="10.00">+ setName()</text>
<text text-anchor="start" x="453" y="-682" font-family="Helvetica,sans-Serif" font-size="10.00">+ getExperienceForNextLevel()</text>
<text text-anchor="start" x="453" y="-669" font-family="Helvetica,sans-Serif" font-size="10.00">+ getExperience()</text>
<text text-anchor="start" x="453" y="-656" font-family="Helvetica,sans-Serif" font-size="10.00">+ moveLeft()</text>
<text text-anchor="start" x="453" y="-643" font-family="Helvetica,sans-Serif" font-size="10.00">+ moveRight()</text>
<text text-anchor="start" x="453" y="-630" font-family="Helvetica,sans-Serif" font-size="10.00">+ moveUp()</text>
<text text-anchor="start" x="453" y="-617" font-family="Helvetica,sans-Serif" font-size="10.00">+ moveDown()</text>
<text text-anchor="start" x="453" y="-604" font-family="Helvetica,sans-Serif" font-size="10.00">+ awardExperience()</text>
<text text-anchor="start" x="453" y="-591" font-family="Helvetica,sans-Serif" font-size="10.00">&#45; move()</text>
</a>
</g>
<!-- Node11&#45;&gt;Node14 -->
<g id="edge36" class="edge"><title>Node11&#45;&gt;Node14</title>
<path fill="none" stroke="midnightblue" d="M521,-868.722C521,-850.47 521,-832.441 521,-815.336"/>
<polygon fill="none" stroke="midnightblue" points="517.5,-868.879 521,-878.879 524.5,-868.879 517.5,-868.879"/>
</g>
<!-- Node12 -->
<g id="node26" class="node"><title>Node12</title>
<polygon fill="none" stroke="#bfbfbf" points="453.5,-1557.5 453.5,-1620.5 588.5,-1620.5 588.5,-1557.5 453.5,-1557.5"/>
<text text-anchor="middle" x="521" y="-1607.5" font-family="Helvetica,sans-Serif" font-size="10.00">Set&lt; VulnerableObserver &gt;</text>
<polyline fill="none" stroke="#bfbfbf" points="453.5,-1599.5 588.5,-1599.5 "/>
<text text-anchor="middle" x="521" y="-1586.5" font-family="Helvetica,sans-Serif" font-size="10.00"> </text>
<polyline fill="none" stroke="#bfbfbf" points="453.5,-1578.5 588.5,-1578.5 "/>
<text text-anchor="middle" x="521" y="-1565.5" font-family="Helvetica,sans-Serif" font-size="10.00"> </text>
</g>
<!-- Node12&#45;&gt;Node11 -->
<g id="edge30" class="edge"><title>Node12&#45;&gt;Node11</title>
<path fill="none" stroke="#9a32cd" stroke-dasharray="5,2" d="M521,-1547.17C521,-1486.38 521,-1369.69 521,-1267.29"/>
<polygon fill="#9a32cd" stroke="#9a32cd" points="521,-1557.5 516.5,-1547.5 521,-1552.5 521,-1547.5 521,-1547.5 521,-1547.5 521,-1552.5 525.5,-1547.5 521,-1557.5 521,-1557.5"/>
<text text-anchor="middle" x="542.5" y="-1315.5" font-family="Helvetica,sans-Serif" font-size="10.00">observers</text>
</g>
<!-- Node13 -->
<g id="node28" class="node"><title>Node13</title>
<polygon fill="none" stroke="#bfbfbf" points="893,-667.5 893,-730.5 1001,-730.5 1001,-667.5 893,-667.5"/>
<text text-anchor="middle" x="947" y="-717.5" font-family="Helvetica,sans-Serif" font-size="10.00">Set&lt; MapObserver &gt;</text>
<polyline fill="none" stroke="#bfbfbf" points="893,-709.5 1001,-709.5 "/>
<text text-anchor="middle" x="947" y="-696.5" font-family="Helvetica,sans-Serif" font-size="10.00"> </text>
<polyline fill="none" stroke="#bfbfbf" points="893,-688.5 1001,-688.5 "/>
<text text-anchor="middle" x="947" y="-675.5" font-family="Helvetica,sans-Serif" font-size="10.00"> </text>
</g>
<!-- Node13&#45;&gt;Node5 -->
<g id="edge32" class="edge"><title>Node13&#45;&gt;Node5</title>
<path fill="none" stroke="#9a32cd" stroke-dasharray="5,2" d="M931.672,-657.518C913.489,-608.312 881.984,-523.05 853.006,-444.63"/>
<polygon fill="#9a32cd" stroke="#9a32cd" points="935.235,-667.16 927.548,-659.34 933.502,-662.47 931.769,-657.78 931.769,-657.78 931.769,-657.78 933.502,-662.47 935.99,-656.221 935.235,-667.16 935.235,-667.16"/>
<text text-anchor="middle" x="916.5" y="-554.5" font-family="Helvetica,sans-Serif" font-size="10.00">observers</text>
</g>
<!-- Node14&#45;&gt;Node5 -->
<g id="edge34" class="edge"><title>Node14&#45;&gt;Node5</title>
<path fill="none" stroke="#9a32cd" stroke-dasharray="5,2" d="M597.721,-574.112C636.642,-510.756 683.447,-434.565 720.776,-373.801"/>
<polygon fill="#9a32cd" stroke="#9a32cd" points="592.283,-582.964 593.683,-572.088 594.9,-578.704 597.518,-574.443 597.518,-574.443 597.518,-574.443 594.9,-578.704 601.352,-576.799 592.283,-582.964 592.283,-582.964"/>
<text text-anchor="middle" x="620.5" y="-554.5" font-family="Helvetica,sans-Serif" font-size="10.00">player</text>
</g>
<!-- Node15 -->
<g id="node33" class="node"><title>Node15</title>
<polygon fill="none" stroke="#bfbfbf" points="1018.5,-667.5 1018.5,-730.5 1113.5,-730.5 1113.5,-667.5 1018.5,-667.5"/>
<text text-anchor="middle" x="1066" y="-717.5" font-family="Helvetica,sans-Serif" font-size="10.00">Set&lt; Vulnerable &gt;</text>
<polyline fill="none" stroke="#bfbfbf" points="1018.5,-709.5 1113.5,-709.5 "/>
<text text-anchor="middle" x="1066" y="-696.5" font-family="Helvetica,sans-Serif" font-size="10.00"> </text>
<polyline fill="none" stroke="#bfbfbf" points="1018.5,-688.5 1113.5,-688.5 "/>
<text text-anchor="middle" x="1066" y="-675.5" font-family="Helvetica,sans-Serif" font-size="10.00"> </text>
</g>
<!-- Node15&#45;&gt;Node5 -->
<g id="edge38" class="edge"><title>Node15&#45;&gt;Node5</title>
<path fill="none" stroke="#9a32cd" stroke-dasharray="5,2" d="M1048.45,-658.063C1038.15,-635.2 1024.36,-606.475 1010,-582 962.269,-500.625 899.76,-413.389 853.071,-351.236"/>
<polygon fill="#9a32cd" stroke="#9a32cd" points="1052.64,-667.473 1044.46,-660.171 1050.61,-662.906 1048.57,-658.339 1048.57,-658.339 1048.57,-658.339 1050.61,-662.906 1052.68,-656.507 1052.64,-667.473 1052.64,-667.473"/>
<text text-anchor="middle" x="1018" y="-554.5" font-family="Helvetica,sans-Serif" font-size="10.00">hurtEntities</text>
</g>
</g>
</svg>
