<?xml version="1.0" encoding="UTF-8" standalone="no"?>
<!DOCTYPE svg PUBLIC "-//W3C//DTD SVG 1.1//EN"
 "http://www.w3.org/Graphics/SVG/1.1/DTD/svg11.dtd">
<!-- Generated by graphviz version 2.26.3 (20100126.1600)
 -->
<!-- Title: G Pages: 1 -->
<svg width="478pt" height="458pt"
 viewBox="0.00 0.00 478.00 458.00" xmlns="http://www.w3.org/2000/svg" xmlns:xlink="http://www.w3.org/1999/xlink">
<g id="graph1" class="graph" transform="scale(1 1) rotate(0) translate(4 454)">
<title>G</title>
<!-- Node1 -->
<g id="node1" class="node"><title>Node1</title>
<polygon fill="#bfbfbf" stroke="black" points="187.5,-1 187.5,-129 334.5,-129 334.5,-1 187.5,-1"/>
<text text-anchor="middle" x="261" y="-116" font-family="Helvetica,sans-Serif" font-size="10.00">jdungeon.frontend.MapDrawer</text>
<polyline fill="none" stroke="black" points="187.5,-108 334.5,-108 "/>
<text text-anchor="start" x="195.5" y="-95" font-family="Helvetica,sans-Serif" font-size="10.00">&#45; basicImag</text>
<text text-anchor="start" x="195.5" y="-82" font-family="Helvetica,sans-Serif" font-size="10.00">&#45; gp</text>
<text text-anchor="start" x="195.5" y="-69" font-family="Helvetica,sans-Serif" font-size="10.00">&#45; event</text>
<polyline fill="none" stroke="black" points="187.5,-61 334.5,-61 "/>
<text text-anchor="start" x="195.5" y="-48" font-family="Helvetica,sans-Serif" font-size="10.00">+ MapDrawer()</text>
<text text-anchor="start" x="195.5" y="-35" font-family="Helvetica,sans-Serif" font-size="10.00">+ updatePoint()</text>
<text text-anchor="start" x="195.5" y="-22" font-family="Helvetica,sans-Serif" font-size="10.00">+ GetGP()</text>
<text text-anchor="start" x="195.5" y="-9" font-family="Helvetica,sans-Serif" font-size="10.00">&#45; GetImage()</text>
</g>
<!-- Node2 -->
<g id="node2" class="node"><title>Node2</title>
<a xlink:href="classjdungeon_1_1frontend_1_1gui_1_1_game_panel.html" target="_top" xlink:title="{jdungeon.frontend.gui.GamePanel\n|~ columns\l&#45; rows\l&#45; cellSize\l&#45; color\l&#45; images\l|+ GamePanel()\l+ put()\l+ clear()\l+ paint()\l}">
<polygon fill="none" stroke="black" points="2,-181 2,-335 166,-335 166,-181 2,-181"/>
<text text-anchor="middle" x="84" y="-322" font-family="Helvetica,sans-Serif" font-size="10.00">jdungeon.frontend.gui.GamePanel</text>
<polyline fill="none" stroke="black" points="2,-314 166,-314 "/>
<text text-anchor="start" x="10" y="-301" font-family="Helvetica,sans-Serif" font-size="10.00">~ columns</text>
<text text-anchor="start" x="10" y="-288" font-family="Helvetica,sans-Serif" font-size="10.00">&#45; rows</text>
<text text-anchor="start" x="10" y="-275" font-family="Helvetica,sans-Serif" font-size="10.00">&#45; cellSize</text>
<text text-anchor="start" x="10" y="-262" font-family="Helvetica,sans-Serif" font-size="10.00">&#45; color</text>
<text text-anchor="start" x="10" y="-249" font-family="Helvetica,sans-Serif" font-size="10.00">&#45; images</text>
<polyline fill="none" stroke="black" points="2,-241 166,-241 "/>
<text text-anchor="start" x="10" y="-228" font-family="Helvetica,sans-Serif" font-size="10.00">+ GamePanel()</text>
<text text-anchor="start" x="10" y="-215" font-family="Helvetica,sans-Serif" font-size="10.00">+ put()</text>
<text text-anchor="start" x="10" y="-202" font-family="Helvetica,sans-Serif" font-size="10.00">+ clear()</text>
<text text-anchor="start" x="10" y="-189" font-family="Helvetica,sans-Serif" font-size="10.00">+ paint()</text>
</a>
</g>
<!-- Node2&#45;&gt;Node1 -->
<g id="edge2" class="edge"><title>Node2&#45;&gt;Node1</title>
<path fill="none" stroke="#9a32cd" stroke-dasharray="5,2" d="M161.752,-173.219C175.276,-158.474 189.139,-143.357 202.053,-129.275"/>
<polygon fill="#9a32cd" stroke="#9a32cd" points="154.718,-180.889 158.161,-170.478 158.098,-177.204 161.477,-173.519 161.477,-173.519 161.477,-173.519 158.098,-177.204 164.794,-176.561 154.718,-180.889 154.718,-180.889"/>
<text text-anchor="middle" x="189.5" y="-152.5" font-family="Helvetica,sans-Serif" font-size="10.00">gp</text>
</g>
<!-- Node3 -->
<g id="node4" class="node"><title>Node3</title>
<polygon fill="none" stroke="#bfbfbf" points="-0.5,-386.5 -0.5,-449.5 46.5,-449.5 46.5,-386.5 -0.5,-386.5"/>
<text text-anchor="middle" x="23" y="-436.5" font-family="Helvetica,sans-Serif" font-size="10.00">JPanel</text>
<polyline fill="none" stroke="#bfbfbf" points="-0.5,-428.5 46.5,-428.5 "/>
<text text-anchor="middle" x="23" y="-415.5" font-family="Helvetica,sans-Serif" font-size="10.00"> </text>
<polyline fill="none" stroke="#bfbfbf" points="-0.5,-407.5 46.5,-407.5 "/>
<text text-anchor="middle" x="23" y="-394.5" font-family="Helvetica,sans-Serif" font-size="10.00"> </text>
</g>
<!-- Node3&#45;&gt;Node2 -->
<g id="edge4" class="edge"><title>Node3&#45;&gt;Node2</title>
<path fill="none" stroke="midnightblue" d="M38.6334,-376.994C43.5034,-364.221 49.0428,-349.691 54.5372,-335.28"/>
<polygon fill="none" stroke="midnightblue" points="35.3437,-375.798 35.0516,-386.389 41.8845,-378.292 35.3437,-375.798"/>
</g>
<!-- Node4 -->
<g id="node6" class="node"><title>Node4</title>
<polygon fill="none" stroke="#bfbfbf" points="64,-386.5 64,-449.5 104,-449.5 104,-386.5 64,-386.5"/>
<text text-anchor="middle" x="84" y="-436.5" font-family="Helvetica,sans-Serif" font-size="10.00">Color</text>
<polyline fill="none" stroke="#bfbfbf" points="64,-428.5 104,-428.5 "/>
<text text-anchor="middle" x="84" y="-415.5" font-family="Helvetica,sans-Serif" font-size="10.00"> </text>
<polyline fill="none" stroke="#bfbfbf" points="64,-407.5 104,-407.5 "/>
<text text-anchor="middle" x="84" y="-394.5" font-family="Helvetica,sans-Serif" font-size="10.00"> </text>
</g>
<!-- Node4&#45;&gt;Node2 -->
<g id="edge6" class="edge"><title>Node4&#45;&gt;Node2</title>
<path fill="none" stroke="#9a32cd" stroke-dasharray="5,2" d="M84,-376.241C84,-363.651 84,-349.409 84,-335.28"/>
<polygon fill="#9a32cd" stroke="#9a32cd" points="84,-386.389 79.5001,-376.389 84,-381.389 84.0001,-376.389 84.0001,-376.389 84.0001,-376.389 84,-381.389 88.5001,-376.389 84,-386.389 84,-386.389"/>
<text text-anchor="middle" x="95" y="-358.5" font-family="Helvetica,sans-Serif" font-size="10.00">color</text>
</g>
<!-- Node5 -->
<g id="node8" class="node"><title>Node5</title>
<polygon fill="none" stroke="#bfbfbf" points="122,-386.5 122,-449.5 166,-449.5 166,-386.5 122,-386.5"/>
<text text-anchor="middle" x="144" y="-436.5" font-family="Helvetica,sans-Serif" font-size="10.00">Image</text>
<polyline fill="none" stroke="#bfbfbf" points="122,-428.5 166,-428.5 "/>
<text text-anchor="middle" x="144" y="-415.5" font-family="Helvetica,sans-Serif" font-size="10.00"> </text>
<polyline fill="none" stroke="#bfbfbf" points="122,-407.5 166,-407.5 "/>
<text text-anchor="middle" x="144" y="-394.5" font-family="Helvetica,sans-Serif" font-size="10.00"> </text>
</g>
<!-- Node5&#45;&gt;Node2 -->
<g id="edge8" class="edge"><title>Node5&#45;&gt;Node2</title>
<path fill="none" stroke="#9a32cd" stroke-dasharray="5,2" d="M128.623,-376.994C123.833,-364.221 118.384,-349.691 112.98,-335.28"/>
<polygon fill="#9a32cd" stroke="#9a32cd" points="132.146,-386.389 124.421,-378.606 130.39,-381.707 128.635,-377.026 128.635,-377.026 128.635,-377.026 130.39,-381.707 132.848,-375.446 132.146,-386.389 132.146,-386.389"/>
<text text-anchor="middle" x="141" y="-358.5" font-family="Helvetica,sans-Serif" font-size="10.00">images</text>
</g>
<!-- Node6 -->
<g id="node10" class="node"><title>Node6</title>
<a xlink:href="classjdungeon_1_1frontend_1_1_basic_images.html" target="_top" xlink:title="{jdungeon.frontend.BasicImages\n|&#45; map\l|+ BasicImages()\l+ GiveImage()\l}">
<polygon fill="none" stroke="black" points="184,-220 184,-296 338,-296 338,-220 184,-220"/>
<text text-anchor="middle" x="261" y="-283" font-family="Helvetica,sans-Serif" font-size="10.00">jdungeon.frontend.BasicImages</text>
<polyline fill="none" stroke="black" points="184,-275 338,-275 "/>
<text text-anchor="start" x="192" y="-262" font-family="Helvetica,sans-Serif" font-size="10.00">&#45; map</text>
<polyline fill="none" stroke="black" points="184,-254 338,-254 "/>
<text text-anchor="start" x="192" y="-241" font-family="Helvetica,sans-Serif" font-size="10.00">+ BasicImages()</text>
<text text-anchor="start" x="192" y="-228" font-family="Helvetica,sans-Serif" font-size="10.00">+ GiveImage()</text>
</a>
</g>
<!-- Node6&#45;&gt;Node1 -->
<g id="edge10" class="edge"><title>Node6&#45;&gt;Node1</title>
<path fill="none" stroke="#9a32cd" stroke-dasharray="5,2" d="M261,-209.797C261,-185.441 261,-155.555 261,-129.272"/>
<polygon fill="#9a32cd" stroke="#9a32cd" points="261,-219.869 256.5,-209.869 261,-214.869 261,-209.869 261,-209.869 261,-209.869 261,-214.869 265.5,-209.869 261,-219.869 261,-219.869"/>
<text text-anchor="middle" x="284" y="-152.5" font-family="Helvetica,sans-Serif" font-size="10.00">basicImag</text>
</g>
<!-- Node7 -->
<g id="node12" class="node"><title>Node7</title>
<polygon fill="none" stroke="#bfbfbf" points="193.5,-386.5 193.5,-449.5 328.5,-449.5 328.5,-386.5 193.5,-386.5"/>
<text text-anchor="middle" x="261" y="-436.5" font-family="Helvetica,sans-Serif" font-size="10.00">HashMap&lt; String, Image &gt;</text>
<polyline fill="none" stroke="#bfbfbf" points="193.5,-428.5 328.5,-428.5 "/>
<text text-anchor="middle" x="261" y="-415.5" font-family="Helvetica,sans-Serif" font-size="10.00"> </text>
<polyline fill="none" stroke="#bfbfbf" points="193.5,-407.5 328.5,-407.5 "/>
<text text-anchor="middle" x="261" y="-394.5" font-family="Helvetica,sans-Serif" font-size="10.00"> </text>
</g>
<!-- Node7&#45;&gt;Node6 -->
<g id="edge12" class="edge"><title>Node7&#45;&gt;Node6</title>
<path fill="none" stroke="#9a32cd" stroke-dasharray="5,2" d="M261,-376.185C261,-351.368 261,-320.147 261,-296.027"/>
<polygon fill="#9a32cd" stroke="#9a32cd" points="261,-386.389 256.5,-376.389 261,-381.389 261,-376.389 261,-376.389 261,-376.389 261,-381.389 265.5,-376.389 261,-386.389 261,-386.389"/>
<text text-anchor="middle" x="270.5" y="-358.5" font-family="Helvetica,sans-Serif" font-size="10.00">map</text>
</g>
<!-- Node8 -->
<g id="node14" class="node"><title>Node8</title>
<a xlink:href="interfacejdungeon_1_1frontend_1_1_g_u_i.html" target="_top" xlink:title="{jdungeon.frontend.GUI\n||+ NewGame()\l+ save()\l+ load()\l+ updatePoint()\l+ quit()\l+ end()\l+ restart()\l}">
<polygon fill="none" stroke="black" points="355.5,-187.5 355.5,-328.5 470.5,-328.5 470.5,-187.5 355.5,-187.5"/>
<text text-anchor="middle" x="413" y="-315.5" font-family="Helvetica,sans-Serif" font-size="10.00">jdungeon.frontend.GUI</text>
<polyline fill="none" stroke="black" points="355.5,-307.5 470.5,-307.5 "/>
<text text-anchor="middle" x="413" y="-294.5" font-family="Helvetica,sans-Serif" font-size="10.00"> </text>
<polyline fill="none" stroke="black" points="355.5,-286.5 470.5,-286.5 "/>
<text text-anchor="start" x="363.5" y="-273.5" font-family="Helvetica,sans-Serif" font-size="10.00">+ NewGame()</text>
<text text-anchor="start" x="363.5" y="-260.5" font-family="Helvetica,sans-Serif" font-size="10.00">+ save()</text>
<text text-anchor="start" x="363.5" y="-247.5" font-family="Helvetica,sans-Serif" font-size="10.00">+ load()</text>
<text text-anchor="start" x="363.5" y="-234.5" font-family="Helvetica,sans-Serif" font-size="10.00">+ updatePoint()</text>
<text text-anchor="start" x="363.5" y="-221.5" font-family="Helvetica,sans-Serif" font-size="10.00">+ quit()</text>
<text text-anchor="start" x="363.5" y="-208.5" font-family="Helvetica,sans-Serif" font-size="10.00">+ end()</text>
<text text-anchor="start" x="363.5" y="-195.5" font-family="Helvetica,sans-Serif" font-size="10.00">+ restart()</text>
</a>
</g>
<!-- Node8&#45;&gt;Node1 -->
<g id="edge14" class="edge"><title>Node8&#45;&gt;Node1</title>
<path fill="none" stroke="#9a32cd" stroke-dasharray="5,2" d="M350.877,-179.12C337.758,-162.463 324.069,-145.081 311.444,-129.05"/>
<polygon fill="#9a32cd" stroke="#9a32cd" points="357.264,-187.23 347.541,-182.158 354.17,-183.302 351.077,-179.374 351.077,-179.374 351.077,-179.374 354.17,-183.302 354.612,-176.589 357.264,-187.23 357.264,-187.23"/>
<text text-anchor="middle" x="349.5" y="-152.5" font-family="Helvetica,sans-Serif" font-size="10.00">event</text>
</g>
</g>
</svg>
