<?xml version="1.0" encoding="UTF-8" standalone="no"?>
<!DOCTYPE svg PUBLIC "-//W3C//DTD SVG 1.1//EN"
 "http://www.w3.org/Graphics/SVG/1.1/DTD/svg11.dtd">
<!-- Generated by graphviz version 2.26.3 (20100126.1600)
 -->
<!-- Title: G Pages: 1 -->
<svg width="372pt" height="550pt"
 viewBox="0.00 0.00 372.00 550.00" xmlns="http://www.w3.org/2000/svg" xmlns:xlink="http://www.w3.org/1999/xlink">
<g id="graph1" class="graph" transform="scale(1 1) rotate(0) translate(4 546)">
<title>G</title>
<!-- Node1 -->
<g id="node1" class="node"><title>Node1</title>
<polygon fill="#bfbfbf" stroke="black" points="88.5,-1 88.5,-363 211.5,-363 211.5,-1 88.5,-1"/>
<text text-anchor="middle" x="150" y="-350" font-family="Helvetica,sans-Serif" font-size="10.00">jdungeon.frontend.Game</text>
<polyline fill="none" stroke="black" points="88.5,-342 211.5,-342 "/>
<text text-anchor="start" x="96.5" y="-329" font-family="Helvetica,sans-Serif" font-size="10.00">&#45; map</text>
<text text-anchor="start" x="96.5" y="-316" font-family="Helvetica,sans-Serif" font-size="10.00">&#45; panel</text>
<text text-anchor="start" x="96.5" y="-303" font-family="Helvetica,sans-Serif" font-size="10.00">&#45; listener</text>
<text text-anchor="start" x="96.5" y="-290" font-family="Helvetica,sans-Serif" font-size="10.00">&#45; w</text>
<text text-anchor="start" x="96.5" y="-277" font-family="Helvetica,sans-Serif" font-size="10.00">&#45; clone</text>
<text text-anchor="start" x="96.5" y="-264" font-family="Helvetica,sans-Serif" font-size="10.00">&#45; menuData</text>
<text text-anchor="start" x="96.5" y="-251" font-family="Helvetica,sans-Serif" font-size="10.00">&#45; dim</text>
<text text-anchor="start" x="96.5" y="-238" font-family="Helvetica,sans-Serif" font-size="10.00">&#45; basicImag</text>
<text text-anchor="start" x="96.5" y="-225" font-family="Helvetica,sans-Serif" font-size="10.00">&#45; serialVersionUID</text>
<polyline fill="none" stroke="black" points="88.5,-217 211.5,-217 "/>
<text text-anchor="start" x="96.5" y="-204" font-family="Helvetica,sans-Serif" font-size="10.00">+ Game()</text>
<text text-anchor="start" x="96.5" y="-191" font-family="Helvetica,sans-Serif" font-size="10.00">+ end()</text>
<text text-anchor="start" x="96.5" y="-178" font-family="Helvetica,sans-Serif" font-size="10.00">+ endMap()</text>
<text text-anchor="start" x="96.5" y="-165" font-family="Helvetica,sans-Serif" font-size="10.00">+ load()</text>
<text text-anchor="start" x="96.5" y="-152" font-family="Helvetica,sans-Serif" font-size="10.00">+ NewGame()</text>
<text text-anchor="start" x="96.5" y="-139" font-family="Helvetica,sans-Serif" font-size="10.00">+ onBossDeath()</text>
<text text-anchor="start" x="96.5" y="-126" font-family="Helvetica,sans-Serif" font-size="10.00">+ onMapChange()</text>
<text text-anchor="start" x="96.5" y="-113" font-family="Helvetica,sans-Serif" font-size="10.00">+ onPlayerDeath()</text>
<text text-anchor="start" x="96.5" y="-100" font-family="Helvetica,sans-Serif" font-size="10.00">+ quit()</text>
<text text-anchor="start" x="96.5" y="-87" font-family="Helvetica,sans-Serif" font-size="10.00">+ restart()</text>
<text text-anchor="start" x="96.5" y="-74" font-family="Helvetica,sans-Serif" font-size="10.00">+ save()</text>
<text text-anchor="start" x="96.5" y="-61" font-family="Helvetica,sans-Serif" font-size="10.00">+ start()</text>
<text text-anchor="start" x="96.5" y="-48" font-family="Helvetica,sans-Serif" font-size="10.00">+ startGame()</text>
<text text-anchor="start" x="96.5" y="-35" font-family="Helvetica,sans-Serif" font-size="10.00">+ updatePoint()</text>
<text text-anchor="start" x="96.5" y="-22" font-family="Helvetica,sans-Serif" font-size="10.00">&#45; askName()</text>
<text text-anchor="start" x="96.5" y="-9" font-family="Helvetica,sans-Serif" font-size="10.00">&#45; startListener()</text>
</g>
<!-- Node2 -->
<g id="node2" class="node"><title>Node2</title>
<polygon fill="none" stroke="#bfbfbf" points="0,-439.5 0,-502.5 50,-502.5 50,-439.5 0,-439.5"/>
<text text-anchor="middle" x="25" y="-489.5" font-family="Helvetica,sans-Serif" font-size="10.00">JFrame</text>
<polyline fill="none" stroke="#bfbfbf" points="0,-481.5 50,-481.5 "/>
<text text-anchor="middle" x="25" y="-468.5" font-family="Helvetica,sans-Serif" font-size="10.00"> </text>
<polyline fill="none" stroke="#bfbfbf" points="0,-460.5 50,-460.5 "/>
<text text-anchor="middle" x="25" y="-447.5" font-family="Helvetica,sans-Serif" font-size="10.00"> </text>
</g>
<!-- Node2&#45;&gt;Node1 -->
<g id="edge2" class="edge"><title>Node2&#45;&gt;Node1</title>
<path fill="none" stroke="midnightblue" d="M42.8083,-429.827C54.8986,-401.874 71.6674,-363.105 88.3549,-324.524"/>
<polygon fill="none" stroke="midnightblue" points="39.4923,-428.678 38.7348,-439.245 45.917,-431.456 39.4923,-428.678"/>
</g>
<!-- Node3 -->
<g id="node4" class="node"><title>Node3</title>
<a xlink:href="interfacejdungeon_1_1core_1_1world_1_1_map_observer.html" target="_top" xlink:title="{jdungeon.core.world.MapObserver\n||+ onMapChange()\l+ onPlayerDeath()\l+ onBossDeath()\l}">
<polygon fill="none" stroke="black" points="67.5,-426.5 67.5,-515.5 232.5,-515.5 232.5,-426.5 67.5,-426.5"/>
<text text-anchor="middle" x="150" y="-502.5" font-family="Helvetica,sans-Serif" font-size="10.00">jdungeon.core.world.MapObserver</text>
<polyline fill="none" stroke="black" points="67.5,-494.5 232.5,-494.5 "/>
<text text-anchor="middle" x="150" y="-481.5" font-family="Helvetica,sans-Serif" font-size="10.00"> </text>
<polyline fill="none" stroke="black" points="67.5,-473.5 232.5,-473.5 "/>
<text text-anchor="start" x="75.5" y="-460.5" font-family="Helvetica,sans-Serif" font-size="10.00">+ onMapChange()</text>
<text text-anchor="start" x="75.5" y="-447.5" font-family="Helvetica,sans-Serif" font-size="10.00">+ onPlayerDeath()</text>
<text text-anchor="start" x="75.5" y="-434.5" font-family="Helvetica,sans-Serif" font-size="10.00">+ onBossDeath()</text>
</a>
</g>
<!-- Node3&#45;&gt;Node1 -->
<g id="edge4" class="edge"><title>Node3&#45;&gt;Node1</title>
<path fill="none" stroke="midnightblue" d="M150,-416.413C150,-400.55 150,-382.287 150,-363.102"/>
<polygon fill="none" stroke="midnightblue" points="146.5,-416.477 150,-426.477 153.5,-416.477 146.5,-416.477"/>
</g>
<!-- Node4 -->
<g id="node6" class="node"><title>Node4</title>
<a xlink:href="interfacejdungeon_1_1frontend_1_1_g_u_i.html" target="_top" xlink:title="{jdungeon.frontend.GUI\n||+ NewGame()\l+ save()\l+ load()\l+ updatePoint()\l+ quit()\l+ end()\l+ restart()\l}">
<polygon fill="none" stroke="black" points="249.5,-400.5 249.5,-541.5 364.5,-541.5 364.5,-400.5 249.5,-400.5"/>
<text text-anchor="middle" x="307" y="-528.5" font-family="Helvetica,sans-Serif" font-size="10.00">jdungeon.frontend.GUI</text>
<polyline fill="none" stroke="black" points="249.5,-520.5 364.5,-520.5 "/>
<text text-anchor="middle" x="307" y="-507.5" font-family="Helvetica,sans-Serif" font-size="10.00"> </text>
<polyline fill="none" stroke="black" points="249.5,-499.5 364.5,-499.5 "/>
<text text-anchor="start" x="257.5" y="-486.5" font-family="Helvetica,sans-Serif" font-size="10.00">+ NewGame()</text>
<text text-anchor="start" x="257.5" y="-473.5" font-family="Helvetica,sans-Serif" font-size="10.00">+ save()</text>
<text text-anchor="start" x="257.5" y="-460.5" font-family="Helvetica,sans-Serif" font-size="10.00">+ load()</text>
<text text-anchor="start" x="257.5" y="-447.5" font-family="Helvetica,sans-Serif" font-size="10.00">+ updatePoint()</text>
<text text-anchor="start" x="257.5" y="-434.5" font-family="Helvetica,sans-Serif" font-size="10.00">+ quit()</text>
<text text-anchor="start" x="257.5" y="-421.5" font-family="Helvetica,sans-Serif" font-size="10.00">+ end()</text>
<text text-anchor="start" x="257.5" y="-408.5" font-family="Helvetica,sans-Serif" font-size="10.00">+ restart()</text>
</a>
</g>
<!-- Node4&#45;&gt;Node1 -->
<g id="edge6" class="edge"><title>Node4&#45;&gt;Node1</title>
<path fill="none" stroke="midnightblue" d="M263.68,-391.258C247.576,-361.615 228.983,-327.389 211.559,-295.315"/>
<polygon fill="none" stroke="midnightblue" points="260.744,-393.186 268.593,-400.303 266.895,-389.845 260.744,-393.186"/>
</g>
</g>
</svg>
