<?xml version="1.0" encoding="UTF-8" standalone="no"?>
<!DOCTYPE svg PUBLIC "-//W3C//DTD SVG 1.1//EN"
 "http://www.w3.org/Graphics/SVG/1.1/DTD/svg11.dtd">
<!-- Generated by graphviz version 2.26.3 (20100126.1600)
 -->
<!-- Title: G Pages: 1 -->
<svg width="192pt" height="968pt"
 viewBox="0.00 0.00 192.00 968.00" xmlns="http://www.w3.org/2000/svg" xmlns:xlink="http://www.w3.org/1999/xlink">
<g id="graph1" class="graph" transform="scale(1 1) rotate(0) translate(4 964)">
<title>G</title>
<!-- Node1 -->
<g id="node1" class="node"><title>Node1</title>
<polygon fill="#bfbfbf" stroke="black" points="1,-0.5 1,-89.5 183,-89.5 183,-0.5 1,-0.5"/>
<text text-anchor="middle" x="92" y="-76.5" font-family="Helvetica,sans-Serif" font-size="10.00">jdungeon.core.world.creatures.Dragon</text>
<polyline fill="none" stroke="black" points="1,-68.5 183,-68.5 "/>
<text text-anchor="start" x="9" y="-55.5" font-family="Helvetica,sans-Serif" font-size="10.00">&#45; serialVersionUID</text>
<text text-anchor="start" x="9" y="-42.5" font-family="Helvetica,sans-Serif" font-size="10.00">&#45; F</text>
<text text-anchor="start" x="9" y="-29.5" font-family="Helvetica,sans-Serif" font-size="10.00">&#45; S</text>
<polyline fill="none" stroke="black" points="1,-21.5 183,-21.5 "/>
<text text-anchor="start" x="9" y="-8.5" font-family="Helvetica,sans-Serif" font-size="10.00">+ Dragon()</text>
</g>
<!-- Node2 -->
<g id="node2" class="node"><title>Node2</title>
<a xlink:href="classjdungeon_1_1core_1_1world_1_1creatures_1_1_monster.html" target="_top" xlink:title="{jdungeon.core.world.creatures.Monster\n|&#45; serialVersionUID\l|+ Monster()\l+ awardExperience()\l+ getExperience()\l+ hurtBy()\l&#45; computeHealth()\l&#45; computeStrength()\l}">
<polygon fill="none" stroke="black" points="-0.5,-127 -0.5,-255 184.5,-255 184.5,-127 -0.5,-127"/>
<text text-anchor="middle" x="92" y="-242" font-family="Helvetica,sans-Serif" font-size="10.00">jdungeon.core.world.creatures.Monster</text>
<polyline fill="none" stroke="black" points="-0.5,-234 184.5,-234 "/>
<text text-anchor="start" x="7.5" y="-221" font-family="Helvetica,sans-Serif" font-size="10.00">&#45; serialVersionUID</text>
<polyline fill="none" stroke="black" points="-0.5,-213 184.5,-213 "/>
<text text-anchor="start" x="7.5" y="-200" font-family="Helvetica,sans-Serif" font-size="10.00">+ Monster()</text>
<text text-anchor="start" x="7.5" y="-187" font-family="Helvetica,sans-Serif" font-size="10.00">+ awardExperience()</text>
<text text-anchor="start" x="7.5" y="-174" font-family="Helvetica,sans-Serif" font-size="10.00">+ getExperience()</text>
<text text-anchor="start" x="7.5" y="-161" font-family="Helvetica,sans-Serif" font-size="10.00">+ hurtBy()</text>
<text text-anchor="start" x="7.5" y="-148" font-family="Helvetica,sans-Serif" font-size="10.00">&#45; computeHealth()</text>
<text text-anchor="start" x="7.5" y="-135" font-family="Helvetica,sans-Serif" font-size="10.00">&#45; computeStrength()</text>
</a>
</g>
<!-- Node2&#45;&gt;Node1 -->
<g id="edge2" class="edge"><title>Node2&#45;&gt;Node1</title>
<path fill="none" stroke="midnightblue" d="M92,-116.902C92,-107.612 92,-98.3468 92,-89.7069"/>
<polygon fill="none" stroke="midnightblue" points="88.5001,-116.962 92,-126.962 95.5001,-116.962 88.5001,-116.962"/>
</g>
<!-- Node3 -->
<g id="node4" class="node"><title>Node3</title>
<a xlink:href="classjdungeon_1_1core_1_1world_1_1_vulnerable.html" target="_top" xlink:title="{jdungeon.core.world.Vulnerable\n|&#45; HP\l&#45; maxHP\l&#45; level\l&#45; strength\l&#45; strengthBonus\l&#45; observers\l&#45; serialVersionUID\l|+ Vulnerable()\l+ getLevel()\l+ getHP()\l+ hitBy()\l+ hitsTo()\l+ heal()\l+ hurtBy()\l+ getStrength()\l+ getRawStrength()\l+ getStrengthBonus()\l+ setStrength()\l+ setStrengthBonus()\l+ setMaxHealth()\l+ getMaxHealth()\l+ setLevel()\l+ awardExperience()\l+ getExperience()\l+ subscribe()\l+ unsubscribe()\l# die()\l}">
<polygon fill="none" stroke="black" points="16,-293 16,-681 168,-681 168,-293 16,-293"/>
<text text-anchor="middle" x="92" y="-668" font-family="Helvetica,sans-Serif" font-size="10.00">jdungeon.core.world.Vulnerable</text>
<polyline fill="none" stroke="black" points="16,-660 168,-660 "/>
<text text-anchor="start" x="24" y="-647" font-family="Helvetica,sans-Serif" font-size="10.00">&#45; HP</text>
<text text-anchor="start" x="24" y="-634" font-family="Helvetica,sans-Serif" font-size="10.00">&#45; maxHP</text>
<text text-anchor="start" x="24" y="-621" font-family="Helvetica,sans-Serif" font-size="10.00">&#45; level</text>
<text text-anchor="start" x="24" y="-608" font-family="Helvetica,sans-Serif" font-size="10.00">&#45; strength</text>
<text text-anchor="start" x="24" y="-595" font-family="Helvetica,sans-Serif" font-size="10.00">&#45; strengthBonus</text>
<text text-anchor="start" x="24" y="-582" font-family="Helvetica,sans-Serif" font-size="10.00">&#45; observers</text>
<text text-anchor="start" x="24" y="-569" font-family="Helvetica,sans-Serif" font-size="10.00">&#45; serialVersionUID</text>
<polyline fill="none" stroke="black" points="16,-561 168,-561 "/>
<text text-anchor="start" x="24" y="-548" font-family="Helvetica,sans-Serif" font-size="10.00">+ Vulnerable()</text>
<text text-anchor="start" x="24" y="-535" font-family="Helvetica,sans-Serif" font-size="10.00">+ getLevel()</text>
<text text-anchor="start" x="24" y="-522" font-family="Helvetica,sans-Serif" font-size="10.00">+ getHP()</text>
<text text-anchor="start" x="24" y="-509" font-family="Helvetica,sans-Serif" font-size="10.00">+ hitBy()</text>
<text text-anchor="start" x="24" y="-496" font-family="Helvetica,sans-Serif" font-size="10.00">+ hitsTo()</text>
<text text-anchor="start" x="24" y="-483" font-family="Helvetica,sans-Serif" font-size="10.00">+ heal()</text>
<text text-anchor="start" x="24" y="-470" font-family="Helvetica,sans-Serif" font-size="10.00">+ hurtBy()</text>
<text text-anchor="start" x="24" y="-457" font-family="Helvetica,sans-Serif" font-size="10.00">+ getStrength()</text>
<text text-anchor="start" x="24" y="-444" font-family="Helvetica,sans-Serif" font-size="10.00">+ getRawStrength()</text>
<text text-anchor="start" x="24" y="-431" font-family="Helvetica,sans-Serif" font-size="10.00">+ getStrengthBonus()</text>
<text text-anchor="start" x="24" y="-418" font-family="Helvetica,sans-Serif" font-size="10.00">+ setStrength()</text>
<text text-anchor="start" x="24" y="-405" font-family="Helvetica,sans-Serif" font-size="10.00">+ setStrengthBonus()</text>
<text text-anchor="start" x="24" y="-392" font-family="Helvetica,sans-Serif" font-size="10.00">+ setMaxHealth()</text>
<text text-anchor="start" x="24" y="-379" font-family="Helvetica,sans-Serif" font-size="10.00">+ getMaxHealth()</text>
<text text-anchor="start" x="24" y="-366" font-family="Helvetica,sans-Serif" font-size="10.00">+ setLevel()</text>
<text text-anchor="start" x="24" y="-353" font-family="Helvetica,sans-Serif" font-size="10.00">+ awardExperience()</text>
<text text-anchor="start" x="24" y="-340" font-family="Helvetica,sans-Serif" font-size="10.00">+ getExperience()</text>
<text text-anchor="start" x="24" y="-327" font-family="Helvetica,sans-Serif" font-size="10.00">+ subscribe()</text>
<text text-anchor="start" x="24" y="-314" font-family="Helvetica,sans-Serif" font-size="10.00">+ unsubscribe()</text>
<text text-anchor="start" x="24" y="-301" font-family="Helvetica,sans-Serif" font-size="10.00"># die()</text>
</a>
</g>
<!-- Node3&#45;&gt;Node2 -->
<g id="edge4" class="edge"><title>Node3&#45;&gt;Node2</title>
<path fill="none" stroke="midnightblue" d="M92,-282.703C92,-273.071 92,-263.813 92,-255.131"/>
<polygon fill="none" stroke="midnightblue" points="88.5001,-282.866 92,-292.866 95.5001,-282.866 88.5001,-282.866"/>
</g>
<!-- Node4 -->
<g id="node6" class="node"><title>Node4</title>
<a xlink:href="classjdungeon_1_1core_1_1world_1_1_entity.html" target="_top" xlink:title="{jdungeon.core.world.Entity\n|&#45; w\l&#45; serialVersionUID\l|+ setWorld()\l+ getWorld()\l+ hitBy()\l+ hitsTo()\l+ near()\l+ clone()\l}">
<polygon fill="none" stroke="black" points="26,-718.5 26,-859.5 158,-859.5 158,-718.5 26,-718.5"/>
<text text-anchor="middle" x="92" y="-846.5" font-family="Helvetica,sans-Serif" font-size="10.00">jdungeon.core.world.Entity</text>
<polyline fill="none" stroke="black" points="26,-838.5 158,-838.5 "/>
<text text-anchor="start" x="34" y="-825.5" font-family="Helvetica,sans-Serif" font-size="10.00">&#45; w</text>
<text text-anchor="start" x="34" y="-812.5" font-family="Helvetica,sans-Serif" font-size="10.00">&#45; serialVersionUID</text>
<polyline fill="none" stroke="black" points="26,-804.5 158,-804.5 "/>
<text text-anchor="start" x="34" y="-791.5" font-family="Helvetica,sans-Serif" font-size="10.00">+ setWorld()</text>
<text text-anchor="start" x="34" y="-778.5" font-family="Helvetica,sans-Serif" font-size="10.00">+ getWorld()</text>
<text text-anchor="start" x="34" y="-765.5" font-family="Helvetica,sans-Serif" font-size="10.00">+ hitBy()</text>
<text text-anchor="start" x="34" y="-752.5" font-family="Helvetica,sans-Serif" font-size="10.00">+ hitsTo()</text>
<text text-anchor="start" x="34" y="-739.5" font-family="Helvetica,sans-Serif" font-size="10.00">+ near()</text>
<text text-anchor="start" x="34" y="-726.5" font-family="Helvetica,sans-Serif" font-size="10.00">+ clone()</text>
</a>
</g>
<!-- Node4&#45;&gt;Node3 -->
<g id="edge6" class="edge"><title>Node4&#45;&gt;Node3</title>
<path fill="none" stroke="midnightblue" d="M92,-707.928C92,-699.346 92,-690.377 92,-681.174"/>
<polygon fill="none" stroke="midnightblue" points="88.5001,-708.194 92,-718.194 95.5001,-708.194 88.5001,-708.194"/>
</g>
<!-- Node5 -->
<g id="node8" class="node"><title>Node5</title>
<polygon fill="none" stroke="#bfbfbf" points="58.5,-896.5 58.5,-959.5 125.5,-959.5 125.5,-896.5 58.5,-896.5"/>
<text text-anchor="middle" x="92" y="-946.5" font-family="Helvetica,sans-Serif" font-size="10.00">Serializable</text>
<polyline fill="none" stroke="#bfbfbf" points="58.5,-938.5 125.5,-938.5 "/>
<text text-anchor="middle" x="92" y="-925.5" font-family="Helvetica,sans-Serif" font-size="10.00"> </text>
<polyline fill="none" stroke="#bfbfbf" points="58.5,-917.5 125.5,-917.5 "/>
<text text-anchor="middle" x="92" y="-904.5" font-family="Helvetica,sans-Serif" font-size="10.00"> </text>
</g>
<!-- Node5&#45;&gt;Node4 -->
<g id="edge8" class="edge"><title>Node5&#45;&gt;Node4</title>
<path fill="none" stroke="midnightblue" d="M92,-886.453C92,-877.942 92,-868.76 92,-859.553"/>
<polygon fill="none" stroke="midnightblue" points="88.5001,-886.459 92,-896.459 95.5001,-886.459 88.5001,-886.459"/>
</g>
</g>
</svg>
