<?xml version="1.0" encoding="UTF-8" standalone="no"?>
<!DOCTYPE svg PUBLIC "-//W3C//DTD SVG 1.1//EN"
 "http://www.w3.org/Graphics/SVG/1.1/DTD/svg11.dtd">
<!-- Generated by graphviz version 2.26.3 (20100126.1600)
 -->
<!-- Title: G Pages: 1 -->
<svg width="809pt" height="2062pt"
 viewBox="0.00 0.00 808.98 2062.00" xmlns="http://www.w3.org/2000/svg" xmlns:xlink="http://www.w3.org/1999/xlink">
<g id="graph1" class="graph" transform="scale(1 1) rotate(0) translate(4 2058)">
<title>G</title>
<!-- Node1 -->
<g id="node1" class="node"><title>Node1</title>
<polygon fill="#bfbfbf" stroke="black" points="286.983,-904.5 286.983,-1435.5 418.983,-1435.5 418.983,-904.5 286.983,-904.5"/>
<text text-anchor="middle" x="352.983" y="-1422.5" font-family="Helvetica,sans-Serif" font-size="10.00">jdungeon.core.world.World</text>
<polyline fill="none" stroke="black" points="286.983,-1414.5 418.983,-1414.5 "/>
<text text-anchor="start" x="294.983" y="-1401.5" font-family="Helvetica,sans-Serif" font-size="10.00">&#45; board</text>
<text text-anchor="start" x="294.983" y="-1388.5" font-family="Helvetica,sans-Serif" font-size="10.00">&#45; player</text>
<text text-anchor="start" x="294.983" y="-1375.5" font-family="Helvetica,sans-Serif" font-size="10.00">&#45; boss</text>
<text text-anchor="start" x="294.983" y="-1362.5" font-family="Helvetica,sans-Serif" font-size="10.00">&#45; observers</text>
<text text-anchor="start" x="294.983" y="-1349.5" font-family="Helvetica,sans-Serif" font-size="10.00">&#45; hurtEntities</text>
<text text-anchor="start" x="294.983" y="-1336.5" font-family="Helvetica,sans-Serif" font-size="10.00">&#45; playerObserver</text>
<text text-anchor="start" x="294.983" y="-1323.5" font-family="Helvetica,sans-Serif" font-size="10.00">&#45; bossObserver</text>
<text text-anchor="start" x="294.983" y="-1310.5" font-family="Helvetica,sans-Serif" font-size="10.00">&#45; sizeX</text>
<text text-anchor="start" x="294.983" y="-1297.5" font-family="Helvetica,sans-Serif" font-size="10.00">&#45; sizeY</text>
<text text-anchor="start" x="294.983" y="-1284.5" font-family="Helvetica,sans-Serif" font-size="10.00">&#45; serialVersionUID</text>
<polyline fill="none" stroke="black" points="286.983,-1276.5 418.983,-1276.5 "/>
<text text-anchor="start" x="294.983" y="-1263.5" font-family="Helvetica,sans-Serif" font-size="10.00">+ World()</text>
<text text-anchor="start" x="294.983" y="-1250.5" font-family="Helvetica,sans-Serif" font-size="10.00">+ clone()</text>
<text text-anchor="start" x="294.983" y="-1237.5" font-family="Helvetica,sans-Serif" font-size="10.00">+ getX()</text>
<text text-anchor="start" x="294.983" y="-1224.5" font-family="Helvetica,sans-Serif" font-size="10.00">+ getY()</text>
<text text-anchor="start" x="294.983" y="-1211.5" font-family="Helvetica,sans-Serif" font-size="10.00">+ getHurtEntities()</text>
<text text-anchor="start" x="294.983" y="-1198.5" font-family="Helvetica,sans-Serif" font-size="10.00">+ subscribe()</text>
<text text-anchor="start" x="294.983" y="-1185.5" font-family="Helvetica,sans-Serif" font-size="10.00">+ unsubscribe()</text>
<text text-anchor="start" x="294.983" y="-1172.5" font-family="Helvetica,sans-Serif" font-size="10.00">+ add()</text>
<text text-anchor="start" x="294.983" y="-1159.5" font-family="Helvetica,sans-Serif" font-size="10.00">+ add()</text>
<text text-anchor="start" x="294.983" y="-1146.5" font-family="Helvetica,sans-Serif" font-size="10.00">+ add()</text>
<text text-anchor="start" x="294.983" y="-1133.5" font-family="Helvetica,sans-Serif" font-size="10.00">+ add()</text>
<text text-anchor="start" x="294.983" y="-1120.5" font-family="Helvetica,sans-Serif" font-size="10.00">+ remove()</text>
<text text-anchor="start" x="294.983" y="-1107.5" font-family="Helvetica,sans-Serif" font-size="10.00">+ remove()</text>
<text text-anchor="start" x="294.983" y="-1094.5" font-family="Helvetica,sans-Serif" font-size="10.00">+ getPlayer()</text>
<text text-anchor="start" x="294.983" y="-1081.5" font-family="Helvetica,sans-Serif" font-size="10.00">+ getBoss()</text>
<text text-anchor="start" x="294.983" y="-1068.5" font-family="Helvetica,sans-Serif" font-size="10.00">+ syncEvent()</text>
<text text-anchor="start" x="294.983" y="-1055.5" font-family="Helvetica,sans-Serif" font-size="10.00">+ replace()</text>
<text text-anchor="start" x="294.983" y="-1042.5" font-family="Helvetica,sans-Serif" font-size="10.00">~ addHurtEntity()</text>
<text text-anchor="start" x="294.983" y="-1029.5" font-family="Helvetica,sans-Serif" font-size="10.00">~ removeHurtEntity()</text>
<text text-anchor="start" x="294.983" y="-1016.5" font-family="Helvetica,sans-Serif" font-size="10.00">~ notifyChange()</text>
<text text-anchor="start" x="294.983" y="-1003.5" font-family="Helvetica,sans-Serif" font-size="10.00">~ notifyChange()</text>
<text text-anchor="start" x="294.983" y="-990.5" font-family="Helvetica,sans-Serif" font-size="10.00">~ notifyChange()</text>
<text text-anchor="start" x="294.983" y="-977.5" font-family="Helvetica,sans-Serif" font-size="10.00">~ notifyChange()</text>
<text text-anchor="start" x="294.983" y="-964.5" font-family="Helvetica,sans-Serif" font-size="10.00">~ getEntityInPoint()</text>
<text text-anchor="start" x="294.983" y="-951.5" font-family="Helvetica,sans-Serif" font-size="10.00"># move()</text>
<text text-anchor="start" x="294.983" y="-938.5" font-family="Helvetica,sans-Serif" font-size="10.00"># moveDelta()</text>
<text text-anchor="start" x="294.983" y="-925.5" font-family="Helvetica,sans-Serif" font-size="10.00"># clearView()</text>
<text text-anchor="start" x="294.983" y="-912.5" font-family="Helvetica,sans-Serif" font-size="10.00">&#45; area()</text>
</g>
<!-- Node9 -->
<g id="node18" class="node"><title>Node9</title>
<a xlink:href="classjdungeon_1_1core_1_1world_1_1_entity.html" target="_top" xlink:title="{jdungeon.core.world.Entity\n|&#45; w\l&#45; serialVersionUID\l|+ setWorld()\l+ getWorld()\l+ hitBy()\l+ hitsTo()\l+ near()\l+ clone()\l}">
<polygon fill="none" stroke="black" points="215.983,-712.5 215.983,-853.5 347.983,-853.5 347.983,-712.5 215.983,-712.5"/>
<text text-anchor="middle" x="281.983" y="-840.5" font-family="Helvetica,sans-Serif" font-size="10.00">jdungeon.core.world.Entity</text>
<polyline fill="none" stroke="black" points="215.983,-832.5 347.983,-832.5 "/>
<text text-anchor="start" x="223.983" y="-819.5" font-family="Helvetica,sans-Serif" font-size="10.00">&#45; w</text>
<text text-anchor="start" x="223.983" y="-806.5" font-family="Helvetica,sans-Serif" font-size="10.00">&#45; serialVersionUID</text>
<polyline fill="none" stroke="black" points="215.983,-798.5 347.983,-798.5 "/>
<text text-anchor="start" x="223.983" y="-785.5" font-family="Helvetica,sans-Serif" font-size="10.00">+ setWorld()</text>
<text text-anchor="start" x="223.983" y="-772.5" font-family="Helvetica,sans-Serif" font-size="10.00">+ getWorld()</text>
<text text-anchor="start" x="223.983" y="-759.5" font-family="Helvetica,sans-Serif" font-size="10.00">+ hitBy()</text>
<text text-anchor="start" x="223.983" y="-746.5" font-family="Helvetica,sans-Serif" font-size="10.00">+ hitsTo()</text>
<text text-anchor="start" x="223.983" y="-733.5" font-family="Helvetica,sans-Serif" font-size="10.00">+ near()</text>
<text text-anchor="start" x="223.983" y="-720.5" font-family="Helvetica,sans-Serif" font-size="10.00">+ clone()</text>
</a>
</g>
<!-- Node1&#45;&gt;Node9 -->
<g id="edge24" class="edge"><title>Node1&#45;&gt;Node9</title>
<path fill="none" stroke="#9a32cd" stroke-dasharray="5,2" d="M302.395,-894.259C299.742,-879.795 297.226,-866.085 294.926,-853.549"/>
<polygon fill="#9a32cd" stroke="#9a32cd" points="304.253,-904.387 298.023,-895.364 303.351,-899.469 302.449,-894.552 302.449,-894.552 302.449,-894.552 303.351,-899.469 306.875,-893.739 304.253,-904.387 304.253,-904.387"/>
<text text-anchor="middle" x="302.983" y="-876.5" font-family="Helvetica,sans-Serif" font-size="10.00">w</text>
</g>
<!-- Node2 -->
<g id="node2" class="node"><title>Node2</title>
<polygon fill="none" stroke="#bfbfbf" points="470.483,-1990.5 470.483,-2053.5 537.483,-2053.5 537.483,-1990.5 470.483,-1990.5"/>
<text text-anchor="middle" x="503.983" y="-2040.5" font-family="Helvetica,sans-Serif" font-size="10.00">Serializable</text>
<polyline fill="none" stroke="#bfbfbf" points="470.483,-2032.5 537.483,-2032.5 "/>
<text text-anchor="middle" x="503.983" y="-2019.5" font-family="Helvetica,sans-Serif" font-size="10.00"> </text>
<polyline fill="none" stroke="#bfbfbf" points="470.483,-2011.5 537.483,-2011.5 "/>
<text text-anchor="middle" x="503.983" y="-1998.5" font-family="Helvetica,sans-Serif" font-size="10.00"> </text>
</g>
<!-- Node2&#45;&gt;Node1 -->
<g id="edge2" class="edge"><title>Node2&#45;&gt;Node1</title>
<path fill="none" stroke="midnightblue" d="M538.255,-1982.06C547.089,-1969.42 555.395,-1954.86 559.983,-1940 588.971,-1846.15 587.268,-1592.36 559.983,-1498 532.581,-1403.23 468.751,-1309.52 419.161,-1246.68"/>
<polygon fill="none" stroke="midnightblue" points="535.174,-1980.34 532.093,-1990.48 540.823,-1984.47 535.174,-1980.34"/>
</g>
<!-- Node3 -->
<g id="node4" class="node"><title>Node3</title>
<a xlink:href="interfacejdungeon_1_1core_1_1world_1_1_vulnerable_observer.html" target="_top" xlink:title="{jdungeon.core.world.VulnerableObserver\n||+ onDeath()\l}">
<polygon fill="none" stroke="black" points="358.983,-1687.5 358.983,-1750.5 550.983,-1750.5 550.983,-1687.5 358.983,-1687.5"/>
<text text-anchor="middle" x="454.983" y="-1737.5" font-family="Helvetica,sans-Serif" font-size="10.00">jdungeon.core.world.VulnerableObserver</text>
<polyline fill="none" stroke="black" points="358.983,-1729.5 550.983,-1729.5 "/>
<text text-anchor="middle" x="454.983" y="-1716.5" font-family="Helvetica,sans-Serif" font-size="10.00"> </text>
<polyline fill="none" stroke="black" points="358.983,-1708.5 550.983,-1708.5 "/>
<text text-anchor="start" x="366.983" y="-1695.5" font-family="Helvetica,sans-Serif" font-size="10.00">+ onDeath()</text>
</a>
</g>
<!-- Node2&#45;&gt;Node3 -->
<g id="edge6" class="edge"><title>Node2&#45;&gt;Node3</title>
<path fill="none" stroke="midnightblue" d="M497.247,-1980.34C487.344,-1919.11 469.069,-1806.1 460.151,-1750.95"/>
<polygon fill="none" stroke="midnightblue" points="493.826,-1981.12 498.878,-1990.43 500.737,-1980 493.826,-1981.12"/>
</g>
<!-- Node4 -->
<g id="node7" class="node"><title>Node4</title>
<a xlink:href="classjdungeon_1_1core_1_1world_1_1_board.html" target="_top" xlink:title="{jdungeon.core.world.Board\n|&#45; name\l&#45; cells\l&#45; entities\l&#45; sizeY\l&#45; sizeX\l&#45; serialVersionUID\l&#45; MAX_SIZE\l&#45; MIN_SIZE\l|+ Board()\l+ getSizeY()\l+ getSizeX()\l+ replace()\l+ setName()\l+ getName()\l+ iterator()\l+ filter()\l# neighbours()\l# neighbours()\l# in()\l# in()\l# add()\l# add()\l# remove()\l# contains()\l# move()\l# move()\l# getEntityPos()\l&#45; initMatrix()\l&#45; isValidPoint()\l&#45; isValidPoint()\l&#45; warpTo()\l}">
<polygon fill="none" stroke="black" points="606.983,-1499 606.983,-1939 738.983,-1939 738.983,-1499 606.983,-1499"/>
<text text-anchor="middle" x="672.983" y="-1926" font-family="Helvetica,sans-Serif" font-size="10.00">jdungeon.core.world.Board</text>
<polyline fill="none" stroke="black" points="606.983,-1918 738.983,-1918 "/>
<text text-anchor="start" x="614.983" y="-1905" font-family="Helvetica,sans-Serif" font-size="10.00">&#45; name</text>
<text text-anchor="start" x="614.983" y="-1892" font-family="Helvetica,sans-Serif" font-size="10.00">&#45; cells</text>
<text text-anchor="start" x="614.983" y="-1879" font-family="Helvetica,sans-Serif" font-size="10.00">&#45; entities</text>
<text text-anchor="start" x="614.983" y="-1866" font-family="Helvetica,sans-Serif" font-size="10.00">&#45; sizeY</text>
<text text-anchor="start" x="614.983" y="-1853" font-family="Helvetica,sans-Serif" font-size="10.00">&#45; sizeX</text>
<text text-anchor="start" x="614.983" y="-1840" font-family="Helvetica,sans-Serif" font-size="10.00">&#45; serialVersionUID</text>
<text text-anchor="start" x="614.983" y="-1827" font-family="Helvetica,sans-Serif" font-size="10.00">&#45; MAX_SIZE</text>
<text text-anchor="start" x="614.983" y="-1814" font-family="Helvetica,sans-Serif" font-size="10.00">&#45; MIN_SIZE</text>
<polyline fill="none" stroke="black" points="606.983,-1806 738.983,-1806 "/>
<text text-anchor="start" x="614.983" y="-1793" font-family="Helvetica,sans-Serif" font-size="10.00">+ Board()</text>
<text text-anchor="start" x="614.983" y="-1780" font-family="Helvetica,sans-Serif" font-size="10.00">+ getSizeY()</text>
<text text-anchor="start" x="614.983" y="-1767" font-family="Helvetica,sans-Serif" font-size="10.00">+ getSizeX()</text>
<text text-anchor="start" x="614.983" y="-1754" font-family="Helvetica,sans-Serif" font-size="10.00">+ replace()</text>
<text text-anchor="start" x="614.983" y="-1741" font-family="Helvetica,sans-Serif" font-size="10.00">+ setName()</text>
<text text-anchor="start" x="614.983" y="-1728" font-family="Helvetica,sans-Serif" font-size="10.00">+ getName()</text>
<text text-anchor="start" x="614.983" y="-1715" font-family="Helvetica,sans-Serif" font-size="10.00">+ iterator()</text>
<text text-anchor="start" x="614.983" y="-1702" font-family="Helvetica,sans-Serif" font-size="10.00">+ filter()</text>
<text text-anchor="start" x="614.983" y="-1689" font-family="Helvetica,sans-Serif" font-size="10.00"># neighbours()</text>
<text text-anchor="start" x="614.983" y="-1676" font-family="Helvetica,sans-Serif" font-size="10.00"># neighbours()</text>
<text text-anchor="start" x="614.983" y="-1663" font-family="Helvetica,sans-Serif" font-size="10.00"># in()</text>
<text text-anchor="start" x="614.983" y="-1650" font-family="Helvetica,sans-Serif" font-size="10.00"># in()</text>
<text text-anchor="start" x="614.983" y="-1637" font-family="Helvetica,sans-Serif" font-size="10.00"># add()</text>
<text text-anchor="start" x="614.983" y="-1624" font-family="Helvetica,sans-Serif" font-size="10.00"># add()</text>
<text text-anchor="start" x="614.983" y="-1611" font-family="Helvetica,sans-Serif" font-size="10.00"># remove()</text>
<text text-anchor="start" x="614.983" y="-1598" font-family="Helvetica,sans-Serif" font-size="10.00"># contains()</text>
<text text-anchor="start" x="614.983" y="-1585" font-family="Helvetica,sans-Serif" font-size="10.00"># move()</text>
<text text-anchor="start" x="614.983" y="-1572" font-family="Helvetica,sans-Serif" font-size="10.00"># move()</text>
<text text-anchor="start" x="614.983" y="-1559" font-family="Helvetica,sans-Serif" font-size="10.00"># getEntityPos()</text>
<text text-anchor="start" x="614.983" y="-1546" font-family="Helvetica,sans-Serif" font-size="10.00">&#45; initMatrix()</text>
<text text-anchor="start" x="614.983" y="-1533" font-family="Helvetica,sans-Serif" font-size="10.00">&#45; isValidPoint()</text>
<text text-anchor="start" x="614.983" y="-1520" font-family="Helvetica,sans-Serif" font-size="10.00">&#45; isValidPoint()</text>
<text text-anchor="start" x="614.983" y="-1507" font-family="Helvetica,sans-Serif" font-size="10.00">&#45; warpTo()</text>
</a>
</g>
<!-- Node2&#45;&gt;Node4 -->
<g id="edge10" class="edge"><title>Node2&#45;&gt;Node4</title>
<path fill="none" stroke="midnightblue" d="M547.049,-2005.55C563.085,-1997.55 580.225,-1986.48 591.983,-1972 600.268,-1961.8 607.713,-1950.73 614.401,-1939.12"/>
<polygon fill="none" stroke="midnightblue" points="545.344,-2002.48 537.784,-2009.9 548.323,-2008.82 545.344,-2002.48"/>
</g>
<!-- Node2&#45;&gt;Node9 -->
<g id="edge22" class="edge"><title>Node2&#45;&gt;Node9</title>
<path fill="none" stroke="midnightblue" d="M460.259,-2019.56C367.418,-2013.38 155.519,-1993.58 111.983,-1940 -154.943,-1611.46 125.695,-1050.6 239.028,-853.784"/>
<polygon fill="none" stroke="midnightblue" points="460.243,-2023.07 470.447,-2020.22 460.692,-2016.08 460.243,-2023.07"/>
</g>
<!-- Node3&#45;&gt;Node1 -->
<g id="edge4" class="edge"><title>Node3&#45;&gt;Node1</title>
<path fill="none" stroke="#9a32cd" stroke-dasharray="5,2" d="M447.207,-1677.14C437.412,-1624.43 419.749,-1529.36 402.342,-1435.67"/>
<polygon fill="#9a32cd" stroke="#9a32cd" points="449.058,-1687.11 442.807,-1678.1 448.145,-1682.19 447.232,-1677.28 447.232,-1677.28 447.232,-1677.28 448.145,-1682.19 451.656,-1676.46 449.058,-1687.11 449.058,-1687.11"/>
<text text-anchor="middle" x="443.483" y="-1471" font-family="Helvetica,sans-Serif" font-size="10.00">bossObserver</text>
<text text-anchor="middle" x="443.483" y="-1458" font-family="Helvetica,sans-Serif" font-size="10.00">playerObserver</text>
</g>
<!-- Node4&#45;&gt;Node1 -->
<g id="edge8" class="edge"><title>Node4&#45;&gt;Node1</title>
<path fill="none" stroke="#9a32cd" stroke-dasharray="5,2" d="M610.265,-1489.45C604.905,-1477.26 599.15,-1465.36 592.983,-1454 546.935,-1369.19 472.821,-1286.58 419.125,-1232.52"/>
<polygon fill="#9a32cd" stroke="#9a32cd" points="614.287,-1498.83 606.21,-1491.42 612.317,-1494.24 610.346,-1489.64 610.346,-1489.64 610.346,-1489.64 612.317,-1494.24 614.482,-1487.87 614.287,-1498.83 614.287,-1498.83"/>
<text text-anchor="middle" x="615.483" y="-1464.5" font-family="Helvetica,sans-Serif" font-size="10.00">board</text>
</g>
<!-- Node5 -->
<g id="node10" class="node"><title>Node5</title>
<polygon fill="none" stroke="#bfbfbf" points="694.483,-1990.5 694.483,-2053.5 801.483,-2053.5 801.483,-1990.5 694.483,-1990.5"/>
<text text-anchor="middle" x="747.983" y="-2040.5" font-family="Helvetica,sans-Serif" font-size="10.00">Map&lt; Entity, Point &gt;</text>
<polyline fill="none" stroke="#bfbfbf" points="694.483,-2032.5 801.483,-2032.5 "/>
<text text-anchor="middle" x="747.983" y="-2019.5" font-family="Helvetica,sans-Serif" font-size="10.00"> </text>
<polyline fill="none" stroke="#bfbfbf" points="694.483,-2011.5 801.483,-2011.5 "/>
<text text-anchor="middle" x="747.983" y="-1998.5" font-family="Helvetica,sans-Serif" font-size="10.00"> </text>
</g>
<!-- Node5&#45;&gt;Node4 -->
<g id="edge12" class="edge"><title>Node5&#45;&gt;Node4</title>
<path fill="none" stroke="#9a32cd" stroke-dasharray="5,2" d="M737.685,-1980.4C734.708,-1968.37 731.235,-1954.34 727.473,-1939.14"/>
<polygon fill="#9a32cd" stroke="#9a32cd" points="740.169,-1990.43 733.398,-1981.81 738.968,-1985.58 737.766,-1980.72 737.766,-1980.72 737.766,-1980.72 738.968,-1985.58 742.135,-1979.64 740.169,-1990.43 740.169,-1990.43"/>
<text text-anchor="middle" x="750.983" y="-1962.5" font-family="Helvetica,sans-Serif" font-size="10.00">entities</text>
</g>
<!-- Node6 -->
<g id="node12" class="node"><title>Node6</title>
<polygon fill="none" stroke="#bfbfbf" points="602.483,-1990.5 602.483,-2053.5 677.483,-2053.5 677.483,-1990.5 602.483,-1990.5"/>
<text text-anchor="middle" x="639.983" y="-2040.5" font-family="Helvetica,sans-Serif" font-size="10.00">Set&lt; Entity &gt;</text>
<polyline fill="none" stroke="#bfbfbf" points="602.483,-2032.5 677.483,-2032.5 "/>
<text text-anchor="middle" x="639.983" y="-2019.5" font-family="Helvetica,sans-Serif" font-size="10.00"> </text>
<polyline fill="none" stroke="#bfbfbf" points="602.483,-2011.5 677.483,-2011.5 "/>
<text text-anchor="middle" x="639.983" y="-1998.5" font-family="Helvetica,sans-Serif" font-size="10.00"> </text>
</g>
<!-- Node6&#45;&gt;Node4 -->
<g id="edge14" class="edge"><title>Node6&#45;&gt;Node4</title>
<path fill="none" stroke="#9a32cd" stroke-dasharray="5,2" d="M644.514,-1980.4C645.825,-1968.37 647.353,-1954.34 649.008,-1939.14"/>
<polygon fill="#9a32cd" stroke="#9a32cd" points="643.421,-1990.43 640.031,-1980 643.963,-1985.46 644.504,-1980.49 644.504,-1980.49 644.504,-1980.49 643.963,-1985.46 648.978,-1980.98 643.421,-1990.43 643.421,-1990.43"/>
<text text-anchor="middle" x="656.483" y="-1962.5" font-family="Helvetica,sans-Serif" font-size="10.00">cells</text>
</g>
<!-- Node7 -->
<g id="node14" class="node"><title>Node7</title>
<a xlink:href="classjdungeon_1_1core_1_1world_1_1creatures_1_1_monster.html" target="_top" xlink:title="{jdungeon.core.world.creatures.Monster\n|&#45; serialVersionUID\l|+ Monster()\l+ awardExperience()\l+ getExperience()\l+ hurtBy()\l&#45; computeHealth()\l&#45; computeStrength()\l}">
<polygon fill="none" stroke="black" points="150.483,-53 150.483,-181 335.483,-181 335.483,-53 150.483,-53"/>
<text text-anchor="middle" x="242.983" y="-168" font-family="Helvetica,sans-Serif" font-size="10.00">jdungeon.core.world.creatures.Monster</text>
<polyline fill="none" stroke="black" points="150.483,-160 335.483,-160 "/>
<text text-anchor="start" x="158.483" y="-147" font-family="Helvetica,sans-Serif" font-size="10.00">&#45; serialVersionUID</text>
<polyline fill="none" stroke="black" points="150.483,-139 335.483,-139 "/>
<text text-anchor="start" x="158.483" y="-126" font-family="Helvetica,sans-Serif" font-size="10.00">+ Monster()</text>
<text text-anchor="start" x="158.483" y="-113" font-family="Helvetica,sans-Serif" font-size="10.00">+ awardExperience()</text>
<text text-anchor="start" x="158.483" y="-100" font-family="Helvetica,sans-Serif" font-size="10.00">+ getExperience()</text>
<text text-anchor="start" x="158.483" y="-87" font-family="Helvetica,sans-Serif" font-size="10.00">+ hurtBy()</text>
<text text-anchor="start" x="158.483" y="-74" font-family="Helvetica,sans-Serif" font-size="10.00">&#45; computeHealth()</text>
<text text-anchor="start" x="158.483" y="-61" font-family="Helvetica,sans-Serif" font-size="10.00">&#45; computeStrength()</text>
</a>
</g>
<!-- Node7&#45;&gt;Node1 -->
<g id="edge16" class="edge"><title>Node7&#45;&gt;Node1</title>
<path fill="none" stroke="#9a32cd" stroke-dasharray="5,2" d="M226.638,-191.195C199.889,-325.305 154.708,-616.218 206.983,-854 222.652,-925.272 256.022,-999.613 286.908,-1058.27"/>
<polygon fill="#9a32cd" stroke="#9a32cd" points="228.689,-181.037 231.121,-191.73 227.7,-185.938 226.71,-190.839 226.71,-190.839 226.71,-190.839 227.7,-185.938 222.299,-189.948 228.689,-181.037 228.689,-181.037"/>
<text text-anchor="middle" x="196.983" y="-684.5" font-family="Helvetica,sans-Serif" font-size="10.00">boss</text>
</g>
<!-- Node8 -->
<g id="node16" class="node"><title>Node8</title>
<a xlink:href="classjdungeon_1_1core_1_1world_1_1_vulnerable.html" target="_top" xlink:title="{jdungeon.core.world.Vulnerable\n|&#45; HP\l&#45; maxHP\l&#45; level\l&#45; strength\l&#45; strengthBonus\l&#45; observers\l&#45; serialVersionUID\l|+ Vulnerable()\l+ getLevel()\l+ getHP()\l+ hitBy()\l+ hitsTo()\l+ heal()\l+ hurtBy()\l+ getStrength()\l+ getRawStrength()\l+ getStrengthBonus()\l+ setStrength()\l+ setStrengthBonus()\l+ setMaxHealth()\l+ getMaxHealth()\l+ setLevel()\l+ awardExperience()\l+ getExperience()\l+ subscribe()\l+ unsubscribe()\l# die()\l}">
<polygon fill="none" stroke="black" points="322.983,-273 322.983,-661 474.983,-661 474.983,-273 322.983,-273"/>
<text text-anchor="middle" x="398.983" y="-648" font-family="Helvetica,sans-Serif" font-size="10.00">jdungeon.core.world.Vulnerable</text>
<polyline fill="none" stroke="black" points="322.983,-640 474.983,-640 "/>
<text text-anchor="start" x="330.983" y="-627" font-family="Helvetica,sans-Serif" font-size="10.00">&#45; HP</text>
<text text-anchor="start" x="330.983" y="-614" font-family="Helvetica,sans-Serif" font-size="10.00">&#45; maxHP</text>
<text text-anchor="start" x="330.983" y="-601" font-family="Helvetica,sans-Serif" font-size="10.00">&#45; level</text>
<text text-anchor="start" x="330.983" y="-588" font-family="Helvetica,sans-Serif" font-size="10.00">&#45; strength</text>
<text text-anchor="start" x="330.983" y="-575" font-family="Helvetica,sans-Serif" font-size="10.00">&#45; strengthBonus</text>
<text text-anchor="start" x="330.983" y="-562" font-family="Helvetica,sans-Serif" font-size="10.00">&#45; observers</text>
<text text-anchor="start" x="330.983" y="-549" font-family="Helvetica,sans-Serif" font-size="10.00">&#45; serialVersionUID</text>
<polyline fill="none" stroke="black" points="322.983,-541 474.983,-541 "/>
<text text-anchor="start" x="330.983" y="-528" font-family="Helvetica,sans-Serif" font-size="10.00">+ Vulnerable()</text>
<text text-anchor="start" x="330.983" y="-515" font-family="Helvetica,sans-Serif" font-size="10.00">+ getLevel()</text>
<text text-anchor="start" x="330.983" y="-502" font-family="Helvetica,sans-Serif" font-size="10.00">+ getHP()</text>
<text text-anchor="start" x="330.983" y="-489" font-family="Helvetica,sans-Serif" font-size="10.00">+ hitBy()</text>
<text text-anchor="start" x="330.983" y="-476" font-family="Helvetica,sans-Serif" font-size="10.00">+ hitsTo()</text>
<text text-anchor="start" x="330.983" y="-463" font-family="Helvetica,sans-Serif" font-size="10.00">+ heal()</text>
<text text-anchor="start" x="330.983" y="-450" font-family="Helvetica,sans-Serif" font-size="10.00">+ hurtBy()</text>
<text text-anchor="start" x="330.983" y="-437" font-family="Helvetica,sans-Serif" font-size="10.00">+ getStrength()</text>
<text text-anchor="start" x="330.983" y="-424" font-family="Helvetica,sans-Serif" font-size="10.00">+ getRawStrength()</text>
<text text-anchor="start" x="330.983" y="-411" font-family="Helvetica,sans-Serif" font-size="10.00">+ getStrengthBonus()</text>
<text text-anchor="start" x="330.983" y="-398" font-family="Helvetica,sans-Serif" font-size="10.00">+ setStrength()</text>
<text text-anchor="start" x="330.983" y="-385" font-family="Helvetica,sans-Serif" font-size="10.00">+ setStrengthBonus()</text>
<text text-anchor="start" x="330.983" y="-372" font-family="Helvetica,sans-Serif" font-size="10.00">+ setMaxHealth()</text>
<text text-anchor="start" x="330.983" y="-359" font-family="Helvetica,sans-Serif" font-size="10.00">+ getMaxHealth()</text>
<text text-anchor="start" x="330.983" y="-346" font-family="Helvetica,sans-Serif" font-size="10.00">+ setLevel()</text>
<text text-anchor="start" x="330.983" y="-333" font-family="Helvetica,sans-Serif" font-size="10.00">+ awardExperience()</text>
<text text-anchor="start" x="330.983" y="-320" font-family="Helvetica,sans-Serif" font-size="10.00">+ getExperience()</text>
<text text-anchor="start" x="330.983" y="-307" font-family="Helvetica,sans-Serif" font-size="10.00">+ subscribe()</text>
<text text-anchor="start" x="330.983" y="-294" font-family="Helvetica,sans-Serif" font-size="10.00">+ unsubscribe()</text>
<text text-anchor="start" x="330.983" y="-281" font-family="Helvetica,sans-Serif" font-size="10.00"># die()</text>
</a>
</g>
<!-- Node8&#45;&gt;Node7 -->
<g id="edge18" class="edge"><title>Node8&#45;&gt;Node7</title>
<path fill="none" stroke="midnightblue" d="M318.84,-287.191C301.855,-249.084 285.006,-211.282 271.517,-181.018"/>
<polygon fill="none" stroke="midnightblue" points="315.658,-288.649 322.926,-296.358 322.051,-285.799 315.658,-288.649"/>
</g>
<!-- Node12 -->
<g id="node26" class="node"><title>Node12</title>
<a xlink:href="classjdungeon_1_1core_1_1world_1_1_player.html" target="_top" xlink:title="{jdungeon.core.world.Player\n|&#45; experience\l&#45; name\l&#45; serialVersionUID\l|+ Player()\l+ setWorld()\l+ getName()\l+ setName()\l+ getExperienceForNextLevel()\l+ getExperience()\l+ moveLeft()\l+ moveRight()\l+ moveUp()\l+ moveDown()\l+ awardExperience()\l&#45; move()\l}">
<polygon fill="none" stroke="black" points="406.983,-1 406.983,-233 558.983,-233 558.983,-1 406.983,-1"/>
<text text-anchor="middle" x="482.983" y="-220" font-family="Helvetica,sans-Serif" font-size="10.00">jdungeon.core.world.Player</text>
<polyline fill="none" stroke="black" points="406.983,-212 558.983,-212 "/>
<text text-anchor="start" x="414.983" y="-199" font-family="Helvetica,sans-Serif" font-size="10.00">&#45; experience</text>
<text text-anchor="start" x="414.983" y="-186" font-family="Helvetica,sans-Serif" font-size="10.00">&#45; name</text>
<text text-anchor="start" x="414.983" y="-173" font-family="Helvetica,sans-Serif" font-size="10.00">&#45; serialVersionUID</text>
<polyline fill="none" stroke="black" points="406.983,-165 558.983,-165 "/>
<text text-anchor="start" x="414.983" y="-152" font-family="Helvetica,sans-Serif" font-size="10.00">+ Player()</text>
<text text-anchor="start" x="414.983" y="-139" font-family="Helvetica,sans-Serif" font-size="10.00">+ setWorld()</text>
<text text-anchor="start" x="414.983" y="-126" font-family="Helvetica,sans-Serif" font-size="10.00">+ getName()</text>
<text text-anchor="start" x="414.983" y="-113" font-family="Helvetica,sans-Serif" font-size="10.00">+ setName()</text>
<text text-anchor="start" x="414.983" y="-100" font-family="Helvetica,sans-Serif" font-size="10.00">+ getExperienceForNextLevel()</text>
<text text-anchor="start" x="414.983" y="-87" font-family="Helvetica,sans-Serif" font-size="10.00">+ getExperience()</text>
<text text-anchor="start" x="414.983" y="-74" font-family="Helvetica,sans-Serif" font-size="10.00">+ moveLeft()</text>
<text text-anchor="start" x="414.983" y="-61" font-family="Helvetica,sans-Serif" font-size="10.00">+ moveRight()</text>
<text text-anchor="start" x="414.983" y="-48" font-family="Helvetica,sans-Serif" font-size="10.00">+ moveUp()</text>
<text text-anchor="start" x="414.983" y="-35" font-family="Helvetica,sans-Serif" font-size="10.00">+ moveDown()</text>
<text text-anchor="start" x="414.983" y="-22" font-family="Helvetica,sans-Serif" font-size="10.00">+ awardExperience()</text>
<text text-anchor="start" x="414.983" y="-9" font-family="Helvetica,sans-Serif" font-size="10.00">&#45; move()</text>
</a>
</g>
<!-- Node8&#45;&gt;Node12 -->
<g id="edge32" class="edge"><title>Node8&#45;&gt;Node12</title>
<path fill="none" stroke="midnightblue" d="M447.992,-262.799C450.385,-252.828 452.746,-242.988 455.045,-233.411"/>
<polygon fill="none" stroke="midnightblue" points="444.52,-262.268 445.589,-272.808 451.326,-263.901 444.52,-262.268"/>
</g>
<!-- Node9&#45;&gt;Node8 -->
<g id="edge20" class="edge"><title>Node9&#45;&gt;Node8</title>
<path fill="none" stroke="midnightblue" d="M311.577,-703.072C316.45,-689.911 321.68,-675.784 327.071,-661.224"/>
<polygon fill="none" stroke="midnightblue" points="308.285,-701.884 308.095,-712.477 314.849,-704.314 308.285,-701.884"/>
</g>
<!-- Node10 -->
<g id="node22" class="node"><title>Node10</title>
<polygon fill="none" stroke="#bfbfbf" points="365.483,-751.5 365.483,-814.5 500.483,-814.5 500.483,-751.5 365.483,-751.5"/>
<text text-anchor="middle" x="432.983" y="-801.5" font-family="Helvetica,sans-Serif" font-size="10.00">Set&lt; VulnerableObserver &gt;</text>
<polyline fill="none" stroke="#bfbfbf" points="365.483,-793.5 500.483,-793.5 "/>
<text text-anchor="middle" x="432.983" y="-780.5" font-family="Helvetica,sans-Serif" font-size="10.00"> </text>
<polyline fill="none" stroke="#bfbfbf" points="365.483,-772.5 500.483,-772.5 "/>
<text text-anchor="middle" x="432.983" y="-759.5" font-family="Helvetica,sans-Serif" font-size="10.00"> </text>
</g>
<!-- Node10&#45;&gt;Node8 -->
<g id="edge26" class="edge"><title>Node10&#45;&gt;Node8</title>
<path fill="none" stroke="#9a32cd" stroke-dasharray="5,2" d="M428.48,-741.147C426.146,-719.45 423.109,-691.226 419.873,-661.155"/>
<polygon fill="#9a32cd" stroke="#9a32cd" points="429.568,-751.254 424.024,-741.793 429.033,-746.283 428.498,-741.311 428.498,-741.311 428.498,-741.311 429.033,-746.283 432.972,-740.83 429.568,-751.254 429.568,-751.254"/>
<text text-anchor="middle" x="443.483" y="-684.5" font-family="Helvetica,sans-Serif" font-size="10.00">observers</text>
</g>
<!-- Node11 -->
<g id="node24" class="node"><title>Node11</title>
<polygon fill="none" stroke="#bfbfbf" points="120.983,-1687.5 120.983,-1750.5 228.983,-1750.5 228.983,-1687.5 120.983,-1687.5"/>
<text text-anchor="middle" x="174.983" y="-1737.5" font-family="Helvetica,sans-Serif" font-size="10.00">Set&lt; MapObserver &gt;</text>
<polyline fill="none" stroke="#bfbfbf" points="120.983,-1729.5 228.983,-1729.5 "/>
<text text-anchor="middle" x="174.983" y="-1716.5" font-family="Helvetica,sans-Serif" font-size="10.00"> </text>
<polyline fill="none" stroke="#bfbfbf" points="120.983,-1708.5 228.983,-1708.5 "/>
<text text-anchor="middle" x="174.983" y="-1695.5" font-family="Helvetica,sans-Serif" font-size="10.00"> </text>
</g>
<!-- Node11&#45;&gt;Node1 -->
<g id="edge28" class="edge"><title>Node11&#45;&gt;Node1</title>
<path fill="none" stroke="#9a32cd" stroke-dasharray="5,2" d="M186.031,-1677.46C198.073,-1632.88 218.268,-1560.09 237.983,-1498 253.05,-1450.55 270.348,-1399.62 286.876,-1352.38"/>
<polygon fill="#9a32cd" stroke="#9a32cd" points="183.369,-1687.35 181.624,-1676.52 184.669,-1682.52 185.969,-1677.69 185.969,-1677.69 185.969,-1677.69 184.669,-1682.52 190.314,-1678.86 183.369,-1687.35 183.369,-1687.35"/>
<text text-anchor="middle" x="270.483" y="-1464.5" font-family="Helvetica,sans-Serif" font-size="10.00">observers</text>
</g>
<!-- Node12&#45;&gt;Node1 -->
<g id="edge30" class="edge"><title>Node12&#45;&gt;Node1</title>
<path fill="none" stroke="#9a32cd" stroke-dasharray="5,2" d="M507.255,-243.127C531.275,-391.452 557.981,-644.062 508.983,-854 491.427,-929.221 453.247,-1007.1 419.053,-1066.73"/>
<polygon fill="#9a32cd" stroke="#9a32cd" points="505.604,-233.07 511.664,-242.209 506.414,-238.004 507.224,-242.938 507.224,-242.938 507.224,-242.938 506.414,-238.004 502.783,-243.666 505.604,-233.07 505.604,-233.07"/>
<text text-anchor="middle" x="546.483" y="-684.5" font-family="Helvetica,sans-Serif" font-size="10.00">player</text>
</g>
<!-- Node13 -->
<g id="node29" class="node"><title>Node13</title>
<polygon fill="none" stroke="#bfbfbf" points="246.483,-1687.5 246.483,-1750.5 341.483,-1750.5 341.483,-1687.5 246.483,-1687.5"/>
<text text-anchor="middle" x="293.983" y="-1737.5" font-family="Helvetica,sans-Serif" font-size="10.00">Set&lt; Vulnerable &gt;</text>
<polyline fill="none" stroke="#bfbfbf" points="246.483,-1729.5 341.483,-1729.5 "/>
<text text-anchor="middle" x="293.983" y="-1716.5" font-family="Helvetica,sans-Serif" font-size="10.00"> </text>
<polyline fill="none" stroke="#bfbfbf" points="246.483,-1708.5 341.483,-1708.5 "/>
<text text-anchor="middle" x="293.983" y="-1695.5" font-family="Helvetica,sans-Serif" font-size="10.00"> </text>
</g>
<!-- Node13&#45;&gt;Node1 -->
<g id="edge34" class="edge"><title>Node13&#45;&gt;Node1</title>
<path fill="none" stroke="#9a32cd" stroke-dasharray="5,2" d="M298.481,-1677.14C304.147,-1624.43 314.364,-1529.36 324.433,-1435.67"/>
<polygon fill="#9a32cd" stroke="#9a32cd" points="297.41,-1687.11 294.005,-1676.69 297.945,-1682.14 298.479,-1677.17 298.479,-1677.17 298.479,-1677.17 297.945,-1682.14 302.953,-1677.65 297.41,-1687.11 297.41,-1687.11"/>
<text text-anchor="middle" x="345.983" y="-1464.5" font-family="Helvetica,sans-Serif" font-size="10.00">hurtEntities</text>
</g>
</g>
</svg>
