<?xml version="1.0" encoding="UTF-8" standalone="no"?>
<!DOCTYPE svg PUBLIC "-//W3C//DTD SVG 1.1//EN"
 "http://www.w3.org/Graphics/SVG/1.1/DTD/svg11.dtd">
<!-- Generated by graphviz version 2.26.3 (20100126.1600)
 -->
<!-- Title: G Pages: 1 -->
<svg width="180pt" height="172pt"
 viewBox="0.00 0.00 180.00 172.00" xmlns="http://www.w3.org/2000/svg" xmlns:xlink="http://www.w3.org/1999/xlink">
<g id="graph1" class="graph" transform="scale(1 1) rotate(0) translate(4 168)">
<title>G</title>
<!-- Node1 -->
<g id="node1" class="node"><title>Node1</title>
<polygon fill="#bfbfbf" stroke="black" points="-0.5,-0.5 -0.5,-63.5 172.5,-63.5 172.5,-0.5 -0.5,-0.5"/>
<text text-anchor="middle" x="86" y="-50.5" font-family="Helvetica,sans-Serif" font-size="10.00">jdungeon.frontend.EntityComparator</text>
<polyline fill="none" stroke="black" points="-0.5,-42.5 172.5,-42.5 "/>
<text text-anchor="middle" x="86" y="-29.5" font-family="Helvetica,sans-Serif" font-size="10.00"> </text>
<polyline fill="none" stroke="black" points="-0.5,-21.5 172.5,-21.5 "/>
<text text-anchor="start" x="7.5" y="-8.5" font-family="Helvetica,sans-Serif" font-size="10.00">+ compare()</text>
</g>
<!-- Node2 -->
<g id="node2" class="node"><title>Node2</title>
<polygon fill="none" stroke="#bfbfbf" points="9,-100.5 9,-163.5 163,-163.5 163,-100.5 9,-100.5"/>
<text text-anchor="middle" x="86" y="-150.5" font-family="Helvetica,sans-Serif" font-size="10.00">java::util::Comparator&lt; Entity &gt;</text>
<polyline fill="none" stroke="#bfbfbf" points="9,-142.5 163,-142.5 "/>
<text text-anchor="middle" x="86" y="-129.5" font-family="Helvetica,sans-Serif" font-size="10.00"> </text>
<polyline fill="none" stroke="#bfbfbf" points="9,-121.5 163,-121.5 "/>
<text text-anchor="middle" x="86" y="-108.5" font-family="Helvetica,sans-Serif" font-size="10.00"> </text>
</g>
<!-- Node2&#45;&gt;Node1 -->
<g id="edge2" class="edge"><title>Node2&#45;&gt;Node1</title>
<path fill="none" stroke="midnightblue" d="M86,-90.2111C86,-81.37 86,-72.1767 86,-63.778"/>
<polygon fill="none" stroke="midnightblue" points="82.5001,-90.3593 86,-100.359 89.5001,-90.3594 82.5001,-90.3593"/>
</g>
</g>
</svg>
