<?xml version="1.0" encoding="UTF-8" standalone="no"?>
<!DOCTYPE svg PUBLIC "-//W3C//DTD SVG 1.1//EN"
 "http://www.w3.org/Graphics/SVG/1.1/DTD/svg11.dtd">
<!-- Generated by graphviz version 2.26.3 (20100126.1600)
 -->
<!-- Title: G Pages: 1 -->
<svg width="582pt" height="1072pt"
 viewBox="0.00 0.00 582.00 1072.00" xmlns="http://www.w3.org/2000/svg" xmlns:xlink="http://www.w3.org/1999/xlink">
<g id="graph1" class="graph" transform="scale(1 1) rotate(0) translate(4 1068)">
<title>G</title>
<!-- Node1 -->
<g id="node1" class="node"><title>Node1</title>
<polygon fill="#bfbfbf" stroke="black" points="306,-397 306,-785 458,-785 458,-397 306,-397"/>
<text text-anchor="middle" x="382" y="-772" font-family="Helvetica,sans-Serif" font-size="10.00">jdungeon.core.world.Vulnerable</text>
<polyline fill="none" stroke="black" points="306,-764 458,-764 "/>
<text text-anchor="start" x="314" y="-751" font-family="Helvetica,sans-Serif" font-size="10.00">&#45; HP</text>
<text text-anchor="start" x="314" y="-738" font-family="Helvetica,sans-Serif" font-size="10.00">&#45; maxHP</text>
<text text-anchor="start" x="314" y="-725" font-family="Helvetica,sans-Serif" font-size="10.00">&#45; level</text>
<text text-anchor="start" x="314" y="-712" font-family="Helvetica,sans-Serif" font-size="10.00">&#45; strength</text>
<text text-anchor="start" x="314" y="-699" font-family="Helvetica,sans-Serif" font-size="10.00">&#45; strengthBonus</text>
<text text-anchor="start" x="314" y="-686" font-family="Helvetica,sans-Serif" font-size="10.00">&#45; observers</text>
<text text-anchor="start" x="314" y="-673" font-family="Helvetica,sans-Serif" font-size="10.00">&#45; serialVersionUID</text>
<polyline fill="none" stroke="black" points="306,-665 458,-665 "/>
<text text-anchor="start" x="314" y="-652" font-family="Helvetica,sans-Serif" font-size="10.00">+ Vulnerable()</text>
<text text-anchor="start" x="314" y="-639" font-family="Helvetica,sans-Serif" font-size="10.00">+ getLevel()</text>
<text text-anchor="start" x="314" y="-626" font-family="Helvetica,sans-Serif" font-size="10.00">+ getHP()</text>
<text text-anchor="start" x="314" y="-613" font-family="Helvetica,sans-Serif" font-size="10.00">+ hitBy()</text>
<text text-anchor="start" x="314" y="-600" font-family="Helvetica,sans-Serif" font-size="10.00">+ hitsTo()</text>
<text text-anchor="start" x="314" y="-587" font-family="Helvetica,sans-Serif" font-size="10.00">+ heal()</text>
<text text-anchor="start" x="314" y="-574" font-family="Helvetica,sans-Serif" font-size="10.00">+ hurtBy()</text>
<text text-anchor="start" x="314" y="-561" font-family="Helvetica,sans-Serif" font-size="10.00">+ getStrength()</text>
<text text-anchor="start" x="314" y="-548" font-family="Helvetica,sans-Serif" font-size="10.00">+ getRawStrength()</text>
<text text-anchor="start" x="314" y="-535" font-family="Helvetica,sans-Serif" font-size="10.00">+ getStrengthBonus()</text>
<text text-anchor="start" x="314" y="-522" font-family="Helvetica,sans-Serif" font-size="10.00">+ setStrength()</text>
<text text-anchor="start" x="314" y="-509" font-family="Helvetica,sans-Serif" font-size="10.00">+ setStrengthBonus()</text>
<text text-anchor="start" x="314" y="-496" font-family="Helvetica,sans-Serif" font-size="10.00">+ setMaxHealth()</text>
<text text-anchor="start" x="314" y="-483" font-family="Helvetica,sans-Serif" font-size="10.00">+ getMaxHealth()</text>
<text text-anchor="start" x="314" y="-470" font-family="Helvetica,sans-Serif" font-size="10.00">+ setLevel()</text>
<text text-anchor="start" x="314" y="-457" font-family="Helvetica,sans-Serif" font-size="10.00">+ awardExperience()</text>
<text text-anchor="start" x="314" y="-444" font-family="Helvetica,sans-Serif" font-size="10.00">+ getExperience()</text>
<text text-anchor="start" x="314" y="-431" font-family="Helvetica,sans-Serif" font-size="10.00">+ subscribe()</text>
<text text-anchor="start" x="314" y="-418" font-family="Helvetica,sans-Serif" font-size="10.00">+ unsubscribe()</text>
<text text-anchor="start" x="314" y="-405" font-family="Helvetica,sans-Serif" font-size="10.00"># die()</text>
</g>
<!-- Node4 -->
<g id="node7" class="node"><title>Node4</title>
<a xlink:href="classjdungeon_1_1core_1_1world_1_1creatures_1_1_monster.html" target="_top" xlink:title="{jdungeon.core.world.creatures.Monster\n|&#45; serialVersionUID\l|+ Monster()\l+ awardExperience()\l+ getExperience()\l+ hurtBy()\l&#45; computeHealth()\l&#45; computeStrength()\l}">
<polygon fill="none" stroke="black" points="196.5,-179 196.5,-307 381.5,-307 381.5,-179 196.5,-179"/>
<text text-anchor="middle" x="289" y="-294" font-family="Helvetica,sans-Serif" font-size="10.00">jdungeon.core.world.creatures.Monster</text>
<polyline fill="none" stroke="black" points="196.5,-286 381.5,-286 "/>
<text text-anchor="start" x="204.5" y="-273" font-family="Helvetica,sans-Serif" font-size="10.00">&#45; serialVersionUID</text>
<polyline fill="none" stroke="black" points="196.5,-265 381.5,-265 "/>
<text text-anchor="start" x="204.5" y="-252" font-family="Helvetica,sans-Serif" font-size="10.00">+ Monster()</text>
<text text-anchor="start" x="204.5" y="-239" font-family="Helvetica,sans-Serif" font-size="10.00">+ awardExperience()</text>
<text text-anchor="start" x="204.5" y="-226" font-family="Helvetica,sans-Serif" font-size="10.00">+ getExperience()</text>
<text text-anchor="start" x="204.5" y="-213" font-family="Helvetica,sans-Serif" font-size="10.00">+ hurtBy()</text>
<text text-anchor="start" x="204.5" y="-200" font-family="Helvetica,sans-Serif" font-size="10.00">&#45; computeHealth()</text>
<text text-anchor="start" x="204.5" y="-187" font-family="Helvetica,sans-Serif" font-size="10.00">&#45; computeStrength()</text>
</a>
</g>
<!-- Node1&#45;&gt;Node4 -->
<g id="edge6" class="edge"><title>Node1&#45;&gt;Node4</title>
<path fill="none" stroke="midnightblue" d="M327.499,-387.059C319.771,-358.144 312.348,-330.366 306.117,-307.05"/>
<polygon fill="none" stroke="midnightblue" points="324.166,-388.147 330.13,-396.904 330.929,-386.34 324.166,-388.147"/>
</g>
<!-- Node8 -->
<g id="node15" class="node"><title>Node8</title>
<a xlink:href="classjdungeon_1_1core_1_1world_1_1_player.html" target="_top" xlink:title="{jdungeon.core.world.Player\n|&#45; experience\l&#45; name\l&#45; serialVersionUID\l|+ Player()\l+ setWorld()\l+ getName()\l+ setName()\l+ getExperienceForNextLevel()\l+ getExperience()\l+ moveLeft()\l+ moveRight()\l+ moveUp()\l+ moveDown()\l+ awardExperience()\l&#45; move()\l}">
<polygon fill="none" stroke="black" points="399,-127 399,-359 551,-359 551,-127 399,-127"/>
<text text-anchor="middle" x="475" y="-346" font-family="Helvetica,sans-Serif" font-size="10.00">jdungeon.core.world.Player</text>
<polyline fill="none" stroke="black" points="399,-338 551,-338 "/>
<text text-anchor="start" x="407" y="-325" font-family="Helvetica,sans-Serif" font-size="10.00">&#45; experience</text>
<text text-anchor="start" x="407" y="-312" font-family="Helvetica,sans-Serif" font-size="10.00">&#45; name</text>
<text text-anchor="start" x="407" y="-299" font-family="Helvetica,sans-Serif" font-size="10.00">&#45; serialVersionUID</text>
<polyline fill="none" stroke="black" points="399,-291 551,-291 "/>
<text text-anchor="start" x="407" y="-278" font-family="Helvetica,sans-Serif" font-size="10.00">+ Player()</text>
<text text-anchor="start" x="407" y="-265" font-family="Helvetica,sans-Serif" font-size="10.00">+ setWorld()</text>
<text text-anchor="start" x="407" y="-252" font-family="Helvetica,sans-Serif" font-size="10.00">+ getName()</text>
<text text-anchor="start" x="407" y="-239" font-family="Helvetica,sans-Serif" font-size="10.00">+ setName()</text>
<text text-anchor="start" x="407" y="-226" font-family="Helvetica,sans-Serif" font-size="10.00">+ getExperienceForNextLevel()</text>
<text text-anchor="start" x="407" y="-213" font-family="Helvetica,sans-Serif" font-size="10.00">+ getExperience()</text>
<text text-anchor="start" x="407" y="-200" font-family="Helvetica,sans-Serif" font-size="10.00">+ moveLeft()</text>
<text text-anchor="start" x="407" y="-187" font-family="Helvetica,sans-Serif" font-size="10.00">+ moveRight()</text>
<text text-anchor="start" x="407" y="-174" font-family="Helvetica,sans-Serif" font-size="10.00">+ moveUp()</text>
<text text-anchor="start" x="407" y="-161" font-family="Helvetica,sans-Serif" font-size="10.00">+ moveDown()</text>
<text text-anchor="start" x="407" y="-148" font-family="Helvetica,sans-Serif" font-size="10.00">+ awardExperience()</text>
<text text-anchor="start" x="407" y="-135" font-family="Helvetica,sans-Serif" font-size="10.00">&#45; move()</text>
</a>
</g>
<!-- Node1&#45;&gt;Node8 -->
<g id="edge14" class="edge"><title>Node1&#45;&gt;Node8</title>
<path fill="none" stroke="midnightblue" d="M436.503,-387.052C439.02,-377.635 441.504,-368.339 443.926,-359.279"/>
<polygon fill="none" stroke="midnightblue" points="433.071,-386.34 433.87,-396.904 439.834,-388.147 433.071,-386.34"/>
</g>
<!-- Node2 -->
<g id="node2" class="node"><title>Node2</title>
<a xlink:href="classjdungeon_1_1core_1_1world_1_1_entity.html" target="_top" xlink:title="{jdungeon.core.world.Entity\n|&#45; w\l&#45; serialVersionUID\l|+ setWorld()\l+ getWorld()\l+ hitBy()\l+ hitsTo()\l+ near()\l+ clone()\l}">
<polygon fill="none" stroke="black" points="316,-822.5 316,-963.5 448,-963.5 448,-822.5 316,-822.5"/>
<text text-anchor="middle" x="382" y="-950.5" font-family="Helvetica,sans-Serif" font-size="10.00">jdungeon.core.world.Entity</text>
<polyline fill="none" stroke="black" points="316,-942.5 448,-942.5 "/>
<text text-anchor="start" x="324" y="-929.5" font-family="Helvetica,sans-Serif" font-size="10.00">&#45; w</text>
<text text-anchor="start" x="324" y="-916.5" font-family="Helvetica,sans-Serif" font-size="10.00">&#45; serialVersionUID</text>
<polyline fill="none" stroke="black" points="316,-908.5 448,-908.5 "/>
<text text-anchor="start" x="324" y="-895.5" font-family="Helvetica,sans-Serif" font-size="10.00">+ setWorld()</text>
<text text-anchor="start" x="324" y="-882.5" font-family="Helvetica,sans-Serif" font-size="10.00">+ getWorld()</text>
<text text-anchor="start" x="324" y="-869.5" font-family="Helvetica,sans-Serif" font-size="10.00">+ hitBy()</text>
<text text-anchor="start" x="324" y="-856.5" font-family="Helvetica,sans-Serif" font-size="10.00">+ hitsTo()</text>
<text text-anchor="start" x="324" y="-843.5" font-family="Helvetica,sans-Serif" font-size="10.00">+ near()</text>
<text text-anchor="start" x="324" y="-830.5" font-family="Helvetica,sans-Serif" font-size="10.00">+ clone()</text>
</a>
</g>
<!-- Node2&#45;&gt;Node1 -->
<g id="edge2" class="edge"><title>Node2&#45;&gt;Node1</title>
<path fill="none" stroke="midnightblue" d="M382,-811.928C382,-803.346 382,-794.377 382,-785.174"/>
<polygon fill="none" stroke="midnightblue" points="378.5,-812.194 382,-822.194 385.5,-812.194 378.5,-812.194"/>
</g>
<!-- Node3 -->
<g id="node4" class="node"><title>Node3</title>
<polygon fill="none" stroke="#bfbfbf" points="348.5,-1000.5 348.5,-1063.5 415.5,-1063.5 415.5,-1000.5 348.5,-1000.5"/>
<text text-anchor="middle" x="382" y="-1050.5" font-family="Helvetica,sans-Serif" font-size="10.00">Serializable</text>
<polyline fill="none" stroke="#bfbfbf" points="348.5,-1042.5 415.5,-1042.5 "/>
<text text-anchor="middle" x="382" y="-1029.5" font-family="Helvetica,sans-Serif" font-size="10.00"> </text>
<polyline fill="none" stroke="#bfbfbf" points="348.5,-1021.5 415.5,-1021.5 "/>
<text text-anchor="middle" x="382" y="-1008.5" font-family="Helvetica,sans-Serif" font-size="10.00"> </text>
</g>
<!-- Node3&#45;&gt;Node2 -->
<g id="edge4" class="edge"><title>Node3&#45;&gt;Node2</title>
<path fill="none" stroke="midnightblue" d="M382,-990.453C382,-981.942 382,-972.76 382,-963.553"/>
<polygon fill="none" stroke="midnightblue" points="378.5,-990.459 382,-1000.46 385.5,-990.459 378.5,-990.459"/>
</g>
<!-- Node5 -->
<g id="node9" class="node"><title>Node5</title>
<a xlink:href="classjdungeon_1_1core_1_1world_1_1creatures_1_1_dragon.html" target="_top" xlink:title="{jdungeon.core.world.creatures.Dragon\n|&#45; serialVersionUID\l&#45; F\l&#45; S\l|+ Dragon()\l}">
<polygon fill="none" stroke="black" points="0,-0.5 0,-89.5 182,-89.5 182,-0.5 0,-0.5"/>
<text text-anchor="middle" x="91" y="-76.5" font-family="Helvetica,sans-Serif" font-size="10.00">jdungeon.core.world.creatures.Dragon</text>
<polyline fill="none" stroke="black" points="0,-68.5 182,-68.5 "/>
<text text-anchor="start" x="8" y="-55.5" font-family="Helvetica,sans-Serif" font-size="10.00">&#45; serialVersionUID</text>
<text text-anchor="start" x="8" y="-42.5" font-family="Helvetica,sans-Serif" font-size="10.00">&#45; F</text>
<text text-anchor="start" x="8" y="-29.5" font-family="Helvetica,sans-Serif" font-size="10.00">&#45; S</text>
<polyline fill="none" stroke="black" points="0,-21.5 182,-21.5 "/>
<text text-anchor="start" x="8" y="-8.5" font-family="Helvetica,sans-Serif" font-size="10.00">+ Dragon()</text>
</a>
</g>
<!-- Node4&#45;&gt;Node5 -->
<g id="edge8" class="edge"><title>Node4&#45;&gt;Node5</title>
<path fill="none" stroke="midnightblue" d="M217.728,-171.728C190.344,-144.344 159.881,-113.881 135.687,-89.6868"/>
<polygon fill="none" stroke="midnightblue" points="215.443,-174.392 224.989,-178.989 220.392,-169.443 215.443,-174.392"/>
</g>
<!-- Node6 -->
<g id="node11" class="node"><title>Node6</title>
<a xlink:href="classjdungeon_1_1core_1_1world_1_1creatures_1_1_golem.html" target="_top" xlink:title="{jdungeon.core.world.creatures.Golem\n|&#45; serialVersionUID\l&#45; S\l&#45; F\l|+ Golem()\l}">
<polygon fill="none" stroke="black" points="199.5,-0.5 199.5,-89.5 378.5,-89.5 378.5,-0.5 199.5,-0.5"/>
<text text-anchor="middle" x="289" y="-76.5" font-family="Helvetica,sans-Serif" font-size="10.00">jdungeon.core.world.creatures.Golem</text>
<polyline fill="none" stroke="black" points="199.5,-68.5 378.5,-68.5 "/>
<text text-anchor="start" x="207.5" y="-55.5" font-family="Helvetica,sans-Serif" font-size="10.00">&#45; serialVersionUID</text>
<text text-anchor="start" x="207.5" y="-42.5" font-family="Helvetica,sans-Serif" font-size="10.00">&#45; S</text>
<text text-anchor="start" x="207.5" y="-29.5" font-family="Helvetica,sans-Serif" font-size="10.00">&#45; F</text>
<polyline fill="none" stroke="black" points="199.5,-21.5 378.5,-21.5 "/>
<text text-anchor="start" x="207.5" y="-8.5" font-family="Helvetica,sans-Serif" font-size="10.00">+ Golem()</text>
</a>
</g>
<!-- Node4&#45;&gt;Node6 -->
<g id="edge10" class="edge"><title>Node4&#45;&gt;Node6</title>
<path fill="none" stroke="midnightblue" d="M289,-168.921C289,-142.277 289,-113.058 289,-89.6868"/>
<polygon fill="none" stroke="midnightblue" points="285.5,-168.988 289,-178.989 292.5,-168.989 285.5,-168.988"/>
</g>
<!-- Node7 -->
<g id="node13" class="node"><title>Node7</title>
<a xlink:href="classjdungeon_1_1core_1_1world_1_1creatures_1_1_snake.html" target="_top" xlink:title="{jdungeon.core.world.creatures.Snake\n|&#45; serialVersionUID\l&#45; S\l&#45; F\l|+ Snake()\l}">
<polygon fill="none" stroke="black" points="396,-0.5 396,-89.5 574,-89.5 574,-0.5 396,-0.5"/>
<text text-anchor="middle" x="485" y="-76.5" font-family="Helvetica,sans-Serif" font-size="10.00">jdungeon.core.world.creatures.Snake</text>
<polyline fill="none" stroke="black" points="396,-68.5 574,-68.5 "/>
<text text-anchor="start" x="404" y="-55.5" font-family="Helvetica,sans-Serif" font-size="10.00">&#45; serialVersionUID</text>
<text text-anchor="start" x="404" y="-42.5" font-family="Helvetica,sans-Serif" font-size="10.00">&#45; S</text>
<text text-anchor="start" x="404" y="-29.5" font-family="Helvetica,sans-Serif" font-size="10.00">&#45; F</text>
<polyline fill="none" stroke="black" points="396,-21.5 574,-21.5 "/>
<text text-anchor="start" x="404" y="-8.5" font-family="Helvetica,sans-Serif" font-size="10.00">+ Snake()</text>
</a>
</g>
<!-- Node4&#45;&gt;Node7 -->
<g id="edge12" class="edge"><title>Node4&#45;&gt;Node7</title>
<path fill="none" stroke="midnightblue" d="M348.159,-170.955C361.502,-155.716 375.9,-140.014 390,-126 402.298,-113.777 416.187,-101.283 429.472,-89.8811"/>
<polygon fill="none" stroke="midnightblue" points="345.2,-169.025 341.285,-178.87 350.485,-173.615 345.2,-169.025"/>
</g>
</g>
</svg>
