<?xml version="1.0" encoding="UTF-8" standalone="no"?>
<!DOCTYPE svg PUBLIC "-//W3C//DTD SVG 1.1//EN"
 "http://www.w3.org/Graphics/SVG/1.1/DTD/svg11.dtd">
<!-- Generated by graphviz version 2.26.3 (20100126.1600)
 -->
<!-- Title: G Pages: 1 -->
<svg width="290pt" height="564pt"
 viewBox="0.00 0.00 290.00 564.00" xmlns="http://www.w3.org/2000/svg" xmlns:xlink="http://www.w3.org/1999/xlink">
<g id="graph1" class="graph" transform="scale(1 1) rotate(0) translate(4 560)">
<title>G</title>
<!-- Node1 -->
<g id="node1" class="node"><title>Node1</title>
<polygon fill="#bfbfbf" stroke="black" points="71,-1 71,-441 203,-441 203,-1 71,-1"/>
<text text-anchor="middle" x="137" y="-428" font-family="Helvetica,sans-Serif" font-size="10.00">jdungeon.core.world.Board</text>
<polyline fill="none" stroke="black" points="71,-420 203,-420 "/>
<text text-anchor="start" x="79" y="-407" font-family="Helvetica,sans-Serif" font-size="10.00">&#45; name</text>
<text text-anchor="start" x="79" y="-394" font-family="Helvetica,sans-Serif" font-size="10.00">&#45; cells</text>
<text text-anchor="start" x="79" y="-381" font-family="Helvetica,sans-Serif" font-size="10.00">&#45; entities</text>
<text text-anchor="start" x="79" y="-368" font-family="Helvetica,sans-Serif" font-size="10.00">&#45; sizeY</text>
<text text-anchor="start" x="79" y="-355" font-family="Helvetica,sans-Serif" font-size="10.00">&#45; sizeX</text>
<text text-anchor="start" x="79" y="-342" font-family="Helvetica,sans-Serif" font-size="10.00">&#45; serialVersionUID</text>
<text text-anchor="start" x="79" y="-329" font-family="Helvetica,sans-Serif" font-size="10.00">&#45; MAX_SIZE</text>
<text text-anchor="start" x="79" y="-316" font-family="Helvetica,sans-Serif" font-size="10.00">&#45; MIN_SIZE</text>
<polyline fill="none" stroke="black" points="71,-308 203,-308 "/>
<text text-anchor="start" x="79" y="-295" font-family="Helvetica,sans-Serif" font-size="10.00">+ Board()</text>
<text text-anchor="start" x="79" y="-282" font-family="Helvetica,sans-Serif" font-size="10.00">+ getSizeY()</text>
<text text-anchor="start" x="79" y="-269" font-family="Helvetica,sans-Serif" font-size="10.00">+ getSizeX()</text>
<text text-anchor="start" x="79" y="-256" font-family="Helvetica,sans-Serif" font-size="10.00">+ replace()</text>
<text text-anchor="start" x="79" y="-243" font-family="Helvetica,sans-Serif" font-size="10.00">+ setName()</text>
<text text-anchor="start" x="79" y="-230" font-family="Helvetica,sans-Serif" font-size="10.00">+ getName()</text>
<text text-anchor="start" x="79" y="-217" font-family="Helvetica,sans-Serif" font-size="10.00">+ iterator()</text>
<text text-anchor="start" x="79" y="-204" font-family="Helvetica,sans-Serif" font-size="10.00">+ filter()</text>
<text text-anchor="start" x="79" y="-191" font-family="Helvetica,sans-Serif" font-size="10.00"># neighbours()</text>
<text text-anchor="start" x="79" y="-178" font-family="Helvetica,sans-Serif" font-size="10.00"># neighbours()</text>
<text text-anchor="start" x="79" y="-165" font-family="Helvetica,sans-Serif" font-size="10.00"># in()</text>
<text text-anchor="start" x="79" y="-152" font-family="Helvetica,sans-Serif" font-size="10.00"># in()</text>
<text text-anchor="start" x="79" y="-139" font-family="Helvetica,sans-Serif" font-size="10.00"># add()</text>
<text text-anchor="start" x="79" y="-126" font-family="Helvetica,sans-Serif" font-size="10.00"># add()</text>
<text text-anchor="start" x="79" y="-113" font-family="Helvetica,sans-Serif" font-size="10.00"># remove()</text>
<text text-anchor="start" x="79" y="-100" font-family="Helvetica,sans-Serif" font-size="10.00"># contains()</text>
<text text-anchor="start" x="79" y="-87" font-family="Helvetica,sans-Serif" font-size="10.00"># move()</text>
<text text-anchor="start" x="79" y="-74" font-family="Helvetica,sans-Serif" font-size="10.00"># move()</text>
<text text-anchor="start" x="79" y="-61" font-family="Helvetica,sans-Serif" font-size="10.00"># getEntityPos()</text>
<text text-anchor="start" x="79" y="-48" font-family="Helvetica,sans-Serif" font-size="10.00">&#45; initMatrix()</text>
<text text-anchor="start" x="79" y="-35" font-family="Helvetica,sans-Serif" font-size="10.00">&#45; isValidPoint()</text>
<text text-anchor="start" x="79" y="-22" font-family="Helvetica,sans-Serif" font-size="10.00">&#45; isValidPoint()</text>
<text text-anchor="start" x="79" y="-9" font-family="Helvetica,sans-Serif" font-size="10.00">&#45; warpTo()</text>
</g>
<!-- Node2 -->
<g id="node2" class="node"><title>Node2</title>
<polygon fill="none" stroke="#bfbfbf" points="-0.5,-492.5 -0.5,-555.5 66.5,-555.5 66.5,-492.5 -0.5,-492.5"/>
<text text-anchor="middle" x="33" y="-542.5" font-family="Helvetica,sans-Serif" font-size="10.00">Serializable</text>
<polyline fill="none" stroke="#bfbfbf" points="-0.5,-534.5 66.5,-534.5 "/>
<text text-anchor="middle" x="33" y="-521.5" font-family="Helvetica,sans-Serif" font-size="10.00"> </text>
<polyline fill="none" stroke="#bfbfbf" points="-0.5,-513.5 66.5,-513.5 "/>
<text text-anchor="middle" x="33" y="-500.5" font-family="Helvetica,sans-Serif" font-size="10.00"> </text>
</g>
<!-- Node2&#45;&gt;Node1 -->
<g id="edge2" class="edge"><title>Node2&#45;&gt;Node1</title>
<path fill="none" stroke="midnightblue" d="M47.1015,-482.916C53.6661,-463.79 61.9944,-439.526 70.9212,-413.518"/>
<polygon fill="none" stroke="midnightblue" points="43.7716,-481.837 43.8355,-492.431 50.3924,-484.109 43.7716,-481.837"/>
</g>
<!-- Node3 -->
<g id="node4" class="node"><title>Node3</title>
<polygon fill="none" stroke="#bfbfbf" points="83.5,-492.5 83.5,-555.5 190.5,-555.5 190.5,-492.5 83.5,-492.5"/>
<text text-anchor="middle" x="137" y="-542.5" font-family="Helvetica,sans-Serif" font-size="10.00">Map&lt; Entity, Point &gt;</text>
<polyline fill="none" stroke="#bfbfbf" points="83.5,-534.5 190.5,-534.5 "/>
<text text-anchor="middle" x="137" y="-521.5" font-family="Helvetica,sans-Serif" font-size="10.00"> </text>
<polyline fill="none" stroke="#bfbfbf" points="83.5,-513.5 190.5,-513.5 "/>
<text text-anchor="middle" x="137" y="-500.5" font-family="Helvetica,sans-Serif" font-size="10.00"> </text>
</g>
<!-- Node3&#45;&gt;Node1 -->
<g id="edge4" class="edge"><title>Node3&#45;&gt;Node1</title>
<path fill="none" stroke="#9a32cd" stroke-dasharray="5,2" d="M137,-482.396C137,-470.367 137,-456.337 137,-441.138"/>
<polygon fill="#9a32cd" stroke="#9a32cd" points="137,-492.431 132.5,-482.431 137,-487.431 137,-482.431 137,-482.431 137,-482.431 137,-487.431 141.5,-482.431 137,-492.431 137,-492.431"/>
<text text-anchor="middle" x="153" y="-464.5" font-family="Helvetica,sans-Serif" font-size="10.00">entities</text>
</g>
<!-- Node4 -->
<g id="node6" class="node"><title>Node4</title>
<polygon fill="none" stroke="#bfbfbf" points="207.5,-492.5 207.5,-555.5 282.5,-555.5 282.5,-492.5 207.5,-492.5"/>
<text text-anchor="middle" x="245" y="-542.5" font-family="Helvetica,sans-Serif" font-size="10.00">Set&lt; Entity &gt;</text>
<polyline fill="none" stroke="#bfbfbf" points="207.5,-534.5 282.5,-534.5 "/>
<text text-anchor="middle" x="245" y="-521.5" font-family="Helvetica,sans-Serif" font-size="10.00"> </text>
<polyline fill="none" stroke="#bfbfbf" points="207.5,-513.5 282.5,-513.5 "/>
<text text-anchor="middle" x="245" y="-500.5" font-family="Helvetica,sans-Serif" font-size="10.00"> </text>
</g>
<!-- Node4&#45;&gt;Node1 -->
<g id="edge6" class="edge"><title>Node4&#45;&gt;Node1</title>
<path fill="none" stroke="#9a32cd" stroke-dasharray="5,2" d="M230.379,-482.981C222.929,-462.08 213.288,-435.03 203.037,-406.269"/>
<polygon fill="#9a32cd" stroke="#9a32cd" points="233.748,-492.431 226.151,-484.523 232.069,-487.721 230.39,-483.012 230.39,-483.012 230.39,-483.012 232.069,-487.721 234.629,-481.501 233.748,-492.431 233.748,-492.431"/>
<text text-anchor="middle" x="236.5" y="-464.5" font-family="Helvetica,sans-Serif" font-size="10.00">cells</text>
</g>
</g>
</svg>
