<?xml version="1.0" encoding="UTF-8" standalone="no"?>
<!DOCTYPE svg PUBLIC "-//W3C//DTD SVG 1.1//EN"
 "http://www.w3.org/Graphics/SVG/1.1/DTD/svg11.dtd">
<!-- Generated by graphviz version 2.26.3 (20100126.1600)
 -->
<!-- Title: G Pages: 1 -->
<svg width="893pt" height="2062pt"
 viewBox="0.00 0.00 892.93 2062.00" xmlns="http://www.w3.org/2000/svg" xmlns:xlink="http://www.w3.org/1999/xlink">
<g id="graph1" class="graph" transform="scale(1 1) rotate(0) translate(4 2058)">
<title>G</title>
<!-- Node1 -->
<g id="node1" class="node"><title>Node1</title>
<polygon fill="#bfbfbf" stroke="black" points="700.427,-1655 700.427,-1783 885.427,-1783 885.427,-1655 700.427,-1655"/>
<text text-anchor="middle" x="792.927" y="-1770" font-family="Helvetica,sans-Serif" font-size="10.00">jdungeon.core.world.creatures.Monster</text>
<polyline fill="none" stroke="black" points="700.427,-1762 885.427,-1762 "/>
<text text-anchor="start" x="708.427" y="-1749" font-family="Helvetica,sans-Serif" font-size="10.00">&#45; serialVersionUID</text>
<polyline fill="none" stroke="black" points="700.427,-1741 885.427,-1741 "/>
<text text-anchor="start" x="708.427" y="-1728" font-family="Helvetica,sans-Serif" font-size="10.00">+ Monster()</text>
<text text-anchor="start" x="708.427" y="-1715" font-family="Helvetica,sans-Serif" font-size="10.00">+ awardExperience()</text>
<text text-anchor="start" x="708.427" y="-1702" font-family="Helvetica,sans-Serif" font-size="10.00">+ getExperience()</text>
<text text-anchor="start" x="708.427" y="-1689" font-family="Helvetica,sans-Serif" font-size="10.00">+ hurtBy()</text>
<text text-anchor="start" x="708.427" y="-1676" font-family="Helvetica,sans-Serif" font-size="10.00">&#45; computeHealth()</text>
<text text-anchor="start" x="708.427" y="-1663" font-family="Helvetica,sans-Serif" font-size="10.00">&#45; computeStrength()</text>
</g>
<!-- Node5 -->
<g id="node8" class="node"><title>Node5</title>
<a xlink:href="classjdungeon_1_1core_1_1world_1_1_world.html" target="_top" xlink:title="{jdungeon.core.world.World\n|&#45; board\l&#45; player\l&#45; boss\l&#45; observers\l&#45; hurtEntities\l&#45; playerObserver\l&#45; bossObserver\l&#45; sizeX\l&#45; sizeY\l&#45; serialVersionUID\l|+ World()\l+ clone()\l+ getX()\l+ getY()\l+ getHurtEntities()\l+ subscribe()\l+ unsubscribe()\l+ add()\l+ add()\l+ add()\l+ add()\l+ remove()\l+ remove()\l+ getPlayer()\l+ getBoss()\l+ syncEvent()\l+ replace()\l~ addHurtEntity()\l~ removeHurtEntity()\l~ notifyChange()\l~ notifyChange()\l~ notifyChange()\l~ notifyChange()\l~ getEntityInPoint()\l# move()\l# moveDelta()\l# clearView()\l&#45; area()\l}">
<polygon fill="none" stroke="black" points="438.927,-904.5 438.927,-1435.5 570.927,-1435.5 570.927,-904.5 438.927,-904.5"/>
<text text-anchor="middle" x="504.927" y="-1422.5" font-family="Helvetica,sans-Serif" font-size="10.00">jdungeon.core.world.World</text>
<polyline fill="none" stroke="black" points="438.927,-1414.5 570.927,-1414.5 "/>
<text text-anchor="start" x="446.927" y="-1401.5" font-family="Helvetica,sans-Serif" font-size="10.00">&#45; board</text>
<text text-anchor="start" x="446.927" y="-1388.5" font-family="Helvetica,sans-Serif" font-size="10.00">&#45; player</text>
<text text-anchor="start" x="446.927" y="-1375.5" font-family="Helvetica,sans-Serif" font-size="10.00">&#45; boss</text>
<text text-anchor="start" x="446.927" y="-1362.5" font-family="Helvetica,sans-Serif" font-size="10.00">&#45; observers</text>
<text text-anchor="start" x="446.927" y="-1349.5" font-family="Helvetica,sans-Serif" font-size="10.00">&#45; hurtEntities</text>
<text text-anchor="start" x="446.927" y="-1336.5" font-family="Helvetica,sans-Serif" font-size="10.00">&#45; playerObserver</text>
<text text-anchor="start" x="446.927" y="-1323.5" font-family="Helvetica,sans-Serif" font-size="10.00">&#45; bossObserver</text>
<text text-anchor="start" x="446.927" y="-1310.5" font-family="Helvetica,sans-Serif" font-size="10.00">&#45; sizeX</text>
<text text-anchor="start" x="446.927" y="-1297.5" font-family="Helvetica,sans-Serif" font-size="10.00">&#45; sizeY</text>
<text text-anchor="start" x="446.927" y="-1284.5" font-family="Helvetica,sans-Serif" font-size="10.00">&#45; serialVersionUID</text>
<polyline fill="none" stroke="black" points="438.927,-1276.5 570.927,-1276.5 "/>
<text text-anchor="start" x="446.927" y="-1263.5" font-family="Helvetica,sans-Serif" font-size="10.00">+ World()</text>
<text text-anchor="start" x="446.927" y="-1250.5" font-family="Helvetica,sans-Serif" font-size="10.00">+ clone()</text>
<text text-anchor="start" x="446.927" y="-1237.5" font-family="Helvetica,sans-Serif" font-size="10.00">+ getX()</text>
<text text-anchor="start" x="446.927" y="-1224.5" font-family="Helvetica,sans-Serif" font-size="10.00">+ getY()</text>
<text text-anchor="start" x="446.927" y="-1211.5" font-family="Helvetica,sans-Serif" font-size="10.00">+ getHurtEntities()</text>
<text text-anchor="start" x="446.927" y="-1198.5" font-family="Helvetica,sans-Serif" font-size="10.00">+ subscribe()</text>
<text text-anchor="start" x="446.927" y="-1185.5" font-family="Helvetica,sans-Serif" font-size="10.00">+ unsubscribe()</text>
<text text-anchor="start" x="446.927" y="-1172.5" font-family="Helvetica,sans-Serif" font-size="10.00">+ add()</text>
<text text-anchor="start" x="446.927" y="-1159.5" font-family="Helvetica,sans-Serif" font-size="10.00">+ add()</text>
<text text-anchor="start" x="446.927" y="-1146.5" font-family="Helvetica,sans-Serif" font-size="10.00">+ add()</text>
<text text-anchor="start" x="446.927" y="-1133.5" font-family="Helvetica,sans-Serif" font-size="10.00">+ add()</text>
<text text-anchor="start" x="446.927" y="-1120.5" font-family="Helvetica,sans-Serif" font-size="10.00">+ remove()</text>
<text text-anchor="start" x="446.927" y="-1107.5" font-family="Helvetica,sans-Serif" font-size="10.00">+ remove()</text>
<text text-anchor="start" x="446.927" y="-1094.5" font-family="Helvetica,sans-Serif" font-size="10.00">+ getPlayer()</text>
<text text-anchor="start" x="446.927" y="-1081.5" font-family="Helvetica,sans-Serif" font-size="10.00">+ getBoss()</text>
<text text-anchor="start" x="446.927" y="-1068.5" font-family="Helvetica,sans-Serif" font-size="10.00">+ syncEvent()</text>
<text text-anchor="start" x="446.927" y="-1055.5" font-family="Helvetica,sans-Serif" font-size="10.00">+ replace()</text>
<text text-anchor="start" x="446.927" y="-1042.5" font-family="Helvetica,sans-Serif" font-size="10.00">~ addHurtEntity()</text>
<text text-anchor="start" x="446.927" y="-1029.5" font-family="Helvetica,sans-Serif" font-size="10.00">~ removeHurtEntity()</text>
<text text-anchor="start" x="446.927" y="-1016.5" font-family="Helvetica,sans-Serif" font-size="10.00">~ notifyChange()</text>
<text text-anchor="start" x="446.927" y="-1003.5" font-family="Helvetica,sans-Serif" font-size="10.00">~ notifyChange()</text>
<text text-anchor="start" x="446.927" y="-990.5" font-family="Helvetica,sans-Serif" font-size="10.00">~ notifyChange()</text>
<text text-anchor="start" x="446.927" y="-977.5" font-family="Helvetica,sans-Serif" font-size="10.00">~ notifyChange()</text>
<text text-anchor="start" x="446.927" y="-964.5" font-family="Helvetica,sans-Serif" font-size="10.00">~ getEntityInPoint()</text>
<text text-anchor="start" x="446.927" y="-951.5" font-family="Helvetica,sans-Serif" font-size="10.00"># move()</text>
<text text-anchor="start" x="446.927" y="-938.5" font-family="Helvetica,sans-Serif" font-size="10.00"># moveDelta()</text>
<text text-anchor="start" x="446.927" y="-925.5" font-family="Helvetica,sans-Serif" font-size="10.00"># clearView()</text>
<text text-anchor="start" x="446.927" y="-912.5" font-family="Helvetica,sans-Serif" font-size="10.00">&#45; area()</text>
</a>
</g>
<!-- Node1&#45;&gt;Node5 -->
<g id="edge24" class="edge"><title>Node1&#45;&gt;Node5</title>
<path fill="none" stroke="#9a32cd" stroke-dasharray="5,2" d="M761.352,-1645.59C742.203,-1602.2 716.744,-1546.45 691.927,-1498 654.121,-1424.2 608.018,-1343.25 571.048,-1280.23"/>
<polygon fill="#9a32cd" stroke="#9a32cd" points="765.462,-1654.93 757.316,-1647.59 763.449,-1650.35 761.435,-1645.78 761.435,-1645.78 761.435,-1645.78 763.449,-1650.35 765.554,-1643.96 765.462,-1654.93 765.462,-1654.93"/>
<text text-anchor="middle" x="692.927" y="-1464.5" font-family="Helvetica,sans-Serif" font-size="10.00">boss</text>
</g>
<!-- Node2 -->
<g id="node2" class="node"><title>Node2</title>
<a xlink:href="classjdungeon_1_1core_1_1world_1_1_vulnerable.html" target="_top" xlink:title="{jdungeon.core.world.Vulnerable\n|&#45; HP\l&#45; maxHP\l&#45; level\l&#45; strength\l&#45; strengthBonus\l&#45; observers\l&#45; serialVersionUID\l|+ Vulnerable()\l+ getLevel()\l+ getHP()\l+ hitBy()\l+ hitsTo()\l+ heal()\l+ hurtBy()\l+ getStrength()\l+ getRawStrength()\l+ getStrengthBonus()\l+ setStrength()\l+ setStrengthBonus()\l+ setMaxHealth()\l+ getMaxHealth()\l+ setLevel()\l+ awardExperience()\l+ getExperience()\l+ subscribe()\l+ unsubscribe()\l# die()\l}">
<polygon fill="none" stroke="black" points="450.927,-273 450.927,-661 602.927,-661 602.927,-273 450.927,-273"/>
<text text-anchor="middle" x="526.927" y="-648" font-family="Helvetica,sans-Serif" font-size="10.00">jdungeon.core.world.Vulnerable</text>
<polyline fill="none" stroke="black" points="450.927,-640 602.927,-640 "/>
<text text-anchor="start" x="458.927" y="-627" font-family="Helvetica,sans-Serif" font-size="10.00">&#45; HP</text>
<text text-anchor="start" x="458.927" y="-614" font-family="Helvetica,sans-Serif" font-size="10.00">&#45; maxHP</text>
<text text-anchor="start" x="458.927" y="-601" font-family="Helvetica,sans-Serif" font-size="10.00">&#45; level</text>
<text text-anchor="start" x="458.927" y="-588" font-family="Helvetica,sans-Serif" font-size="10.00">&#45; strength</text>
<text text-anchor="start" x="458.927" y="-575" font-family="Helvetica,sans-Serif" font-size="10.00">&#45; strengthBonus</text>
<text text-anchor="start" x="458.927" y="-562" font-family="Helvetica,sans-Serif" font-size="10.00">&#45; observers</text>
<text text-anchor="start" x="458.927" y="-549" font-family="Helvetica,sans-Serif" font-size="10.00">&#45; serialVersionUID</text>
<polyline fill="none" stroke="black" points="450.927,-541 602.927,-541 "/>
<text text-anchor="start" x="458.927" y="-528" font-family="Helvetica,sans-Serif" font-size="10.00">+ Vulnerable()</text>
<text text-anchor="start" x="458.927" y="-515" font-family="Helvetica,sans-Serif" font-size="10.00">+ getLevel()</text>
<text text-anchor="start" x="458.927" y="-502" font-family="Helvetica,sans-Serif" font-size="10.00">+ getHP()</text>
<text text-anchor="start" x="458.927" y="-489" font-family="Helvetica,sans-Serif" font-size="10.00">+ hitBy()</text>
<text text-anchor="start" x="458.927" y="-476" font-family="Helvetica,sans-Serif" font-size="10.00">+ hitsTo()</text>
<text text-anchor="start" x="458.927" y="-463" font-family="Helvetica,sans-Serif" font-size="10.00">+ heal()</text>
<text text-anchor="start" x="458.927" y="-450" font-family="Helvetica,sans-Serif" font-size="10.00">+ hurtBy()</text>
<text text-anchor="start" x="458.927" y="-437" font-family="Helvetica,sans-Serif" font-size="10.00">+ getStrength()</text>
<text text-anchor="start" x="458.927" y="-424" font-family="Helvetica,sans-Serif" font-size="10.00">+ getRawStrength()</text>
<text text-anchor="start" x="458.927" y="-411" font-family="Helvetica,sans-Serif" font-size="10.00">+ getStrengthBonus()</text>
<text text-anchor="start" x="458.927" y="-398" font-family="Helvetica,sans-Serif" font-size="10.00">+ setStrength()</text>
<text text-anchor="start" x="458.927" y="-385" font-family="Helvetica,sans-Serif" font-size="10.00">+ setStrengthBonus()</text>
<text text-anchor="start" x="458.927" y="-372" font-family="Helvetica,sans-Serif" font-size="10.00">+ setMaxHealth()</text>
<text text-anchor="start" x="458.927" y="-359" font-family="Helvetica,sans-Serif" font-size="10.00">+ getMaxHealth()</text>
<text text-anchor="start" x="458.927" y="-346" font-family="Helvetica,sans-Serif" font-size="10.00">+ setLevel()</text>
<text text-anchor="start" x="458.927" y="-333" font-family="Helvetica,sans-Serif" font-size="10.00">+ awardExperience()</text>
<text text-anchor="start" x="458.927" y="-320" font-family="Helvetica,sans-Serif" font-size="10.00">+ getExperience()</text>
<text text-anchor="start" x="458.927" y="-307" font-family="Helvetica,sans-Serif" font-size="10.00">+ subscribe()</text>
<text text-anchor="start" x="458.927" y="-294" font-family="Helvetica,sans-Serif" font-size="10.00">+ unsubscribe()</text>
<text text-anchor="start" x="458.927" y="-281" font-family="Helvetica,sans-Serif" font-size="10.00"># die()</text>
</a>
</g>
<!-- Node2&#45;&gt;Node1 -->
<g id="edge2" class="edge"><title>Node2&#45;&gt;Node1</title>
<path fill="none" stroke="midnightblue" d="M608.285,-580.689C627.02,-611.629 644.941,-646.016 656.927,-680 781.271,-1032.56 793.621,-1488.61 793.654,-1654.82"/>
<polygon fill="none" stroke="midnightblue" points="611.2,-578.747 602.984,-572.057 605.235,-582.41 611.2,-578.747"/>
</g>
<!-- Node11 -->
<g id="node24" class="node"><title>Node11</title>
<a xlink:href="classjdungeon_1_1core_1_1world_1_1_player.html" target="_top" xlink:title="{jdungeon.core.world.Player\n|&#45; experience\l&#45; name\l&#45; serialVersionUID\l|+ Player()\l+ setWorld()\l+ getName()\l+ setName()\l+ getExperienceForNextLevel()\l+ getExperience()\l+ moveLeft()\l+ moveRight()\l+ moveUp()\l+ moveDown()\l+ awardExperience()\l&#45; move()\l}">
<polygon fill="none" stroke="black" points="522.927,-1 522.927,-233 674.927,-233 674.927,-1 522.927,-1"/>
<text text-anchor="middle" x="598.927" y="-220" font-family="Helvetica,sans-Serif" font-size="10.00">jdungeon.core.world.Player</text>
<polyline fill="none" stroke="black" points="522.927,-212 674.927,-212 "/>
<text text-anchor="start" x="530.927" y="-199" font-family="Helvetica,sans-Serif" font-size="10.00">&#45; experience</text>
<text text-anchor="start" x="530.927" y="-186" font-family="Helvetica,sans-Serif" font-size="10.00">&#45; name</text>
<text text-anchor="start" x="530.927" y="-173" font-family="Helvetica,sans-Serif" font-size="10.00">&#45; serialVersionUID</text>
<polyline fill="none" stroke="black" points="522.927,-165 674.927,-165 "/>
<text text-anchor="start" x="530.927" y="-152" font-family="Helvetica,sans-Serif" font-size="10.00">+ Player()</text>
<text text-anchor="start" x="530.927" y="-139" font-family="Helvetica,sans-Serif" font-size="10.00">+ setWorld()</text>
<text text-anchor="start" x="530.927" y="-126" font-family="Helvetica,sans-Serif" font-size="10.00">+ getName()</text>
<text text-anchor="start" x="530.927" y="-113" font-family="Helvetica,sans-Serif" font-size="10.00">+ setName()</text>
<text text-anchor="start" x="530.927" y="-100" font-family="Helvetica,sans-Serif" font-size="10.00">+ getExperienceForNextLevel()</text>
<text text-anchor="start" x="530.927" y="-87" font-family="Helvetica,sans-Serif" font-size="10.00">+ getExperience()</text>
<text text-anchor="start" x="530.927" y="-74" font-family="Helvetica,sans-Serif" font-size="10.00">+ moveLeft()</text>
<text text-anchor="start" x="530.927" y="-61" font-family="Helvetica,sans-Serif" font-size="10.00">+ moveRight()</text>
<text text-anchor="start" x="530.927" y="-48" font-family="Helvetica,sans-Serif" font-size="10.00">+ moveUp()</text>
<text text-anchor="start" x="530.927" y="-35" font-family="Helvetica,sans-Serif" font-size="10.00">+ moveDown()</text>
<text text-anchor="start" x="530.927" y="-22" font-family="Helvetica,sans-Serif" font-size="10.00">+ awardExperience()</text>
<text text-anchor="start" x="530.927" y="-9" font-family="Helvetica,sans-Serif" font-size="10.00">&#45; move()</text>
</a>
</g>
<!-- Node2&#45;&gt;Node11 -->
<g id="edge30" class="edge"><title>Node2&#45;&gt;Node11</title>
<path fill="none" stroke="midnightblue" d="M568.934,-262.799C570.985,-252.828 573.009,-242.988 574.979,-233.411"/>
<polygon fill="none" stroke="midnightblue" points="565.462,-262.308 566.875,-272.808 572.318,-263.719 565.462,-262.308"/>
</g>
<!-- Node3 -->
<g id="node4" class="node"><title>Node3</title>
<a xlink:href="classjdungeon_1_1core_1_1world_1_1_entity.html" target="_top" xlink:title="{jdungeon.core.world.Entity\n|&#45; w\l&#45; serialVersionUID\l|+ setWorld()\l+ getWorld()\l+ hitBy()\l+ hitsTo()\l+ near()\l+ clone()\l}">
<polygon fill="none" stroke="black" points="314.927,-712.5 314.927,-853.5 446.927,-853.5 446.927,-712.5 314.927,-712.5"/>
<text text-anchor="middle" x="380.927" y="-840.5" font-family="Helvetica,sans-Serif" font-size="10.00">jdungeon.core.world.Entity</text>
<polyline fill="none" stroke="black" points="314.927,-832.5 446.927,-832.5 "/>
<text text-anchor="start" x="322.927" y="-819.5" font-family="Helvetica,sans-Serif" font-size="10.00">&#45; w</text>
<text text-anchor="start" x="322.927" y="-806.5" font-family="Helvetica,sans-Serif" font-size="10.00">&#45; serialVersionUID</text>
<polyline fill="none" stroke="black" points="314.927,-798.5 446.927,-798.5 "/>
<text text-anchor="start" x="322.927" y="-785.5" font-family="Helvetica,sans-Serif" font-size="10.00">+ setWorld()</text>
<text text-anchor="start" x="322.927" y="-772.5" font-family="Helvetica,sans-Serif" font-size="10.00">+ getWorld()</text>
<text text-anchor="start" x="322.927" y="-759.5" font-family="Helvetica,sans-Serif" font-size="10.00">+ hitBy()</text>
<text text-anchor="start" x="322.927" y="-746.5" font-family="Helvetica,sans-Serif" font-size="10.00">+ hitsTo()</text>
<text text-anchor="start" x="322.927" y="-733.5" font-family="Helvetica,sans-Serif" font-size="10.00">+ near()</text>
<text text-anchor="start" x="322.927" y="-720.5" font-family="Helvetica,sans-Serif" font-size="10.00">+ clone()</text>
</a>
</g>
<!-- Node3&#45;&gt;Node2 -->
<g id="edge4" class="edge"><title>Node3&#45;&gt;Node2</title>
<path fill="none" stroke="midnightblue" d="M417.785,-703.224C427.946,-681.233 439.356,-656.537 450.868,-631.621"/>
<polygon fill="none" stroke="midnightblue" points="414.527,-701.931 413.51,-712.477 420.882,-704.867 414.527,-701.931"/>
</g>
<!-- Node4 -->
<g id="node6" class="node"><title>Node4</title>
<polygon fill="none" stroke="#bfbfbf" points="174.427,-1990.5 174.427,-2053.5 241.427,-2053.5 241.427,-1990.5 174.427,-1990.5"/>
<text text-anchor="middle" x="207.927" y="-2040.5" font-family="Helvetica,sans-Serif" font-size="10.00">Serializable</text>
<polyline fill="none" stroke="#bfbfbf" points="174.427,-2032.5 241.427,-2032.5 "/>
<text text-anchor="middle" x="207.927" y="-2019.5" font-family="Helvetica,sans-Serif" font-size="10.00"> </text>
<polyline fill="none" stroke="#bfbfbf" points="174.427,-2011.5 241.427,-2011.5 "/>
<text text-anchor="middle" x="207.927" y="-1998.5" font-family="Helvetica,sans-Serif" font-size="10.00"> </text>
</g>
<!-- Node4&#45;&gt;Node3 -->
<g id="edge6" class="edge"><title>Node4&#45;&gt;Node3</title>
<path fill="none" stroke="midnightblue" d="M164.425,-2011.72C128.317,-2000.63 79.2413,-1979.07 55.9269,-1940 -44.7411,-1771.31 14.3396,-1689.99 55.9269,-1498 110.339,-1246.8 260.829,-977.872 336.406,-853.52"/>
<polygon fill="none" stroke="midnightblue" points="163.654,-2015.14 174.234,-2014.57 165.61,-2008.41 163.654,-2015.14"/>
</g>
<!-- Node4&#45;&gt;Node5 -->
<g id="edge10" class="edge"><title>Node4&#45;&gt;Node5</title>
<path fill="none" stroke="midnightblue" d="M242.34,-1982.31C251.56,-1969.59 260.472,-1954.91 265.927,-1940 333.664,-1754.83 242.321,-1685.3 303.927,-1498 333.611,-1407.75 392.367,-1316.53 438.722,-1253.27"/>
<polygon fill="none" stroke="midnightblue" points="239.489,-1980.28 236.27,-1990.37 245.081,-1984.49 239.489,-1980.28"/>
</g>
<!-- Node6 -->
<g id="node11" class="node"><title>Node6</title>
<a xlink:href="interfacejdungeon_1_1core_1_1world_1_1_vulnerable_observer.html" target="_top" xlink:title="{jdungeon.core.world.VulnerableObserver\n||+ onDeath()\l}">
<polygon fill="none" stroke="black" points="64.9269,-1687.5 64.9269,-1750.5 256.927,-1750.5 256.927,-1687.5 64.9269,-1687.5"/>
<text text-anchor="middle" x="160.927" y="-1737.5" font-family="Helvetica,sans-Serif" font-size="10.00">jdungeon.core.world.VulnerableObserver</text>
<polyline fill="none" stroke="black" points="64.9269,-1729.5 256.927,-1729.5 "/>
<text text-anchor="middle" x="160.927" y="-1716.5" font-family="Helvetica,sans-Serif" font-size="10.00"> </text>
<polyline fill="none" stroke="black" points="64.9269,-1708.5 256.927,-1708.5 "/>
<text text-anchor="start" x="72.9269" y="-1695.5" font-family="Helvetica,sans-Serif" font-size="10.00">+ onDeath()</text>
</a>
</g>
<!-- Node4&#45;&gt;Node6 -->
<g id="edge14" class="edge"><title>Node4&#45;&gt;Node6</title>
<path fill="none" stroke="midnightblue" d="M201.465,-1980.34C191.967,-1919.11 174.438,-1806.1 165.883,-1750.95"/>
<polygon fill="none" stroke="midnightblue" points="198.038,-1981.09 203.03,-1990.43 204.956,-1980.01 198.038,-1981.09"/>
</g>
<!-- Node7 -->
<g id="node14" class="node"><title>Node7</title>
<a xlink:href="classjdungeon_1_1core_1_1world_1_1_board.html" target="_top" xlink:title="{jdungeon.core.world.Board\n|&#45; name\l&#45; cells\l&#45; entities\l&#45; sizeY\l&#45; sizeX\l&#45; serialVersionUID\l&#45; MAX_SIZE\l&#45; MIN_SIZE\l|+ Board()\l+ getSizeY()\l+ getSizeX()\l+ replace()\l+ setName()\l+ getName()\l+ iterator()\l+ filter()\l# neighbours()\l# neighbours()\l# in()\l# in()\l# add()\l# add()\l# remove()\l# contains()\l# move()\l# move()\l# getEntityPos()\l&#45; initMatrix()\l&#45; isValidPoint()\l&#45; isValidPoint()\l&#45; warpTo()\l}">
<polygon fill="none" stroke="black" points="312.927,-1499 312.927,-1939 444.927,-1939 444.927,-1499 312.927,-1499"/>
<text text-anchor="middle" x="378.927" y="-1926" font-family="Helvetica,sans-Serif" font-size="10.00">jdungeon.core.world.Board</text>
<polyline fill="none" stroke="black" points="312.927,-1918 444.927,-1918 "/>
<text text-anchor="start" x="320.927" y="-1905" font-family="Helvetica,sans-Serif" font-size="10.00">&#45; name</text>
<text text-anchor="start" x="320.927" y="-1892" font-family="Helvetica,sans-Serif" font-size="10.00">&#45; cells</text>
<text text-anchor="start" x="320.927" y="-1879" font-family="Helvetica,sans-Serif" font-size="10.00">&#45; entities</text>
<text text-anchor="start" x="320.927" y="-1866" font-family="Helvetica,sans-Serif" font-size="10.00">&#45; sizeY</text>
<text text-anchor="start" x="320.927" y="-1853" font-family="Helvetica,sans-Serif" font-size="10.00">&#45; sizeX</text>
<text text-anchor="start" x="320.927" y="-1840" font-family="Helvetica,sans-Serif" font-size="10.00">&#45; serialVersionUID</text>
<text text-anchor="start" x="320.927" y="-1827" font-family="Helvetica,sans-Serif" font-size="10.00">&#45; MAX_SIZE</text>
<text text-anchor="start" x="320.927" y="-1814" font-family="Helvetica,sans-Serif" font-size="10.00">&#45; MIN_SIZE</text>
<polyline fill="none" stroke="black" points="312.927,-1806 444.927,-1806 "/>
<text text-anchor="start" x="320.927" y="-1793" font-family="Helvetica,sans-Serif" font-size="10.00">+ Board()</text>
<text text-anchor="start" x="320.927" y="-1780" font-family="Helvetica,sans-Serif" font-size="10.00">+ getSizeY()</text>
<text text-anchor="start" x="320.927" y="-1767" font-family="Helvetica,sans-Serif" font-size="10.00">+ getSizeX()</text>
<text text-anchor="start" x="320.927" y="-1754" font-family="Helvetica,sans-Serif" font-size="10.00">+ replace()</text>
<text text-anchor="start" x="320.927" y="-1741" font-family="Helvetica,sans-Serif" font-size="10.00">+ setName()</text>
<text text-anchor="start" x="320.927" y="-1728" font-family="Helvetica,sans-Serif" font-size="10.00">+ getName()</text>
<text text-anchor="start" x="320.927" y="-1715" font-family="Helvetica,sans-Serif" font-size="10.00">+ iterator()</text>
<text text-anchor="start" x="320.927" y="-1702" font-family="Helvetica,sans-Serif" font-size="10.00">+ filter()</text>
<text text-anchor="start" x="320.927" y="-1689" font-family="Helvetica,sans-Serif" font-size="10.00"># neighbours()</text>
<text text-anchor="start" x="320.927" y="-1676" font-family="Helvetica,sans-Serif" font-size="10.00"># neighbours()</text>
<text text-anchor="start" x="320.927" y="-1663" font-family="Helvetica,sans-Serif" font-size="10.00"># in()</text>
<text text-anchor="start" x="320.927" y="-1650" font-family="Helvetica,sans-Serif" font-size="10.00"># in()</text>
<text text-anchor="start" x="320.927" y="-1637" font-family="Helvetica,sans-Serif" font-size="10.00"># add()</text>
<text text-anchor="start" x="320.927" y="-1624" font-family="Helvetica,sans-Serif" font-size="10.00"># add()</text>
<text text-anchor="start" x="320.927" y="-1611" font-family="Helvetica,sans-Serif" font-size="10.00"># remove()</text>
<text text-anchor="start" x="320.927" y="-1598" font-family="Helvetica,sans-Serif" font-size="10.00"># contains()</text>
<text text-anchor="start" x="320.927" y="-1585" font-family="Helvetica,sans-Serif" font-size="10.00"># move()</text>
<text text-anchor="start" x="320.927" y="-1572" font-family="Helvetica,sans-Serif" font-size="10.00"># move()</text>
<text text-anchor="start" x="320.927" y="-1559" font-family="Helvetica,sans-Serif" font-size="10.00"># getEntityPos()</text>
<text text-anchor="start" x="320.927" y="-1546" font-family="Helvetica,sans-Serif" font-size="10.00">&#45; initMatrix()</text>
<text text-anchor="start" x="320.927" y="-1533" font-family="Helvetica,sans-Serif" font-size="10.00">&#45; isValidPoint()</text>
<text text-anchor="start" x="320.927" y="-1520" font-family="Helvetica,sans-Serif" font-size="10.00">&#45; isValidPoint()</text>
<text text-anchor="start" x="320.927" y="-1507" font-family="Helvetica,sans-Serif" font-size="10.00">&#45; warpTo()</text>
</a>
</g>
<!-- Node4&#45;&gt;Node7 -->
<g id="edge18" class="edge"><title>Node4&#45;&gt;Node7</title>
<path fill="none" stroke="midnightblue" d="M250.831,-2006.65C267.881,-1998.65 286.382,-1987.28 298.927,-1972 307.257,-1961.85 314.724,-1950.83 321.416,-1939.25"/>
<polygon fill="none" stroke="midnightblue" points="249.286,-2003.5 241.555,-2010.75 252.116,-2009.91 249.286,-2003.5"/>
</g>
<!-- Node5&#45;&gt;Node3 -->
<g id="edge8" class="edge"><title>Node5&#45;&gt;Node3</title>
<path fill="none" stroke="#9a32cd" stroke-dasharray="5,2" d="M435.72,-954.009C424.101,-917.744 412.823,-882.547 403.55,-853.607"/>
<polygon fill="#9a32cd" stroke="#9a32cd" points="438.843,-963.753 431.506,-955.603 437.317,-958.992 435.791,-954.23 435.791,-954.23 435.791,-954.23 437.317,-958.992 440.077,-952.857 438.843,-963.753 438.843,-963.753"/>
<text text-anchor="middle" x="413.927" y="-876.5" font-family="Helvetica,sans-Serif" font-size="10.00">w</text>
</g>
<!-- Node6&#45;&gt;Node5 -->
<g id="edge12" class="edge"><title>Node6&#45;&gt;Node5</title>
<path fill="none" stroke="#9a32cd" stroke-dasharray="5,2" d="M159.64,-1676.82C159.725,-1622.22 165.948,-1525.61 203.927,-1454 259.472,-1349.27 368.458,-1261.57 438.921,-1212.45"/>
<polygon fill="#9a32cd" stroke="#9a32cd" points="159.697,-1687.15 155.142,-1677.18 159.669,-1682.15 159.642,-1677.15 159.642,-1677.15 159.642,-1677.15 159.669,-1682.15 164.142,-1677.13 159.697,-1687.15 159.697,-1687.15"/>
<text text-anchor="middle" x="237.427" y="-1471" font-family="Helvetica,sans-Serif" font-size="10.00">bossObserver</text>
<text text-anchor="middle" x="237.427" y="-1458" font-family="Helvetica,sans-Serif" font-size="10.00">playerObserver</text>
</g>
<!-- Node7&#45;&gt;Node5 -->
<g id="edge16" class="edge"><title>Node7&#45;&gt;Node5</title>
<path fill="none" stroke="#9a32cd" stroke-dasharray="5,2" d="M431.687,-1489.12C435.726,-1471.52 439.822,-1453.67 443.907,-1435.87"/>
<polygon fill="#9a32cd" stroke="#9a32cd" points="429.45,-1498.86 427.301,-1488.11 430.568,-1493.99 431.687,-1489.12 431.687,-1489.12 431.687,-1489.12 430.568,-1493.99 436.073,-1490.12 429.45,-1498.86 429.45,-1498.86"/>
<text text-anchor="middle" x="450.427" y="-1464.5" font-family="Helvetica,sans-Serif" font-size="10.00">board</text>
</g>
<!-- Node8 -->
<g id="node17" class="node"><title>Node8</title>
<polygon fill="none" stroke="#bfbfbf" points="304.427,-1990.5 304.427,-2053.5 411.427,-2053.5 411.427,-1990.5 304.427,-1990.5"/>
<text text-anchor="middle" x="357.927" y="-2040.5" font-family="Helvetica,sans-Serif" font-size="10.00">Map&lt; Entity, Point &gt;</text>
<polyline fill="none" stroke="#bfbfbf" points="304.427,-2032.5 411.427,-2032.5 "/>
<text text-anchor="middle" x="357.927" y="-2019.5" font-family="Helvetica,sans-Serif" font-size="10.00"> </text>
<polyline fill="none" stroke="#bfbfbf" points="304.427,-2011.5 411.427,-2011.5 "/>
<text text-anchor="middle" x="357.927" y="-1998.5" font-family="Helvetica,sans-Serif" font-size="10.00"> </text>
</g>
<!-- Node8&#45;&gt;Node7 -->
<g id="edge20" class="edge"><title>Node8&#45;&gt;Node7</title>
<path fill="none" stroke="#9a32cd" stroke-dasharray="5,2" d="M360.81,-1980.4C361.644,-1968.37 362.616,-1954.34 363.67,-1939.14"/>
<polygon fill="#9a32cd" stroke="#9a32cd" points="360.115,-1990.43 356.317,-1980.14 360.461,-1985.44 360.806,-1980.46 360.806,-1980.46 360.806,-1980.46 360.461,-1985.44 365.296,-1980.77 360.115,-1990.43 360.115,-1990.43"/>
<text text-anchor="middle" x="378.927" y="-1962.5" font-family="Helvetica,sans-Serif" font-size="10.00">entities</text>
</g>
<!-- Node9 -->
<g id="node19" class="node"><title>Node9</title>
<polygon fill="none" stroke="#bfbfbf" points="428.427,-1990.5 428.427,-2053.5 503.427,-2053.5 503.427,-1990.5 428.427,-1990.5"/>
<text text-anchor="middle" x="465.927" y="-2040.5" font-family="Helvetica,sans-Serif" font-size="10.00">Set&lt; Entity &gt;</text>
<polyline fill="none" stroke="#bfbfbf" points="428.427,-2032.5 503.427,-2032.5 "/>
<text text-anchor="middle" x="465.927" y="-2019.5" font-family="Helvetica,sans-Serif" font-size="10.00"> </text>
<polyline fill="none" stroke="#bfbfbf" points="428.427,-2011.5 503.427,-2011.5 "/>
<text text-anchor="middle" x="465.927" y="-1998.5" font-family="Helvetica,sans-Serif" font-size="10.00"> </text>
</g>
<!-- Node9&#45;&gt;Node7 -->
<g id="edge22" class="edge"><title>Node9&#45;&gt;Node7</title>
<path fill="none" stroke="#9a32cd" stroke-dasharray="5,2" d="M454.086,-1980.76C450.609,-1968.65 446.543,-1954.49 442.135,-1939.14"/>
<polygon fill="#9a32cd" stroke="#9a32cd" points="456.863,-1990.43 449.777,-1982.06 455.483,-1985.63 454.103,-1980.82 454.103,-1980.82 454.103,-1980.82 455.483,-1985.63 458.428,-1979.58 456.863,-1990.43 456.863,-1990.43"/>
<text text-anchor="middle" x="461.427" y="-1962.5" font-family="Helvetica,sans-Serif" font-size="10.00">cells</text>
</g>
<!-- Node10 -->
<g id="node22" class="node"><title>Node10</title>
<polygon fill="none" stroke="#bfbfbf" points="462.927,-1687.5 462.927,-1750.5 570.927,-1750.5 570.927,-1687.5 462.927,-1687.5"/>
<text text-anchor="middle" x="516.927" y="-1737.5" font-family="Helvetica,sans-Serif" font-size="10.00">Set&lt; MapObserver &gt;</text>
<polyline fill="none" stroke="#bfbfbf" points="462.927,-1729.5 570.927,-1729.5 "/>
<text text-anchor="middle" x="516.927" y="-1716.5" font-family="Helvetica,sans-Serif" font-size="10.00"> </text>
<polyline fill="none" stroke="#bfbfbf" points="462.927,-1708.5 570.927,-1708.5 "/>
<text text-anchor="middle" x="516.927" y="-1695.5" font-family="Helvetica,sans-Serif" font-size="10.00"> </text>
</g>
<!-- Node10&#45;&gt;Node5 -->
<g id="edge26" class="edge"><title>Node10&#45;&gt;Node5</title>
<path fill="none" stroke="#9a32cd" stroke-dasharray="5,2" d="M516.005,-1676.81C514.851,-1624.03 512.777,-1529.16 510.734,-1435.67"/>
<polygon fill="#9a32cd" stroke="#9a32cd" points="516.23,-1687.11 511.512,-1677.21 516.121,-1682.11 516.011,-1677.11 516.011,-1677.11 516.011,-1677.11 516.121,-1682.11 520.51,-1677.01 516.23,-1687.11 516.23,-1687.11"/>
<text text-anchor="middle" x="532.427" y="-1464.5" font-family="Helvetica,sans-Serif" font-size="10.00">observers</text>
</g>
<!-- Node11&#45;&gt;Node5 -->
<g id="edge28" class="edge"><title>Node11&#45;&gt;Node5</title>
<path fill="none" stroke="#9a32cd" stroke-dasharray="5,2" d="M614.122,-243.216C628.755,-390.842 643.868,-642.032 607.927,-854 599.824,-901.787 585.949,-952.237 570.962,-998.456"/>
<polygon fill="#9a32cd" stroke="#9a32cd" points="613.115,-233.206 618.593,-242.705 613.615,-238.18 614.116,-243.155 614.116,-243.155 614.116,-243.155 613.615,-238.18 609.639,-243.606 613.115,-233.206 613.115,-233.206"/>
<text text-anchor="middle" x="639.427" y="-684.5" font-family="Helvetica,sans-Serif" font-size="10.00">player</text>
</g>
<!-- Node12 -->
<g id="node27" class="node"><title>Node12</title>
<polygon fill="none" stroke="#bfbfbf" points="588.427,-1687.5 588.427,-1750.5 683.427,-1750.5 683.427,-1687.5 588.427,-1687.5"/>
<text text-anchor="middle" x="635.927" y="-1737.5" font-family="Helvetica,sans-Serif" font-size="10.00">Set&lt; Vulnerable &gt;</text>
<polyline fill="none" stroke="#bfbfbf" points="588.427,-1729.5 683.427,-1729.5 "/>
<text text-anchor="middle" x="635.927" y="-1716.5" font-family="Helvetica,sans-Serif" font-size="10.00"> </text>
<polyline fill="none" stroke="#bfbfbf" points="588.427,-1708.5 683.427,-1708.5 "/>
<text text-anchor="middle" x="635.927" y="-1695.5" font-family="Helvetica,sans-Serif" font-size="10.00"> </text>
</g>
<!-- Node12&#45;&gt;Node5 -->
<g id="edge32" class="edge"><title>Node12&#45;&gt;Node5</title>
<path fill="none" stroke="#9a32cd" stroke-dasharray="5,2" d="M625.939,-1677.14C613.36,-1624.43 590.676,-1529.36 568.319,-1435.67"/>
<polygon fill="#9a32cd" stroke="#9a32cd" points="628.318,-1687.11 621.619,-1678.43 627.157,-1682.25 625.996,-1677.38 625.996,-1677.38 625.996,-1677.38 627.157,-1682.25 630.374,-1676.34 628.318,-1687.11 628.318,-1687.11"/>
<text text-anchor="middle" x="602.927" y="-1464.5" font-family="Helvetica,sans-Serif" font-size="10.00">hurtEntities</text>
</g>
<!-- Node13 -->
<g id="node29" class="node"><title>Node13</title>
<polygon fill="none" stroke="#bfbfbf" points="464.427,-751.5 464.427,-814.5 599.427,-814.5 599.427,-751.5 464.427,-751.5"/>
<text text-anchor="middle" x="531.927" y="-801.5" font-family="Helvetica,sans-Serif" font-size="10.00">Set&lt; VulnerableObserver &gt;</text>
<polyline fill="none" stroke="#bfbfbf" points="464.427,-793.5 599.427,-793.5 "/>
<text text-anchor="middle" x="531.927" y="-780.5" font-family="Helvetica,sans-Serif" font-size="10.00"> </text>
<polyline fill="none" stroke="#bfbfbf" points="464.427,-772.5 599.427,-772.5 "/>
<text text-anchor="middle" x="531.927" y="-759.5" font-family="Helvetica,sans-Serif" font-size="10.00"> </text>
</g>
<!-- Node13&#45;&gt;Node2 -->
<g id="edge34" class="edge"><title>Node13&#45;&gt;Node2</title>
<path fill="none" stroke="#9a32cd" stroke-dasharray="5,2" d="M531.265,-741.147C530.921,-719.45 530.475,-691.226 529.999,-661.155"/>
<polygon fill="#9a32cd" stroke="#9a32cd" points="531.425,-751.254 526.767,-741.326 531.345,-746.255 531.266,-741.255 531.266,-741.255 531.266,-741.255 531.345,-746.255 535.766,-741.184 531.425,-751.254 531.425,-751.254"/>
<text text-anchor="middle" x="551.427" y="-684.5" font-family="Helvetica,sans-Serif" font-size="10.00">observers</text>
</g>
</g>
</svg>
