<?xml version="1.0" encoding="UTF-8" standalone="no"?>
<!DOCTYPE svg PUBLIC "-//W3C//DTD SVG 1.1//EN"
 "http://www.w3.org/Graphics/SVG/1.1/DTD/svg11.dtd">
<!-- Generated by graphviz version 2.26.3 (20100126.1600)
 -->
<!-- Title: G Pages: 1 -->
<svg width="911pt" height="1932pt"
 viewBox="0.00 0.00 911.00 1932.00" xmlns="http://www.w3.org/2000/svg" xmlns:xlink="http://www.w3.org/1999/xlink">
<g id="graph1" class="graph" transform="scale(1 1) rotate(0) translate(4 1928)">
<title>G</title>
<!-- Node1 -->
<g id="node1" class="node"><title>Node1</title>
<polygon fill="#bfbfbf" stroke="black" points="235,-1518.5 235,-1659.5 367,-1659.5 367,-1518.5 235,-1518.5"/>
<text text-anchor="middle" x="301" y="-1646.5" font-family="Helvetica,sans-Serif" font-size="10.00">jdungeon.core.world.Entity</text>
<polyline fill="none" stroke="black" points="235,-1638.5 367,-1638.5 "/>
<text text-anchor="start" x="243" y="-1625.5" font-family="Helvetica,sans-Serif" font-size="10.00">&#45; w</text>
<text text-anchor="start" x="243" y="-1612.5" font-family="Helvetica,sans-Serif" font-size="10.00">&#45; serialVersionUID</text>
<polyline fill="none" stroke="black" points="235,-1604.5 367,-1604.5 "/>
<text text-anchor="start" x="243" y="-1591.5" font-family="Helvetica,sans-Serif" font-size="10.00">+ setWorld()</text>
<text text-anchor="start" x="243" y="-1578.5" font-family="Helvetica,sans-Serif" font-size="10.00">+ getWorld()</text>
<text text-anchor="start" x="243" y="-1565.5" font-family="Helvetica,sans-Serif" font-size="10.00">+ hitBy()</text>
<text text-anchor="start" x="243" y="-1552.5" font-family="Helvetica,sans-Serif" font-size="10.00">+ hitsTo()</text>
<text text-anchor="start" x="243" y="-1539.5" font-family="Helvetica,sans-Serif" font-size="10.00">+ near()</text>
<text text-anchor="start" x="243" y="-1526.5" font-family="Helvetica,sans-Serif" font-size="10.00">+ clone()</text>
</g>
<!-- Node9 -->
<g id="node19" class="node"><title>Node9</title>
<a xlink:href="classjdungeon_1_1core_1_1world_1_1_vulnerable.html" target="_top" xlink:title="{jdungeon.core.world.Vulnerable\n|&#45; HP\l&#45; maxHP\l&#45; level\l&#45; strength\l&#45; strengthBonus\l&#45; observers\l&#45; serialVersionUID\l|+ Vulnerable()\l+ getLevel()\l+ getHP()\l+ hitBy()\l+ hitsTo()\l+ heal()\l+ hurtBy()\l+ getStrength()\l+ getRawStrength()\l+ getStrengthBonus()\l+ setStrength()\l+ setStrengthBonus()\l+ setMaxHealth()\l+ getMaxHealth()\l+ setLevel()\l+ awardExperience()\l+ getExperience()\l+ subscribe()\l+ unsubscribe()\l# die()\l}">
<polygon fill="none" stroke="black" points="345,-879 345,-1267 497,-1267 497,-879 345,-879"/>
<text text-anchor="middle" x="421" y="-1254" font-family="Helvetica,sans-Serif" font-size="10.00">jdungeon.core.world.Vulnerable</text>
<polyline fill="none" stroke="black" points="345,-1246 497,-1246 "/>
<text text-anchor="start" x="353" y="-1233" font-family="Helvetica,sans-Serif" font-size="10.00">&#45; HP</text>
<text text-anchor="start" x="353" y="-1220" font-family="Helvetica,sans-Serif" font-size="10.00">&#45; maxHP</text>
<text text-anchor="start" x="353" y="-1207" font-family="Helvetica,sans-Serif" font-size="10.00">&#45; level</text>
<text text-anchor="start" x="353" y="-1194" font-family="Helvetica,sans-Serif" font-size="10.00">&#45; strength</text>
<text text-anchor="start" x="353" y="-1181" font-family="Helvetica,sans-Serif" font-size="10.00">&#45; strengthBonus</text>
<text text-anchor="start" x="353" y="-1168" font-family="Helvetica,sans-Serif" font-size="10.00">&#45; observers</text>
<text text-anchor="start" x="353" y="-1155" font-family="Helvetica,sans-Serif" font-size="10.00">&#45; serialVersionUID</text>
<polyline fill="none" stroke="black" points="345,-1147 497,-1147 "/>
<text text-anchor="start" x="353" y="-1134" font-family="Helvetica,sans-Serif" font-size="10.00">+ Vulnerable()</text>
<text text-anchor="start" x="353" y="-1121" font-family="Helvetica,sans-Serif" font-size="10.00">+ getLevel()</text>
<text text-anchor="start" x="353" y="-1108" font-family="Helvetica,sans-Serif" font-size="10.00">+ getHP()</text>
<text text-anchor="start" x="353" y="-1095" font-family="Helvetica,sans-Serif" font-size="10.00">+ hitBy()</text>
<text text-anchor="start" x="353" y="-1082" font-family="Helvetica,sans-Serif" font-size="10.00">+ hitsTo()</text>
<text text-anchor="start" x="353" y="-1069" font-family="Helvetica,sans-Serif" font-size="10.00">+ heal()</text>
<text text-anchor="start" x="353" y="-1056" font-family="Helvetica,sans-Serif" font-size="10.00">+ hurtBy()</text>
<text text-anchor="start" x="353" y="-1043" font-family="Helvetica,sans-Serif" font-size="10.00">+ getStrength()</text>
<text text-anchor="start" x="353" y="-1030" font-family="Helvetica,sans-Serif" font-size="10.00">+ getRawStrength()</text>
<text text-anchor="start" x="353" y="-1017" font-family="Helvetica,sans-Serif" font-size="10.00">+ getStrengthBonus()</text>
<text text-anchor="start" x="353" y="-1004" font-family="Helvetica,sans-Serif" font-size="10.00">+ setStrength()</text>
<text text-anchor="start" x="353" y="-991" font-family="Helvetica,sans-Serif" font-size="10.00">+ setStrengthBonus()</text>
<text text-anchor="start" x="353" y="-978" font-family="Helvetica,sans-Serif" font-size="10.00">+ setMaxHealth()</text>
<text text-anchor="start" x="353" y="-965" font-family="Helvetica,sans-Serif" font-size="10.00">+ getMaxHealth()</text>
<text text-anchor="start" x="353" y="-952" font-family="Helvetica,sans-Serif" font-size="10.00">+ setLevel()</text>
<text text-anchor="start" x="353" y="-939" font-family="Helvetica,sans-Serif" font-size="10.00">+ awardExperience()</text>
<text text-anchor="start" x="353" y="-926" font-family="Helvetica,sans-Serif" font-size="10.00">+ getExperience()</text>
<text text-anchor="start" x="353" y="-913" font-family="Helvetica,sans-Serif" font-size="10.00">+ subscribe()</text>
<text text-anchor="start" x="353" y="-900" font-family="Helvetica,sans-Serif" font-size="10.00">+ unsubscribe()</text>
<text text-anchor="start" x="353" y="-887" font-family="Helvetica,sans-Serif" font-size="10.00"># die()</text>
</a>
</g>
<!-- Node1&#45;&gt;Node9 -->
<g id="edge24" class="edge"><title>Node1&#45;&gt;Node9</title>
<path fill="none" stroke="midnightblue" d="M319.782,-1508.24C334.776,-1443.76 356.417,-1350.71 375.843,-1267.18"/>
<polygon fill="none" stroke="midnightblue" points="316.29,-1507.8 317.434,-1518.33 323.108,-1509.39 316.29,-1507.8"/>
</g>
<!-- Node2 -->
<g id="node2" class="node"><title>Node2</title>
<polygon fill="none" stroke="#bfbfbf" points="203.5,-1860.5 203.5,-1923.5 270.5,-1923.5 270.5,-1860.5 203.5,-1860.5"/>
<text text-anchor="middle" x="237" y="-1910.5" font-family="Helvetica,sans-Serif" font-size="10.00">Serializable</text>
<polyline fill="none" stroke="#bfbfbf" points="203.5,-1902.5 270.5,-1902.5 "/>
<text text-anchor="middle" x="237" y="-1889.5" font-family="Helvetica,sans-Serif" font-size="10.00"> </text>
<polyline fill="none" stroke="#bfbfbf" points="203.5,-1881.5 270.5,-1881.5 "/>
<text text-anchor="middle" x="237" y="-1868.5" font-family="Helvetica,sans-Serif" font-size="10.00"> </text>
</g>
<!-- Node2&#45;&gt;Node1 -->
<g id="edge2" class="edge"><title>Node2&#45;&gt;Node1</title>
<path fill="none" stroke="midnightblue" d="M245.771,-1850.48C256.147,-1801.35 273.59,-1718.77 286.098,-1659.55"/>
<polygon fill="none" stroke="midnightblue" points="242.31,-1849.92 243.668,-1860.43 249.159,-1851.37 242.31,-1849.92"/>
</g>
<!-- Node3 -->
<g id="node4" class="node"><title>Node3</title>
<a xlink:href="classjdungeon_1_1core_1_1world_1_1_world.html" target="_top" xlink:title="{jdungeon.core.world.World\n|&#45; board\l&#45; player\l&#45; boss\l&#45; observers\l&#45; hurtEntities\l&#45; playerObserver\l&#45; bossObserver\l&#45; sizeX\l&#45; sizeY\l&#45; serialVersionUID\l|+ World()\l+ clone()\l+ getX()\l+ getY()\l+ getHurtEntities()\l+ subscribe()\l+ unsubscribe()\l+ add()\l+ add()\l+ add()\l+ add()\l+ remove()\l+ remove()\l+ getPlayer()\l+ getBoss()\l+ syncEvent()\l+ replace()\l~ addHurtEntity()\l~ removeHurtEntity()\l~ notifyChange()\l~ notifyChange()\l~ notifyChange()\l~ notifyChange()\l~ getEntityInPoint()\l# move()\l# moveDelta()\l# clearView()\l&#45; area()\l}">
<polygon fill="none" stroke="black" points="374,-0.5 374,-531.5 506,-531.5 506,-0.5 374,-0.5"/>
<text text-anchor="middle" x="440" y="-518.5" font-family="Helvetica,sans-Serif" font-size="10.00">jdungeon.core.world.World</text>
<polyline fill="none" stroke="black" points="374,-510.5 506,-510.5 "/>
<text text-anchor="start" x="382" y="-497.5" font-family="Helvetica,sans-Serif" font-size="10.00">&#45; board</text>
<text text-anchor="start" x="382" y="-484.5" font-family="Helvetica,sans-Serif" font-size="10.00">&#45; player</text>
<text text-anchor="start" x="382" y="-471.5" font-family="Helvetica,sans-Serif" font-size="10.00">&#45; boss</text>
<text text-anchor="start" x="382" y="-458.5" font-family="Helvetica,sans-Serif" font-size="10.00">&#45; observers</text>
<text text-anchor="start" x="382" y="-445.5" font-family="Helvetica,sans-Serif" font-size="10.00">&#45; hurtEntities</text>
<text text-anchor="start" x="382" y="-432.5" font-family="Helvetica,sans-Serif" font-size="10.00">&#45; playerObserver</text>
<text text-anchor="start" x="382" y="-419.5" font-family="Helvetica,sans-Serif" font-size="10.00">&#45; bossObserver</text>
<text text-anchor="start" x="382" y="-406.5" font-family="Helvetica,sans-Serif" font-size="10.00">&#45; sizeX</text>
<text text-anchor="start" x="382" y="-393.5" font-family="Helvetica,sans-Serif" font-size="10.00">&#45; sizeY</text>
<text text-anchor="start" x="382" y="-380.5" font-family="Helvetica,sans-Serif" font-size="10.00">&#45; serialVersionUID</text>
<polyline fill="none" stroke="black" points="374,-372.5 506,-372.5 "/>
<text text-anchor="start" x="382" y="-359.5" font-family="Helvetica,sans-Serif" font-size="10.00">+ World()</text>
<text text-anchor="start" x="382" y="-346.5" font-family="Helvetica,sans-Serif" font-size="10.00">+ clone()</text>
<text text-anchor="start" x="382" y="-333.5" font-family="Helvetica,sans-Serif" font-size="10.00">+ getX()</text>
<text text-anchor="start" x="382" y="-320.5" font-family="Helvetica,sans-Serif" font-size="10.00">+ getY()</text>
<text text-anchor="start" x="382" y="-307.5" font-family="Helvetica,sans-Serif" font-size="10.00">+ getHurtEntities()</text>
<text text-anchor="start" x="382" y="-294.5" font-family="Helvetica,sans-Serif" font-size="10.00">+ subscribe()</text>
<text text-anchor="start" x="382" y="-281.5" font-family="Helvetica,sans-Serif" font-size="10.00">+ unsubscribe()</text>
<text text-anchor="start" x="382" y="-268.5" font-family="Helvetica,sans-Serif" font-size="10.00">+ add()</text>
<text text-anchor="start" x="382" y="-255.5" font-family="Helvetica,sans-Serif" font-size="10.00">+ add()</text>
<text text-anchor="start" x="382" y="-242.5" font-family="Helvetica,sans-Serif" font-size="10.00">+ add()</text>
<text text-anchor="start" x="382" y="-229.5" font-family="Helvetica,sans-Serif" font-size="10.00">+ add()</text>
<text text-anchor="start" x="382" y="-216.5" font-family="Helvetica,sans-Serif" font-size="10.00">+ remove()</text>
<text text-anchor="start" x="382" y="-203.5" font-family="Helvetica,sans-Serif" font-size="10.00">+ remove()</text>
<text text-anchor="start" x="382" y="-190.5" font-family="Helvetica,sans-Serif" font-size="10.00">+ getPlayer()</text>
<text text-anchor="start" x="382" y="-177.5" font-family="Helvetica,sans-Serif" font-size="10.00">+ getBoss()</text>
<text text-anchor="start" x="382" y="-164.5" font-family="Helvetica,sans-Serif" font-size="10.00">+ syncEvent()</text>
<text text-anchor="start" x="382" y="-151.5" font-family="Helvetica,sans-Serif" font-size="10.00">+ replace()</text>
<text text-anchor="start" x="382" y="-138.5" font-family="Helvetica,sans-Serif" font-size="10.00">~ addHurtEntity()</text>
<text text-anchor="start" x="382" y="-125.5" font-family="Helvetica,sans-Serif" font-size="10.00">~ removeHurtEntity()</text>
<text text-anchor="start" x="382" y="-112.5" font-family="Helvetica,sans-Serif" font-size="10.00">~ notifyChange()</text>
<text text-anchor="start" x="382" y="-99.5" font-family="Helvetica,sans-Serif" font-size="10.00">~ notifyChange()</text>
<text text-anchor="start" x="382" y="-86.5" font-family="Helvetica,sans-Serif" font-size="10.00">~ notifyChange()</text>
<text text-anchor="start" x="382" y="-73.5" font-family="Helvetica,sans-Serif" font-size="10.00">~ notifyChange()</text>
<text text-anchor="start" x="382" y="-60.5" font-family="Helvetica,sans-Serif" font-size="10.00">~ getEntityInPoint()</text>
<text text-anchor="start" x="382" y="-47.5" font-family="Helvetica,sans-Serif" font-size="10.00"># move()</text>
<text text-anchor="start" x="382" y="-34.5" font-family="Helvetica,sans-Serif" font-size="10.00"># moveDelta()</text>
<text text-anchor="start" x="382" y="-21.5" font-family="Helvetica,sans-Serif" font-size="10.00"># clearView()</text>
<text text-anchor="start" x="382" y="-8.5" font-family="Helvetica,sans-Serif" font-size="10.00">&#45; area()</text>
</a>
</g>
<!-- Node2&#45;&gt;Node3 -->
<g id="edge6" class="edge"><title>Node2&#45;&gt;Node3</title>
<path fill="none" stroke="midnightblue" d="M230.245,-1850.32C221.398,-1792.03 207,-1682.75 207,-1589 207,-1589 207,-1589 207,-699 207,-646.454 204.903,-630.953 224,-582 259.2,-491.768 324.333,-401.851 373.906,-341.139"/>
<polygon fill="none" stroke="midnightblue" points="226.794,-1850.91 231.774,-1860.26 233.712,-1849.84 226.794,-1850.91"/>
</g>
<!-- Node4 -->
<g id="node7" class="node"><title>Node4</title>
<a xlink:href="interfacejdungeon_1_1core_1_1world_1_1_vulnerable_observer.html" target="_top" xlink:title="{jdungeon.core.world.VulnerableObserver\n||+ onDeath()\l}">
<polygon fill="none" stroke="black" points="0,-1286.5 0,-1349.5 192,-1349.5 192,-1286.5 0,-1286.5"/>
<text text-anchor="middle" x="96" y="-1336.5" font-family="Helvetica,sans-Serif" font-size="10.00">jdungeon.core.world.VulnerableObserver</text>
<polyline fill="none" stroke="black" points="0,-1328.5 192,-1328.5 "/>
<text text-anchor="middle" x="96" y="-1315.5" font-family="Helvetica,sans-Serif" font-size="10.00"> </text>
<polyline fill="none" stroke="black" points="0,-1307.5 192,-1307.5 "/>
<text text-anchor="start" x="8" y="-1294.5" font-family="Helvetica,sans-Serif" font-size="10.00">+ onDeath()</text>
</a>
</g>
<!-- Node2&#45;&gt;Node4 -->
<g id="edge10" class="edge"><title>Node2&#45;&gt;Node4</title>
<path fill="none" stroke="midnightblue" d="M198.98,-1852.36C196.745,-1849 194.714,-1845.53 193,-1842 109.395,-1669.96 97.564,-1434.03 96.106,-1349.62"/>
<polygon fill="none" stroke="midnightblue" points="196.178,-1854.46 204.891,-1860.49 201.839,-1850.34 196.178,-1854.46"/>
</g>
<!-- Node5 -->
<g id="node10" class="node"><title>Node5</title>
<a xlink:href="classjdungeon_1_1core_1_1world_1_1_board.html" target="_top" xlink:title="{jdungeon.core.world.Board\n|&#45; name\l&#45; cells\l&#45; entities\l&#45; sizeY\l&#45; sizeX\l&#45; serialVersionUID\l&#45; MAX_SIZE\l&#45; MIN_SIZE\l|+ Board()\l+ getSizeY()\l+ getSizeX()\l+ replace()\l+ setName()\l+ getName()\l+ iterator()\l+ filter()\l# neighbours()\l# neighbours()\l# in()\l# in()\l# add()\l# add()\l# remove()\l# contains()\l# move()\l# move()\l# getEntityPos()\l&#45; initMatrix()\l&#45; isValidPoint()\l&#45; isValidPoint()\l&#45; warpTo()\l}">
<polygon fill="none" stroke="black" points="563,-1369 563,-1809 695,-1809 695,-1369 563,-1369"/>
<text text-anchor="middle" x="629" y="-1796" font-family="Helvetica,sans-Serif" font-size="10.00">jdungeon.core.world.Board</text>
<polyline fill="none" stroke="black" points="563,-1788 695,-1788 "/>
<text text-anchor="start" x="571" y="-1775" font-family="Helvetica,sans-Serif" font-size="10.00">&#45; name</text>
<text text-anchor="start" x="571" y="-1762" font-family="Helvetica,sans-Serif" font-size="10.00">&#45; cells</text>
<text text-anchor="start" x="571" y="-1749" font-family="Helvetica,sans-Serif" font-size="10.00">&#45; entities</text>
<text text-anchor="start" x="571" y="-1736" font-family="Helvetica,sans-Serif" font-size="10.00">&#45; sizeY</text>
<text text-anchor="start" x="571" y="-1723" font-family="Helvetica,sans-Serif" font-size="10.00">&#45; sizeX</text>
<text text-anchor="start" x="571" y="-1710" font-family="Helvetica,sans-Serif" font-size="10.00">&#45; serialVersionUID</text>
<text text-anchor="start" x="571" y="-1697" font-family="Helvetica,sans-Serif" font-size="10.00">&#45; MAX_SIZE</text>
<text text-anchor="start" x="571" y="-1684" font-family="Helvetica,sans-Serif" font-size="10.00">&#45; MIN_SIZE</text>
<polyline fill="none" stroke="black" points="563,-1676 695,-1676 "/>
<text text-anchor="start" x="571" y="-1663" font-family="Helvetica,sans-Serif" font-size="10.00">+ Board()</text>
<text text-anchor="start" x="571" y="-1650" font-family="Helvetica,sans-Serif" font-size="10.00">+ getSizeY()</text>
<text text-anchor="start" x="571" y="-1637" font-family="Helvetica,sans-Serif" font-size="10.00">+ getSizeX()</text>
<text text-anchor="start" x="571" y="-1624" font-family="Helvetica,sans-Serif" font-size="10.00">+ replace()</text>
<text text-anchor="start" x="571" y="-1611" font-family="Helvetica,sans-Serif" font-size="10.00">+ setName()</text>
<text text-anchor="start" x="571" y="-1598" font-family="Helvetica,sans-Serif" font-size="10.00">+ getName()</text>
<text text-anchor="start" x="571" y="-1585" font-family="Helvetica,sans-Serif" font-size="10.00">+ iterator()</text>
<text text-anchor="start" x="571" y="-1572" font-family="Helvetica,sans-Serif" font-size="10.00">+ filter()</text>
<text text-anchor="start" x="571" y="-1559" font-family="Helvetica,sans-Serif" font-size="10.00"># neighbours()</text>
<text text-anchor="start" x="571" y="-1546" font-family="Helvetica,sans-Serif" font-size="10.00"># neighbours()</text>
<text text-anchor="start" x="571" y="-1533" font-family="Helvetica,sans-Serif" font-size="10.00"># in()</text>
<text text-anchor="start" x="571" y="-1520" font-family="Helvetica,sans-Serif" font-size="10.00"># in()</text>
<text text-anchor="start" x="571" y="-1507" font-family="Helvetica,sans-Serif" font-size="10.00"># add()</text>
<text text-anchor="start" x="571" y="-1494" font-family="Helvetica,sans-Serif" font-size="10.00"># add()</text>
<text text-anchor="start" x="571" y="-1481" font-family="Helvetica,sans-Serif" font-size="10.00"># remove()</text>
<text text-anchor="start" x="571" y="-1468" font-family="Helvetica,sans-Serif" font-size="10.00"># contains()</text>
<text text-anchor="start" x="571" y="-1455" font-family="Helvetica,sans-Serif" font-size="10.00"># move()</text>
<text text-anchor="start" x="571" y="-1442" font-family="Helvetica,sans-Serif" font-size="10.00"># move()</text>
<text text-anchor="start" x="571" y="-1429" font-family="Helvetica,sans-Serif" font-size="10.00"># getEntityPos()</text>
<text text-anchor="start" x="571" y="-1416" font-family="Helvetica,sans-Serif" font-size="10.00">&#45; initMatrix()</text>
<text text-anchor="start" x="571" y="-1403" font-family="Helvetica,sans-Serif" font-size="10.00">&#45; isValidPoint()</text>
<text text-anchor="start" x="571" y="-1390" font-family="Helvetica,sans-Serif" font-size="10.00">&#45; isValidPoint()</text>
<text text-anchor="start" x="571" y="-1377" font-family="Helvetica,sans-Serif" font-size="10.00">&#45; warpTo()</text>
</a>
</g>
<!-- Node2&#45;&gt;Node5 -->
<g id="edge14" class="edge"><title>Node2&#45;&gt;Node5</title>
<path fill="none" stroke="midnightblue" d="M280.57,-1884.36C352.209,-1871.06 490.673,-1841.98 528,-1810 541.215,-1798.68 552.793,-1785.27 562.919,-1770.73"/>
<polygon fill="none" stroke="midnightblue" points="279.709,-1880.96 270.505,-1886.21 280.973,-1887.85 279.709,-1880.96"/>
</g>
<!-- Node3&#45;&gt;Node1 -->
<g id="edge4" class="edge"><title>Node3&#45;&gt;Node1</title>
<path fill="none" stroke="#9a32cd" stroke-dasharray="5,2" d="M368.2,-364.053C328.996,-423.784 284.386,-503.503 264,-582 175.337,-923.407 249.287,-1351.68 284.701,-1518.21"/>
<polygon fill="#9a32cd" stroke="#9a32cd" points="373.942,-355.388 372.17,-366.209 371.18,-359.556 368.418,-363.724 368.418,-363.724 368.418,-363.724 371.18,-359.556 364.667,-361.238 373.942,-355.388 373.942,-355.388"/>
<text text-anchor="middle" x="230" y="-844.5" font-family="Helvetica,sans-Serif" font-size="10.00">w</text>
</g>
<!-- Node4&#45;&gt;Node3 -->
<g id="edge8" class="edge"><title>Node4&#45;&gt;Node3</title>
<path fill="none" stroke="#9a32cd" stroke-dasharray="5,2" d="M91.7137,-1275.86C81.362,-1155.12 64.5904,-800.458 193,-550 238.464,-461.325 317.413,-377.517 373.819,-324.245"/>
<polygon fill="#9a32cd" stroke="#9a32cd" points="92.6292,-1286.15 87.2601,-1276.59 92.1858,-1281.17 91.7424,-1276.19 91.7424,-1276.19 91.7424,-1276.19 92.1858,-1281.17 96.2247,-1275.79 92.6292,-1286.15 92.6292,-1286.15"/>
<text text-anchor="middle" x="138.5" y="-851" font-family="Helvetica,sans-Serif" font-size="10.00">bossObserver</text>
<text text-anchor="middle" x="138.5" y="-838" font-family="Helvetica,sans-Serif" font-size="10.00">playerObserver</text>
</g>
<!-- Node5&#45;&gt;Node3 -->
<g id="edge12" class="edge"><title>Node5&#45;&gt;Node3</title>
<path fill="none" stroke="#9a32cd" stroke-dasharray="5,2" d="M645.484,-1358.93C660.856,-1107.67 675.98,-722.307 636,-582 610.702,-493.217 552.509,-405.021 506.065,-344.459"/>
<polygon fill="#9a32cd" stroke="#9a32cd" points="644.868,-1368.93 640.992,-1358.67 645.176,-1363.94 645.483,-1358.94 645.483,-1358.94 645.483,-1358.94 645.176,-1363.94 649.975,-1359.22 644.868,-1368.93 644.868,-1368.93"/>
<text text-anchor="middle" x="673.5" y="-844.5" font-family="Helvetica,sans-Serif" font-size="10.00">board</text>
</g>
<!-- Node6 -->
<g id="node13" class="node"><title>Node6</title>
<polygon fill="none" stroke="#bfbfbf" points="521.5,-1860.5 521.5,-1923.5 628.5,-1923.5 628.5,-1860.5 521.5,-1860.5"/>
<text text-anchor="middle" x="575" y="-1910.5" font-family="Helvetica,sans-Serif" font-size="10.00">Map&lt; Entity, Point &gt;</text>
<polyline fill="none" stroke="#bfbfbf" points="521.5,-1902.5 628.5,-1902.5 "/>
<text text-anchor="middle" x="575" y="-1889.5" font-family="Helvetica,sans-Serif" font-size="10.00"> </text>
<polyline fill="none" stroke="#bfbfbf" points="521.5,-1881.5 628.5,-1881.5 "/>
<text text-anchor="middle" x="575" y="-1868.5" font-family="Helvetica,sans-Serif" font-size="10.00"> </text>
</g>
<!-- Node6&#45;&gt;Node5 -->
<g id="edge16" class="edge"><title>Node6&#45;&gt;Node5</title>
<path fill="none" stroke="#9a32cd" stroke-dasharray="5,2" d="M582.415,-1850.4C584.558,-1838.37 587.059,-1824.34 589.767,-1809.14"/>
<polygon fill="#9a32cd" stroke="#9a32cd" points="580.626,-1860.43 577.951,-1849.8 581.503,-1855.51 582.381,-1850.59 582.381,-1850.59 582.381,-1850.59 581.503,-1855.51 586.811,-1851.38 580.626,-1860.43 580.626,-1860.43"/>
<text text-anchor="middle" x="601" y="-1832.5" font-family="Helvetica,sans-Serif" font-size="10.00">entities</text>
</g>
<!-- Node7 -->
<g id="node15" class="node"><title>Node7</title>
<polygon fill="none" stroke="#bfbfbf" points="645.5,-1860.5 645.5,-1923.5 720.5,-1923.5 720.5,-1860.5 645.5,-1860.5"/>
<text text-anchor="middle" x="683" y="-1910.5" font-family="Helvetica,sans-Serif" font-size="10.00">Set&lt; Entity &gt;</text>
<polyline fill="none" stroke="#bfbfbf" points="645.5,-1902.5 720.5,-1902.5 "/>
<text text-anchor="middle" x="683" y="-1889.5" font-family="Helvetica,sans-Serif" font-size="10.00"> </text>
<polyline fill="none" stroke="#bfbfbf" points="645.5,-1881.5 720.5,-1881.5 "/>
<text text-anchor="middle" x="683" y="-1868.5" font-family="Helvetica,sans-Serif" font-size="10.00"> </text>
</g>
<!-- Node7&#45;&gt;Node5 -->
<g id="edge18" class="edge"><title>Node7&#45;&gt;Node5</title>
<path fill="none" stroke="#9a32cd" stroke-dasharray="5,2" d="M675.585,-1850.4C673.442,-1838.37 670.941,-1824.34 668.233,-1809.14"/>
<polygon fill="#9a32cd" stroke="#9a32cd" points="677.374,-1860.43 671.189,-1851.38 676.497,-1855.51 675.619,-1850.59 675.619,-1850.59 675.619,-1850.59 676.497,-1855.51 680.049,-1849.8 677.374,-1860.43 677.374,-1860.43"/>
<text text-anchor="middle" x="683.5" y="-1832.5" font-family="Helvetica,sans-Serif" font-size="10.00">cells</text>
</g>
<!-- Node8 -->
<g id="node17" class="node"><title>Node8</title>
<a xlink:href="classjdungeon_1_1core_1_1world_1_1creatures_1_1_monster.html" target="_top" xlink:title="{jdungeon.core.world.creatures.Monster\n|&#45; serialVersionUID\l|+ Monster()\l+ awardExperience()\l+ getExperience()\l+ hurtBy()\l&#45; computeHealth()\l&#45; computeStrength()\l}">
<polygon fill="none" stroke="black" points="272.5,-635 272.5,-763 457.5,-763 457.5,-635 272.5,-635"/>
<text text-anchor="middle" x="365" y="-750" font-family="Helvetica,sans-Serif" font-size="10.00">jdungeon.core.world.creatures.Monster</text>
<polyline fill="none" stroke="black" points="272.5,-742 457.5,-742 "/>
<text text-anchor="start" x="280.5" y="-729" font-family="Helvetica,sans-Serif" font-size="10.00">&#45; serialVersionUID</text>
<polyline fill="none" stroke="black" points="272.5,-721 457.5,-721 "/>
<text text-anchor="start" x="280.5" y="-708" font-family="Helvetica,sans-Serif" font-size="10.00">+ Monster()</text>
<text text-anchor="start" x="280.5" y="-695" font-family="Helvetica,sans-Serif" font-size="10.00">+ awardExperience()</text>
<text text-anchor="start" x="280.5" y="-682" font-family="Helvetica,sans-Serif" font-size="10.00">+ getExperience()</text>
<text text-anchor="start" x="280.5" y="-669" font-family="Helvetica,sans-Serif" font-size="10.00">+ hurtBy()</text>
<text text-anchor="start" x="280.5" y="-656" font-family="Helvetica,sans-Serif" font-size="10.00">&#45; computeHealth()</text>
<text text-anchor="start" x="280.5" y="-643" font-family="Helvetica,sans-Serif" font-size="10.00">&#45; computeStrength()</text>
</a>
</g>
<!-- Node8&#45;&gt;Node3 -->
<g id="edge20" class="edge"><title>Node8&#45;&gt;Node3</title>
<path fill="none" stroke="#9a32cd" stroke-dasharray="5,2" d="M377.886,-624.604C382.542,-597.723 388.105,-565.607 393.961,-531.797"/>
<polygon fill="#9a32cd" stroke="#9a32cd" points="376.147,-634.643 373.42,-624.022 377.001,-629.716 377.854,-624.79 377.854,-624.79 377.854,-624.79 377.001,-629.716 382.288,-625.558 376.147,-634.643 376.147,-634.643"/>
<text text-anchor="middle" x="400" y="-554.5" font-family="Helvetica,sans-Serif" font-size="10.00">boss</text>
</g>
<!-- Node9&#45;&gt;Node8 -->
<g id="edge22" class="edge"><title>Node9&#45;&gt;Node8</title>
<path fill="none" stroke="midnightblue" d="M390.396,-868.607C384.669,-830.361 379.089,-793.093 374.625,-763.279"/>
<polygon fill="none" stroke="midnightblue" points="386.992,-869.508 391.934,-878.879 393.914,-868.471 386.992,-869.508"/>
</g>
<!-- Node12 -->
<g id="node26" class="node"><title>Node12</title>
<a xlink:href="classjdungeon_1_1core_1_1world_1_1_player.html" target="_top" xlink:title="{jdungeon.core.world.Player\n|&#45; experience\l&#45; name\l&#45; serialVersionUID\l|+ Player()\l+ setWorld()\l+ getName()\l+ setName()\l+ getExperienceForNextLevel()\l+ getExperience()\l+ moveLeft()\l+ moveRight()\l+ moveUp()\l+ moveDown()\l+ awardExperience()\l&#45; move()\l}">
<polygon fill="none" stroke="black" points="475,-583 475,-815 627,-815 627,-583 475,-583"/>
<text text-anchor="middle" x="551" y="-802" font-family="Helvetica,sans-Serif" font-size="10.00">jdungeon.core.world.Player</text>
<polyline fill="none" stroke="black" points="475,-794 627,-794 "/>
<text text-anchor="start" x="483" y="-781" font-family="Helvetica,sans-Serif" font-size="10.00">&#45; experience</text>
<text text-anchor="start" x="483" y="-768" font-family="Helvetica,sans-Serif" font-size="10.00">&#45; name</text>
<text text-anchor="start" x="483" y="-755" font-family="Helvetica,sans-Serif" font-size="10.00">&#45; serialVersionUID</text>
<polyline fill="none" stroke="black" points="475,-747 627,-747 "/>
<text text-anchor="start" x="483" y="-734" font-family="Helvetica,sans-Serif" font-size="10.00">+ Player()</text>
<text text-anchor="start" x="483" y="-721" font-family="Helvetica,sans-Serif" font-size="10.00">+ setWorld()</text>
<text text-anchor="start" x="483" y="-708" font-family="Helvetica,sans-Serif" font-size="10.00">+ getName()</text>
<text text-anchor="start" x="483" y="-695" font-family="Helvetica,sans-Serif" font-size="10.00">+ setName()</text>
<text text-anchor="start" x="483" y="-682" font-family="Helvetica,sans-Serif" font-size="10.00">+ getExperienceForNextLevel()</text>
<text text-anchor="start" x="483" y="-669" font-family="Helvetica,sans-Serif" font-size="10.00">+ getExperience()</text>
<text text-anchor="start" x="483" y="-656" font-family="Helvetica,sans-Serif" font-size="10.00">+ moveLeft()</text>
<text text-anchor="start" x="483" y="-643" font-family="Helvetica,sans-Serif" font-size="10.00">+ moveRight()</text>
<text text-anchor="start" x="483" y="-630" font-family="Helvetica,sans-Serif" font-size="10.00">+ moveUp()</text>
<text text-anchor="start" x="483" y="-617" font-family="Helvetica,sans-Serif" font-size="10.00">+ moveDown()</text>
<text text-anchor="start" x="483" y="-604" font-family="Helvetica,sans-Serif" font-size="10.00">+ awardExperience()</text>
<text text-anchor="start" x="483" y="-591" font-family="Helvetica,sans-Serif" font-size="10.00">&#45; move()</text>
</a>
</g>
<!-- Node9&#45;&gt;Node12 -->
<g id="edge32" class="edge"><title>Node9&#45;&gt;Node12</title>
<path fill="none" stroke="midnightblue" d="M491.83,-869.229C498.234,-850.804 504.562,-832.599 510.562,-815.336"/>
<polygon fill="none" stroke="midnightblue" points="488.452,-868.285 488.475,-878.879 495.064,-870.583 488.452,-868.285"/>
</g>
<!-- Node10 -->
<g id="node22" class="node"><title>Node10</title>
<polygon fill="none" stroke="#bfbfbf" points="384.5,-1557.5 384.5,-1620.5 519.5,-1620.5 519.5,-1557.5 384.5,-1557.5"/>
<text text-anchor="middle" x="452" y="-1607.5" font-family="Helvetica,sans-Serif" font-size="10.00">Set&lt; VulnerableObserver &gt;</text>
<polyline fill="none" stroke="#bfbfbf" points="384.5,-1599.5 519.5,-1599.5 "/>
<text text-anchor="middle" x="452" y="-1586.5" font-family="Helvetica,sans-Serif" font-size="10.00"> </text>
<polyline fill="none" stroke="#bfbfbf" points="384.5,-1578.5 519.5,-1578.5 "/>
<text text-anchor="middle" x="452" y="-1565.5" font-family="Helvetica,sans-Serif" font-size="10.00"> </text>
</g>
<!-- Node10&#45;&gt;Node9 -->
<g id="edge26" class="edge"><title>Node10&#45;&gt;Node9</title>
<path fill="none" stroke="#9a32cd" stroke-dasharray="5,2" d="M449.487,-1547.17C445.835,-1486.38 438.825,-1369.69 432.672,-1267.29"/>
<polygon fill="#9a32cd" stroke="#9a32cd" points="450.107,-1557.5 445.016,-1547.79 449.808,-1552.51 449.508,-1547.52 449.508,-1547.52 449.508,-1547.52 449.808,-1552.51 454,-1547.25 450.107,-1557.5 450.107,-1557.5"/>
<text text-anchor="middle" x="458.5" y="-1315.5" font-family="Helvetica,sans-Serif" font-size="10.00">observers</text>
</g>
<!-- Node11 -->
<g id="node24" class="node"><title>Node11</title>
<polygon fill="none" stroke="#bfbfbf" points="683,-667.5 683,-730.5 791,-730.5 791,-667.5 683,-667.5"/>
<text text-anchor="middle" x="737" y="-717.5" font-family="Helvetica,sans-Serif" font-size="10.00">Set&lt; MapObserver &gt;</text>
<polyline fill="none" stroke="#bfbfbf" points="683,-709.5 791,-709.5 "/>
<text text-anchor="middle" x="737" y="-696.5" font-family="Helvetica,sans-Serif" font-size="10.00"> </text>
<polyline fill="none" stroke="#bfbfbf" points="683,-688.5 791,-688.5 "/>
<text text-anchor="middle" x="737" y="-675.5" font-family="Helvetica,sans-Serif" font-size="10.00"> </text>
</g>
<!-- Node11&#45;&gt;Node3 -->
<g id="edge28" class="edge"><title>Node11&#45;&gt;Node3</title>
<path fill="none" stroke="#9a32cd" stroke-dasharray="5,2" d="M721.446,-657.77C709.089,-627.044 690.373,-584.598 669,-550 621.232,-472.675 555.062,-392.802 506.129,-337.534"/>
<polygon fill="#9a32cd" stroke="#9a32cd" points="725.23,-667.309 717.36,-659.673 723.386,-662.662 721.543,-658.014 721.543,-658.014 721.543,-658.014 723.386,-662.662 725.726,-656.355 725.23,-667.309 725.23,-667.309"/>
<text text-anchor="middle" x="696.5" y="-554.5" font-family="Helvetica,sans-Serif" font-size="10.00">observers</text>
</g>
<!-- Node12&#45;&gt;Node3 -->
<g id="edge30" class="edge"><title>Node12&#45;&gt;Node3</title>
<path fill="none" stroke="#9a32cd" stroke-dasharray="5,2" d="M518.742,-573.165C514.664,-557.256 510.381,-540.55 506.008,-523.492"/>
<polygon fill="#9a32cd" stroke="#9a32cd" points="521.254,-582.964 514.412,-574.395 520.012,-578.121 518.771,-573.277 518.771,-573.277 518.771,-573.277 520.012,-578.121 523.13,-572.16 521.254,-582.964 521.254,-582.964"/>
<text text-anchor="middle" x="528.5" y="-554.5" font-family="Helvetica,sans-Serif" font-size="10.00">player</text>
</g>
<!-- Node13 -->
<g id="node29" class="node"><title>Node13</title>
<polygon fill="none" stroke="#bfbfbf" points="808.5,-667.5 808.5,-730.5 903.5,-730.5 903.5,-667.5 808.5,-667.5"/>
<text text-anchor="middle" x="856" y="-717.5" font-family="Helvetica,sans-Serif" font-size="10.00">Set&lt; Vulnerable &gt;</text>
<polyline fill="none" stroke="#bfbfbf" points="808.5,-709.5 903.5,-709.5 "/>
<text text-anchor="middle" x="856" y="-696.5" font-family="Helvetica,sans-Serif" font-size="10.00"> </text>
<polyline fill="none" stroke="#bfbfbf" points="808.5,-688.5 903.5,-688.5 "/>
<text text-anchor="middle" x="856" y="-675.5" font-family="Helvetica,sans-Serif" font-size="10.00"> </text>
</g>
<!-- Node13&#45;&gt;Node3 -->
<g id="edge34" class="edge"><title>Node13&#45;&gt;Node3</title>
<path fill="none" stroke="#9a32cd" stroke-dasharray="5,2" d="M841.128,-657.907C831.478,-634.371 817.451,-605.032 800,-582 714.747,-469.482 584.268,-367.242 506.025,-311.122"/>
<polygon fill="#9a32cd" stroke="#9a32cd" points="844.865,-667.274 836.98,-659.653 843.012,-662.63 841.159,-657.986 841.159,-657.986 841.159,-657.986 843.012,-662.63 845.339,-656.318 844.865,-667.274 844.865,-667.274"/>
<text text-anchor="middle" x="809" y="-554.5" font-family="Helvetica,sans-Serif" font-size="10.00">hurtEntities</text>
</g>
</g>
</svg>
