<?xml version="1.0" encoding="UTF-8" standalone="no"?>
<!DOCTYPE svg PUBLIC "-//W3C//DTD SVG 1.1//EN"
 "http://www.w3.org/Graphics/SVG/1.1/DTD/svg11.dtd">
<!-- Generated by graphviz version 2.26.3 (20100126.1600)
 -->
<!-- Title: G Pages: 1 -->
<svg width="174pt" height="278pt"
 viewBox="0.00 0.00 174.00 278.00" xmlns="http://www.w3.org/2000/svg" xmlns:xlink="http://www.w3.org/1999/xlink">
<g id="graph1" class="graph" transform="scale(1 1) rotate(0) translate(4 274)">
<title>G</title>
<!-- Node1 -->
<g id="node1" class="node"><title>Node1</title>
<polygon fill="#bfbfbf" stroke="black" points="2,-1 2,-155 166,-155 166,-1 2,-1"/>
<text text-anchor="middle" x="84" y="-142" font-family="Helvetica,sans-Serif" font-size="10.00">jdungeon.frontend.gui.GamePanel</text>
<polyline fill="none" stroke="black" points="2,-134 166,-134 "/>
<text text-anchor="start" x="10" y="-121" font-family="Helvetica,sans-Serif" font-size="10.00">~ columns</text>
<text text-anchor="start" x="10" y="-108" font-family="Helvetica,sans-Serif" font-size="10.00">&#45; rows</text>
<text text-anchor="start" x="10" y="-95" font-family="Helvetica,sans-Serif" font-size="10.00">&#45; cellSize</text>
<text text-anchor="start" x="10" y="-82" font-family="Helvetica,sans-Serif" font-size="10.00">&#45; color</text>
<text text-anchor="start" x="10" y="-69" font-family="Helvetica,sans-Serif" font-size="10.00">&#45; images</text>
<polyline fill="none" stroke="black" points="2,-61 166,-61 "/>
<text text-anchor="start" x="10" y="-48" font-family="Helvetica,sans-Serif" font-size="10.00">+ GamePanel()</text>
<text text-anchor="start" x="10" y="-35" font-family="Helvetica,sans-Serif" font-size="10.00">+ put()</text>
<text text-anchor="start" x="10" y="-22" font-family="Helvetica,sans-Serif" font-size="10.00">+ clear()</text>
<text text-anchor="start" x="10" y="-9" font-family="Helvetica,sans-Serif" font-size="10.00">+ paint()</text>
</g>
<!-- Node2 -->
<g id="node2" class="node"><title>Node2</title>
<polygon fill="none" stroke="#bfbfbf" points="-0.5,-206.5 -0.5,-269.5 46.5,-269.5 46.5,-206.5 -0.5,-206.5"/>
<text text-anchor="middle" x="23" y="-256.5" font-family="Helvetica,sans-Serif" font-size="10.00">JPanel</text>
<polyline fill="none" stroke="#bfbfbf" points="-0.5,-248.5 46.5,-248.5 "/>
<text text-anchor="middle" x="23" y="-235.5" font-family="Helvetica,sans-Serif" font-size="10.00"> </text>
<polyline fill="none" stroke="#bfbfbf" points="-0.5,-227.5 46.5,-227.5 "/>
<text text-anchor="middle" x="23" y="-214.5" font-family="Helvetica,sans-Serif" font-size="10.00"> </text>
</g>
<!-- Node2&#45;&gt;Node1 -->
<g id="edge2" class="edge"><title>Node2&#45;&gt;Node1</title>
<path fill="none" stroke="midnightblue" d="M38.6334,-196.994C43.5034,-184.221 49.0428,-169.691 54.5372,-155.28"/>
<polygon fill="none" stroke="midnightblue" points="35.3437,-195.798 35.0516,-206.389 41.8845,-198.292 35.3437,-195.798"/>
</g>
<!-- Node3 -->
<g id="node4" class="node"><title>Node3</title>
<polygon fill="none" stroke="#bfbfbf" points="64,-206.5 64,-269.5 104,-269.5 104,-206.5 64,-206.5"/>
<text text-anchor="middle" x="84" y="-256.5" font-family="Helvetica,sans-Serif" font-size="10.00">Color</text>
<polyline fill="none" stroke="#bfbfbf" points="64,-248.5 104,-248.5 "/>
<text text-anchor="middle" x="84" y="-235.5" font-family="Helvetica,sans-Serif" font-size="10.00"> </text>
<polyline fill="none" stroke="#bfbfbf" points="64,-227.5 104,-227.5 "/>
<text text-anchor="middle" x="84" y="-214.5" font-family="Helvetica,sans-Serif" font-size="10.00"> </text>
</g>
<!-- Node3&#45;&gt;Node1 -->
<g id="edge4" class="edge"><title>Node3&#45;&gt;Node1</title>
<path fill="none" stroke="#9a32cd" stroke-dasharray="5,2" d="M84,-196.241C84,-183.651 84,-169.409 84,-155.28"/>
<polygon fill="#9a32cd" stroke="#9a32cd" points="84,-206.389 79.5001,-196.389 84,-201.389 84.0001,-196.389 84.0001,-196.389 84.0001,-196.389 84,-201.389 88.5001,-196.389 84,-206.389 84,-206.389"/>
<text text-anchor="middle" x="95" y="-178.5" font-family="Helvetica,sans-Serif" font-size="10.00">color</text>
</g>
<!-- Node4 -->
<g id="node6" class="node"><title>Node4</title>
<polygon fill="none" stroke="#bfbfbf" points="122,-206.5 122,-269.5 166,-269.5 166,-206.5 122,-206.5"/>
<text text-anchor="middle" x="144" y="-256.5" font-family="Helvetica,sans-Serif" font-size="10.00">Image</text>
<polyline fill="none" stroke="#bfbfbf" points="122,-248.5 166,-248.5 "/>
<text text-anchor="middle" x="144" y="-235.5" font-family="Helvetica,sans-Serif" font-size="10.00"> </text>
<polyline fill="none" stroke="#bfbfbf" points="122,-227.5 166,-227.5 "/>
<text text-anchor="middle" x="144" y="-214.5" font-family="Helvetica,sans-Serif" font-size="10.00"> </text>
</g>
<!-- Node4&#45;&gt;Node1 -->
<g id="edge6" class="edge"><title>Node4&#45;&gt;Node1</title>
<path fill="none" stroke="#9a32cd" stroke-dasharray="5,2" d="M128.623,-196.994C123.833,-184.221 118.384,-169.691 112.98,-155.28"/>
<polygon fill="#9a32cd" stroke="#9a32cd" points="132.146,-206.389 124.421,-198.606 130.39,-201.707 128.635,-197.026 128.635,-197.026 128.635,-197.026 130.39,-201.707 132.848,-195.446 132.146,-206.389 132.146,-206.389"/>
<text text-anchor="middle" x="140" y="-178.5" font-family="Helvetica,sans-Serif" font-size="10.00">images</text>
</g>
</g>
</svg>
