<?xml version="1.0" encoding="UTF-8" standalone="no"?>
<!DOCTYPE svg PUBLIC "-//W3C//DTD SVG 1.1//EN"
 "http://www.w3.org/Graphics/SVG/1.1/DTD/svg11.dtd">
<!-- Generated by graphviz version 2.26.3 (20100126.1600)
 -->
<!-- Title: G Pages: 1 -->
<svg width="841pt" height="2424pt"
 viewBox="0.00 0.00 841.00 2424.00" xmlns="http://www.w3.org/2000/svg" xmlns:xlink="http://www.w3.org/1999/xlink">
<g id="graph1" class="graph" transform="scale(1 1) rotate(0) translate(4 2420)">
<title>G</title>
<!-- Node1 -->
<g id="node1" class="node"><title>Node1</title>
<polygon fill="#bfbfbf" stroke="black" points="38.5,-0.5 38.5,-349.5 181.5,-349.5 181.5,-0.5 38.5,-0.5"/>
<text text-anchor="middle" x="110" y="-336.5" font-family="Helvetica,sans-Serif" font-size="10.00">jdungeon.frontend.DataPanel</text>
<polyline fill="none" stroke="black" points="38.5,-328.5 181.5,-328.5 "/>
<text text-anchor="start" x="46.5" y="-315.5" font-family="Helvetica,sans-Serif" font-size="10.00">&#45; general</text>
<text text-anchor="start" x="46.5" y="-302.5" font-family="Helvetica,sans-Serif" font-size="10.00">&#45; playerhp</text>
<text text-anchor="start" x="46.5" y="-289.5" font-family="Helvetica,sans-Serif" font-size="10.00">&#45; playerstr</text>
<text text-anchor="start" x="46.5" y="-276.5" font-family="Helvetica,sans-Serif" font-size="10.00">&#45; playerlvl</text>
<text text-anchor="start" x="46.5" y="-263.5" font-family="Helvetica,sans-Serif" font-size="10.00">&#45; playerexp</text>
<text text-anchor="start" x="46.5" y="-250.5" font-family="Helvetica,sans-Serif" font-size="10.00">&#45; enemyhp</text>
<text text-anchor="start" x="46.5" y="-237.5" font-family="Helvetica,sans-Serif" font-size="10.00">&#45; enemystr</text>
<text text-anchor="start" x="46.5" y="-224.5" font-family="Helvetica,sans-Serif" font-size="10.00">&#45; enemylvl</text>
<text text-anchor="start" x="46.5" y="-211.5" font-family="Helvetica,sans-Serif" font-size="10.00">&#45; enemyname</text>
<text text-anchor="start" x="46.5" y="-198.5" font-family="Helvetica,sans-Serif" font-size="10.00">&#45; playername</text>
<text text-anchor="start" x="46.5" y="-185.5" font-family="Helvetica,sans-Serif" font-size="10.00">&#45; lastubication</text>
<text text-anchor="start" x="46.5" y="-172.5" font-family="Helvetica,sans-Serif" font-size="10.00">&#45; currentubication</text>
<text text-anchor="start" x="46.5" y="-159.5" font-family="Helvetica,sans-Serif" font-size="10.00">&#45; enemy</text>
<text text-anchor="start" x="46.5" y="-146.5" font-family="Helvetica,sans-Serif" font-size="10.00">&#45; w</text>
<text text-anchor="start" x="46.5" y="-133.5" font-family="Helvetica,sans-Serif" font-size="10.00">&#45; serialVersionUID</text>
<polyline fill="none" stroke="black" points="38.5,-125.5 181.5,-125.5 "/>
<text text-anchor="start" x="46.5" y="-112.5" font-family="Helvetica,sans-Serif" font-size="10.00">+ DataPanel()</text>
<text text-anchor="start" x="46.5" y="-99.5" font-family="Helvetica,sans-Serif" font-size="10.00">+ getPanel()</text>
<text text-anchor="start" x="46.5" y="-86.5" font-family="Helvetica,sans-Serif" font-size="10.00">+ event()</text>
<text text-anchor="start" x="46.5" y="-73.5" font-family="Helvetica,sans-Serif" font-size="10.00">+ showMonster()</text>
<text text-anchor="start" x="46.5" y="-60.5" font-family="Helvetica,sans-Serif" font-size="10.00">+ createPlayer()</text>
<text text-anchor="start" x="46.5" y="-47.5" font-family="Helvetica,sans-Serif" font-size="10.00">+ createEnemy()</text>
<text text-anchor="start" x="46.5" y="-34.5" font-family="Helvetica,sans-Serif" font-size="10.00">+ update()</text>
<text text-anchor="start" x="46.5" y="-21.5" font-family="Helvetica,sans-Serif" font-size="10.00">&#45; updateMonster()</text>
<text text-anchor="start" x="46.5" y="-8.5" font-family="Helvetica,sans-Serif" font-size="10.00">&#45; removeEnemy()</text>
</g>
<!-- Node2 -->
<g id="node2" class="node"><title>Node2</title>
<polygon fill="none" stroke="#bfbfbf" points="52.5,-667.5 52.5,-730.5 99.5,-730.5 99.5,-667.5 52.5,-667.5"/>
<text text-anchor="middle" x="76" y="-717.5" font-family="Helvetica,sans-Serif" font-size="10.00">JPanel</text>
<polyline fill="none" stroke="#bfbfbf" points="52.5,-709.5 99.5,-709.5 "/>
<text text-anchor="middle" x="76" y="-696.5" font-family="Helvetica,sans-Serif" font-size="10.00"> </text>
<polyline fill="none" stroke="#bfbfbf" points="52.5,-688.5 99.5,-688.5 "/>
<text text-anchor="middle" x="76" y="-675.5" font-family="Helvetica,sans-Serif" font-size="10.00"> </text>
</g>
<!-- Node2&#45;&gt;Node1 -->
<g id="edge2" class="edge"><title>Node2&#45;&gt;Node1</title>
<path fill="none" stroke="midnightblue" d="M70.4353,-657.452C62.9295,-594.577 51.8246,-471.598 64,-368 64.7136,-361.928 65.5495,-355.77 66.4871,-349.567"/>
<polygon fill="none" stroke="midnightblue" points="66.9615,-657.879 71.6508,-667.38 73.9096,-657.029 66.9615,-657.879"/>
</g>
<!-- Node2&#45;&gt;Node1 -->
<g id="edge48" class="edge"><title>Node2&#45;&gt;Node1</title>
<path fill="none" stroke="#9a32cd" stroke-dasharray="5,2" d="M75.7771,-657.156C75.75,-594.283 76.8911,-471.75 85,-368 85.4739,-361.937 86.0047,-355.772 86.5822,-349.55"/>
<polygon fill="#9a32cd" stroke="#9a32cd" points="75.7925,-667.453 71.2775,-657.46 75.785,-662.453 75.7775,-657.453 75.7775,-657.453 75.7775,-657.453 75.785,-662.453 80.2775,-657.447 75.7925,-667.453 75.7925,-667.453"/>
<text text-anchor="middle" x="101" y="-424.5" font-family="Helvetica,sans-Serif" font-size="10.00">general</text>
</g>
<!-- Node3 -->
<g id="node4" class="node"><title>Node3</title>
<a xlink:href="classjdungeon_1_1core_1_1world_1_1_world.html" target="_top" xlink:title="{jdungeon.core.world.World\n|&#45; board\l&#45; player\l&#45; boss\l&#45; observers\l&#45; hurtEntities\l&#45; playerObserver\l&#45; bossObserver\l&#45; sizeX\l&#45; sizeY\l&#45; serialVersionUID\l|+ World()\l+ clone()\l+ getX()\l+ getY()\l+ getHurtEntities()\l+ subscribe()\l+ unsubscribe()\l+ add()\l+ add()\l+ add()\l+ add()\l+ remove()\l+ remove()\l+ getPlayer()\l+ getBoss()\l+ syncEvent()\l+ replace()\l~ addHurtEntity()\l~ removeHurtEntity()\l~ notifyChange()\l~ notifyChange()\l~ notifyChange()\l~ notifyChange()\l~ getEntityInPoint()\l# move()\l# moveDelta()\l# clearView()\l&#45; area()\l}">
<polygon fill="none" stroke="black" points="372,-1136.5 372,-1667.5 504,-1667.5 504,-1136.5 372,-1136.5"/>
<text text-anchor="middle" x="438" y="-1654.5" font-family="Helvetica,sans-Serif" font-size="10.00">jdungeon.core.world.World</text>
<polyline fill="none" stroke="black" points="372,-1646.5 504,-1646.5 "/>
<text text-anchor="start" x="380" y="-1633.5" font-family="Helvetica,sans-Serif" font-size="10.00">&#45; board</text>
<text text-anchor="start" x="380" y="-1620.5" font-family="Helvetica,sans-Serif" font-size="10.00">&#45; player</text>
<text text-anchor="start" x="380" y="-1607.5" font-family="Helvetica,sans-Serif" font-size="10.00">&#45; boss</text>
<text text-anchor="start" x="380" y="-1594.5" font-family="Helvetica,sans-Serif" font-size="10.00">&#45; observers</text>
<text text-anchor="start" x="380" y="-1581.5" font-family="Helvetica,sans-Serif" font-size="10.00">&#45; hurtEntities</text>
<text text-anchor="start" x="380" y="-1568.5" font-family="Helvetica,sans-Serif" font-size="10.00">&#45; playerObserver</text>
<text text-anchor="start" x="380" y="-1555.5" font-family="Helvetica,sans-Serif" font-size="10.00">&#45; bossObserver</text>
<text text-anchor="start" x="380" y="-1542.5" font-family="Helvetica,sans-Serif" font-size="10.00">&#45; sizeX</text>
<text text-anchor="start" x="380" y="-1529.5" font-family="Helvetica,sans-Serif" font-size="10.00">&#45; sizeY</text>
<text text-anchor="start" x="380" y="-1516.5" font-family="Helvetica,sans-Serif" font-size="10.00">&#45; serialVersionUID</text>
<polyline fill="none" stroke="black" points="372,-1508.5 504,-1508.5 "/>
<text text-anchor="start" x="380" y="-1495.5" font-family="Helvetica,sans-Serif" font-size="10.00">+ World()</text>
<text text-anchor="start" x="380" y="-1482.5" font-family="Helvetica,sans-Serif" font-size="10.00">+ clone()</text>
<text text-anchor="start" x="380" y="-1469.5" font-family="Helvetica,sans-Serif" font-size="10.00">+ getX()</text>
<text text-anchor="start" x="380" y="-1456.5" font-family="Helvetica,sans-Serif" font-size="10.00">+ getY()</text>
<text text-anchor="start" x="380" y="-1443.5" font-family="Helvetica,sans-Serif" font-size="10.00">+ getHurtEntities()</text>
<text text-anchor="start" x="380" y="-1430.5" font-family="Helvetica,sans-Serif" font-size="10.00">+ subscribe()</text>
<text text-anchor="start" x="380" y="-1417.5" font-family="Helvetica,sans-Serif" font-size="10.00">+ unsubscribe()</text>
<text text-anchor="start" x="380" y="-1404.5" font-family="Helvetica,sans-Serif" font-size="10.00">+ add()</text>
<text text-anchor="start" x="380" y="-1391.5" font-family="Helvetica,sans-Serif" font-size="10.00">+ add()</text>
<text text-anchor="start" x="380" y="-1378.5" font-family="Helvetica,sans-Serif" font-size="10.00">+ add()</text>
<text text-anchor="start" x="380" y="-1365.5" font-family="Helvetica,sans-Serif" font-size="10.00">+ add()</text>
<text text-anchor="start" x="380" y="-1352.5" font-family="Helvetica,sans-Serif" font-size="10.00">+ remove()</text>
<text text-anchor="start" x="380" y="-1339.5" font-family="Helvetica,sans-Serif" font-size="10.00">+ remove()</text>
<text text-anchor="start" x="380" y="-1326.5" font-family="Helvetica,sans-Serif" font-size="10.00">+ getPlayer()</text>
<text text-anchor="start" x="380" y="-1313.5" font-family="Helvetica,sans-Serif" font-size="10.00">+ getBoss()</text>
<text text-anchor="start" x="380" y="-1300.5" font-family="Helvetica,sans-Serif" font-size="10.00">+ syncEvent()</text>
<text text-anchor="start" x="380" y="-1287.5" font-family="Helvetica,sans-Serif" font-size="10.00">+ replace()</text>
<text text-anchor="start" x="380" y="-1274.5" font-family="Helvetica,sans-Serif" font-size="10.00">~ addHurtEntity()</text>
<text text-anchor="start" x="380" y="-1261.5" font-family="Helvetica,sans-Serif" font-size="10.00">~ removeHurtEntity()</text>
<text text-anchor="start" x="380" y="-1248.5" font-family="Helvetica,sans-Serif" font-size="10.00">~ notifyChange()</text>
<text text-anchor="start" x="380" y="-1235.5" font-family="Helvetica,sans-Serif" font-size="10.00">~ notifyChange()</text>
<text text-anchor="start" x="380" y="-1222.5" font-family="Helvetica,sans-Serif" font-size="10.00">~ notifyChange()</text>
<text text-anchor="start" x="380" y="-1209.5" font-family="Helvetica,sans-Serif" font-size="10.00">~ notifyChange()</text>
<text text-anchor="start" x="380" y="-1196.5" font-family="Helvetica,sans-Serif" font-size="10.00">~ getEntityInPoint()</text>
<text text-anchor="start" x="380" y="-1183.5" font-family="Helvetica,sans-Serif" font-size="10.00"># move()</text>
<text text-anchor="start" x="380" y="-1170.5" font-family="Helvetica,sans-Serif" font-size="10.00"># moveDelta()</text>
<text text-anchor="start" x="380" y="-1157.5" font-family="Helvetica,sans-Serif" font-size="10.00"># clearView()</text>
<text text-anchor="start" x="380" y="-1144.5" font-family="Helvetica,sans-Serif" font-size="10.00">&#45; area()</text>
</a>
</g>
<!-- Node3&#45;&gt;Node1 -->
<g id="edge4" class="edge"><title>Node3&#45;&gt;Node1</title>
<path fill="none" stroke="#9a32cd" stroke-dasharray="5,2" d="M365.464,-1320.73C316.471,-1260.51 255.537,-1173.96 226,-1086 124.248,-782.998 252.831,-680.351 185,-368 183.684,-361.94 182.205,-355.821 180.591,-349.677"/>
<polygon fill="#9a32cd" stroke="#9a32cd" points="371.987,-1328.68 362.165,-1323.81 368.815,-1324.82 365.644,-1320.95 365.644,-1320.95 365.644,-1320.95 368.815,-1324.82 369.122,-1318.1 371.987,-1328.68 371.987,-1328.68"/>
<text text-anchor="middle" x="193" y="-916.5" font-family="Helvetica,sans-Serif" font-size="10.00">w</text>
</g>
<!-- Node11 -->
<g id="node22" class="node"><title>Node11</title>
<a xlink:href="classjdungeon_1_1core_1_1world_1_1_entity.html" target="_top" xlink:title="{jdungeon.core.world.Entity\n|&#45; w\l&#45; serialVersionUID\l|+ setWorld()\l+ getWorld()\l+ hitBy()\l+ hitsTo()\l+ near()\l+ clone()\l}">
<polygon fill="none" stroke="black" points="235,-944.5 235,-1085.5 367,-1085.5 367,-944.5 235,-944.5"/>
<text text-anchor="middle" x="301" y="-1072.5" font-family="Helvetica,sans-Serif" font-size="10.00">jdungeon.core.world.Entity</text>
<polyline fill="none" stroke="black" points="235,-1064.5 367,-1064.5 "/>
<text text-anchor="start" x="243" y="-1051.5" font-family="Helvetica,sans-Serif" font-size="10.00">&#45; w</text>
<text text-anchor="start" x="243" y="-1038.5" font-family="Helvetica,sans-Serif" font-size="10.00">&#45; serialVersionUID</text>
<polyline fill="none" stroke="black" points="235,-1030.5 367,-1030.5 "/>
<text text-anchor="start" x="243" y="-1017.5" font-family="Helvetica,sans-Serif" font-size="10.00">+ setWorld()</text>
<text text-anchor="start" x="243" y="-1004.5" font-family="Helvetica,sans-Serif" font-size="10.00">+ getWorld()</text>
<text text-anchor="start" x="243" y="-991.5" font-family="Helvetica,sans-Serif" font-size="10.00">+ hitBy()</text>
<text text-anchor="start" x="243" y="-978.5" font-family="Helvetica,sans-Serif" font-size="10.00">+ hitsTo()</text>
<text text-anchor="start" x="243" y="-965.5" font-family="Helvetica,sans-Serif" font-size="10.00">+ near()</text>
<text text-anchor="start" x="243" y="-952.5" font-family="Helvetica,sans-Serif" font-size="10.00">+ clone()</text>
</a>
</g>
<!-- Node3&#45;&gt;Node11 -->
<g id="edge28" class="edge"><title>Node3&#45;&gt;Node11</title>
<path fill="none" stroke="#9a32cd" stroke-dasharray="5,2" d="M368.553,-1205.82C353.31,-1162.77 338.13,-1119.89 326.032,-1085.71"/>
<polygon fill="#9a32cd" stroke="#9a32cd" points="371.908,-1215.3 364.329,-1207.38 370.239,-1210.59 368.571,-1205.87 368.571,-1205.87 368.571,-1205.87 370.239,-1210.59 372.813,-1204.37 371.908,-1215.3 371.908,-1215.3"/>
<text text-anchor="middle" x="338" y="-1108.5" font-family="Helvetica,sans-Serif" font-size="10.00">w</text>
</g>
<!-- Node4 -->
<g id="node6" class="node"><title>Node4</title>
<polygon fill="none" stroke="#bfbfbf" points="404.5,-2352.5 404.5,-2415.5 471.5,-2415.5 471.5,-2352.5 404.5,-2352.5"/>
<text text-anchor="middle" x="438" y="-2402.5" font-family="Helvetica,sans-Serif" font-size="10.00">Serializable</text>
<polyline fill="none" stroke="#bfbfbf" points="404.5,-2394.5 471.5,-2394.5 "/>
<text text-anchor="middle" x="438" y="-2381.5" font-family="Helvetica,sans-Serif" font-size="10.00"> </text>
<polyline fill="none" stroke="#bfbfbf" points="404.5,-2373.5 471.5,-2373.5 "/>
<text text-anchor="middle" x="438" y="-2360.5" font-family="Helvetica,sans-Serif" font-size="10.00"> </text>
</g>
<!-- Node4&#45;&gt;Node3 -->
<g id="edge6" class="edge"><title>Node4&#45;&gt;Node3</title>
<path fill="none" stroke="midnightblue" d="M438,-2342.38C438,-2228.34 438,-1903.6 438,-1667.6"/>
<polygon fill="none" stroke="midnightblue" points="434.5,-2342.44 438,-2352.44 441.5,-2342.44 434.5,-2342.44"/>
</g>
<!-- Node5 -->
<g id="node8" class="node"><title>Node5</title>
<a xlink:href="interfacejdungeon_1_1core_1_1world_1_1_vulnerable_observer.html" target="_top" xlink:title="{jdungeon.core.world.VulnerableObserver\n||+ onDeath()\l}">
<polygon fill="none" stroke="black" points="466,-2049.5 466,-2112.5 658,-2112.5 658,-2049.5 466,-2049.5"/>
<text text-anchor="middle" x="562" y="-2099.5" font-family="Helvetica,sans-Serif" font-size="10.00">jdungeon.core.world.VulnerableObserver</text>
<polyline fill="none" stroke="black" points="466,-2091.5 658,-2091.5 "/>
<text text-anchor="middle" x="562" y="-2078.5" font-family="Helvetica,sans-Serif" font-size="10.00"> </text>
<polyline fill="none" stroke="black" points="466,-2070.5 658,-2070.5 "/>
<text text-anchor="start" x="474" y="-2057.5" font-family="Helvetica,sans-Serif" font-size="10.00">+ onDeath()</text>
</a>
</g>
<!-- Node4&#45;&gt;Node5 -->
<g id="edge10" class="edge"><title>Node4&#45;&gt;Node5</title>
<path fill="none" stroke="midnightblue" d="M454.738,-2343.1C479.724,-2282.04 526.261,-2168.33 548.923,-2112.95"/>
<polygon fill="none" stroke="midnightblue" points="451.468,-2341.85 450.919,-2352.43 457.946,-2344.5 451.468,-2341.85"/>
</g>
<!-- Node6 -->
<g id="node11" class="node"><title>Node6</title>
<a xlink:href="classjdungeon_1_1core_1_1world_1_1_board.html" target="_top" xlink:title="{jdungeon.core.world.Board\n|&#45; name\l&#45; cells\l&#45; entities\l&#45; sizeY\l&#45; sizeX\l&#45; serialVersionUID\l&#45; MAX_SIZE\l&#45; MIN_SIZE\l|+ Board()\l+ getSizeY()\l+ getSizeX()\l+ replace()\l+ setName()\l+ getName()\l+ iterator()\l+ filter()\l# neighbours()\l# neighbours()\l# in()\l# in()\l# add()\l# add()\l# remove()\l# contains()\l# move()\l# move()\l# getEntityPos()\l&#45; initMatrix()\l&#45; isValidPoint()\l&#45; isValidPoint()\l&#45; warpTo()\l}">
<polygon fill="none" stroke="black" points="676,-1861 676,-2301 808,-2301 808,-1861 676,-1861"/>
<text text-anchor="middle" x="742" y="-2288" font-family="Helvetica,sans-Serif" font-size="10.00">jdungeon.core.world.Board</text>
<polyline fill="none" stroke="black" points="676,-2280 808,-2280 "/>
<text text-anchor="start" x="684" y="-2267" font-family="Helvetica,sans-Serif" font-size="10.00">&#45; name</text>
<text text-anchor="start" x="684" y="-2254" font-family="Helvetica,sans-Serif" font-size="10.00">&#45; cells</text>
<text text-anchor="start" x="684" y="-2241" font-family="Helvetica,sans-Serif" font-size="10.00">&#45; entities</text>
<text text-anchor="start" x="684" y="-2228" font-family="Helvetica,sans-Serif" font-size="10.00">&#45; sizeY</text>
<text text-anchor="start" x="684" y="-2215" font-family="Helvetica,sans-Serif" font-size="10.00">&#45; sizeX</text>
<text text-anchor="start" x="684" y="-2202" font-family="Helvetica,sans-Serif" font-size="10.00">&#45; serialVersionUID</text>
<text text-anchor="start" x="684" y="-2189" font-family="Helvetica,sans-Serif" font-size="10.00">&#45; MAX_SIZE</text>
<text text-anchor="start" x="684" y="-2176" font-family="Helvetica,sans-Serif" font-size="10.00">&#45; MIN_SIZE</text>
<polyline fill="none" stroke="black" points="676,-2168 808,-2168 "/>
<text text-anchor="start" x="684" y="-2155" font-family="Helvetica,sans-Serif" font-size="10.00">+ Board()</text>
<text text-anchor="start" x="684" y="-2142" font-family="Helvetica,sans-Serif" font-size="10.00">+ getSizeY()</text>
<text text-anchor="start" x="684" y="-2129" font-family="Helvetica,sans-Serif" font-size="10.00">+ getSizeX()</text>
<text text-anchor="start" x="684" y="-2116" font-family="Helvetica,sans-Serif" font-size="10.00">+ replace()</text>
<text text-anchor="start" x="684" y="-2103" font-family="Helvetica,sans-Serif" font-size="10.00">+ setName()</text>
<text text-anchor="start" x="684" y="-2090" font-family="Helvetica,sans-Serif" font-size="10.00">+ getName()</text>
<text text-anchor="start" x="684" y="-2077" font-family="Helvetica,sans-Serif" font-size="10.00">+ iterator()</text>
<text text-anchor="start" x="684" y="-2064" font-family="Helvetica,sans-Serif" font-size="10.00">+ filter()</text>
<text text-anchor="start" x="684" y="-2051" font-family="Helvetica,sans-Serif" font-size="10.00"># neighbours()</text>
<text text-anchor="start" x="684" y="-2038" font-family="Helvetica,sans-Serif" font-size="10.00"># neighbours()</text>
<text text-anchor="start" x="684" y="-2025" font-family="Helvetica,sans-Serif" font-size="10.00"># in()</text>
<text text-anchor="start" x="684" y="-2012" font-family="Helvetica,sans-Serif" font-size="10.00"># in()</text>
<text text-anchor="start" x="684" y="-1999" font-family="Helvetica,sans-Serif" font-size="10.00"># add()</text>
<text text-anchor="start" x="684" y="-1986" font-family="Helvetica,sans-Serif" font-size="10.00"># add()</text>
<text text-anchor="start" x="684" y="-1973" font-family="Helvetica,sans-Serif" font-size="10.00"># remove()</text>
<text text-anchor="start" x="684" y="-1960" font-family="Helvetica,sans-Serif" font-size="10.00"># contains()</text>
<text text-anchor="start" x="684" y="-1947" font-family="Helvetica,sans-Serif" font-size="10.00"># move()</text>
<text text-anchor="start" x="684" y="-1934" font-family="Helvetica,sans-Serif" font-size="10.00"># move()</text>
<text text-anchor="start" x="684" y="-1921" font-family="Helvetica,sans-Serif" font-size="10.00"># getEntityPos()</text>
<text text-anchor="start" x="684" y="-1908" font-family="Helvetica,sans-Serif" font-size="10.00">&#45; initMatrix()</text>
<text text-anchor="start" x="684" y="-1895" font-family="Helvetica,sans-Serif" font-size="10.00">&#45; isValidPoint()</text>
<text text-anchor="start" x="684" y="-1882" font-family="Helvetica,sans-Serif" font-size="10.00">&#45; isValidPoint()</text>
<text text-anchor="start" x="684" y="-1869" font-family="Helvetica,sans-Serif" font-size="10.00">&#45; warpTo()</text>
</a>
</g>
<!-- Node4&#45;&gt;Node6 -->
<g id="edge14" class="edge"><title>Node4&#45;&gt;Node6</title>
<path fill="none" stroke="midnightblue" d="M481.726,-2379.7C532.857,-2372.4 616.86,-2352.98 667,-2302 670.125,-2298.82 673.12,-2295.51 675.99,-2292.08"/>
<polygon fill="none" stroke="midnightblue" points="481.099,-2376.25 471.649,-2381.04 482.024,-2383.19 481.099,-2376.25"/>
</g>
<!-- Node4&#45;&gt;Node11 -->
<g id="edge26" class="edge"><title>Node4&#45;&gt;Node11</title>
<path fill="none" stroke="midnightblue" d="M394.126,-2376.38C327.634,-2363.84 206.373,-2336.73 181,-2302 38.1081,-2106.42 221.538,-1325.52 282.549,-1085.53"/>
<polygon fill="none" stroke="midnightblue" points="393.834,-2379.88 404.304,-2378.27 395.11,-2373 393.834,-2379.88"/>
</g>
<!-- Node16 -->
<g id="node36" class="node"><title>Node16</title>
<a xlink:href="classjdungeon_1_1core_1_1world_1_1_point.html" target="_top" xlink:title="{jdungeon.core.world.Point\n|&#45; x\l&#45; y\l&#45; serialVersionUID\l|+ Point()\l+ translate()\l+ getX()\l+ getY()\l+ equals()\l+ clone()\l}">
<polygon fill="none" stroke="black" points="-0.5,-1687 -0.5,-1841 128.5,-1841 128.5,-1687 -0.5,-1687"/>
<text text-anchor="middle" x="64" y="-1828" font-family="Helvetica,sans-Serif" font-size="10.00">jdungeon.core.world.Point</text>
<polyline fill="none" stroke="black" points="-0.5,-1820 128.5,-1820 "/>
<text text-anchor="start" x="7.5" y="-1807" font-family="Helvetica,sans-Serif" font-size="10.00">&#45; x</text>
<text text-anchor="start" x="7.5" y="-1794" font-family="Helvetica,sans-Serif" font-size="10.00">&#45; y</text>
<text text-anchor="start" x="7.5" y="-1781" font-family="Helvetica,sans-Serif" font-size="10.00">&#45; serialVersionUID</text>
<polyline fill="none" stroke="black" points="-0.5,-1773 128.5,-1773 "/>
<text text-anchor="start" x="7.5" y="-1760" font-family="Helvetica,sans-Serif" font-size="10.00">+ Point()</text>
<text text-anchor="start" x="7.5" y="-1747" font-family="Helvetica,sans-Serif" font-size="10.00">+ translate()</text>
<text text-anchor="start" x="7.5" y="-1734" font-family="Helvetica,sans-Serif" font-size="10.00">+ getX()</text>
<text text-anchor="start" x="7.5" y="-1721" font-family="Helvetica,sans-Serif" font-size="10.00">+ getY()</text>
<text text-anchor="start" x="7.5" y="-1708" font-family="Helvetica,sans-Serif" font-size="10.00">+ equals()</text>
<text text-anchor="start" x="7.5" y="-1695" font-family="Helvetica,sans-Serif" font-size="10.00">+ clone()</text>
</a>
</g>
<!-- Node4&#45;&gt;Node16 -->
<g id="edge44" class="edge"><title>Node4&#45;&gt;Node16</title>
<path fill="none" stroke="midnightblue" d="M394.315,-2382.55C321.867,-2379.2 181.5,-2368.33 148,-2334 18.9318,-2201.74 32.4064,-1963.51 49.9048,-1841.15"/>
<polygon fill="none" stroke="midnightblue" points="394.347,-2386.06 404.49,-2383 394.651,-2379.06 394.347,-2386.06"/>
</g>
<!-- Node5&#45;&gt;Node3 -->
<g id="edge8" class="edge"><title>Node5&#45;&gt;Node3</title>
<path fill="none" stroke="#9a32cd" stroke-dasharray="5,2" d="M554.316,-2038.92C540.873,-1965.31 512.08,-1807.65 486.506,-1667.61"/>
<polygon fill="#9a32cd" stroke="#9a32cd" points="556.186,-2049.16 549.962,-2040.13 555.287,-2044.24 554.389,-2039.32 554.389,-2039.32 554.389,-2039.32 555.287,-2044.24 558.816,-2038.52 556.186,-2049.16 556.186,-2049.16"/>
<text text-anchor="middle" x="551.5" y="-1768" font-family="Helvetica,sans-Serif" font-size="10.00">bossObserver</text>
<text text-anchor="middle" x="551.5" y="-1755" font-family="Helvetica,sans-Serif" font-size="10.00">playerObserver</text>
</g>
<!-- Node6&#45;&gt;Node3 -->
<g id="edge12" class="edge"><title>Node6&#45;&gt;Node3</title>
<path fill="none" stroke="#9a32cd" stroke-dasharray="5,2" d="M672.334,-1873.77C670.56,-1869.13 668.781,-1864.53 667,-1860 620.114,-1740.64 553.358,-1610.38 504.01,-1519.39"/>
<polygon fill="#9a32cd" stroke="#9a32cd" points="675.966,-1883.36 668.215,-1875.6 674.194,-1878.68 672.423,-1874.01 672.423,-1874.01 672.423,-1874.01 674.194,-1878.68 676.631,-1872.41 675.966,-1883.36 675.966,-1883.36"/>
<text text-anchor="middle" x="668.5" y="-1761.5" font-family="Helvetica,sans-Serif" font-size="10.00">board</text>
</g>
<!-- Node7 -->
<g id="node14" class="node"><title>Node7</title>
<polygon fill="none" stroke="#bfbfbf" points="634.5,-2352.5 634.5,-2415.5 741.5,-2415.5 741.5,-2352.5 634.5,-2352.5"/>
<text text-anchor="middle" x="688" y="-2402.5" font-family="Helvetica,sans-Serif" font-size="10.00">Map&lt; Entity, Point &gt;</text>
<polyline fill="none" stroke="#bfbfbf" points="634.5,-2394.5 741.5,-2394.5 "/>
<text text-anchor="middle" x="688" y="-2381.5" font-family="Helvetica,sans-Serif" font-size="10.00"> </text>
<polyline fill="none" stroke="#bfbfbf" points="634.5,-2373.5 741.5,-2373.5 "/>
<text text-anchor="middle" x="688" y="-2360.5" font-family="Helvetica,sans-Serif" font-size="10.00"> </text>
</g>
<!-- Node7&#45;&gt;Node6 -->
<g id="edge16" class="edge"><title>Node7&#45;&gt;Node6</title>
<path fill="none" stroke="#9a32cd" stroke-dasharray="5,2" d="M695.415,-2342.4C697.558,-2330.37 700.059,-2316.34 702.767,-2301.14"/>
<polygon fill="#9a32cd" stroke="#9a32cd" points="693.626,-2352.43 690.951,-2341.8 694.503,-2347.51 695.381,-2342.59 695.381,-2342.59 695.381,-2342.59 694.503,-2347.51 699.811,-2343.38 693.626,-2352.43 693.626,-2352.43"/>
<text text-anchor="middle" x="714" y="-2324.5" font-family="Helvetica,sans-Serif" font-size="10.00">entities</text>
</g>
<!-- Node8 -->
<g id="node16" class="node"><title>Node8</title>
<polygon fill="none" stroke="#bfbfbf" points="758.5,-2352.5 758.5,-2415.5 833.5,-2415.5 833.5,-2352.5 758.5,-2352.5"/>
<text text-anchor="middle" x="796" y="-2402.5" font-family="Helvetica,sans-Serif" font-size="10.00">Set&lt; Entity &gt;</text>
<polyline fill="none" stroke="#bfbfbf" points="758.5,-2394.5 833.5,-2394.5 "/>
<text text-anchor="middle" x="796" y="-2381.5" font-family="Helvetica,sans-Serif" font-size="10.00"> </text>
<polyline fill="none" stroke="#bfbfbf" points="758.5,-2373.5 833.5,-2373.5 "/>
<text text-anchor="middle" x="796" y="-2360.5" font-family="Helvetica,sans-Serif" font-size="10.00"> </text>
</g>
<!-- Node8&#45;&gt;Node6 -->
<g id="edge18" class="edge"><title>Node8&#45;&gt;Node6</title>
<path fill="none" stroke="#9a32cd" stroke-dasharray="5,2" d="M788.585,-2342.4C786.442,-2330.37 783.941,-2316.34 781.233,-2301.14"/>
<polygon fill="#9a32cd" stroke="#9a32cd" points="790.374,-2352.43 784.189,-2343.38 789.497,-2347.51 788.619,-2342.59 788.619,-2342.59 788.619,-2342.59 789.497,-2347.51 793.049,-2341.8 790.374,-2352.43 790.374,-2352.43"/>
<text text-anchor="middle" x="796.5" y="-2324.5" font-family="Helvetica,sans-Serif" font-size="10.00">cells</text>
</g>
<!-- Node9 -->
<g id="node18" class="node"><title>Node9</title>
<a xlink:href="classjdungeon_1_1core_1_1world_1_1creatures_1_1_monster.html" target="_top" xlink:title="{jdungeon.core.world.creatures.Monster\n|&#45; serialVersionUID\l|+ Monster()\l+ awardExperience()\l+ getExperience()\l+ hurtBy()\l&#45; computeHealth()\l&#45; computeStrength()\l}">
<polygon fill="none" stroke="black" points="313.5,-111 313.5,-239 498.5,-239 498.5,-111 313.5,-111"/>
<text text-anchor="middle" x="406" y="-226" font-family="Helvetica,sans-Serif" font-size="10.00">jdungeon.core.world.creatures.Monster</text>
<polyline fill="none" stroke="black" points="313.5,-218 498.5,-218 "/>
<text text-anchor="start" x="321.5" y="-205" font-family="Helvetica,sans-Serif" font-size="10.00">&#45; serialVersionUID</text>
<polyline fill="none" stroke="black" points="313.5,-197 498.5,-197 "/>
<text text-anchor="start" x="321.5" y="-184" font-family="Helvetica,sans-Serif" font-size="10.00">+ Monster()</text>
<text text-anchor="start" x="321.5" y="-171" font-family="Helvetica,sans-Serif" font-size="10.00">+ awardExperience()</text>
<text text-anchor="start" x="321.5" y="-158" font-family="Helvetica,sans-Serif" font-size="10.00">+ getExperience()</text>
<text text-anchor="start" x="321.5" y="-145" font-family="Helvetica,sans-Serif" font-size="10.00">+ hurtBy()</text>
<text text-anchor="start" x="321.5" y="-132" font-family="Helvetica,sans-Serif" font-size="10.00">&#45; computeHealth()</text>
<text text-anchor="start" x="321.5" y="-119" font-family="Helvetica,sans-Serif" font-size="10.00">&#45; computeStrength()</text>
</a>
</g>
<!-- Node9&#45;&gt;Node3 -->
<g id="edge20" class="edge"><title>Node9&#45;&gt;Node3</title>
<path fill="none" stroke="#9a32cd" stroke-dasharray="5,2" d="M429.606,-249.003C476.101,-404.22 571.401,-775.167 528,-1086 522.715,-1123.85 514.031,-1163.54 504.091,-1201.5"/>
<polygon fill="#9a32cd" stroke="#9a32cd" points="426.616,-239.094 433.813,-247.368 428.06,-243.881 429.505,-248.668 429.505,-248.668 429.505,-248.668 428.06,-243.881 425.197,-249.968 426.616,-239.094 426.616,-239.094"/>
<text text-anchor="middle" x="550" y="-916.5" font-family="Helvetica,sans-Serif" font-size="10.00">boss</text>
</g>
<!-- Node10 -->
<g id="node20" class="node"><title>Node10</title>
<a xlink:href="classjdungeon_1_1core_1_1world_1_1_vulnerable.html" target="_top" xlink:title="{jdungeon.core.world.Vulnerable\n|&#45; HP\l&#45; maxHP\l&#45; level\l&#45; strength\l&#45; strengthBonus\l&#45; observers\l&#45; serialVersionUID\l|+ Vulnerable()\l+ getLevel()\l+ getHP()\l+ hitBy()\l+ hitsTo()\l+ heal()\l+ hurtBy()\l+ getStrength()\l+ getRawStrength()\l+ getStrengthBonus()\l+ setStrength()\l+ setStrengthBonus()\l+ setMaxHealth()\l+ getMaxHealth()\l+ setLevel()\l+ awardExperience()\l+ getExperience()\l+ subscribe()\l+ unsubscribe()\l# die()\l}">
<polygon fill="none" stroke="black" points="330,-505 330,-893 482,-893 482,-505 330,-505"/>
<text text-anchor="middle" x="406" y="-880" font-family="Helvetica,sans-Serif" font-size="10.00">jdungeon.core.world.Vulnerable</text>
<polyline fill="none" stroke="black" points="330,-872 482,-872 "/>
<text text-anchor="start" x="338" y="-859" font-family="Helvetica,sans-Serif" font-size="10.00">&#45; HP</text>
<text text-anchor="start" x="338" y="-846" font-family="Helvetica,sans-Serif" font-size="10.00">&#45; maxHP</text>
<text text-anchor="start" x="338" y="-833" font-family="Helvetica,sans-Serif" font-size="10.00">&#45; level</text>
<text text-anchor="start" x="338" y="-820" font-family="Helvetica,sans-Serif" font-size="10.00">&#45; strength</text>
<text text-anchor="start" x="338" y="-807" font-family="Helvetica,sans-Serif" font-size="10.00">&#45; strengthBonus</text>
<text text-anchor="start" x="338" y="-794" font-family="Helvetica,sans-Serif" font-size="10.00">&#45; observers</text>
<text text-anchor="start" x="338" y="-781" font-family="Helvetica,sans-Serif" font-size="10.00">&#45; serialVersionUID</text>
<polyline fill="none" stroke="black" points="330,-773 482,-773 "/>
<text text-anchor="start" x="338" y="-760" font-family="Helvetica,sans-Serif" font-size="10.00">+ Vulnerable()</text>
<text text-anchor="start" x="338" y="-747" font-family="Helvetica,sans-Serif" font-size="10.00">+ getLevel()</text>
<text text-anchor="start" x="338" y="-734" font-family="Helvetica,sans-Serif" font-size="10.00">+ getHP()</text>
<text text-anchor="start" x="338" y="-721" font-family="Helvetica,sans-Serif" font-size="10.00">+ hitBy()</text>
<text text-anchor="start" x="338" y="-708" font-family="Helvetica,sans-Serif" font-size="10.00">+ hitsTo()</text>
<text text-anchor="start" x="338" y="-695" font-family="Helvetica,sans-Serif" font-size="10.00">+ heal()</text>
<text text-anchor="start" x="338" y="-682" font-family="Helvetica,sans-Serif" font-size="10.00">+ hurtBy()</text>
<text text-anchor="start" x="338" y="-669" font-family="Helvetica,sans-Serif" font-size="10.00">+ getStrength()</text>
<text text-anchor="start" x="338" y="-656" font-family="Helvetica,sans-Serif" font-size="10.00">+ getRawStrength()</text>
<text text-anchor="start" x="338" y="-643" font-family="Helvetica,sans-Serif" font-size="10.00">+ getStrengthBonus()</text>
<text text-anchor="start" x="338" y="-630" font-family="Helvetica,sans-Serif" font-size="10.00">+ setStrength()</text>
<text text-anchor="start" x="338" y="-617" font-family="Helvetica,sans-Serif" font-size="10.00">+ setStrengthBonus()</text>
<text text-anchor="start" x="338" y="-604" font-family="Helvetica,sans-Serif" font-size="10.00">+ setMaxHealth()</text>
<text text-anchor="start" x="338" y="-591" font-family="Helvetica,sans-Serif" font-size="10.00">+ getMaxHealth()</text>
<text text-anchor="start" x="338" y="-578" font-family="Helvetica,sans-Serif" font-size="10.00">+ setLevel()</text>
<text text-anchor="start" x="338" y="-565" font-family="Helvetica,sans-Serif" font-size="10.00">+ awardExperience()</text>
<text text-anchor="start" x="338" y="-552" font-family="Helvetica,sans-Serif" font-size="10.00">+ getExperience()</text>
<text text-anchor="start" x="338" y="-539" font-family="Helvetica,sans-Serif" font-size="10.00">+ subscribe()</text>
<text text-anchor="start" x="338" y="-526" font-family="Helvetica,sans-Serif" font-size="10.00">+ unsubscribe()</text>
<text text-anchor="start" x="338" y="-513" font-family="Helvetica,sans-Serif" font-size="10.00"># die()</text>
</a>
</g>
<!-- Node10&#45;&gt;Node1 -->
<g id="edge40" class="edge"><title>Node10&#45;&gt;Node1</title>
<path fill="none" stroke="#9a32cd" stroke-dasharray="5,2" d="M324.953,-553.086C292.754,-495.354 255.282,-428.463 221,-368 208.322,-345.64 194.74,-321.873 181.58,-298.939"/>
<polygon fill="#9a32cd" stroke="#9a32cd" points="329.869,-561.903 321.069,-555.36 327.434,-557.536 324.999,-553.169 324.999,-553.169 324.999,-553.169 327.434,-557.536 328.929,-550.977 329.869,-561.903 329.869,-561.903"/>
<text text-anchor="middle" x="297" y="-424.5" font-family="Helvetica,sans-Serif" font-size="10.00">enemy</text>
</g>
<!-- Node10&#45;&gt;Node9 -->
<g id="edge22" class="edge"><title>Node10&#45;&gt;Node9</title>
<path fill="none" stroke="midnightblue" d="M406,-494.797C406,-403.695 406,-302.781 406,-239.148"/>
<polygon fill="none" stroke="midnightblue" points="402.5,-494.998 406,-504.999 409.5,-494.999 402.5,-494.998"/>
</g>
<!-- Node14 -->
<g id="node30" class="node"><title>Node14</title>
<a xlink:href="classjdungeon_1_1core_1_1world_1_1_player.html" target="_top" xlink:title="{jdungeon.core.world.Player\n|&#45; experience\l&#45; name\l&#45; serialVersionUID\l|+ Player()\l+ setWorld()\l+ getName()\l+ setName()\l+ getExperienceForNextLevel()\l+ getExperience()\l+ moveLeft()\l+ moveRight()\l+ moveUp()\l+ moveDown()\l+ awardExperience()\l&#45; move()\l}">
<polygon fill="none" stroke="black" points="516,-59 516,-291 668,-291 668,-59 516,-59"/>
<text text-anchor="middle" x="592" y="-278" font-family="Helvetica,sans-Serif" font-size="10.00">jdungeon.core.world.Player</text>
<polyline fill="none" stroke="black" points="516,-270 668,-270 "/>
<text text-anchor="start" x="524" y="-257" font-family="Helvetica,sans-Serif" font-size="10.00">&#45; experience</text>
<text text-anchor="start" x="524" y="-244" font-family="Helvetica,sans-Serif" font-size="10.00">&#45; name</text>
<text text-anchor="start" x="524" y="-231" font-family="Helvetica,sans-Serif" font-size="10.00">&#45; serialVersionUID</text>
<polyline fill="none" stroke="black" points="516,-223 668,-223 "/>
<text text-anchor="start" x="524" y="-210" font-family="Helvetica,sans-Serif" font-size="10.00">+ Player()</text>
<text text-anchor="start" x="524" y="-197" font-family="Helvetica,sans-Serif" font-size="10.00">+ setWorld()</text>
<text text-anchor="start" x="524" y="-184" font-family="Helvetica,sans-Serif" font-size="10.00">+ getName()</text>
<text text-anchor="start" x="524" y="-171" font-family="Helvetica,sans-Serif" font-size="10.00">+ setName()</text>
<text text-anchor="start" x="524" y="-158" font-family="Helvetica,sans-Serif" font-size="10.00">+ getExperienceForNextLevel()</text>
<text text-anchor="start" x="524" y="-145" font-family="Helvetica,sans-Serif" font-size="10.00">+ getExperience()</text>
<text text-anchor="start" x="524" y="-132" font-family="Helvetica,sans-Serif" font-size="10.00">+ moveLeft()</text>
<text text-anchor="start" x="524" y="-119" font-family="Helvetica,sans-Serif" font-size="10.00">+ moveRight()</text>
<text text-anchor="start" x="524" y="-106" font-family="Helvetica,sans-Serif" font-size="10.00">+ moveUp()</text>
<text text-anchor="start" x="524" y="-93" font-family="Helvetica,sans-Serif" font-size="10.00">+ moveDown()</text>
<text text-anchor="start" x="524" y="-80" font-family="Helvetica,sans-Serif" font-size="10.00">+ awardExperience()</text>
<text text-anchor="start" x="524" y="-67" font-family="Helvetica,sans-Serif" font-size="10.00">&#45; move()</text>
</a>
</g>
<!-- Node10&#45;&gt;Node14 -->
<g id="edge36" class="edge"><title>Node10&#45;&gt;Node14</title>
<path fill="none" stroke="midnightblue" d="M478.314,-495.276C502.873,-426.09 529.458,-351.193 550.741,-291.234"/>
<polygon fill="none" stroke="midnightblue" points="474.91,-494.404 474.863,-504.999 481.507,-496.745 474.91,-494.404"/>
</g>
<!-- Node11&#45;&gt;Node10 -->
<g id="edge24" class="edge"><title>Node11&#45;&gt;Node10</title>
<path fill="none" stroke="midnightblue" d="M327.686,-934.688C332.023,-921.636 336.673,-907.643 341.464,-893.224"/>
<polygon fill="none" stroke="midnightblue" points="324.265,-933.883 324.433,-944.477 330.908,-936.091 324.265,-933.883"/>
</g>
<!-- Node12 -->
<g id="node26" class="node"><title>Node12</title>
<polygon fill="none" stroke="#bfbfbf" points="384.5,-983.5 384.5,-1046.5 519.5,-1046.5 519.5,-983.5 384.5,-983.5"/>
<text text-anchor="middle" x="452" y="-1033.5" font-family="Helvetica,sans-Serif" font-size="10.00">Set&lt; VulnerableObserver &gt;</text>
<polyline fill="none" stroke="#bfbfbf" points="384.5,-1025.5 519.5,-1025.5 "/>
<text text-anchor="middle" x="452" y="-1012.5" font-family="Helvetica,sans-Serif" font-size="10.00"> </text>
<polyline fill="none" stroke="#bfbfbf" points="384.5,-1004.5 519.5,-1004.5 "/>
<text text-anchor="middle" x="452" y="-991.5" font-family="Helvetica,sans-Serif" font-size="10.00"> </text>
</g>
<!-- Node12&#45;&gt;Node10 -->
<g id="edge30" class="edge"><title>Node12&#45;&gt;Node10</title>
<path fill="none" stroke="#9a32cd" stroke-dasharray="5,2" d="M445.908,-973.147C442.749,-951.45 438.64,-923.226 434.263,-893.155"/>
<polygon fill="#9a32cd" stroke="#9a32cd" points="447.379,-983.254 441.485,-974.006 446.658,-978.306 445.938,-973.358 445.938,-973.358 445.938,-973.358 446.658,-978.306 450.391,-972.71 447.379,-983.254 447.379,-983.254"/>
<text text-anchor="middle" x="459.5" y="-916.5" font-family="Helvetica,sans-Serif" font-size="10.00">observers</text>
</g>
<!-- Node13 -->
<g id="node28" class="node"><title>Node13</title>
<polygon fill="none" stroke="#bfbfbf" points="190,-2049.5 190,-2112.5 298,-2112.5 298,-2049.5 190,-2049.5"/>
<text text-anchor="middle" x="244" y="-2099.5" font-family="Helvetica,sans-Serif" font-size="10.00">Set&lt; MapObserver &gt;</text>
<polyline fill="none" stroke="#bfbfbf" points="190,-2091.5 298,-2091.5 "/>
<text text-anchor="middle" x="244" y="-2078.5" font-family="Helvetica,sans-Serif" font-size="10.00"> </text>
<polyline fill="none" stroke="#bfbfbf" points="190,-2070.5 298,-2070.5 "/>
<text text-anchor="middle" x="244" y="-2057.5" font-family="Helvetica,sans-Serif" font-size="10.00"> </text>
</g>
<!-- Node13&#45;&gt;Node3 -->
<g id="edge32" class="edge"><title>Node13&#45;&gt;Node3</title>
<path fill="none" stroke="#9a32cd" stroke-dasharray="5,2" d="M248.289,-2039.3C256.487,-1966.43 277.035,-1811.72 315,-1686 330.028,-1636.23 351.266,-1583.52 371.872,-1537.2"/>
<polygon fill="#9a32cd" stroke="#9a32cd" points="247.168,-2049.44 243.794,-2039.01 247.717,-2044.47 248.266,-2039.5 248.266,-2039.5 248.266,-2039.5 247.717,-2044.47 252.739,-2040 247.168,-2049.44 247.168,-2049.44"/>
<text text-anchor="middle" x="336.5" y="-1761.5" font-family="Helvetica,sans-Serif" font-size="10.00">observers</text>
</g>
<!-- Node14&#45;&gt;Node3 -->
<g id="edge34" class="edge"><title>Node14&#45;&gt;Node3</title>
<path fill="none" stroke="#9a32cd" stroke-dasharray="5,2" d="M604.127,-301.139C617.572,-485.415 626.93,-836.86 538,-1118 527.516,-1151.14 515.731,-1186.23 504.029,-1220.02"/>
<polygon fill="#9a32cd" stroke="#9a32cd" points="603.381,-291.139 608.612,-300.777 603.753,-296.125 604.125,-301.111 604.125,-301.111 604.125,-301.111 603.753,-296.125 599.637,-301.446 603.381,-291.139 603.381,-291.139"/>
<text text-anchor="middle" x="597.5" y="-916.5" font-family="Helvetica,sans-Serif" font-size="10.00">player</text>
</g>
<!-- Node15 -->
<g id="node33" class="node"><title>Node15</title>
<polygon fill="none" stroke="#bfbfbf" points="315.5,-2049.5 315.5,-2112.5 410.5,-2112.5 410.5,-2049.5 315.5,-2049.5"/>
<text text-anchor="middle" x="363" y="-2099.5" font-family="Helvetica,sans-Serif" font-size="10.00">Set&lt; Vulnerable &gt;</text>
<polyline fill="none" stroke="#bfbfbf" points="315.5,-2091.5 410.5,-2091.5 "/>
<text text-anchor="middle" x="363" y="-2078.5" font-family="Helvetica,sans-Serif" font-size="10.00"> </text>
<polyline fill="none" stroke="#bfbfbf" points="315.5,-2070.5 410.5,-2070.5 "/>
<text text-anchor="middle" x="363" y="-2057.5" font-family="Helvetica,sans-Serif" font-size="10.00"> </text>
</g>
<!-- Node15&#45;&gt;Node3 -->
<g id="edge38" class="edge"><title>Node15&#45;&gt;Node3</title>
<path fill="none" stroke="#9a32cd" stroke-dasharray="5,2" d="M361.519,-2039.29C359.543,-1967.02 357.953,-1813.97 374,-1686 374.755,-1679.98 375.579,-1673.9 376.465,-1667.79"/>
<polygon fill="#9a32cd" stroke="#9a32cd" points="361.812,-2049.35 357.023,-2039.49 361.667,-2044.35 361.521,-2039.36 361.521,-2039.36 361.521,-2039.36 361.667,-2044.35 366.019,-2039.23 361.812,-2049.35 361.812,-2049.35"/>
<text text-anchor="middle" x="399" y="-1761.5" font-family="Helvetica,sans-Serif" font-size="10.00">hurtEntities</text>
</g>
<!-- Node16&#45;&gt;Node1 -->
<g id="edge42" class="edge"><title>Node16&#45;&gt;Node1</title>
<path fill="none" stroke="#9a32cd" stroke-dasharray="5,2" d="M55.4379,-1676.4C43.9573,-1551.17 25,-1313.7 25,-1111 25,-1111 25,-1111 25,-699 25,-551.325 26.8509,-513.158 54,-368 55.1385,-361.913 56.3883,-355.742 57.7286,-349.528"/>
<polygon fill="#9a32cd" stroke="#9a32cd" points="56.3878,-1686.69 50.9877,-1677.14 55.9282,-1681.71 55.4687,-1676.73 55.4687,-1676.73 55.4687,-1676.73 55.9282,-1681.71 59.9496,-1676.32 56.3878,-1686.69 56.3878,-1686.69"/>
<text text-anchor="middle" x="60" y="-1019" font-family="Helvetica,sans-Serif" font-size="10.00">currentubication</text>
<text text-anchor="middle" x="60" y="-1006" font-family="Helvetica,sans-Serif" font-size="10.00">lastubication</text>
</g>
<!-- Node17 -->
<g id="node39" class="node"><title>Node17</title>
<polygon fill="none" stroke="#bfbfbf" points="116.5,-667.5 116.5,-730.5 161.5,-730.5 161.5,-667.5 116.5,-667.5"/>
<text text-anchor="middle" x="139" y="-717.5" font-family="Helvetica,sans-Serif" font-size="10.00">JLabel</text>
<polyline fill="none" stroke="#bfbfbf" points="116.5,-709.5 161.5,-709.5 "/>
<text text-anchor="middle" x="139" y="-696.5" font-family="Helvetica,sans-Serif" font-size="10.00"> </text>
<polyline fill="none" stroke="#bfbfbf" points="116.5,-688.5 161.5,-688.5 "/>
<text text-anchor="middle" x="139" y="-675.5" font-family="Helvetica,sans-Serif" font-size="10.00"> </text>
</g>
<!-- Node17&#45;&gt;Node1 -->
<g id="edge46" class="edge"><title>Node17&#45;&gt;Node1</title>
<path fill="none" stroke="#9a32cd" stroke-dasharray="5,2" d="M136.698,-657.4C133.048,-591.447 125.726,-459.148 119.672,-349.756"/>
<polygon fill="#9a32cd" stroke="#9a32cd" points="137.251,-667.402 132.205,-657.665 136.975,-662.409 136.699,-657.417 136.699,-657.417 136.699,-657.417 136.975,-662.409 141.192,-657.168 137.251,-667.402 137.251,-667.402"/>
<text text-anchor="middle" x="154" y="-476.5" font-family="Helvetica,sans-Serif" font-size="10.00">enemystr</text>
<text text-anchor="middle" x="154" y="-463.5" font-family="Helvetica,sans-Serif" font-size="10.00">playerhp</text>
<text text-anchor="middle" x="154" y="-450.5" font-family="Helvetica,sans-Serif" font-size="10.00">enemyhp</text>
<text text-anchor="middle" x="154" y="-437.5" font-family="Helvetica,sans-Serif" font-size="10.00">playerexp</text>
<text text-anchor="middle" x="154" y="-424.5" font-family="Helvetica,sans-Serif" font-size="10.00">playerlvl</text>
<text text-anchor="middle" x="154" y="-411.5" font-family="Helvetica,sans-Serif" font-size="10.00">enemylvl</text>
<text text-anchor="middle" x="154" y="-398.5" font-family="Helvetica,sans-Serif" font-size="10.00">playerstr</text>
<text text-anchor="middle" x="154" y="-385.5" font-family="Helvetica,sans-Serif" font-size="10.00">enemyname</text>
<text text-anchor="middle" x="154" y="-372.5" font-family="Helvetica,sans-Serif" font-size="10.00">playername</text>
</g>
</g>
</svg>
