<?xml version="1.0" encoding="UTF-8" standalone="no"?>
<!DOCTYPE svg PUBLIC "-//W3C//DTD SVG 1.1//EN"
 "http://www.w3.org/Graphics/SVG/1.1/DTD/svg11.dtd">
<!-- Generated by graphviz version 2.26.3 (20100126.1600)
 -->
<!-- Title: G Pages: 1 -->
<svg width="798pt" height="1932pt"
 viewBox="0.00 0.00 798.34 1932.00" xmlns="http://www.w3.org/2000/svg" xmlns:xlink="http://www.w3.org/1999/xlink">
<g id="graph1" class="graph" transform="scale(1 1) rotate(0) translate(4 1928)">
<title>G</title>
<!-- Node1 -->
<g id="node1" class="node"><title>Node1</title>
<polygon fill="#bfbfbf" stroke="black" points="324.339,-1009 324.339,-1137 476.339,-1137 476.339,-1009 324.339,-1009"/>
<text text-anchor="middle" x="400.339" y="-1124" font-family="Helvetica,sans-Serif" font-size="10.00">jdungeon.core.world.filter.Entry</text>
<polyline fill="none" stroke="black" points="324.339,-1116 476.339,-1116 "/>
<text text-anchor="start" x="332.339" y="-1103" font-family="Helvetica,sans-Serif" font-size="10.00">&#45; p</text>
<text text-anchor="start" x="332.339" y="-1090" font-family="Helvetica,sans-Serif" font-size="10.00">&#45; entity</text>
<polyline fill="none" stroke="black" points="324.339,-1082 476.339,-1082 "/>
<text text-anchor="start" x="332.339" y="-1069" font-family="Helvetica,sans-Serif" font-size="10.00">+ Entry()</text>
<text text-anchor="start" x="332.339" y="-1056" font-family="Helvetica,sans-Serif" font-size="10.00">+ Entry()</text>
<text text-anchor="start" x="332.339" y="-1043" font-family="Helvetica,sans-Serif" font-size="10.00">+ getPoint()</text>
<text text-anchor="start" x="332.339" y="-1030" font-family="Helvetica,sans-Serif" font-size="10.00">+ getEntity()</text>
<text text-anchor="start" x="332.339" y="-1017" font-family="Helvetica,sans-Serif" font-size="10.00">~ getEntity()</text>
</g>
<!-- Node2 -->
<g id="node2" class="node"><title>Node2</title>
<a xlink:href="classjdungeon_1_1core_1_1world_1_1_entity.html" target="_top" xlink:title="{jdungeon.core.world.Entity\n|&#45; w\l&#45; serialVersionUID\l|+ setWorld()\l+ getWorld()\l+ hitBy()\l+ hitsTo()\l+ near()\l+ clone()\l}">
<polygon fill="none" stroke="black" points="438.339,-1518.5 438.339,-1659.5 570.339,-1659.5 570.339,-1518.5 438.339,-1518.5"/>
<text text-anchor="middle" x="504.339" y="-1646.5" font-family="Helvetica,sans-Serif" font-size="10.00">jdungeon.core.world.Entity</text>
<polyline fill="none" stroke="black" points="438.339,-1638.5 570.339,-1638.5 "/>
<text text-anchor="start" x="446.339" y="-1625.5" font-family="Helvetica,sans-Serif" font-size="10.00">&#45; w</text>
<text text-anchor="start" x="446.339" y="-1612.5" font-family="Helvetica,sans-Serif" font-size="10.00">&#45; serialVersionUID</text>
<polyline fill="none" stroke="black" points="438.339,-1604.5 570.339,-1604.5 "/>
<text text-anchor="start" x="446.339" y="-1591.5" font-family="Helvetica,sans-Serif" font-size="10.00">+ setWorld()</text>
<text text-anchor="start" x="446.339" y="-1578.5" font-family="Helvetica,sans-Serif" font-size="10.00">+ getWorld()</text>
<text text-anchor="start" x="446.339" y="-1565.5" font-family="Helvetica,sans-Serif" font-size="10.00">+ hitBy()</text>
<text text-anchor="start" x="446.339" y="-1552.5" font-family="Helvetica,sans-Serif" font-size="10.00">+ hitsTo()</text>
<text text-anchor="start" x="446.339" y="-1539.5" font-family="Helvetica,sans-Serif" font-size="10.00">+ near()</text>
<text text-anchor="start" x="446.339" y="-1526.5" font-family="Helvetica,sans-Serif" font-size="10.00">+ clone()</text>
</a>
</g>
<!-- Node2&#45;&gt;Node1 -->
<g id="edge2" class="edge"><title>Node2&#45;&gt;Node1</title>
<path fill="none" stroke="#9a32cd" stroke-dasharray="5,2" d="M488.083,-1508.34C467.426,-1405.86 432.191,-1231.03 413.266,-1137.14"/>
<polygon fill="#9a32cd" stroke="#9a32cd" points="490.096,-1518.33 483.709,-1509.42 489.109,-1513.43 488.121,-1508.53 488.121,-1508.53 488.121,-1508.53 489.109,-1513.43 492.532,-1507.64 490.096,-1518.33 490.096,-1518.33"/>
<text text-anchor="middle" x="467.839" y="-1315.5" font-family="Helvetica,sans-Serif" font-size="10.00">entity</text>
</g>
<!-- Node10 -->
<g id="node21" class="node"><title>Node10</title>
<a xlink:href="classjdungeon_1_1core_1_1world_1_1_vulnerable.html" target="_top" xlink:title="{jdungeon.core.world.Vulnerable\n|&#45; HP\l&#45; maxHP\l&#45; level\l&#45; strength\l&#45; strengthBonus\l&#45; observers\l&#45; serialVersionUID\l|+ Vulnerable()\l+ getLevel()\l+ getHP()\l+ hitBy()\l+ hitsTo()\l+ heal()\l+ hurtBy()\l+ getStrength()\l+ getRawStrength()\l+ getStrengthBonus()\l+ setStrength()\l+ setStrengthBonus()\l+ setMaxHealth()\l+ getMaxHealth()\l+ setLevel()\l+ awardExperience()\l+ getExperience()\l+ subscribe()\l+ unsubscribe()\l# die()\l}">
<polygon fill="none" stroke="black" points="154.339,-879 154.339,-1267 306.339,-1267 306.339,-879 154.339,-879"/>
<text text-anchor="middle" x="230.339" y="-1254" font-family="Helvetica,sans-Serif" font-size="10.00">jdungeon.core.world.Vulnerable</text>
<polyline fill="none" stroke="black" points="154.339,-1246 306.339,-1246 "/>
<text text-anchor="start" x="162.339" y="-1233" font-family="Helvetica,sans-Serif" font-size="10.00">&#45; HP</text>
<text text-anchor="start" x="162.339" y="-1220" font-family="Helvetica,sans-Serif" font-size="10.00">&#45; maxHP</text>
<text text-anchor="start" x="162.339" y="-1207" font-family="Helvetica,sans-Serif" font-size="10.00">&#45; level</text>
<text text-anchor="start" x="162.339" y="-1194" font-family="Helvetica,sans-Serif" font-size="10.00">&#45; strength</text>
<text text-anchor="start" x="162.339" y="-1181" font-family="Helvetica,sans-Serif" font-size="10.00">&#45; strengthBonus</text>
<text text-anchor="start" x="162.339" y="-1168" font-family="Helvetica,sans-Serif" font-size="10.00">&#45; observers</text>
<text text-anchor="start" x="162.339" y="-1155" font-family="Helvetica,sans-Serif" font-size="10.00">&#45; serialVersionUID</text>
<polyline fill="none" stroke="black" points="154.339,-1147 306.339,-1147 "/>
<text text-anchor="start" x="162.339" y="-1134" font-family="Helvetica,sans-Serif" font-size="10.00">+ Vulnerable()</text>
<text text-anchor="start" x="162.339" y="-1121" font-family="Helvetica,sans-Serif" font-size="10.00">+ getLevel()</text>
<text text-anchor="start" x="162.339" y="-1108" font-family="Helvetica,sans-Serif" font-size="10.00">+ getHP()</text>
<text text-anchor="start" x="162.339" y="-1095" font-family="Helvetica,sans-Serif" font-size="10.00">+ hitBy()</text>
<text text-anchor="start" x="162.339" y="-1082" font-family="Helvetica,sans-Serif" font-size="10.00">+ hitsTo()</text>
<text text-anchor="start" x="162.339" y="-1069" font-family="Helvetica,sans-Serif" font-size="10.00">+ heal()</text>
<text text-anchor="start" x="162.339" y="-1056" font-family="Helvetica,sans-Serif" font-size="10.00">+ hurtBy()</text>
<text text-anchor="start" x="162.339" y="-1043" font-family="Helvetica,sans-Serif" font-size="10.00">+ getStrength()</text>
<text text-anchor="start" x="162.339" y="-1030" font-family="Helvetica,sans-Serif" font-size="10.00">+ getRawStrength()</text>
<text text-anchor="start" x="162.339" y="-1017" font-family="Helvetica,sans-Serif" font-size="10.00">+ getStrengthBonus()</text>
<text text-anchor="start" x="162.339" y="-1004" font-family="Helvetica,sans-Serif" font-size="10.00">+ setStrength()</text>
<text text-anchor="start" x="162.339" y="-991" font-family="Helvetica,sans-Serif" font-size="10.00">+ setStrengthBonus()</text>
<text text-anchor="start" x="162.339" y="-978" font-family="Helvetica,sans-Serif" font-size="10.00">+ setMaxHealth()</text>
<text text-anchor="start" x="162.339" y="-965" font-family="Helvetica,sans-Serif" font-size="10.00">+ getMaxHealth()</text>
<text text-anchor="start" x="162.339" y="-952" font-family="Helvetica,sans-Serif" font-size="10.00">+ setLevel()</text>
<text text-anchor="start" x="162.339" y="-939" font-family="Helvetica,sans-Serif" font-size="10.00">+ awardExperience()</text>
<text text-anchor="start" x="162.339" y="-926" font-family="Helvetica,sans-Serif" font-size="10.00">+ getExperience()</text>
<text text-anchor="start" x="162.339" y="-913" font-family="Helvetica,sans-Serif" font-size="10.00">+ subscribe()</text>
<text text-anchor="start" x="162.339" y="-900" font-family="Helvetica,sans-Serif" font-size="10.00">+ unsubscribe()</text>
<text text-anchor="start" x="162.339" y="-887" font-family="Helvetica,sans-Serif" font-size="10.00"># die()</text>
</a>
</g>
<!-- Node2&#45;&gt;Node10 -->
<g id="edge26" class="edge"><title>Node2&#45;&gt;Node10</title>
<path fill="none" stroke="midnightblue" d="M479.484,-1508.38C465.833,-1466.14 447.929,-1413.8 429.339,-1368 414.162,-1330.61 421.689,-1311.41 390.339,-1286 363.71,-1264.41 341.61,-1290.02 315.339,-1268 312.367,-1265.51 309.496,-1262.89 306.723,-1260.17"/>
<polygon fill="none" stroke="midnightblue" points="476.202,-1509.61 482.594,-1518.06 482.867,-1507.47 476.202,-1509.61"/>
</g>
<!-- Node3 -->
<g id="node4" class="node"><title>Node3</title>
<polygon fill="none" stroke="#bfbfbf" points="322.839,-1860.5 322.839,-1923.5 389.839,-1923.5 389.839,-1860.5 322.839,-1860.5"/>
<text text-anchor="middle" x="356.339" y="-1910.5" font-family="Helvetica,sans-Serif" font-size="10.00">Serializable</text>
<polyline fill="none" stroke="#bfbfbf" points="322.839,-1902.5 389.839,-1902.5 "/>
<text text-anchor="middle" x="356.339" y="-1889.5" font-family="Helvetica,sans-Serif" font-size="10.00"> </text>
<polyline fill="none" stroke="#bfbfbf" points="322.839,-1881.5 389.839,-1881.5 "/>
<text text-anchor="middle" x="356.339" y="-1868.5" font-family="Helvetica,sans-Serif" font-size="10.00"> </text>
</g>
<!-- Node3&#45;&gt;Node2 -->
<g id="edge4" class="edge"><title>Node3&#45;&gt;Node2</title>
<path fill="none" stroke="midnightblue" d="M396.669,-1853.15C408.401,-1840.26 420.44,-1825.28 429.339,-1810 456.71,-1762.99 475.999,-1704.51 488.156,-1659.52"/>
<polygon fill="none" stroke="midnightblue" points="394.089,-1850.78 389.822,-1860.48 399.205,-1855.56 394.089,-1850.78"/>
</g>
<!-- Node4 -->
<g id="node6" class="node"><title>Node4</title>
<a xlink:href="classjdungeon_1_1core_1_1world_1_1_world.html" target="_top" xlink:title="{jdungeon.core.world.World\n|&#45; board\l&#45; player\l&#45; boss\l&#45; observers\l&#45; hurtEntities\l&#45; playerObserver\l&#45; bossObserver\l&#45; sizeX\l&#45; sizeY\l&#45; serialVersionUID\l|+ World()\l+ clone()\l+ getX()\l+ getY()\l+ getHurtEntities()\l+ subscribe()\l+ unsubscribe()\l+ add()\l+ add()\l+ add()\l+ add()\l+ remove()\l+ remove()\l+ getPlayer()\l+ getBoss()\l+ syncEvent()\l+ replace()\l~ addHurtEntity()\l~ removeHurtEntity()\l~ notifyChange()\l~ notifyChange()\l~ notifyChange()\l~ notifyChange()\l~ getEntityInPoint()\l# move()\l# moveDelta()\l# clearView()\l&#45; area()\l}">
<polygon fill="none" stroke="black" points="398.339,-0.5 398.339,-531.5 530.339,-531.5 530.339,-0.5 398.339,-0.5"/>
<text text-anchor="middle" x="464.339" y="-518.5" font-family="Helvetica,sans-Serif" font-size="10.00">jdungeon.core.world.World</text>
<polyline fill="none" stroke="black" points="398.339,-510.5 530.339,-510.5 "/>
<text text-anchor="start" x="406.339" y="-497.5" font-family="Helvetica,sans-Serif" font-size="10.00">&#45; board</text>
<text text-anchor="start" x="406.339" y="-484.5" font-family="Helvetica,sans-Serif" font-size="10.00">&#45; player</text>
<text text-anchor="start" x="406.339" y="-471.5" font-family="Helvetica,sans-Serif" font-size="10.00">&#45; boss</text>
<text text-anchor="start" x="406.339" y="-458.5" font-family="Helvetica,sans-Serif" font-size="10.00">&#45; observers</text>
<text text-anchor="start" x="406.339" y="-445.5" font-family="Helvetica,sans-Serif" font-size="10.00">&#45; hurtEntities</text>
<text text-anchor="start" x="406.339" y="-432.5" font-family="Helvetica,sans-Serif" font-size="10.00">&#45; playerObserver</text>
<text text-anchor="start" x="406.339" y="-419.5" font-family="Helvetica,sans-Serif" font-size="10.00">&#45; bossObserver</text>
<text text-anchor="start" x="406.339" y="-406.5" font-family="Helvetica,sans-Serif" font-size="10.00">&#45; sizeX</text>
<text text-anchor="start" x="406.339" y="-393.5" font-family="Helvetica,sans-Serif" font-size="10.00">&#45; sizeY</text>
<text text-anchor="start" x="406.339" y="-380.5" font-family="Helvetica,sans-Serif" font-size="10.00">&#45; serialVersionUID</text>
<polyline fill="none" stroke="black" points="398.339,-372.5 530.339,-372.5 "/>
<text text-anchor="start" x="406.339" y="-359.5" font-family="Helvetica,sans-Serif" font-size="10.00">+ World()</text>
<text text-anchor="start" x="406.339" y="-346.5" font-family="Helvetica,sans-Serif" font-size="10.00">+ clone()</text>
<text text-anchor="start" x="406.339" y="-333.5" font-family="Helvetica,sans-Serif" font-size="10.00">+ getX()</text>
<text text-anchor="start" x="406.339" y="-320.5" font-family="Helvetica,sans-Serif" font-size="10.00">+ getY()</text>
<text text-anchor="start" x="406.339" y="-307.5" font-family="Helvetica,sans-Serif" font-size="10.00">+ getHurtEntities()</text>
<text text-anchor="start" x="406.339" y="-294.5" font-family="Helvetica,sans-Serif" font-size="10.00">+ subscribe()</text>
<text text-anchor="start" x="406.339" y="-281.5" font-family="Helvetica,sans-Serif" font-size="10.00">+ unsubscribe()</text>
<text text-anchor="start" x="406.339" y="-268.5" font-family="Helvetica,sans-Serif" font-size="10.00">+ add()</text>
<text text-anchor="start" x="406.339" y="-255.5" font-family="Helvetica,sans-Serif" font-size="10.00">+ add()</text>
<text text-anchor="start" x="406.339" y="-242.5" font-family="Helvetica,sans-Serif" font-size="10.00">+ add()</text>
<text text-anchor="start" x="406.339" y="-229.5" font-family="Helvetica,sans-Serif" font-size="10.00">+ add()</text>
<text text-anchor="start" x="406.339" y="-216.5" font-family="Helvetica,sans-Serif" font-size="10.00">+ remove()</text>
<text text-anchor="start" x="406.339" y="-203.5" font-family="Helvetica,sans-Serif" font-size="10.00">+ remove()</text>
<text text-anchor="start" x="406.339" y="-190.5" font-family="Helvetica,sans-Serif" font-size="10.00">+ getPlayer()</text>
<text text-anchor="start" x="406.339" y="-177.5" font-family="Helvetica,sans-Serif" font-size="10.00">+ getBoss()</text>
<text text-anchor="start" x="406.339" y="-164.5" font-family="Helvetica,sans-Serif" font-size="10.00">+ syncEvent()</text>
<text text-anchor="start" x="406.339" y="-151.5" font-family="Helvetica,sans-Serif" font-size="10.00">+ replace()</text>
<text text-anchor="start" x="406.339" y="-138.5" font-family="Helvetica,sans-Serif" font-size="10.00">~ addHurtEntity()</text>
<text text-anchor="start" x="406.339" y="-125.5" font-family="Helvetica,sans-Serif" font-size="10.00">~ removeHurtEntity()</text>
<text text-anchor="start" x="406.339" y="-112.5" font-family="Helvetica,sans-Serif" font-size="10.00">~ notifyChange()</text>
<text text-anchor="start" x="406.339" y="-99.5" font-family="Helvetica,sans-Serif" font-size="10.00">~ notifyChange()</text>
<text text-anchor="start" x="406.339" y="-86.5" font-family="Helvetica,sans-Serif" font-size="10.00">~ notifyChange()</text>
<text text-anchor="start" x="406.339" y="-73.5" font-family="Helvetica,sans-Serif" font-size="10.00">~ notifyChange()</text>
<text text-anchor="start" x="406.339" y="-60.5" font-family="Helvetica,sans-Serif" font-size="10.00">~ getEntityInPoint()</text>
<text text-anchor="start" x="406.339" y="-47.5" font-family="Helvetica,sans-Serif" font-size="10.00"># move()</text>
<text text-anchor="start" x="406.339" y="-34.5" font-family="Helvetica,sans-Serif" font-size="10.00"># moveDelta()</text>
<text text-anchor="start" x="406.339" y="-21.5" font-family="Helvetica,sans-Serif" font-size="10.00"># clearView()</text>
<text text-anchor="start" x="406.339" y="-8.5" font-family="Helvetica,sans-Serif" font-size="10.00">&#45; area()</text>
</a>
</g>
<!-- Node3&#45;&gt;Node4 -->
<g id="edge8" class="edge"><title>Node3&#45;&gt;Node4</title>
<path fill="none" stroke="midnightblue" d="M312.594,-1885.41C239.675,-1873.53 97.9444,-1846.34 64.3391,-1810 -5.08723,-1734.92 0.339149,-1691.26 0.339149,-1589 0.339149,-1589 0.339149,-1589 0.339149,-699 0.339149,-484.143 269.559,-345.374 397.859,-291.441"/>
<polygon fill="none" stroke="midnightblue" points="312.405,-1888.92 322.832,-1887.05 313.512,-1882.01 312.405,-1888.92"/>
</g>
<!-- Node5 -->
<g id="node9" class="node"><title>Node5</title>
<a xlink:href="interfacejdungeon_1_1core_1_1world_1_1_vulnerable_observer.html" target="_top" xlink:title="{jdungeon.core.world.VulnerableObserver\n||+ onDeath()\l}">
<polygon fill="none" stroke="black" points="15.3391,-1286.5 15.3391,-1349.5 207.339,-1349.5 207.339,-1286.5 15.3391,-1286.5"/>
<text text-anchor="middle" x="111.339" y="-1336.5" font-family="Helvetica,sans-Serif" font-size="10.00">jdungeon.core.world.VulnerableObserver</text>
<polyline fill="none" stroke="black" points="15.3391,-1328.5 207.339,-1328.5 "/>
<text text-anchor="middle" x="111.339" y="-1315.5" font-family="Helvetica,sans-Serif" font-size="10.00"> </text>
<polyline fill="none" stroke="black" points="15.3391,-1307.5 207.339,-1307.5 "/>
<text text-anchor="start" x="23.3391" y="-1294.5" font-family="Helvetica,sans-Serif" font-size="10.00">+ onDeath()</text>
</a>
</g>
<!-- Node3&#45;&gt;Node5 -->
<g id="edge12" class="edge"><title>Node3&#45;&gt;Node5</title>
<path fill="none" stroke="midnightblue" d="M312.674,-1882.17C253.635,-1867.91 153.191,-1839.91 131.339,-1810 27.0724,-1667.29 78.176,-1434.18 101.698,-1349.78"/>
<polygon fill="none" stroke="midnightblue" points="311.943,-1885.59 322.482,-1884.5 313.564,-1878.78 311.943,-1885.59"/>
</g>
<!-- Node6 -->
<g id="node12" class="node"><title>Node6</title>
<a xlink:href="classjdungeon_1_1core_1_1world_1_1_board.html" target="_top" xlink:title="{jdungeon.core.world.Board\n|&#45; name\l&#45; cells\l&#45; entities\l&#45; sizeY\l&#45; sizeX\l&#45; serialVersionUID\l&#45; MAX_SIZE\l&#45; MIN_SIZE\l|+ Board()\l+ getSizeY()\l+ getSizeX()\l+ replace()\l+ setName()\l+ getName()\l+ iterator()\l+ filter()\l# neighbours()\l# neighbours()\l# in()\l# in()\l# add()\l# add()\l# remove()\l# contains()\l# move()\l# move()\l# getEntityPos()\l&#45; initMatrix()\l&#45; isValidPoint()\l&#45; isValidPoint()\l&#45; warpTo()\l}">
<polygon fill="none" stroke="black" points="595.339,-1369 595.339,-1809 727.339,-1809 727.339,-1369 595.339,-1369"/>
<text text-anchor="middle" x="661.339" y="-1796" font-family="Helvetica,sans-Serif" font-size="10.00">jdungeon.core.world.Board</text>
<polyline fill="none" stroke="black" points="595.339,-1788 727.339,-1788 "/>
<text text-anchor="start" x="603.339" y="-1775" font-family="Helvetica,sans-Serif" font-size="10.00">&#45; name</text>
<text text-anchor="start" x="603.339" y="-1762" font-family="Helvetica,sans-Serif" font-size="10.00">&#45; cells</text>
<text text-anchor="start" x="603.339" y="-1749" font-family="Helvetica,sans-Serif" font-size="10.00">&#45; entities</text>
<text text-anchor="start" x="603.339" y="-1736" font-family="Helvetica,sans-Serif" font-size="10.00">&#45; sizeY</text>
<text text-anchor="start" x="603.339" y="-1723" font-family="Helvetica,sans-Serif" font-size="10.00">&#45; sizeX</text>
<text text-anchor="start" x="603.339" y="-1710" font-family="Helvetica,sans-Serif" font-size="10.00">&#45; serialVersionUID</text>
<text text-anchor="start" x="603.339" y="-1697" font-family="Helvetica,sans-Serif" font-size="10.00">&#45; MAX_SIZE</text>
<text text-anchor="start" x="603.339" y="-1684" font-family="Helvetica,sans-Serif" font-size="10.00">&#45; MIN_SIZE</text>
<polyline fill="none" stroke="black" points="595.339,-1676 727.339,-1676 "/>
<text text-anchor="start" x="603.339" y="-1663" font-family="Helvetica,sans-Serif" font-size="10.00">+ Board()</text>
<text text-anchor="start" x="603.339" y="-1650" font-family="Helvetica,sans-Serif" font-size="10.00">+ getSizeY()</text>
<text text-anchor="start" x="603.339" y="-1637" font-family="Helvetica,sans-Serif" font-size="10.00">+ getSizeX()</text>
<text text-anchor="start" x="603.339" y="-1624" font-family="Helvetica,sans-Serif" font-size="10.00">+ replace()</text>
<text text-anchor="start" x="603.339" y="-1611" font-family="Helvetica,sans-Serif" font-size="10.00">+ setName()</text>
<text text-anchor="start" x="603.339" y="-1598" font-family="Helvetica,sans-Serif" font-size="10.00">+ getName()</text>
<text text-anchor="start" x="603.339" y="-1585" font-family="Helvetica,sans-Serif" font-size="10.00">+ iterator()</text>
<text text-anchor="start" x="603.339" y="-1572" font-family="Helvetica,sans-Serif" font-size="10.00">+ filter()</text>
<text text-anchor="start" x="603.339" y="-1559" font-family="Helvetica,sans-Serif" font-size="10.00"># neighbours()</text>
<text text-anchor="start" x="603.339" y="-1546" font-family="Helvetica,sans-Serif" font-size="10.00"># neighbours()</text>
<text text-anchor="start" x="603.339" y="-1533" font-family="Helvetica,sans-Serif" font-size="10.00"># in()</text>
<text text-anchor="start" x="603.339" y="-1520" font-family="Helvetica,sans-Serif" font-size="10.00"># in()</text>
<text text-anchor="start" x="603.339" y="-1507" font-family="Helvetica,sans-Serif" font-size="10.00"># add()</text>
<text text-anchor="start" x="603.339" y="-1494" font-family="Helvetica,sans-Serif" font-size="10.00"># add()</text>
<text text-anchor="start" x="603.339" y="-1481" font-family="Helvetica,sans-Serif" font-size="10.00"># remove()</text>
<text text-anchor="start" x="603.339" y="-1468" font-family="Helvetica,sans-Serif" font-size="10.00"># contains()</text>
<text text-anchor="start" x="603.339" y="-1455" font-family="Helvetica,sans-Serif" font-size="10.00"># move()</text>
<text text-anchor="start" x="603.339" y="-1442" font-family="Helvetica,sans-Serif" font-size="10.00"># move()</text>
<text text-anchor="start" x="603.339" y="-1429" font-family="Helvetica,sans-Serif" font-size="10.00"># getEntityPos()</text>
<text text-anchor="start" x="603.339" y="-1416" font-family="Helvetica,sans-Serif" font-size="10.00">&#45; initMatrix()</text>
<text text-anchor="start" x="603.339" y="-1403" font-family="Helvetica,sans-Serif" font-size="10.00">&#45; isValidPoint()</text>
<text text-anchor="start" x="603.339" y="-1390" font-family="Helvetica,sans-Serif" font-size="10.00">&#45; isValidPoint()</text>
<text text-anchor="start" x="603.339" y="-1377" font-family="Helvetica,sans-Serif" font-size="10.00">&#45; warpTo()</text>
</a>
</g>
<!-- Node3&#45;&gt;Node6 -->
<g id="edge16" class="edge"><title>Node3&#45;&gt;Node6</title>
<path fill="none" stroke="midnightblue" d="M400.252,-1886.88C449.966,-1878.85 530.388,-1858.81 579.339,-1810 584.99,-1804.37 590.256,-1798.31 595.163,-1791.92"/>
<polygon fill="none" stroke="midnightblue" points="399.493,-1883.45 390.132,-1888.41 400.544,-1890.37 399.493,-1883.45"/>
</g>
<!-- Node15 -->
<g id="node33" class="node"><title>Node15</title>
<a xlink:href="classjdungeon_1_1core_1_1world_1_1_point.html" target="_top" xlink:title="{jdungeon.core.world.Point\n|&#45; x\l&#45; y\l&#45; serialVersionUID\l|+ Point()\l+ translate()\l+ getX()\l+ getY()\l+ equals()\l+ clone()\l}">
<polygon fill="none" stroke="black" points="291.839,-1512 291.839,-1666 420.839,-1666 420.839,-1512 291.839,-1512"/>
<text text-anchor="middle" x="356.339" y="-1653" font-family="Helvetica,sans-Serif" font-size="10.00">jdungeon.core.world.Point</text>
<polyline fill="none" stroke="black" points="291.839,-1645 420.839,-1645 "/>
<text text-anchor="start" x="299.839" y="-1632" font-family="Helvetica,sans-Serif" font-size="10.00">&#45; x</text>
<text text-anchor="start" x="299.839" y="-1619" font-family="Helvetica,sans-Serif" font-size="10.00">&#45; y</text>
<text text-anchor="start" x="299.839" y="-1606" font-family="Helvetica,sans-Serif" font-size="10.00">&#45; serialVersionUID</text>
<polyline fill="none" stroke="black" points="291.839,-1598 420.839,-1598 "/>
<text text-anchor="start" x="299.839" y="-1585" font-family="Helvetica,sans-Serif" font-size="10.00">+ Point()</text>
<text text-anchor="start" x="299.839" y="-1572" font-family="Helvetica,sans-Serif" font-size="10.00">+ translate()</text>
<text text-anchor="start" x="299.839" y="-1559" font-family="Helvetica,sans-Serif" font-size="10.00">+ getX()</text>
<text text-anchor="start" x="299.839" y="-1546" font-family="Helvetica,sans-Serif" font-size="10.00">+ getY()</text>
<text text-anchor="start" x="299.839" y="-1533" font-family="Helvetica,sans-Serif" font-size="10.00">+ equals()</text>
<text text-anchor="start" x="299.839" y="-1520" font-family="Helvetica,sans-Serif" font-size="10.00">+ clone()</text>
</a>
</g>
<!-- Node3&#45;&gt;Node15 -->
<g id="edge40" class="edge"><title>Node3&#45;&gt;Node15</title>
<path fill="none" stroke="midnightblue" d="M356.339,-1850.23C356.339,-1802.86 356.339,-1724.59 356.339,-1666.05"/>
<polygon fill="none" stroke="midnightblue" points="352.839,-1850.43 356.339,-1860.43 359.839,-1850.43 352.839,-1850.43"/>
</g>
<!-- Node4&#45;&gt;Node2 -->
<g id="edge6" class="edge"><title>Node4&#45;&gt;Node2</title>
<path fill="none" stroke="#9a32cd" stroke-dasharray="5,2" d="M483.461,-542.205C484.151,-555.656 484.784,-568.977 485.339,-582 500.32,-933.363 503.489,-1354.19 504.159,-1518.46"/>
<polygon fill="#9a32cd" stroke="#9a32cd" points="482.921,-531.895 487.938,-541.646 483.183,-536.888 483.444,-541.881 483.444,-541.881 483.444,-541.881 483.183,-536.888 478.95,-542.116 482.921,-531.895 482.921,-531.895"/>
<text text-anchor="middle" x="498.339" y="-844.5" font-family="Helvetica,sans-Serif" font-size="10.00">w</text>
</g>
<!-- Node5&#45;&gt;Node4 -->
<g id="edge10" class="edge"><title>Node5&#45;&gt;Node4</title>
<path fill="none" stroke="#9a32cd" stroke-dasharray="5,2" d="M100.276,-1276.44C71.6478,-1160.34 4.66038,-825.185 113.339,-582 171.717,-451.37 313.596,-352.001 398.016,-301.971"/>
<polygon fill="#9a32cd" stroke="#9a32cd" points="102.758,-1286.34 95.9622,-1277.74 101.542,-1281.49 100.327,-1276.64 100.327,-1276.64 100.327,-1276.64 101.542,-1281.49 104.692,-1275.55 102.758,-1286.34 102.758,-1286.34"/>
<text text-anchor="middle" x="89.8391" y="-851" font-family="Helvetica,sans-Serif" font-size="10.00">bossObserver</text>
<text text-anchor="middle" x="89.8391" y="-838" font-family="Helvetica,sans-Serif" font-size="10.00">playerObserver</text>
</g>
<!-- Node6&#45;&gt;Node4 -->
<g id="edge14" class="edge"><title>Node6&#45;&gt;Node4</title>
<path fill="none" stroke="#9a32cd" stroke-dasharray="5,2" d="M672.184,-1358.75C681.611,-1107.57 688.35,-722.531 649.339,-582 625.746,-497.009 573.382,-411.32 530.366,-350.656"/>
<polygon fill="#9a32cd" stroke="#9a32cd" points="671.805,-1368.74 667.687,-1358.58 671.995,-1363.75 672.184,-1358.75 672.184,-1358.75 672.184,-1358.75 671.995,-1363.75 676.681,-1358.92 671.805,-1368.74 671.805,-1368.74"/>
<text text-anchor="middle" x="688.839" y="-844.5" font-family="Helvetica,sans-Serif" font-size="10.00">board</text>
</g>
<!-- Node7 -->
<g id="node15" class="node"><title>Node7</title>
<polygon fill="none" stroke="#bfbfbf" points="546.839,-1860.5 546.839,-1923.5 653.839,-1923.5 653.839,-1860.5 546.839,-1860.5"/>
<text text-anchor="middle" x="600.339" y="-1910.5" font-family="Helvetica,sans-Serif" font-size="10.00">Map&lt; Entity, Point &gt;</text>
<polyline fill="none" stroke="#bfbfbf" points="546.839,-1902.5 653.839,-1902.5 "/>
<text text-anchor="middle" x="600.339" y="-1889.5" font-family="Helvetica,sans-Serif" font-size="10.00"> </text>
<polyline fill="none" stroke="#bfbfbf" points="546.839,-1881.5 653.839,-1881.5 "/>
<text text-anchor="middle" x="600.339" y="-1868.5" font-family="Helvetica,sans-Serif" font-size="10.00"> </text>
</g>
<!-- Node7&#45;&gt;Node6 -->
<g id="edge18" class="edge"><title>Node7&#45;&gt;Node6</title>
<path fill="none" stroke="#9a32cd" stroke-dasharray="5,2" d="M608.715,-1850.4C611.137,-1838.37 613.961,-1824.34 617.021,-1809.14"/>
<polygon fill="#9a32cd" stroke="#9a32cd" points="606.695,-1860.43 604.257,-1849.74 607.681,-1855.53 608.668,-1850.63 608.668,-1850.63 608.668,-1850.63 607.681,-1855.53 613.08,-1851.52 606.695,-1860.43 606.695,-1860.43"/>
<text text-anchor="middle" x="627.339" y="-1832.5" font-family="Helvetica,sans-Serif" font-size="10.00">entities</text>
</g>
<!-- Node8 -->
<g id="node17" class="node"><title>Node8</title>
<polygon fill="none" stroke="#bfbfbf" points="670.839,-1860.5 670.839,-1923.5 745.839,-1923.5 745.839,-1860.5 670.839,-1860.5"/>
<text text-anchor="middle" x="708.339" y="-1910.5" font-family="Helvetica,sans-Serif" font-size="10.00">Set&lt; Entity &gt;</text>
<polyline fill="none" stroke="#bfbfbf" points="670.839,-1902.5 745.839,-1902.5 "/>
<text text-anchor="middle" x="708.339" y="-1889.5" font-family="Helvetica,sans-Serif" font-size="10.00"> </text>
<polyline fill="none" stroke="#bfbfbf" points="670.839,-1881.5 745.839,-1881.5 "/>
<text text-anchor="middle" x="708.339" y="-1868.5" font-family="Helvetica,sans-Serif" font-size="10.00"> </text>
</g>
<!-- Node8&#45;&gt;Node6 -->
<g id="edge20" class="edge"><title>Node8&#45;&gt;Node6</title>
<path fill="none" stroke="#9a32cd" stroke-dasharray="5,2" d="M701.886,-1850.4C700.02,-1838.37 697.844,-1824.34 695.486,-1809.14"/>
<polygon fill="#9a32cd" stroke="#9a32cd" points="703.442,-1860.43 697.463,-1851.24 702.676,-1855.49 701.909,-1850.55 701.909,-1850.55 701.909,-1850.55 702.676,-1855.49 706.356,-1849.86 703.442,-1860.43 703.442,-1860.43"/>
<text text-anchor="middle" x="710.839" y="-1832.5" font-family="Helvetica,sans-Serif" font-size="10.00">cells</text>
</g>
<!-- Node9 -->
<g id="node19" class="node"><title>Node9</title>
<a xlink:href="classjdungeon_1_1core_1_1world_1_1creatures_1_1_monster.html" target="_top" xlink:title="{jdungeon.core.world.creatures.Monster\n|&#45; serialVersionUID\l|+ Monster()\l+ awardExperience()\l+ getExperience()\l+ hurtBy()\l&#45; computeHealth()\l&#45; computeStrength()\l}">
<polygon fill="none" stroke="black" points="291.839,-635 291.839,-763 476.839,-763 476.839,-635 291.839,-635"/>
<text text-anchor="middle" x="384.339" y="-750" font-family="Helvetica,sans-Serif" font-size="10.00">jdungeon.core.world.creatures.Monster</text>
<polyline fill="none" stroke="black" points="291.839,-742 476.839,-742 "/>
<text text-anchor="start" x="299.839" y="-729" font-family="Helvetica,sans-Serif" font-size="10.00">&#45; serialVersionUID</text>
<polyline fill="none" stroke="black" points="291.839,-721 476.839,-721 "/>
<text text-anchor="start" x="299.839" y="-708" font-family="Helvetica,sans-Serif" font-size="10.00">+ Monster()</text>
<text text-anchor="start" x="299.839" y="-695" font-family="Helvetica,sans-Serif" font-size="10.00">+ awardExperience()</text>
<text text-anchor="start" x="299.839" y="-682" font-family="Helvetica,sans-Serif" font-size="10.00">+ getExperience()</text>
<text text-anchor="start" x="299.839" y="-669" font-family="Helvetica,sans-Serif" font-size="10.00">+ hurtBy()</text>
<text text-anchor="start" x="299.839" y="-656" font-family="Helvetica,sans-Serif" font-size="10.00">&#45; computeHealth()</text>
<text text-anchor="start" x="299.839" y="-643" font-family="Helvetica,sans-Serif" font-size="10.00">&#45; computeStrength()</text>
</a>
</g>
<!-- Node9&#45;&gt;Node4 -->
<g id="edge22" class="edge"><title>Node9&#45;&gt;Node4</title>
<path fill="none" stroke="#9a32cd" stroke-dasharray="5,2" d="M398.084,-624.604C403.051,-597.723 408.985,-565.607 415.231,-531.797"/>
<polygon fill="#9a32cd" stroke="#9a32cd" points="396.23,-634.643 393.621,-623.992 397.138,-629.726 398.046,-624.81 398.046,-624.81 398.046,-624.81 397.138,-629.726 402.472,-625.627 396.23,-634.643 396.23,-634.643"/>
<text text-anchor="middle" x="420.339" y="-554.5" font-family="Helvetica,sans-Serif" font-size="10.00">boss</text>
</g>
<!-- Node10&#45;&gt;Node9 -->
<g id="edge24" class="edge"><title>Node10&#45;&gt;Node9</title>
<path fill="none" stroke="midnightblue" d="M310.337,-878.721C327.516,-836.999 344.496,-795.762 357.849,-763.333"/>
<polygon fill="none" stroke="midnightblue" points="307.008,-877.612 306.437,-888.191 313.481,-880.277 307.008,-877.612"/>
</g>
<!-- Node13 -->
<g id="node28" class="node"><title>Node13</title>
<a xlink:href="classjdungeon_1_1core_1_1world_1_1_player.html" target="_top" xlink:title="{jdungeon.core.world.Player\n|&#45; experience\l&#45; name\l&#45; serialVersionUID\l|+ Player()\l+ setWorld()\l+ getName()\l+ setName()\l+ getExperienceForNextLevel()\l+ getExperience()\l+ moveLeft()\l+ moveRight()\l+ moveUp()\l+ moveDown()\l+ awardExperience()\l&#45; move()\l}">
<polygon fill="none" stroke="black" points="122.339,-583 122.339,-815 274.339,-815 274.339,-583 122.339,-583"/>
<text text-anchor="middle" x="198.339" y="-802" font-family="Helvetica,sans-Serif" font-size="10.00">jdungeon.core.world.Player</text>
<polyline fill="none" stroke="black" points="122.339,-794 274.339,-794 "/>
<text text-anchor="start" x="130.339" y="-781" font-family="Helvetica,sans-Serif" font-size="10.00">&#45; experience</text>
<text text-anchor="start" x="130.339" y="-768" font-family="Helvetica,sans-Serif" font-size="10.00">&#45; name</text>
<text text-anchor="start" x="130.339" y="-755" font-family="Helvetica,sans-Serif" font-size="10.00">&#45; serialVersionUID</text>
<polyline fill="none" stroke="black" points="122.339,-747 274.339,-747 "/>
<text text-anchor="start" x="130.339" y="-734" font-family="Helvetica,sans-Serif" font-size="10.00">+ Player()</text>
<text text-anchor="start" x="130.339" y="-721" font-family="Helvetica,sans-Serif" font-size="10.00">+ setWorld()</text>
<text text-anchor="start" x="130.339" y="-708" font-family="Helvetica,sans-Serif" font-size="10.00">+ getName()</text>
<text text-anchor="start" x="130.339" y="-695" font-family="Helvetica,sans-Serif" font-size="10.00">+ setName()</text>
<text text-anchor="start" x="130.339" y="-682" font-family="Helvetica,sans-Serif" font-size="10.00">+ getExperienceForNextLevel()</text>
<text text-anchor="start" x="130.339" y="-669" font-family="Helvetica,sans-Serif" font-size="10.00">+ getExperience()</text>
<text text-anchor="start" x="130.339" y="-656" font-family="Helvetica,sans-Serif" font-size="10.00">+ moveLeft()</text>
<text text-anchor="start" x="130.339" y="-643" font-family="Helvetica,sans-Serif" font-size="10.00">+ moveRight()</text>
<text text-anchor="start" x="130.339" y="-630" font-family="Helvetica,sans-Serif" font-size="10.00">+ moveUp()</text>
<text text-anchor="start" x="130.339" y="-617" font-family="Helvetica,sans-Serif" font-size="10.00">+ moveDown()</text>
<text text-anchor="start" x="130.339" y="-604" font-family="Helvetica,sans-Serif" font-size="10.00">+ awardExperience()</text>
<text text-anchor="start" x="130.339" y="-591" font-family="Helvetica,sans-Serif" font-size="10.00">&#45; move()</text>
</a>
</g>
<!-- Node10&#45;&gt;Node13 -->
<g id="edge34" class="edge"><title>Node10&#45;&gt;Node13</title>
<path fill="none" stroke="midnightblue" d="M212.861,-868.722C211.299,-850.47 209.757,-832.441 208.293,-815.336"/>
<polygon fill="none" stroke="midnightblue" points="209.39,-869.214 213.73,-878.879 216.365,-868.617 209.39,-869.214"/>
</g>
<!-- Node11 -->
<g id="node24" class="node"><title>Node11</title>
<polygon fill="none" stroke="#bfbfbf" points="139.839,-1557.5 139.839,-1620.5 274.839,-1620.5 274.839,-1557.5 139.839,-1557.5"/>
<text text-anchor="middle" x="207.339" y="-1607.5" font-family="Helvetica,sans-Serif" font-size="10.00">Set&lt; VulnerableObserver &gt;</text>
<polyline fill="none" stroke="#bfbfbf" points="139.839,-1599.5 274.839,-1599.5 "/>
<text text-anchor="middle" x="207.339" y="-1586.5" font-family="Helvetica,sans-Serif" font-size="10.00"> </text>
<polyline fill="none" stroke="#bfbfbf" points="139.839,-1578.5 274.839,-1578.5 "/>
<text text-anchor="middle" x="207.339" y="-1565.5" font-family="Helvetica,sans-Serif" font-size="10.00"> </text>
</g>
<!-- Node11&#45;&gt;Node10 -->
<g id="edge28" class="edge"><title>Node11&#45;&gt;Node10</title>
<path fill="none" stroke="#9a32cd" stroke-dasharray="5,2" d="M209.204,-1547.17C211.913,-1486.38 217.114,-1369.69 221.679,-1267.29"/>
<polygon fill="#9a32cd" stroke="#9a32cd" points="208.743,-1557.5 204.693,-1547.31 208.966,-1552.5 209.189,-1547.51 209.189,-1547.51 209.189,-1547.51 208.966,-1552.5 213.684,-1547.71 208.743,-1557.5 208.743,-1557.5"/>
<text text-anchor="middle" x="240.839" y="-1315.5" font-family="Helvetica,sans-Serif" font-size="10.00">observers</text>
</g>
<!-- Node12 -->
<g id="node26" class="node"><title>Node12</title>
<polygon fill="none" stroke="#bfbfbf" points="532.339,-667.5 532.339,-730.5 640.339,-730.5 640.339,-667.5 532.339,-667.5"/>
<text text-anchor="middle" x="586.339" y="-717.5" font-family="Helvetica,sans-Serif" font-size="10.00">Set&lt; MapObserver &gt;</text>
<polyline fill="none" stroke="#bfbfbf" points="532.339,-709.5 640.339,-709.5 "/>
<text text-anchor="middle" x="586.339" y="-696.5" font-family="Helvetica,sans-Serif" font-size="10.00"> </text>
<polyline fill="none" stroke="#bfbfbf" points="532.339,-688.5 640.339,-688.5 "/>
<text text-anchor="middle" x="586.339" y="-675.5" font-family="Helvetica,sans-Serif" font-size="10.00"> </text>
</g>
<!-- Node12&#45;&gt;Node4 -->
<g id="edge30" class="edge"><title>Node12&#45;&gt;Node4</title>
<path fill="none" stroke="#9a32cd" stroke-dasharray="5,2" d="M574.536,-657.109C563.927,-619.454 547.435,-560.923 530.413,-500.509"/>
<polygon fill="#9a32cd" stroke="#9a32cd" points="577.368,-667.16 570.325,-658.756 576.012,-662.348 574.656,-657.535 574.656,-657.535 574.656,-657.535 576.012,-662.348 578.988,-656.315 577.368,-667.16 577.368,-667.16"/>
<text text-anchor="middle" x="567.839" y="-554.5" font-family="Helvetica,sans-Serif" font-size="10.00">observers</text>
</g>
<!-- Node13&#45;&gt;Node4 -->
<g id="edge32" class="edge"><title>Node13&#45;&gt;Node4</title>
<path fill="none" stroke="#9a32cd" stroke-dasharray="5,2" d="M275.06,-574.112C313.981,-510.756 360.786,-434.565 398.115,-373.801"/>
<polygon fill="#9a32cd" stroke="#9a32cd" points="269.622,-582.964 271.022,-572.088 272.239,-578.704 274.857,-574.443 274.857,-574.443 274.857,-574.443 272.239,-578.704 278.691,-576.799 269.622,-582.964 269.622,-582.964"/>
<text text-anchor="middle" x="297.839" y="-554.5" font-family="Helvetica,sans-Serif" font-size="10.00">player</text>
</g>
<!-- Node14 -->
<g id="node31" class="node"><title>Node14</title>
<polygon fill="none" stroke="#bfbfbf" points="695.839,-667.5 695.839,-730.5 790.839,-730.5 790.839,-667.5 695.839,-667.5"/>
<text text-anchor="middle" x="743.339" y="-717.5" font-family="Helvetica,sans-Serif" font-size="10.00">Set&lt; Vulnerable &gt;</text>
<polyline fill="none" stroke="#bfbfbf" points="695.839,-709.5 790.839,-709.5 "/>
<text text-anchor="middle" x="743.339" y="-696.5" font-family="Helvetica,sans-Serif" font-size="10.00"> </text>
<polyline fill="none" stroke="#bfbfbf" points="695.839,-688.5 790.839,-688.5 "/>
<text text-anchor="middle" x="743.339" y="-675.5" font-family="Helvetica,sans-Serif" font-size="10.00"> </text>
</g>
<!-- Node14&#45;&gt;Node4 -->
<g id="edge36" class="edge"><title>Node14&#45;&gt;Node4</title>
<path fill="none" stroke="#9a32cd" stroke-dasharray="5,2" d="M729.823,-657.806C718.961,-627.099 702.259,-584.661 682.339,-550 638.668,-474.015 576.971,-395.578 530.353,-340.441"/>
<polygon fill="#9a32cd" stroke="#9a32cd" points="733.141,-667.339 725.604,-659.374 731.497,-662.617 729.854,-657.895 729.854,-657.895 729.854,-657.895 731.497,-662.617 734.104,-656.416 733.141,-667.339 733.141,-667.339"/>
<text text-anchor="middle" x="713.339" y="-554.5" font-family="Helvetica,sans-Serif" font-size="10.00">hurtEntities</text>
</g>
<!-- Node15&#45;&gt;Node1 -->
<g id="edge38" class="edge"><title>Node15&#45;&gt;Node1</title>
<path fill="none" stroke="#9a32cd" stroke-dasharray="5,2" d="M363.786,-1501.67C372.585,-1398.48 387.017,-1229.24 394.855,-1137.31"/>
<polygon fill="#9a32cd" stroke="#9a32cd" points="362.926,-1511.75 359.292,-1501.4 363.351,-1506.77 363.776,-1501.79 363.776,-1501.79 363.776,-1501.79 363.351,-1506.77 368.26,-1502.17 362.926,-1511.75 362.926,-1511.75"/>
<text text-anchor="middle" x="383.339" y="-1315.5" font-family="Helvetica,sans-Serif" font-size="10.00">p</text>
</g>
</g>
</svg>
