<?xml version="1.0" encoding="UTF-8" standalone="no"?>
<!DOCTYPE svg PUBLIC "-//W3C//DTD SVG 1.1//EN"
 "http://www.w3.org/Graphics/SVG/1.1/DTD/svg11.dtd">
<!-- Generated by graphviz version 2.26.3 (20100126.1600)
 -->
<!-- Title: G Pages: 1 -->
<svg width="1090pt" height="1072pt"
 viewBox="0.00 0.00 1090.00 1072.00" xmlns="http://www.w3.org/2000/svg" xmlns:xlink="http://www.w3.org/1999/xlink">
<g id="graph1" class="graph" transform="scale(1 1) rotate(0) translate(4 1068)">
<title>G</title>
<!-- Node1 -->
<g id="node1" class="node"><title>Node1</title>
<polygon fill="#bfbfbf" stroke="black" points="522,-822.5 522,-963.5 654,-963.5 654,-822.5 522,-822.5"/>
<text text-anchor="middle" x="588" y="-950.5" font-family="Helvetica,sans-Serif" font-size="10.00">jdungeon.core.world.Entity</text>
<polyline fill="none" stroke="black" points="522,-942.5 654,-942.5 "/>
<text text-anchor="start" x="530" y="-929.5" font-family="Helvetica,sans-Serif" font-size="10.00">&#45; w</text>
<text text-anchor="start" x="530" y="-916.5" font-family="Helvetica,sans-Serif" font-size="10.00">&#45; serialVersionUID</text>
<polyline fill="none" stroke="black" points="522,-908.5 654,-908.5 "/>
<text text-anchor="start" x="530" y="-895.5" font-family="Helvetica,sans-Serif" font-size="10.00">+ setWorld()</text>
<text text-anchor="start" x="530" y="-882.5" font-family="Helvetica,sans-Serif" font-size="10.00">+ getWorld()</text>
<text text-anchor="start" x="530" y="-869.5" font-family="Helvetica,sans-Serif" font-size="10.00">+ hitBy()</text>
<text text-anchor="start" x="530" y="-856.5" font-family="Helvetica,sans-Serif" font-size="10.00">+ hitsTo()</text>
<text text-anchor="start" x="530" y="-843.5" font-family="Helvetica,sans-Serif" font-size="10.00">+ near()</text>
<text text-anchor="start" x="530" y="-830.5" font-family="Helvetica,sans-Serif" font-size="10.00">+ clone()</text>
</g>
<!-- Node3 -->
<g id="node5" class="node"><title>Node3</title>
<a xlink:href="classjdungeon_1_1core_1_1world_1_1bonus_1_1_bonus.html" target="_top" xlink:title="{jdungeon.core.world.bonus.Bonus\n|&#45; level\l&#45; serialVersionUID\l|+ Bonus()\l+ hitBy()\l+ near()\l+ getLevel()\l# buff()\l# areaBuff()\l}">
<polygon fill="none" stroke="black" points="232,-520.5 232,-661.5 396,-661.5 396,-520.5 232,-520.5"/>
<text text-anchor="middle" x="314" y="-648.5" font-family="Helvetica,sans-Serif" font-size="10.00">jdungeon.core.world.bonus.Bonus</text>
<polyline fill="none" stroke="black" points="232,-640.5 396,-640.5 "/>
<text text-anchor="start" x="240" y="-627.5" font-family="Helvetica,sans-Serif" font-size="10.00">&#45; level</text>
<text text-anchor="start" x="240" y="-614.5" font-family="Helvetica,sans-Serif" font-size="10.00">&#45; serialVersionUID</text>
<polyline fill="none" stroke="black" points="232,-606.5 396,-606.5 "/>
<text text-anchor="start" x="240" y="-593.5" font-family="Helvetica,sans-Serif" font-size="10.00">+ Bonus()</text>
<text text-anchor="start" x="240" y="-580.5" font-family="Helvetica,sans-Serif" font-size="10.00">+ hitBy()</text>
<text text-anchor="start" x="240" y="-567.5" font-family="Helvetica,sans-Serif" font-size="10.00">+ near()</text>
<text text-anchor="start" x="240" y="-554.5" font-family="Helvetica,sans-Serif" font-size="10.00">+ getLevel()</text>
<text text-anchor="start" x="240" y="-541.5" font-family="Helvetica,sans-Serif" font-size="10.00"># buff()</text>
<text text-anchor="start" x="240" y="-528.5" font-family="Helvetica,sans-Serif" font-size="10.00"># areaBuff()</text>
</a>
</g>
<!-- Node1&#45;&gt;Node3 -->
<g id="edge4" class="edge"><title>Node1&#45;&gt;Node3</title>
<path fill="none" stroke="midnightblue" d="M512.563,-861.848C476.389,-843.926 434.599,-818.47 405,-786 372.659,-750.522 349.858,-701.529 335.167,-661.528"/>
<polygon fill="none" stroke="midnightblue" points="511.102,-865.029 521.628,-866.242 514.156,-858.73 511.102,-865.029"/>
</g>
<!-- Node7 -->
<g id="node13" class="node"><title>Node7</title>
<a xlink:href="classjdungeon_1_1core_1_1world_1_1scenery_1_1_splat.html" target="_top" xlink:title="{jdungeon.core.world.scenery.Splat\n|&#45; serialVersionUID\l&#45; singleton\l|+ getInstance()\l&#45; Splat()\l}">
<polygon fill="none" stroke="black" points="413.5,-546.5 413.5,-635.5 580.5,-635.5 580.5,-546.5 413.5,-546.5"/>
<text text-anchor="middle" x="497" y="-622.5" font-family="Helvetica,sans-Serif" font-size="10.00">jdungeon.core.world.scenery.Splat</text>
<polyline fill="none" stroke="black" points="413.5,-614.5 580.5,-614.5 "/>
<text text-anchor="start" x="421.5" y="-601.5" font-family="Helvetica,sans-Serif" font-size="10.00">&#45; serialVersionUID</text>
<text text-anchor="start" x="421.5" y="-588.5" font-family="Helvetica,sans-Serif" font-size="10.00">&#45; singleton</text>
<polyline fill="none" stroke="black" points="413.5,-580.5 580.5,-580.5 "/>
<text text-anchor="start" x="421.5" y="-567.5" font-family="Helvetica,sans-Serif" font-size="10.00">+ getInstance()</text>
<text text-anchor="start" x="421.5" y="-554.5" font-family="Helvetica,sans-Serif" font-size="10.00">&#45; Splat()</text>
</a>
</g>
<!-- Node1&#45;&gt;Node7 -->
<g id="edge12" class="edge"><title>Node1&#45;&gt;Node7</title>
<path fill="none" stroke="midnightblue" d="M563.755,-812.538C546.676,-755.86 524.445,-682.08 510.444,-635.616"/>
<polygon fill="none" stroke="midnightblue" points="560.428,-813.629 566.665,-822.194 567.131,-811.61 560.428,-813.629"/>
</g>
<!-- Node8 -->
<g id="node15" class="node"><title>Node8</title>
<a xlink:href="classjdungeon_1_1core_1_1world_1_1scenery_1_1_wall.html" target="_top" xlink:title="{jdungeon.core.world.scenery.Wall\n|&#45; serialVersionUID\l&#45; singleton\l|+ hitBy()\l+ getInstance()\l&#45; Wall()\l}">
<polygon fill="none" stroke="black" points="598,-540 598,-642 762,-642 762,-540 598,-540"/>
<text text-anchor="middle" x="680" y="-629" font-family="Helvetica,sans-Serif" font-size="10.00">jdungeon.core.world.scenery.Wall</text>
<polyline fill="none" stroke="black" points="598,-621 762,-621 "/>
<text text-anchor="start" x="606" y="-608" font-family="Helvetica,sans-Serif" font-size="10.00">&#45; serialVersionUID</text>
<text text-anchor="start" x="606" y="-595" font-family="Helvetica,sans-Serif" font-size="10.00">&#45; singleton</text>
<polyline fill="none" stroke="black" points="598,-587 762,-587 "/>
<text text-anchor="start" x="606" y="-574" font-family="Helvetica,sans-Serif" font-size="10.00">+ hitBy()</text>
<text text-anchor="start" x="606" y="-561" font-family="Helvetica,sans-Serif" font-size="10.00">+ getInstance()</text>
<text text-anchor="start" x="606" y="-548" font-family="Helvetica,sans-Serif" font-size="10.00">&#45; Wall()</text>
</a>
</g>
<!-- Node1&#45;&gt;Node8 -->
<g id="edge14" class="edge"><title>Node1&#45;&gt;Node8</title>
<path fill="none" stroke="midnightblue" d="M612.487,-812.618C628.984,-758.464 650.246,-688.671 664.46,-642.013"/>
<polygon fill="none" stroke="midnightblue" points="609.136,-811.608 609.57,-822.194 615.832,-813.648 609.136,-811.608"/>
</g>
<!-- Node9 -->
<g id="node17" class="node"><title>Node9</title>
<a xlink:href="classjdungeon_1_1core_1_1world_1_1_vulnerable.html" target="_top" xlink:title="{jdungeon.core.world.Vulnerable\n|&#45; HP\l&#45; maxHP\l&#45; level\l&#45; strength\l&#45; strengthBonus\l&#45; observers\l&#45; serialVersionUID\l|+ Vulnerable()\l+ getLevel()\l+ getHP()\l+ hitBy()\l+ hitsTo()\l+ heal()\l+ hurtBy()\l+ getStrength()\l+ getRawStrength()\l+ getStrengthBonus()\l+ setStrength()\l+ setStrengthBonus()\l+ setMaxHealth()\l+ getMaxHealth()\l+ setLevel()\l+ awardExperience()\l+ getExperience()\l+ subscribe()\l+ unsubscribe()\l# die()\l}">
<polygon fill="none" stroke="black" points="780,-397 780,-785 932,-785 932,-397 780,-397"/>
<text text-anchor="middle" x="856" y="-772" font-family="Helvetica,sans-Serif" font-size="10.00">jdungeon.core.world.Vulnerable</text>
<polyline fill="none" stroke="black" points="780,-764 932,-764 "/>
<text text-anchor="start" x="788" y="-751" font-family="Helvetica,sans-Serif" font-size="10.00">&#45; HP</text>
<text text-anchor="start" x="788" y="-738" font-family="Helvetica,sans-Serif" font-size="10.00">&#45; maxHP</text>
<text text-anchor="start" x="788" y="-725" font-family="Helvetica,sans-Serif" font-size="10.00">&#45; level</text>
<text text-anchor="start" x="788" y="-712" font-family="Helvetica,sans-Serif" font-size="10.00">&#45; strength</text>
<text text-anchor="start" x="788" y="-699" font-family="Helvetica,sans-Serif" font-size="10.00">&#45; strengthBonus</text>
<text text-anchor="start" x="788" y="-686" font-family="Helvetica,sans-Serif" font-size="10.00">&#45; observers</text>
<text text-anchor="start" x="788" y="-673" font-family="Helvetica,sans-Serif" font-size="10.00">&#45; serialVersionUID</text>
<polyline fill="none" stroke="black" points="780,-665 932,-665 "/>
<text text-anchor="start" x="788" y="-652" font-family="Helvetica,sans-Serif" font-size="10.00">+ Vulnerable()</text>
<text text-anchor="start" x="788" y="-639" font-family="Helvetica,sans-Serif" font-size="10.00">+ getLevel()</text>
<text text-anchor="start" x="788" y="-626" font-family="Helvetica,sans-Serif" font-size="10.00">+ getHP()</text>
<text text-anchor="start" x="788" y="-613" font-family="Helvetica,sans-Serif" font-size="10.00">+ hitBy()</text>
<text text-anchor="start" x="788" y="-600" font-family="Helvetica,sans-Serif" font-size="10.00">+ hitsTo()</text>
<text text-anchor="start" x="788" y="-587" font-family="Helvetica,sans-Serif" font-size="10.00">+ heal()</text>
<text text-anchor="start" x="788" y="-574" font-family="Helvetica,sans-Serif" font-size="10.00">+ hurtBy()</text>
<text text-anchor="start" x="788" y="-561" font-family="Helvetica,sans-Serif" font-size="10.00">+ getStrength()</text>
<text text-anchor="start" x="788" y="-548" font-family="Helvetica,sans-Serif" font-size="10.00">+ getRawStrength()</text>
<text text-anchor="start" x="788" y="-535" font-family="Helvetica,sans-Serif" font-size="10.00">+ getStrengthBonus()</text>
<text text-anchor="start" x="788" y="-522" font-family="Helvetica,sans-Serif" font-size="10.00">+ setStrength()</text>
<text text-anchor="start" x="788" y="-509" font-family="Helvetica,sans-Serif" font-size="10.00">+ setStrengthBonus()</text>
<text text-anchor="start" x="788" y="-496" font-family="Helvetica,sans-Serif" font-size="10.00">+ setMaxHealth()</text>
<text text-anchor="start" x="788" y="-483" font-family="Helvetica,sans-Serif" font-size="10.00">+ getMaxHealth()</text>
<text text-anchor="start" x="788" y="-470" font-family="Helvetica,sans-Serif" font-size="10.00">+ setLevel()</text>
<text text-anchor="start" x="788" y="-457" font-family="Helvetica,sans-Serif" font-size="10.00">+ awardExperience()</text>
<text text-anchor="start" x="788" y="-444" font-family="Helvetica,sans-Serif" font-size="10.00">+ getExperience()</text>
<text text-anchor="start" x="788" y="-431" font-family="Helvetica,sans-Serif" font-size="10.00">+ subscribe()</text>
<text text-anchor="start" x="788" y="-418" font-family="Helvetica,sans-Serif" font-size="10.00">+ unsubscribe()</text>
<text text-anchor="start" x="788" y="-405" font-family="Helvetica,sans-Serif" font-size="10.00"># die()</text>
</a>
</g>
<!-- Node1&#45;&gt;Node9 -->
<g id="edge16" class="edge"><title>Node1&#45;&gt;Node9</title>
<path fill="none" stroke="midnightblue" d="M663.374,-862.375C699.734,-844.524 741.706,-818.973 771,-786 774.066,-782.549 777.035,-778.97 779.91,-775.284"/>
<polygon fill="none" stroke="midnightblue" points="661.764,-859.266 654.262,-866.748 664.792,-865.577 661.764,-859.266"/>
</g>
<!-- Node2 -->
<g id="node2" class="node"><title>Node2</title>
<polygon fill="none" stroke="#bfbfbf" points="554.5,-1000.5 554.5,-1063.5 621.5,-1063.5 621.5,-1000.5 554.5,-1000.5"/>
<text text-anchor="middle" x="588" y="-1050.5" font-family="Helvetica,sans-Serif" font-size="10.00">Serializable</text>
<polyline fill="none" stroke="#bfbfbf" points="554.5,-1042.5 621.5,-1042.5 "/>
<text text-anchor="middle" x="588" y="-1029.5" font-family="Helvetica,sans-Serif" font-size="10.00"> </text>
<polyline fill="none" stroke="#bfbfbf" points="554.5,-1021.5 621.5,-1021.5 "/>
<text text-anchor="middle" x="588" y="-1008.5" font-family="Helvetica,sans-Serif" font-size="10.00"> </text>
</g>
<!-- Node2&#45;&gt;Node1 -->
<g id="edge2" class="edge"><title>Node2&#45;&gt;Node1</title>
<path fill="none" stroke="midnightblue" d="M588,-990.453C588,-981.942 588,-972.76 588,-963.553"/>
<polygon fill="none" stroke="midnightblue" points="584.5,-990.459 588,-1000.46 591.5,-990.459 584.5,-990.459"/>
</g>
<!-- Node4 -->
<g id="node7" class="node"><title>Node4</title>
<a xlink:href="classjdungeon_1_1core_1_1world_1_1bonus_1_1_explorer_bonus.html" target="_top" xlink:title="{jdungeon.core.world.bonus.ExplorerBonus\n|&#45; serialVersionUID\l|+ ExplorerBonus()\l# areaBuff()\l# buff()\l}">
<polygon fill="none" stroke="black" points="0,-198.5 0,-287.5 200,-287.5 200,-198.5 0,-198.5"/>
<text text-anchor="middle" x="100" y="-274.5" font-family="Helvetica,sans-Serif" font-size="10.00">jdungeon.core.world.bonus.ExplorerBonus</text>
<polyline fill="none" stroke="black" points="0,-266.5 200,-266.5 "/>
<text text-anchor="start" x="8" y="-253.5" font-family="Helvetica,sans-Serif" font-size="10.00">&#45; serialVersionUID</text>
<polyline fill="none" stroke="black" points="0,-245.5 200,-245.5 "/>
<text text-anchor="start" x="8" y="-232.5" font-family="Helvetica,sans-Serif" font-size="10.00">+ ExplorerBonus()</text>
<text text-anchor="start" x="8" y="-219.5" font-family="Helvetica,sans-Serif" font-size="10.00"># areaBuff()</text>
<text text-anchor="start" x="8" y="-206.5" font-family="Helvetica,sans-Serif" font-size="10.00"># buff()</text>
</a>
</g>
<!-- Node3&#45;&gt;Node4 -->
<g id="edge6" class="edge"><title>Node3&#45;&gt;Node4</title>
<path fill="none" stroke="midnightblue" d="M265.062,-511.418C222.394,-442.033 162.059,-343.918 127.39,-287.54"/>
<polygon fill="none" stroke="midnightblue" points="262.216,-513.473 270.436,-520.158 268.179,-509.806 262.216,-513.473"/>
</g>
<!-- Node5 -->
<g id="node9" class="node"><title>Node5</title>
<a xlink:href="classjdungeon_1_1core_1_1world_1_1bonus_1_1_health_bonus.html" target="_top" xlink:title="{jdungeon.core.world.bonus.HealthBonus\n|&#45; serialVersionUID\l|+ HealthBonus()\l# areaBuff()\l# buff()\l}">
<polygon fill="none" stroke="black" points="218,-198.5 218,-287.5 410,-287.5 410,-198.5 218,-198.5"/>
<text text-anchor="middle" x="314" y="-274.5" font-family="Helvetica,sans-Serif" font-size="10.00">jdungeon.core.world.bonus.HealthBonus</text>
<polyline fill="none" stroke="black" points="218,-266.5 410,-266.5 "/>
<text text-anchor="start" x="226" y="-253.5" font-family="Helvetica,sans-Serif" font-size="10.00">&#45; serialVersionUID</text>
<polyline fill="none" stroke="black" points="218,-245.5 410,-245.5 "/>
<text text-anchor="start" x="226" y="-232.5" font-family="Helvetica,sans-Serif" font-size="10.00">+ HealthBonus()</text>
<text text-anchor="start" x="226" y="-219.5" font-family="Helvetica,sans-Serif" font-size="10.00"># areaBuff()</text>
<text text-anchor="start" x="226" y="-206.5" font-family="Helvetica,sans-Serif" font-size="10.00"># buff()</text>
</a>
</g>
<!-- Node3&#45;&gt;Node5 -->
<g id="edge8" class="edge"><title>Node3&#45;&gt;Node5</title>
<path fill="none" stroke="midnightblue" d="M314,-510.143C314,-440.836 314,-343.573 314,-287.54"/>
<polygon fill="none" stroke="midnightblue" points="310.5,-510.158 314,-520.158 317.5,-510.158 310.5,-510.158"/>
</g>
<!-- Node6 -->
<g id="node11" class="node"><title>Node6</title>
<a xlink:href="classjdungeon_1_1core_1_1world_1_1bonus_1_1_strength_bonus.html" target="_top" xlink:title="{jdungeon.core.world.bonus.StrengthBonus\n|&#45; serialVersionUID\l|+ StrengthBonus()\l# areaBuff()\l# buff()\l}">
<polygon fill="none" stroke="black" points="428,-198.5 428,-287.5 628,-287.5 628,-198.5 428,-198.5"/>
<text text-anchor="middle" x="528" y="-274.5" font-family="Helvetica,sans-Serif" font-size="10.00">jdungeon.core.world.bonus.StrengthBonus</text>
<polyline fill="none" stroke="black" points="428,-266.5 628,-266.5 "/>
<text text-anchor="start" x="436" y="-253.5" font-family="Helvetica,sans-Serif" font-size="10.00">&#45; serialVersionUID</text>
<polyline fill="none" stroke="black" points="428,-245.5 628,-245.5 "/>
<text text-anchor="start" x="436" y="-232.5" font-family="Helvetica,sans-Serif" font-size="10.00">+ StrengthBonus()</text>
<text text-anchor="start" x="436" y="-219.5" font-family="Helvetica,sans-Serif" font-size="10.00"># areaBuff()</text>
<text text-anchor="start" x="436" y="-206.5" font-family="Helvetica,sans-Serif" font-size="10.00"># buff()</text>
</a>
</g>
<!-- Node3&#45;&gt;Node6 -->
<g id="edge10" class="edge"><title>Node3&#45;&gt;Node6</title>
<path fill="none" stroke="midnightblue" d="M346.229,-510.776C362.044,-474.65 382.524,-432.1 405,-396 429.138,-357.231 461.707,-317.128 487.267,-287.71"/>
<polygon fill="none" stroke="midnightblue" points="342.868,-509.731 342.103,-520.298 349.291,-512.514 342.868,-509.731"/>
</g>
<!-- Node10 -->
<g id="node19" class="node"><title>Node10</title>
<a xlink:href="classjdungeon_1_1core_1_1world_1_1creatures_1_1_monster.html" target="_top" xlink:title="{jdungeon.core.world.creatures.Monster\n|&#45; serialVersionUID\l|+ Monster()\l+ awardExperience()\l+ getExperience()\l+ hurtBy()\l&#45; computeHealth()\l&#45; computeStrength()\l}">
<polygon fill="none" stroke="black" points="704.5,-179 704.5,-307 889.5,-307 889.5,-179 704.5,-179"/>
<text text-anchor="middle" x="797" y="-294" font-family="Helvetica,sans-Serif" font-size="10.00">jdungeon.core.world.creatures.Monster</text>
<polyline fill="none" stroke="black" points="704.5,-286 889.5,-286 "/>
<text text-anchor="start" x="712.5" y="-273" font-family="Helvetica,sans-Serif" font-size="10.00">&#45; serialVersionUID</text>
<polyline fill="none" stroke="black" points="704.5,-265 889.5,-265 "/>
<text text-anchor="start" x="712.5" y="-252" font-family="Helvetica,sans-Serif" font-size="10.00">+ Monster()</text>
<text text-anchor="start" x="712.5" y="-239" font-family="Helvetica,sans-Serif" font-size="10.00">+ awardExperience()</text>
<text text-anchor="start" x="712.5" y="-226" font-family="Helvetica,sans-Serif" font-size="10.00">+ getExperience()</text>
<text text-anchor="start" x="712.5" y="-213" font-family="Helvetica,sans-Serif" font-size="10.00">+ hurtBy()</text>
<text text-anchor="start" x="712.5" y="-200" font-family="Helvetica,sans-Serif" font-size="10.00">&#45; computeHealth()</text>
<text text-anchor="start" x="712.5" y="-187" font-family="Helvetica,sans-Serif" font-size="10.00">&#45; computeStrength()</text>
</a>
</g>
<!-- Node9&#45;&gt;Node10 -->
<g id="edge18" class="edge"><title>Node9&#45;&gt;Node10</title>
<path fill="none" stroke="midnightblue" d="M821.36,-386.682C816.481,-357.903 811.795,-330.265 807.859,-307.05"/>
<polygon fill="none" stroke="midnightblue" points="817.971,-387.63 823.093,-396.904 824.872,-386.46 817.971,-387.63"/>
</g>
<!-- Node14 -->
<g id="node27" class="node"><title>Node14</title>
<a xlink:href="classjdungeon_1_1core_1_1world_1_1_player.html" target="_top" xlink:title="{jdungeon.core.world.Player\n|&#45; experience\l&#45; name\l&#45; serialVersionUID\l|+ Player()\l+ setWorld()\l+ getName()\l+ setName()\l+ getExperienceForNextLevel()\l+ getExperience()\l+ moveLeft()\l+ moveRight()\l+ moveUp()\l+ moveDown()\l+ awardExperience()\l&#45; move()\l}">
<polygon fill="none" stroke="black" points="907,-127 907,-359 1059,-359 1059,-127 907,-127"/>
<text text-anchor="middle" x="983" y="-346" font-family="Helvetica,sans-Serif" font-size="10.00">jdungeon.core.world.Player</text>
<polyline fill="none" stroke="black" points="907,-338 1059,-338 "/>
<text text-anchor="start" x="915" y="-325" font-family="Helvetica,sans-Serif" font-size="10.00">&#45; experience</text>
<text text-anchor="start" x="915" y="-312" font-family="Helvetica,sans-Serif" font-size="10.00">&#45; name</text>
<text text-anchor="start" x="915" y="-299" font-family="Helvetica,sans-Serif" font-size="10.00">&#45; serialVersionUID</text>
<polyline fill="none" stroke="black" points="907,-291 1059,-291 "/>
<text text-anchor="start" x="915" y="-278" font-family="Helvetica,sans-Serif" font-size="10.00">+ Player()</text>
<text text-anchor="start" x="915" y="-265" font-family="Helvetica,sans-Serif" font-size="10.00">+ setWorld()</text>
<text text-anchor="start" x="915" y="-252" font-family="Helvetica,sans-Serif" font-size="10.00">+ getName()</text>
<text text-anchor="start" x="915" y="-239" font-family="Helvetica,sans-Serif" font-size="10.00">+ setName()</text>
<text text-anchor="start" x="915" y="-226" font-family="Helvetica,sans-Serif" font-size="10.00">+ getExperienceForNextLevel()</text>
<text text-anchor="start" x="915" y="-213" font-family="Helvetica,sans-Serif" font-size="10.00">+ getExperience()</text>
<text text-anchor="start" x="915" y="-200" font-family="Helvetica,sans-Serif" font-size="10.00">+ moveLeft()</text>
<text text-anchor="start" x="915" y="-187" font-family="Helvetica,sans-Serif" font-size="10.00">+ moveRight()</text>
<text text-anchor="start" x="915" y="-174" font-family="Helvetica,sans-Serif" font-size="10.00">+ moveUp()</text>
<text text-anchor="start" x="915" y="-161" font-family="Helvetica,sans-Serif" font-size="10.00">+ moveDown()</text>
<text text-anchor="start" x="915" y="-148" font-family="Helvetica,sans-Serif" font-size="10.00">+ awardExperience()</text>
<text text-anchor="start" x="915" y="-135" font-family="Helvetica,sans-Serif" font-size="10.00">&#45; move()</text>
</a>
</g>
<!-- Node9&#45;&gt;Node14 -->
<g id="edge26" class="edge"><title>Node9&#45;&gt;Node14</title>
<path fill="none" stroke="midnightblue" d="M930.321,-387.35C933.794,-377.831 937.224,-368.435 940.565,-359.279"/>
<polygon fill="none" stroke="midnightblue" points="926.974,-386.31 926.834,-396.904 933.55,-388.71 926.974,-386.31"/>
</g>
<!-- Node11 -->
<g id="node21" class="node"><title>Node11</title>
<a xlink:href="classjdungeon_1_1core_1_1world_1_1creatures_1_1_dragon.html" target="_top" xlink:title="{jdungeon.core.world.creatures.Dragon\n|&#45; serialVersionUID\l&#45; F\l&#45; S\l|+ Dragon()\l}">
<polygon fill="none" stroke="black" points="508,-0.5 508,-89.5 690,-89.5 690,-0.5 508,-0.5"/>
<text text-anchor="middle" x="599" y="-76.5" font-family="Helvetica,sans-Serif" font-size="10.00">jdungeon.core.world.creatures.Dragon</text>
<polyline fill="none" stroke="black" points="508,-68.5 690,-68.5 "/>
<text text-anchor="start" x="516" y="-55.5" font-family="Helvetica,sans-Serif" font-size="10.00">&#45; serialVersionUID</text>
<text text-anchor="start" x="516" y="-42.5" font-family="Helvetica,sans-Serif" font-size="10.00">&#45; F</text>
<text text-anchor="start" x="516" y="-29.5" font-family="Helvetica,sans-Serif" font-size="10.00">&#45; S</text>
<polyline fill="none" stroke="black" points="508,-21.5 690,-21.5 "/>
<text text-anchor="start" x="516" y="-8.5" font-family="Helvetica,sans-Serif" font-size="10.00">+ Dragon()</text>
</a>
</g>
<!-- Node10&#45;&gt;Node11 -->
<g id="edge20" class="edge"><title>Node10&#45;&gt;Node11</title>
<path fill="none" stroke="midnightblue" d="M725.728,-171.728C698.344,-144.344 667.881,-113.881 643.687,-89.6868"/>
<polygon fill="none" stroke="midnightblue" points="723.443,-174.392 732.989,-178.989 728.392,-169.443 723.443,-174.392"/>
</g>
<!-- Node12 -->
<g id="node23" class="node"><title>Node12</title>
<a xlink:href="classjdungeon_1_1core_1_1world_1_1creatures_1_1_golem.html" target="_top" xlink:title="{jdungeon.core.world.creatures.Golem\n|&#45; serialVersionUID\l&#45; S\l&#45; F\l|+ Golem()\l}">
<polygon fill="none" stroke="black" points="707.5,-0.5 707.5,-89.5 886.5,-89.5 886.5,-0.5 707.5,-0.5"/>
<text text-anchor="middle" x="797" y="-76.5" font-family="Helvetica,sans-Serif" font-size="10.00">jdungeon.core.world.creatures.Golem</text>
<polyline fill="none" stroke="black" points="707.5,-68.5 886.5,-68.5 "/>
<text text-anchor="start" x="715.5" y="-55.5" font-family="Helvetica,sans-Serif" font-size="10.00">&#45; serialVersionUID</text>
<text text-anchor="start" x="715.5" y="-42.5" font-family="Helvetica,sans-Serif" font-size="10.00">&#45; S</text>
<text text-anchor="start" x="715.5" y="-29.5" font-family="Helvetica,sans-Serif" font-size="10.00">&#45; F</text>
<polyline fill="none" stroke="black" points="707.5,-21.5 886.5,-21.5 "/>
<text text-anchor="start" x="715.5" y="-8.5" font-family="Helvetica,sans-Serif" font-size="10.00">+ Golem()</text>
</a>
</g>
<!-- Node10&#45;&gt;Node12 -->
<g id="edge22" class="edge"><title>Node10&#45;&gt;Node12</title>
<path fill="none" stroke="midnightblue" d="M797,-168.921C797,-142.277 797,-113.058 797,-89.6868"/>
<polygon fill="none" stroke="midnightblue" points="793.5,-168.988 797,-178.989 800.5,-168.989 793.5,-168.988"/>
</g>
<!-- Node13 -->
<g id="node25" class="node"><title>Node13</title>
<a xlink:href="classjdungeon_1_1core_1_1world_1_1creatures_1_1_snake.html" target="_top" xlink:title="{jdungeon.core.world.creatures.Snake\n|&#45; serialVersionUID\l&#45; S\l&#45; F\l|+ Snake()\l}">
<polygon fill="none" stroke="black" points="904,-0.5 904,-89.5 1082,-89.5 1082,-0.5 904,-0.5"/>
<text text-anchor="middle" x="993" y="-76.5" font-family="Helvetica,sans-Serif" font-size="10.00">jdungeon.core.world.creatures.Snake</text>
<polyline fill="none" stroke="black" points="904,-68.5 1082,-68.5 "/>
<text text-anchor="start" x="912" y="-55.5" font-family="Helvetica,sans-Serif" font-size="10.00">&#45; serialVersionUID</text>
<text text-anchor="start" x="912" y="-42.5" font-family="Helvetica,sans-Serif" font-size="10.00">&#45; S</text>
<text text-anchor="start" x="912" y="-29.5" font-family="Helvetica,sans-Serif" font-size="10.00">&#45; F</text>
<polyline fill="none" stroke="black" points="904,-21.5 1082,-21.5 "/>
<text text-anchor="start" x="912" y="-8.5" font-family="Helvetica,sans-Serif" font-size="10.00">+ Snake()</text>
</a>
</g>
<!-- Node10&#45;&gt;Node13 -->
<g id="edge24" class="edge"><title>Node10&#45;&gt;Node13</title>
<path fill="none" stroke="midnightblue" d="M856.159,-170.955C869.502,-155.716 883.9,-140.014 898,-126 910.298,-113.777 924.187,-101.283 937.472,-89.8811"/>
<polygon fill="none" stroke="midnightblue" points="853.2,-169.025 849.285,-178.87 858.485,-173.615 853.2,-169.025"/>
</g>
</g>
</svg>
