<?xml version="1.0" encoding="UTF-8" standalone="no"?>
<!DOCTYPE svg PUBLIC "-//W3C//DTD SVG 1.1//EN"
 "http://www.w3.org/Graphics/SVG/1.1/DTD/svg11.dtd">
<!-- Generated by graphviz version 2.26.3 (20100126.1600)
 -->
<!-- Title: G Pages: 1 -->
<svg width="951pt" height="1932pt"
 viewBox="0.00 0.00 951.00 1932.00" xmlns="http://www.w3.org/2000/svg" xmlns:xlink="http://www.w3.org/1999/xlink">
<g id="graph1" class="graph" transform="scale(1 1) rotate(0) translate(4 1928)">
<title>G</title>
<!-- Node1 -->
<g id="node1" class="node"><title>Node1</title>
<polygon fill="#bfbfbf" stroke="black" points="234.5,-1028.5 234.5,-1117.5 401.5,-1117.5 401.5,-1028.5 234.5,-1028.5"/>
<text text-anchor="middle" x="318" y="-1104.5" font-family="Helvetica,sans-Serif" font-size="10.00">jdungeon.core.world.scenery.Splat</text>
<polyline fill="none" stroke="black" points="234.5,-1096.5 401.5,-1096.5 "/>
<text text-anchor="start" x="242.5" y="-1083.5" font-family="Helvetica,sans-Serif" font-size="10.00">&#45; serialVersionUID</text>
<text text-anchor="start" x="242.5" y="-1070.5" font-family="Helvetica,sans-Serif" font-size="10.00">&#45; singleton</text>
<polyline fill="none" stroke="black" points="234.5,-1062.5 401.5,-1062.5 "/>
<text text-anchor="start" x="242.5" y="-1049.5" font-family="Helvetica,sans-Serif" font-size="10.00">+ getInstance()</text>
<text text-anchor="start" x="242.5" y="-1036.5" font-family="Helvetica,sans-Serif" font-size="10.00">&#45; Splat()</text>
</g>
<!-- Node1&#45;&gt;Node1 -->
<g id="edge38" class="edge"><title>Node1&#45;&gt;Node1</title>
<path fill="none" stroke="#9a32cd" stroke-dasharray="5,2" d="M409.526,-1103.04C415.431,-1096.02 419,-1086.01 419,-1073 419,-1054.9 412.092,-1042.6 401.594,-1036.1"/>
<polygon fill="#9a32cd" stroke="#9a32cd" points="401.594,-1109.9 406.212,-1099.96 405.375,-1106.63 409.156,-1103.36 409.156,-1103.36 409.156,-1103.36 405.375,-1106.63 412.101,-1106.76 401.594,-1109.9 401.594,-1109.9"/>
<text text-anchor="middle" x="439" y="-1070.5" font-family="Helvetica,sans-Serif" font-size="10.00">singleton</text>
</g>
<!-- Node2 -->
<g id="node2" class="node"><title>Node2</title>
<a xlink:href="classjdungeon_1_1core_1_1world_1_1_entity.html" target="_top" xlink:title="{jdungeon.core.world.Entity\n|&#45; w\l&#45; serialVersionUID\l|+ setWorld()\l+ getWorld()\l+ hitBy()\l+ hitsTo()\l+ near()\l+ clone()\l}">
<polygon fill="none" stroke="black" points="294,-1518.5 294,-1659.5 426,-1659.5 426,-1518.5 294,-1518.5"/>
<text text-anchor="middle" x="360" y="-1646.5" font-family="Helvetica,sans-Serif" font-size="10.00">jdungeon.core.world.Entity</text>
<polyline fill="none" stroke="black" points="294,-1638.5 426,-1638.5 "/>
<text text-anchor="start" x="302" y="-1625.5" font-family="Helvetica,sans-Serif" font-size="10.00">&#45; w</text>
<text text-anchor="start" x="302" y="-1612.5" font-family="Helvetica,sans-Serif" font-size="10.00">&#45; serialVersionUID</text>
<polyline fill="none" stroke="black" points="294,-1604.5 426,-1604.5 "/>
<text text-anchor="start" x="302" y="-1591.5" font-family="Helvetica,sans-Serif" font-size="10.00">+ setWorld()</text>
<text text-anchor="start" x="302" y="-1578.5" font-family="Helvetica,sans-Serif" font-size="10.00">+ getWorld()</text>
<text text-anchor="start" x="302" y="-1565.5" font-family="Helvetica,sans-Serif" font-size="10.00">+ hitBy()</text>
<text text-anchor="start" x="302" y="-1552.5" font-family="Helvetica,sans-Serif" font-size="10.00">+ hitsTo()</text>
<text text-anchor="start" x="302" y="-1539.5" font-family="Helvetica,sans-Serif" font-size="10.00">+ near()</text>
<text text-anchor="start" x="302" y="-1526.5" font-family="Helvetica,sans-Serif" font-size="10.00">+ clone()</text>
</a>
</g>
<!-- Node2&#45;&gt;Node1 -->
<g id="edge2" class="edge"><title>Node2&#45;&gt;Node1</title>
<path fill="none" stroke="midnightblue" d="M353.43,-1508.28C344.473,-1398.24 328.735,-1204.89 321.645,-1117.78"/>
<polygon fill="none" stroke="midnightblue" points="349.948,-1508.65 354.248,-1518.33 356.925,-1508.08 349.948,-1508.65"/>
</g>
<!-- Node10 -->
<g id="node21" class="node"><title>Node10</title>
<a xlink:href="classjdungeon_1_1core_1_1world_1_1_vulnerable.html" target="_top" xlink:title="{jdungeon.core.world.Vulnerable\n|&#45; HP\l&#45; maxHP\l&#45; level\l&#45; strength\l&#45; strengthBonus\l&#45; observers\l&#45; serialVersionUID\l|+ Vulnerable()\l+ getLevel()\l+ getHP()\l+ hitBy()\l+ hitsTo()\l+ heal()\l+ hurtBy()\l+ getStrength()\l+ getRawStrength()\l+ getStrengthBonus()\l+ setStrength()\l+ setStrengthBonus()\l+ setMaxHealth()\l+ getMaxHealth()\l+ setLevel()\l+ awardExperience()\l+ getExperience()\l+ subscribe()\l+ unsubscribe()\l# die()\l}">
<polygon fill="none" stroke="black" points="477,-879 477,-1267 629,-1267 629,-879 477,-879"/>
<text text-anchor="middle" x="553" y="-1254" font-family="Helvetica,sans-Serif" font-size="10.00">jdungeon.core.world.Vulnerable</text>
<polyline fill="none" stroke="black" points="477,-1246 629,-1246 "/>
<text text-anchor="start" x="485" y="-1233" font-family="Helvetica,sans-Serif" font-size="10.00">&#45; HP</text>
<text text-anchor="start" x="485" y="-1220" font-family="Helvetica,sans-Serif" font-size="10.00">&#45; maxHP</text>
<text text-anchor="start" x="485" y="-1207" font-family="Helvetica,sans-Serif" font-size="10.00">&#45; level</text>
<text text-anchor="start" x="485" y="-1194" font-family="Helvetica,sans-Serif" font-size="10.00">&#45; strength</text>
<text text-anchor="start" x="485" y="-1181" font-family="Helvetica,sans-Serif" font-size="10.00">&#45; strengthBonus</text>
<text text-anchor="start" x="485" y="-1168" font-family="Helvetica,sans-Serif" font-size="10.00">&#45; observers</text>
<text text-anchor="start" x="485" y="-1155" font-family="Helvetica,sans-Serif" font-size="10.00">&#45; serialVersionUID</text>
<polyline fill="none" stroke="black" points="477,-1147 629,-1147 "/>
<text text-anchor="start" x="485" y="-1134" font-family="Helvetica,sans-Serif" font-size="10.00">+ Vulnerable()</text>
<text text-anchor="start" x="485" y="-1121" font-family="Helvetica,sans-Serif" font-size="10.00">+ getLevel()</text>
<text text-anchor="start" x="485" y="-1108" font-family="Helvetica,sans-Serif" font-size="10.00">+ getHP()</text>
<text text-anchor="start" x="485" y="-1095" font-family="Helvetica,sans-Serif" font-size="10.00">+ hitBy()</text>
<text text-anchor="start" x="485" y="-1082" font-family="Helvetica,sans-Serif" font-size="10.00">+ hitsTo()</text>
<text text-anchor="start" x="485" y="-1069" font-family="Helvetica,sans-Serif" font-size="10.00">+ heal()</text>
<text text-anchor="start" x="485" y="-1056" font-family="Helvetica,sans-Serif" font-size="10.00">+ hurtBy()</text>
<text text-anchor="start" x="485" y="-1043" font-family="Helvetica,sans-Serif" font-size="10.00">+ getStrength()</text>
<text text-anchor="start" x="485" y="-1030" font-family="Helvetica,sans-Serif" font-size="10.00">+ getRawStrength()</text>
<text text-anchor="start" x="485" y="-1017" font-family="Helvetica,sans-Serif" font-size="10.00">+ getStrengthBonus()</text>
<text text-anchor="start" x="485" y="-1004" font-family="Helvetica,sans-Serif" font-size="10.00">+ setStrength()</text>
<text text-anchor="start" x="485" y="-991" font-family="Helvetica,sans-Serif" font-size="10.00">+ setStrengthBonus()</text>
<text text-anchor="start" x="485" y="-978" font-family="Helvetica,sans-Serif" font-size="10.00">+ setMaxHealth()</text>
<text text-anchor="start" x="485" y="-965" font-family="Helvetica,sans-Serif" font-size="10.00">+ getMaxHealth()</text>
<text text-anchor="start" x="485" y="-952" font-family="Helvetica,sans-Serif" font-size="10.00">+ setLevel()</text>
<text text-anchor="start" x="485" y="-939" font-family="Helvetica,sans-Serif" font-size="10.00">+ awardExperience()</text>
<text text-anchor="start" x="485" y="-926" font-family="Helvetica,sans-Serif" font-size="10.00">+ getExperience()</text>
<text text-anchor="start" x="485" y="-913" font-family="Helvetica,sans-Serif" font-size="10.00">+ subscribe()</text>
<text text-anchor="start" x="485" y="-900" font-family="Helvetica,sans-Serif" font-size="10.00">+ unsubscribe()</text>
<text text-anchor="start" x="485" y="-887" font-family="Helvetica,sans-Serif" font-size="10.00"># die()</text>
</a>
</g>
<!-- Node2&#45;&gt;Node10 -->
<g id="edge26" class="edge"><title>Node2&#45;&gt;Node10</title>
<path fill="none" stroke="midnightblue" d="M390.059,-1508.64C414.18,-1444.15 449.065,-1350.88 480.372,-1267.18"/>
<polygon fill="none" stroke="midnightblue" points="386.656,-1507.74 386.431,-1518.33 393.213,-1510.19 386.656,-1507.74"/>
</g>
<!-- Node3 -->
<g id="node4" class="node"><title>Node3</title>
<polygon fill="none" stroke="#bfbfbf" points="459.5,-1860.5 459.5,-1923.5 526.5,-1923.5 526.5,-1860.5 459.5,-1860.5"/>
<text text-anchor="middle" x="493" y="-1910.5" font-family="Helvetica,sans-Serif" font-size="10.00">Serializable</text>
<polyline fill="none" stroke="#bfbfbf" points="459.5,-1902.5 526.5,-1902.5 "/>
<text text-anchor="middle" x="493" y="-1889.5" font-family="Helvetica,sans-Serif" font-size="10.00"> </text>
<polyline fill="none" stroke="#bfbfbf" points="459.5,-1881.5 526.5,-1881.5 "/>
<text text-anchor="middle" x="493" y="-1868.5" font-family="Helvetica,sans-Serif" font-size="10.00"> </text>
</g>
<!-- Node3&#45;&gt;Node2 -->
<g id="edge4" class="edge"><title>Node3&#45;&gt;Node2</title>
<path fill="none" stroke="midnightblue" d="M475.043,-1851.09C453.513,-1802.04 417.07,-1719.02 390.968,-1659.55"/>
<polygon fill="none" stroke="midnightblue" points="471.919,-1852.68 479.143,-1860.43 478.329,-1849.87 471.919,-1852.68"/>
</g>
<!-- Node4 -->
<g id="node6" class="node"><title>Node4</title>
<a xlink:href="classjdungeon_1_1core_1_1world_1_1_world.html" target="_top" xlink:title="{jdungeon.core.world.World\n|&#45; board\l&#45; player\l&#45; boss\l&#45; observers\l&#45; hurtEntities\l&#45; playerObserver\l&#45; bossObserver\l&#45; sizeX\l&#45; sizeY\l&#45; serialVersionUID\l|+ World()\l+ clone()\l+ getX()\l+ getY()\l+ getHurtEntities()\l+ subscribe()\l+ unsubscribe()\l+ add()\l+ add()\l+ add()\l+ add()\l+ remove()\l+ remove()\l+ getPlayer()\l+ getBoss()\l+ syncEvent()\l+ replace()\l~ addHurtEntity()\l~ removeHurtEntity()\l~ notifyChange()\l~ notifyChange()\l~ notifyChange()\l~ notifyChange()\l~ getEntityInPoint()\l# move()\l# moveDelta()\l# clearView()\l&#45; area()\l}">
<polygon fill="none" stroke="black" points="554,-0.5 554,-531.5 686,-531.5 686,-0.5 554,-0.5"/>
<text text-anchor="middle" x="620" y="-518.5" font-family="Helvetica,sans-Serif" font-size="10.00">jdungeon.core.world.World</text>
<polyline fill="none" stroke="black" points="554,-510.5 686,-510.5 "/>
<text text-anchor="start" x="562" y="-497.5" font-family="Helvetica,sans-Serif" font-size="10.00">&#45; board</text>
<text text-anchor="start" x="562" y="-484.5" font-family="Helvetica,sans-Serif" font-size="10.00">&#45; player</text>
<text text-anchor="start" x="562" y="-471.5" font-family="Helvetica,sans-Serif" font-size="10.00">&#45; boss</text>
<text text-anchor="start" x="562" y="-458.5" font-family="Helvetica,sans-Serif" font-size="10.00">&#45; observers</text>
<text text-anchor="start" x="562" y="-445.5" font-family="Helvetica,sans-Serif" font-size="10.00">&#45; hurtEntities</text>
<text text-anchor="start" x="562" y="-432.5" font-family="Helvetica,sans-Serif" font-size="10.00">&#45; playerObserver</text>
<text text-anchor="start" x="562" y="-419.5" font-family="Helvetica,sans-Serif" font-size="10.00">&#45; bossObserver</text>
<text text-anchor="start" x="562" y="-406.5" font-family="Helvetica,sans-Serif" font-size="10.00">&#45; sizeX</text>
<text text-anchor="start" x="562" y="-393.5" font-family="Helvetica,sans-Serif" font-size="10.00">&#45; sizeY</text>
<text text-anchor="start" x="562" y="-380.5" font-family="Helvetica,sans-Serif" font-size="10.00">&#45; serialVersionUID</text>
<polyline fill="none" stroke="black" points="554,-372.5 686,-372.5 "/>
<text text-anchor="start" x="562" y="-359.5" font-family="Helvetica,sans-Serif" font-size="10.00">+ World()</text>
<text text-anchor="start" x="562" y="-346.5" font-family="Helvetica,sans-Serif" font-size="10.00">+ clone()</text>
<text text-anchor="start" x="562" y="-333.5" font-family="Helvetica,sans-Serif" font-size="10.00">+ getX()</text>
<text text-anchor="start" x="562" y="-320.5" font-family="Helvetica,sans-Serif" font-size="10.00">+ getY()</text>
<text text-anchor="start" x="562" y="-307.5" font-family="Helvetica,sans-Serif" font-size="10.00">+ getHurtEntities()</text>
<text text-anchor="start" x="562" y="-294.5" font-family="Helvetica,sans-Serif" font-size="10.00">+ subscribe()</text>
<text text-anchor="start" x="562" y="-281.5" font-family="Helvetica,sans-Serif" font-size="10.00">+ unsubscribe()</text>
<text text-anchor="start" x="562" y="-268.5" font-family="Helvetica,sans-Serif" font-size="10.00">+ add()</text>
<text text-anchor="start" x="562" y="-255.5" font-family="Helvetica,sans-Serif" font-size="10.00">+ add()</text>
<text text-anchor="start" x="562" y="-242.5" font-family="Helvetica,sans-Serif" font-size="10.00">+ add()</text>
<text text-anchor="start" x="562" y="-229.5" font-family="Helvetica,sans-Serif" font-size="10.00">+ add()</text>
<text text-anchor="start" x="562" y="-216.5" font-family="Helvetica,sans-Serif" font-size="10.00">+ remove()</text>
<text text-anchor="start" x="562" y="-203.5" font-family="Helvetica,sans-Serif" font-size="10.00">+ remove()</text>
<text text-anchor="start" x="562" y="-190.5" font-family="Helvetica,sans-Serif" font-size="10.00">+ getPlayer()</text>
<text text-anchor="start" x="562" y="-177.5" font-family="Helvetica,sans-Serif" font-size="10.00">+ getBoss()</text>
<text text-anchor="start" x="562" y="-164.5" font-family="Helvetica,sans-Serif" font-size="10.00">+ syncEvent()</text>
<text text-anchor="start" x="562" y="-151.5" font-family="Helvetica,sans-Serif" font-size="10.00">+ replace()</text>
<text text-anchor="start" x="562" y="-138.5" font-family="Helvetica,sans-Serif" font-size="10.00">~ addHurtEntity()</text>
<text text-anchor="start" x="562" y="-125.5" font-family="Helvetica,sans-Serif" font-size="10.00">~ removeHurtEntity()</text>
<text text-anchor="start" x="562" y="-112.5" font-family="Helvetica,sans-Serif" font-size="10.00">~ notifyChange()</text>
<text text-anchor="start" x="562" y="-99.5" font-family="Helvetica,sans-Serif" font-size="10.00">~ notifyChange()</text>
<text text-anchor="start" x="562" y="-86.5" font-family="Helvetica,sans-Serif" font-size="10.00">~ notifyChange()</text>
<text text-anchor="start" x="562" y="-73.5" font-family="Helvetica,sans-Serif" font-size="10.00">~ notifyChange()</text>
<text text-anchor="start" x="562" y="-60.5" font-family="Helvetica,sans-Serif" font-size="10.00">~ getEntityInPoint()</text>
<text text-anchor="start" x="562" y="-47.5" font-family="Helvetica,sans-Serif" font-size="10.00"># move()</text>
<text text-anchor="start" x="562" y="-34.5" font-family="Helvetica,sans-Serif" font-size="10.00"># moveDelta()</text>
<text text-anchor="start" x="562" y="-21.5" font-family="Helvetica,sans-Serif" font-size="10.00"># clearView()</text>
<text text-anchor="start" x="562" y="-8.5" font-family="Helvetica,sans-Serif" font-size="10.00">&#45; area()</text>
</a>
</g>
<!-- Node3&#45;&gt;Node4 -->
<g id="edge8" class="edge"><title>Node3&#45;&gt;Node4</title>
<path fill="none" stroke="midnightblue" d="M536.111,-1877.66C567.216,-1864.95 607.392,-1843.19 629,-1810 683.02,-1727.03 657,-1688.01 657,-1589 657,-1589 657,-1589 657,-699 657,-644.772 654.083,-586.862 649.888,-531.613"/>
<polygon fill="none" stroke="midnightblue" points="534.814,-1874.41 526.78,-1881.31 537.367,-1880.92 534.814,-1874.41"/>
</g>
<!-- Node5 -->
<g id="node9" class="node"><title>Node5</title>
<a xlink:href="interfacejdungeon_1_1core_1_1world_1_1_vulnerable_observer.html" target="_top" xlink:title="{jdungeon.core.world.VulnerableObserver\n||+ onDeath()\l}">
<polygon fill="none" stroke="black" points="0,-1286.5 0,-1349.5 192,-1349.5 192,-1286.5 0,-1286.5"/>
<text text-anchor="middle" x="96" y="-1336.5" font-family="Helvetica,sans-Serif" font-size="10.00">jdungeon.core.world.VulnerableObserver</text>
<polyline fill="none" stroke="black" points="0,-1328.5 192,-1328.5 "/>
<text text-anchor="middle" x="96" y="-1315.5" font-family="Helvetica,sans-Serif" font-size="10.00"> </text>
<polyline fill="none" stroke="black" points="0,-1307.5 192,-1307.5 "/>
<text text-anchor="start" x="8" y="-1294.5" font-family="Helvetica,sans-Serif" font-size="10.00">+ onDeath()</text>
</a>
</g>
<!-- Node3&#45;&gt;Node5 -->
<g id="edge12" class="edge"><title>Node3&#45;&gt;Node5</title>
<path fill="none" stroke="midnightblue" d="M449.158,-1885.37C402.654,-1876.17 329.84,-1855.23 285,-1810 151.333,-1675.16 110.182,-1435.67 99.3877,-1349.77"/>
<polygon fill="none" stroke="midnightblue" points="448.761,-1888.86 459.235,-1887.26 450.052,-1881.98 448.761,-1888.86"/>
</g>
<!-- Node6 -->
<g id="node12" class="node"><title>Node6</title>
<a xlink:href="classjdungeon_1_1core_1_1world_1_1_board.html" target="_top" xlink:title="{jdungeon.core.world.Board\n|&#45; name\l&#45; cells\l&#45; entities\l&#45; sizeY\l&#45; sizeX\l&#45; serialVersionUID\l&#45; MAX_SIZE\l&#45; MIN_SIZE\l|+ Board()\l+ getSizeY()\l+ getSizeX()\l+ replace()\l+ setName()\l+ getName()\l+ iterator()\l+ filter()\l# neighbours()\l# neighbours()\l# in()\l# in()\l# add()\l# add()\l# remove()\l# contains()\l# move()\l# move()\l# getEntityPos()\l&#45; initMatrix()\l&#45; isValidPoint()\l&#45; isValidPoint()\l&#45; warpTo()\l}">
<polygon fill="none" stroke="black" points="685,-1369 685,-1809 817,-1809 817,-1369 685,-1369"/>
<text text-anchor="middle" x="751" y="-1796" font-family="Helvetica,sans-Serif" font-size="10.00">jdungeon.core.world.Board</text>
<polyline fill="none" stroke="black" points="685,-1788 817,-1788 "/>
<text text-anchor="start" x="693" y="-1775" font-family="Helvetica,sans-Serif" font-size="10.00">&#45; name</text>
<text text-anchor="start" x="693" y="-1762" font-family="Helvetica,sans-Serif" font-size="10.00">&#45; cells</text>
<text text-anchor="start" x="693" y="-1749" font-family="Helvetica,sans-Serif" font-size="10.00">&#45; entities</text>
<text text-anchor="start" x="693" y="-1736" font-family="Helvetica,sans-Serif" font-size="10.00">&#45; sizeY</text>
<text text-anchor="start" x="693" y="-1723" font-family="Helvetica,sans-Serif" font-size="10.00">&#45; sizeX</text>
<text text-anchor="start" x="693" y="-1710" font-family="Helvetica,sans-Serif" font-size="10.00">&#45; serialVersionUID</text>
<text text-anchor="start" x="693" y="-1697" font-family="Helvetica,sans-Serif" font-size="10.00">&#45; MAX_SIZE</text>
<text text-anchor="start" x="693" y="-1684" font-family="Helvetica,sans-Serif" font-size="10.00">&#45; MIN_SIZE</text>
<polyline fill="none" stroke="black" points="685,-1676 817,-1676 "/>
<text text-anchor="start" x="693" y="-1663" font-family="Helvetica,sans-Serif" font-size="10.00">+ Board()</text>
<text text-anchor="start" x="693" y="-1650" font-family="Helvetica,sans-Serif" font-size="10.00">+ getSizeY()</text>
<text text-anchor="start" x="693" y="-1637" font-family="Helvetica,sans-Serif" font-size="10.00">+ getSizeX()</text>
<text text-anchor="start" x="693" y="-1624" font-family="Helvetica,sans-Serif" font-size="10.00">+ replace()</text>
<text text-anchor="start" x="693" y="-1611" font-family="Helvetica,sans-Serif" font-size="10.00">+ setName()</text>
<text text-anchor="start" x="693" y="-1598" font-family="Helvetica,sans-Serif" font-size="10.00">+ getName()</text>
<text text-anchor="start" x="693" y="-1585" font-family="Helvetica,sans-Serif" font-size="10.00">+ iterator()</text>
<text text-anchor="start" x="693" y="-1572" font-family="Helvetica,sans-Serif" font-size="10.00">+ filter()</text>
<text text-anchor="start" x="693" y="-1559" font-family="Helvetica,sans-Serif" font-size="10.00"># neighbours()</text>
<text text-anchor="start" x="693" y="-1546" font-family="Helvetica,sans-Serif" font-size="10.00"># neighbours()</text>
<text text-anchor="start" x="693" y="-1533" font-family="Helvetica,sans-Serif" font-size="10.00"># in()</text>
<text text-anchor="start" x="693" y="-1520" font-family="Helvetica,sans-Serif" font-size="10.00"># in()</text>
<text text-anchor="start" x="693" y="-1507" font-family="Helvetica,sans-Serif" font-size="10.00"># add()</text>
<text text-anchor="start" x="693" y="-1494" font-family="Helvetica,sans-Serif" font-size="10.00"># add()</text>
<text text-anchor="start" x="693" y="-1481" font-family="Helvetica,sans-Serif" font-size="10.00"># remove()</text>
<text text-anchor="start" x="693" y="-1468" font-family="Helvetica,sans-Serif" font-size="10.00"># contains()</text>
<text text-anchor="start" x="693" y="-1455" font-family="Helvetica,sans-Serif" font-size="10.00"># move()</text>
<text text-anchor="start" x="693" y="-1442" font-family="Helvetica,sans-Serif" font-size="10.00"># move()</text>
<text text-anchor="start" x="693" y="-1429" font-family="Helvetica,sans-Serif" font-size="10.00"># getEntityPos()</text>
<text text-anchor="start" x="693" y="-1416" font-family="Helvetica,sans-Serif" font-size="10.00">&#45; initMatrix()</text>
<text text-anchor="start" x="693" y="-1403" font-family="Helvetica,sans-Serif" font-size="10.00">&#45; isValidPoint()</text>
<text text-anchor="start" x="693" y="-1390" font-family="Helvetica,sans-Serif" font-size="10.00">&#45; isValidPoint()</text>
<text text-anchor="start" x="693" y="-1377" font-family="Helvetica,sans-Serif" font-size="10.00">&#45; warpTo()</text>
</a>
</g>
<!-- Node3&#45;&gt;Node6 -->
<g id="edge16" class="edge"><title>Node3&#45;&gt;Node6</title>
<path fill="none" stroke="midnightblue" d="M536.866,-1884.6C583.126,-1875.96 651.918,-1860.47 671,-1842 681.178,-1832.15 690.065,-1821.01 697.824,-1809.04"/>
<polygon fill="none" stroke="midnightblue" points="535.996,-1881.2 526.788,-1886.44 537.254,-1888.08 535.996,-1881.2"/>
</g>
<!-- Node4&#45;&gt;Node2 -->
<g id="edge6" class="edge"><title>Node4&#45;&gt;Node2</title>
<path fill="none" stroke="#9a32cd" stroke-dasharray="5,2" d="M545.279,-309.653C462.028,-362.657 330.655,-460.254 266,-582 122.756,-851.73 166.005,-968.544 226,-1268 244.091,-1358.3 288.18,-1454.93 320.873,-1518.3"/>
<polygon fill="#9a32cd" stroke="#9a32cd" points="553.932,-304.194 547.876,-313.336 549.703,-306.862 545.475,-309.53 545.475,-309.53 545.475,-309.53 549.703,-306.862 543.074,-305.724 553.932,-304.194 553.932,-304.194"/>
<text text-anchor="middle" x="180" y="-844.5" font-family="Helvetica,sans-Serif" font-size="10.00">w</text>
</g>
<!-- Node5&#45;&gt;Node4 -->
<g id="edge10" class="edge"><title>Node5&#45;&gt;Node4</title>
<path fill="none" stroke="#9a32cd" stroke-dasharray="5,2" d="M88.6023,-1276.27C69.0394,-1152.29 28.1123,-780.461 193,-550 286.12,-419.848 458.988,-332.453 553.705,-291.937"/>
<polygon fill="#9a32cd" stroke="#9a32cd" points="90.2527,-1286.47 84.213,-1277.32 89.454,-1281.54 88.6552,-1276.6 88.6552,-1276.6 88.6552,-1276.6 89.454,-1281.54 93.0974,-1275.88 90.2527,-1286.47 90.2527,-1286.47"/>
<text text-anchor="middle" x="117.5" y="-851" font-family="Helvetica,sans-Serif" font-size="10.00">bossObserver</text>
<text text-anchor="middle" x="117.5" y="-838" font-family="Helvetica,sans-Serif" font-size="10.00">playerObserver</text>
</g>
<!-- Node6&#45;&gt;Node4 -->
<g id="edge14" class="edge"><title>Node6&#45;&gt;Node4</title>
<path fill="none" stroke="#9a32cd" stroke-dasharray="5,2" d="M739.94,-1358.65C728.227,-1147.66 706.441,-826.98 671,-550 670.221,-543.913 669.4,-537.758 668.543,-531.556"/>
<polygon fill="#9a32cd" stroke="#9a32cd" points="740.508,-1368.93 735.463,-1359.19 740.232,-1363.94 739.956,-1358.94 739.956,-1358.94 739.956,-1358.94 740.232,-1363.94 744.45,-1358.7 740.508,-1368.93 740.508,-1368.93"/>
<text text-anchor="middle" x="715.5" y="-844.5" font-family="Helvetica,sans-Serif" font-size="10.00">board</text>
</g>
<!-- Node7 -->
<g id="node15" class="node"><title>Node7</title>
<polygon fill="none" stroke="#bfbfbf" points="676.5,-1860.5 676.5,-1923.5 783.5,-1923.5 783.5,-1860.5 676.5,-1860.5"/>
<text text-anchor="middle" x="730" y="-1910.5" font-family="Helvetica,sans-Serif" font-size="10.00">Map&lt; Entity, Point &gt;</text>
<polyline fill="none" stroke="#bfbfbf" points="676.5,-1902.5 783.5,-1902.5 "/>
<text text-anchor="middle" x="730" y="-1889.5" font-family="Helvetica,sans-Serif" font-size="10.00"> </text>
<polyline fill="none" stroke="#bfbfbf" points="676.5,-1881.5 783.5,-1881.5 "/>
<text text-anchor="middle" x="730" y="-1868.5" font-family="Helvetica,sans-Serif" font-size="10.00"> </text>
</g>
<!-- Node7&#45;&gt;Node6 -->
<g id="edge18" class="edge"><title>Node7&#45;&gt;Node6</title>
<path fill="none" stroke="#9a32cd" stroke-dasharray="5,2" d="M732.883,-1850.4C733.717,-1838.37 734.69,-1824.34 735.743,-1809.14"/>
<polygon fill="#9a32cd" stroke="#9a32cd" points="732.188,-1860.43 728.39,-1850.14 732.534,-1855.44 732.879,-1850.46 732.879,-1850.46 732.879,-1850.46 732.534,-1855.44 737.369,-1850.77 732.188,-1860.43 732.188,-1860.43"/>
<text text-anchor="middle" x="750" y="-1832.5" font-family="Helvetica,sans-Serif" font-size="10.00">entities</text>
</g>
<!-- Node8 -->
<g id="node17" class="node"><title>Node8</title>
<polygon fill="none" stroke="#bfbfbf" points="800.5,-1860.5 800.5,-1923.5 875.5,-1923.5 875.5,-1860.5 800.5,-1860.5"/>
<text text-anchor="middle" x="838" y="-1910.5" font-family="Helvetica,sans-Serif" font-size="10.00">Set&lt; Entity &gt;</text>
<polyline fill="none" stroke="#bfbfbf" points="800.5,-1902.5 875.5,-1902.5 "/>
<text text-anchor="middle" x="838" y="-1889.5" font-family="Helvetica,sans-Serif" font-size="10.00"> </text>
<polyline fill="none" stroke="#bfbfbf" points="800.5,-1881.5 875.5,-1881.5 "/>
<text text-anchor="middle" x="838" y="-1868.5" font-family="Helvetica,sans-Serif" font-size="10.00"> </text>
</g>
<!-- Node8&#45;&gt;Node6 -->
<g id="edge20" class="edge"><title>Node8&#45;&gt;Node6</title>
<path fill="none" stroke="#9a32cd" stroke-dasharray="5,2" d="M826.159,-1850.76C822.682,-1838.65 818.616,-1824.49 814.208,-1809.14"/>
<polygon fill="#9a32cd" stroke="#9a32cd" points="828.936,-1860.43 821.851,-1852.06 827.556,-1855.63 826.176,-1850.82 826.176,-1850.82 826.176,-1850.82 827.556,-1855.63 830.501,-1849.58 828.936,-1860.43 828.936,-1860.43"/>
<text text-anchor="middle" x="833.5" y="-1832.5" font-family="Helvetica,sans-Serif" font-size="10.00">cells</text>
</g>
<!-- Node9 -->
<g id="node19" class="node"><title>Node9</title>
<a xlink:href="classjdungeon_1_1core_1_1world_1_1creatures_1_1_monster.html" target="_top" xlink:title="{jdungeon.core.world.creatures.Monster\n|&#45; serialVersionUID\l|+ Monster()\l+ awardExperience()\l+ getExperience()\l+ hurtBy()\l&#45; computeHealth()\l&#45; computeStrength()\l}">
<polygon fill="none" stroke="black" points="274.5,-635 274.5,-763 459.5,-763 459.5,-635 274.5,-635"/>
<text text-anchor="middle" x="367" y="-750" font-family="Helvetica,sans-Serif" font-size="10.00">jdungeon.core.world.creatures.Monster</text>
<polyline fill="none" stroke="black" points="274.5,-742 459.5,-742 "/>
<text text-anchor="start" x="282.5" y="-729" font-family="Helvetica,sans-Serif" font-size="10.00">&#45; serialVersionUID</text>
<polyline fill="none" stroke="black" points="274.5,-721 459.5,-721 "/>
<text text-anchor="start" x="282.5" y="-708" font-family="Helvetica,sans-Serif" font-size="10.00">+ Monster()</text>
<text text-anchor="start" x="282.5" y="-695" font-family="Helvetica,sans-Serif" font-size="10.00">+ awardExperience()</text>
<text text-anchor="start" x="282.5" y="-682" font-family="Helvetica,sans-Serif" font-size="10.00">+ getExperience()</text>
<text text-anchor="start" x="282.5" y="-669" font-family="Helvetica,sans-Serif" font-size="10.00">+ hurtBy()</text>
<text text-anchor="start" x="282.5" y="-656" font-family="Helvetica,sans-Serif" font-size="10.00">&#45; computeHealth()</text>
<text text-anchor="start" x="282.5" y="-643" font-family="Helvetica,sans-Serif" font-size="10.00">&#45; computeStrength()</text>
</a>
</g>
<!-- Node9&#45;&gt;Node4 -->
<g id="edge22" class="edge"><title>Node9&#45;&gt;Node4</title>
<path fill="none" stroke="#9a32cd" stroke-dasharray="5,2" d="M409.795,-625.759C449.242,-558.246 508.393,-457.012 553.908,-379.113"/>
<polygon fill="#9a32cd" stroke="#9a32cd" points="404.603,-634.643 405.763,-623.739 407.126,-630.326 409.648,-626.009 409.648,-626.009 409.648,-626.009 407.126,-630.326 413.534,-628.279 404.603,-634.643 404.603,-634.643"/>
<text text-anchor="middle" x="459" y="-554.5" font-family="Helvetica,sans-Serif" font-size="10.00">boss</text>
</g>
<!-- Node10&#45;&gt;Node9 -->
<g id="edge24" class="edge"><title>Node10&#45;&gt;Node9</title>
<path fill="none" stroke="midnightblue" d="M472.449,-887.014C470.966,-883.981 469.483,-880.975 468,-878 448.66,-839.199 424.928,-796.908 405.328,-763.18"/>
<polygon fill="none" stroke="midnightblue" points="469.381,-888.71 476.891,-896.183 475.681,-885.658 469.381,-888.71"/>
</g>
<!-- Node13 -->
<g id="node28" class="node"><title>Node13</title>
<a xlink:href="classjdungeon_1_1core_1_1world_1_1_player.html" target="_top" xlink:title="{jdungeon.core.world.Player\n|&#45; experience\l&#45; name\l&#45; serialVersionUID\l|+ Player()\l+ setWorld()\l+ getName()\l+ setName()\l+ getExperienceForNextLevel()\l+ getExperience()\l+ moveLeft()\l+ moveRight()\l+ moveUp()\l+ moveDown()\l+ awardExperience()\l&#45; move()\l}">
<polygon fill="none" stroke="black" points="477,-583 477,-815 629,-815 629,-583 477,-583"/>
<text text-anchor="middle" x="553" y="-802" font-family="Helvetica,sans-Serif" font-size="10.00">jdungeon.core.world.Player</text>
<polyline fill="none" stroke="black" points="477,-794 629,-794 "/>
<text text-anchor="start" x="485" y="-781" font-family="Helvetica,sans-Serif" font-size="10.00">&#45; experience</text>
<text text-anchor="start" x="485" y="-768" font-family="Helvetica,sans-Serif" font-size="10.00">&#45; name</text>
<text text-anchor="start" x="485" y="-755" font-family="Helvetica,sans-Serif" font-size="10.00">&#45; serialVersionUID</text>
<polyline fill="none" stroke="black" points="477,-747 629,-747 "/>
<text text-anchor="start" x="485" y="-734" font-family="Helvetica,sans-Serif" font-size="10.00">+ Player()</text>
<text text-anchor="start" x="485" y="-721" font-family="Helvetica,sans-Serif" font-size="10.00">+ setWorld()</text>
<text text-anchor="start" x="485" y="-708" font-family="Helvetica,sans-Serif" font-size="10.00">+ getName()</text>
<text text-anchor="start" x="485" y="-695" font-family="Helvetica,sans-Serif" font-size="10.00">+ setName()</text>
<text text-anchor="start" x="485" y="-682" font-family="Helvetica,sans-Serif" font-size="10.00">+ getExperienceForNextLevel()</text>
<text text-anchor="start" x="485" y="-669" font-family="Helvetica,sans-Serif" font-size="10.00">+ getExperience()</text>
<text text-anchor="start" x="485" y="-656" font-family="Helvetica,sans-Serif" font-size="10.00">+ moveLeft()</text>
<text text-anchor="start" x="485" y="-643" font-family="Helvetica,sans-Serif" font-size="10.00">+ moveRight()</text>
<text text-anchor="start" x="485" y="-630" font-family="Helvetica,sans-Serif" font-size="10.00">+ moveUp()</text>
<text text-anchor="start" x="485" y="-617" font-family="Helvetica,sans-Serif" font-size="10.00">+ moveDown()</text>
<text text-anchor="start" x="485" y="-604" font-family="Helvetica,sans-Serif" font-size="10.00">+ awardExperience()</text>
<text text-anchor="start" x="485" y="-591" font-family="Helvetica,sans-Serif" font-size="10.00">&#45; move()</text>
</a>
</g>
<!-- Node10&#45;&gt;Node13 -->
<g id="edge34" class="edge"><title>Node10&#45;&gt;Node13</title>
<path fill="none" stroke="midnightblue" d="M553,-868.722C553,-850.47 553,-832.441 553,-815.336"/>
<polygon fill="none" stroke="midnightblue" points="549.5,-868.879 553,-878.879 556.5,-868.879 549.5,-868.879"/>
</g>
<!-- Node11 -->
<g id="node24" class="node"><title>Node11</title>
<polygon fill="none" stroke="#bfbfbf" points="485.5,-1557.5 485.5,-1620.5 620.5,-1620.5 620.5,-1557.5 485.5,-1557.5"/>
<text text-anchor="middle" x="553" y="-1607.5" font-family="Helvetica,sans-Serif" font-size="10.00">Set&lt; VulnerableObserver &gt;</text>
<polyline fill="none" stroke="#bfbfbf" points="485.5,-1599.5 620.5,-1599.5 "/>
<text text-anchor="middle" x="553" y="-1586.5" font-family="Helvetica,sans-Serif" font-size="10.00"> </text>
<polyline fill="none" stroke="#bfbfbf" points="485.5,-1578.5 620.5,-1578.5 "/>
<text text-anchor="middle" x="553" y="-1565.5" font-family="Helvetica,sans-Serif" font-size="10.00"> </text>
</g>
<!-- Node11&#45;&gt;Node10 -->
<g id="edge28" class="edge"><title>Node11&#45;&gt;Node10</title>
<path fill="none" stroke="#9a32cd" stroke-dasharray="5,2" d="M553,-1547.17C553,-1486.38 553,-1369.69 553,-1267.29"/>
<polygon fill="#9a32cd" stroke="#9a32cd" points="553,-1557.5 548.5,-1547.5 553,-1552.5 553,-1547.5 553,-1547.5 553,-1547.5 553,-1552.5 557.5,-1547.5 553,-1557.5 553,-1557.5"/>
<text text-anchor="middle" x="574.5" y="-1315.5" font-family="Helvetica,sans-Serif" font-size="10.00">observers</text>
</g>
<!-- Node12 -->
<g id="node26" class="node"><title>Node12</title>
<polygon fill="none" stroke="#bfbfbf" points="723,-667.5 723,-730.5 831,-730.5 831,-667.5 723,-667.5"/>
<text text-anchor="middle" x="777" y="-717.5" font-family="Helvetica,sans-Serif" font-size="10.00">Set&lt; MapObserver &gt;</text>
<polyline fill="none" stroke="#bfbfbf" points="723,-709.5 831,-709.5 "/>
<text text-anchor="middle" x="777" y="-696.5" font-family="Helvetica,sans-Serif" font-size="10.00"> </text>
<polyline fill="none" stroke="#bfbfbf" points="723,-688.5 831,-688.5 "/>
<text text-anchor="middle" x="777" y="-675.5" font-family="Helvetica,sans-Serif" font-size="10.00"> </text>
</g>
<!-- Node12&#45;&gt;Node4 -->
<g id="edge30" class="edge"><title>Node12&#45;&gt;Node4</title>
<path fill="none" stroke="#9a32cd" stroke-dasharray="5,2" d="M762.013,-657.665C744.456,-609.245 714.188,-525.767 686.095,-448.287"/>
<polygon fill="#9a32cd" stroke="#9a32cd" points="765.455,-667.16 757.816,-659.293 763.751,-662.46 762.047,-657.759 762.047,-657.759 762.047,-657.759 763.751,-662.46 766.277,-656.225 765.455,-667.16 765.455,-667.16"/>
<text text-anchor="middle" x="747.5" y="-554.5" font-family="Helvetica,sans-Serif" font-size="10.00">observers</text>
</g>
<!-- Node13&#45;&gt;Node4 -->
<g id="edge32" class="edge"><title>Node13&#45;&gt;Node4</title>
<path fill="none" stroke="#9a32cd" stroke-dasharray="5,2" d="M572.508,-572.925C574.562,-559.651 576.702,-545.824 578.887,-531.702"/>
<polygon fill="#9a32cd" stroke="#9a32cd" points="570.955,-582.964 568.037,-572.393 571.719,-578.023 572.484,-573.082 572.484,-573.082 572.484,-573.082 571.719,-578.023 576.931,-573.77 570.955,-582.964 570.955,-582.964"/>
<text text-anchor="middle" x="587.5" y="-554.5" font-family="Helvetica,sans-Serif" font-size="10.00">player</text>
</g>
<!-- Node14 -->
<g id="node31" class="node"><title>Node14</title>
<polygon fill="none" stroke="#bfbfbf" points="848.5,-667.5 848.5,-730.5 943.5,-730.5 943.5,-667.5 848.5,-667.5"/>
<text text-anchor="middle" x="896" y="-717.5" font-family="Helvetica,sans-Serif" font-size="10.00">Set&lt; Vulnerable &gt;</text>
<polyline fill="none" stroke="#bfbfbf" points="848.5,-709.5 943.5,-709.5 "/>
<text text-anchor="middle" x="896" y="-696.5" font-family="Helvetica,sans-Serif" font-size="10.00"> </text>
<polyline fill="none" stroke="#bfbfbf" points="848.5,-688.5 943.5,-688.5 "/>
<text text-anchor="middle" x="896" y="-675.5" font-family="Helvetica,sans-Serif" font-size="10.00"> </text>
</g>
<!-- Node14&#45;&gt;Node4 -->
<g id="edge36" class="edge"><title>Node14&#45;&gt;Node4</title>
<path fill="none" stroke="#9a32cd" stroke-dasharray="5,2" d="M878.282,-657.86C867.971,-635.047 854.228,-606.435 840,-582 793.076,-501.414 731.965,-414.821 686.062,-352.697"/>
<polygon fill="#9a32cd" stroke="#9a32cd" points="882.482,-667.253 874.292,-659.961 880.441,-662.689 878.4,-658.124 878.4,-658.124 878.4,-658.124 880.441,-662.689 882.508,-656.287 882.482,-667.253 882.482,-667.253"/>
<text text-anchor="middle" x="849" y="-554.5" font-family="Helvetica,sans-Serif" font-size="10.00">hurtEntities</text>
</g>
</g>
</svg>
