<?xml version="1.0" encoding="UTF-8" standalone="no"?>
<!DOCTYPE svg PUBLIC "-//W3C//DTD SVG 1.1//EN"
 "http://www.w3.org/Graphics/SVG/1.1/DTD/svg11.dtd">
<!-- Generated by graphviz version 2.26.3 (20100126.1600)
 -->
<!-- Title: G Pages: 1 -->
<svg width="636pt" height="554pt"
 viewBox="0.00 0.00 636.00 554.00" xmlns="http://www.w3.org/2000/svg" xmlns:xlink="http://www.w3.org/1999/xlink">
<g id="graph1" class="graph" transform="scale(1 1) rotate(0) translate(4 550)">
<title>G</title>
<!-- Node1 -->
<g id="node1" class="node"><title>Node1</title>
<polygon fill="#bfbfbf" stroke="black" points="232,-126.5 232,-267.5 396,-267.5 396,-126.5 232,-126.5"/>
<text text-anchor="middle" x="314" y="-254.5" font-family="Helvetica,sans-Serif" font-size="10.00">jdungeon.core.world.bonus.Bonus</text>
<polyline fill="none" stroke="black" points="232,-246.5 396,-246.5 "/>
<text text-anchor="start" x="240" y="-233.5" font-family="Helvetica,sans-Serif" font-size="10.00">&#45; level</text>
<text text-anchor="start" x="240" y="-220.5" font-family="Helvetica,sans-Serif" font-size="10.00">&#45; serialVersionUID</text>
<polyline fill="none" stroke="black" points="232,-212.5 396,-212.5 "/>
<text text-anchor="start" x="240" y="-199.5" font-family="Helvetica,sans-Serif" font-size="10.00">+ Bonus()</text>
<text text-anchor="start" x="240" y="-186.5" font-family="Helvetica,sans-Serif" font-size="10.00">+ hitBy()</text>
<text text-anchor="start" x="240" y="-173.5" font-family="Helvetica,sans-Serif" font-size="10.00">+ near()</text>
<text text-anchor="start" x="240" y="-160.5" font-family="Helvetica,sans-Serif" font-size="10.00">+ getLevel()</text>
<text text-anchor="start" x="240" y="-147.5" font-family="Helvetica,sans-Serif" font-size="10.00"># buff()</text>
<text text-anchor="start" x="240" y="-134.5" font-family="Helvetica,sans-Serif" font-size="10.00"># areaBuff()</text>
</g>
<!-- Node4 -->
<g id="node7" class="node"><title>Node4</title>
<a xlink:href="classjdungeon_1_1core_1_1world_1_1bonus_1_1_explorer_bonus.html" target="_top" xlink:title="{jdungeon.core.world.bonus.ExplorerBonus\n|&#45; serialVersionUID\l|+ ExplorerBonus()\l# areaBuff()\l# buff()\l}">
<polygon fill="none" stroke="black" points="0,-0.5 0,-89.5 200,-89.5 200,-0.5 0,-0.5"/>
<text text-anchor="middle" x="100" y="-76.5" font-family="Helvetica,sans-Serif" font-size="10.00">jdungeon.core.world.bonus.ExplorerBonus</text>
<polyline fill="none" stroke="black" points="0,-68.5 200,-68.5 "/>
<text text-anchor="start" x="8" y="-55.5" font-family="Helvetica,sans-Serif" font-size="10.00">&#45; serialVersionUID</text>
<polyline fill="none" stroke="black" points="0,-47.5 200,-47.5 "/>
<text text-anchor="start" x="8" y="-34.5" font-family="Helvetica,sans-Serif" font-size="10.00">+ ExplorerBonus()</text>
<text text-anchor="start" x="8" y="-21.5" font-family="Helvetica,sans-Serif" font-size="10.00"># areaBuff()</text>
<text text-anchor="start" x="8" y="-8.5" font-family="Helvetica,sans-Serif" font-size="10.00"># buff()</text>
</a>
</g>
<!-- Node1&#45;&gt;Node4 -->
<g id="edge6" class="edge"><title>Node1&#45;&gt;Node4</title>
<path fill="none" stroke="midnightblue" d="M223.504,-132.723C203.123,-118.246 181.923,-103.189 162.959,-89.7188"/>
<polygon fill="none" stroke="midnightblue" points="221.694,-135.73 231.874,-138.668 225.748,-130.023 221.694,-135.73"/>
</g>
<!-- Node5 -->
<g id="node9" class="node"><title>Node5</title>
<a xlink:href="classjdungeon_1_1core_1_1world_1_1bonus_1_1_health_bonus.html" target="_top" xlink:title="{jdungeon.core.world.bonus.HealthBonus\n|&#45; serialVersionUID\l|+ HealthBonus()\l# areaBuff()\l# buff()\l}">
<polygon fill="none" stroke="black" points="218,-0.5 218,-89.5 410,-89.5 410,-0.5 218,-0.5"/>
<text text-anchor="middle" x="314" y="-76.5" font-family="Helvetica,sans-Serif" font-size="10.00">jdungeon.core.world.bonus.HealthBonus</text>
<polyline fill="none" stroke="black" points="218,-68.5 410,-68.5 "/>
<text text-anchor="start" x="226" y="-55.5" font-family="Helvetica,sans-Serif" font-size="10.00">&#45; serialVersionUID</text>
<polyline fill="none" stroke="black" points="218,-47.5 410,-47.5 "/>
<text text-anchor="start" x="226" y="-34.5" font-family="Helvetica,sans-Serif" font-size="10.00">+ HealthBonus()</text>
<text text-anchor="start" x="226" y="-21.5" font-family="Helvetica,sans-Serif" font-size="10.00"># areaBuff()</text>
<text text-anchor="start" x="226" y="-8.5" font-family="Helvetica,sans-Serif" font-size="10.00"># buff()</text>
</a>
</g>
<!-- Node1&#45;&gt;Node5 -->
<g id="edge8" class="edge"><title>Node1&#45;&gt;Node5</title>
<path fill="none" stroke="midnightblue" d="M314,-116.149C314,-107.133 314,-98.2083 314,-89.8855"/>
<polygon fill="none" stroke="midnightblue" points="310.5,-116.34 314,-126.34 317.5,-116.34 310.5,-116.34"/>
</g>
<!-- Node6 -->
<g id="node11" class="node"><title>Node6</title>
<a xlink:href="classjdungeon_1_1core_1_1world_1_1bonus_1_1_strength_bonus.html" target="_top" xlink:title="{jdungeon.core.world.bonus.StrengthBonus\n|&#45; serialVersionUID\l|+ StrengthBonus()\l# areaBuff()\l# buff()\l}">
<polygon fill="none" stroke="black" points="428,-0.5 428,-89.5 628,-89.5 628,-0.5 428,-0.5"/>
<text text-anchor="middle" x="528" y="-76.5" font-family="Helvetica,sans-Serif" font-size="10.00">jdungeon.core.world.bonus.StrengthBonus</text>
<polyline fill="none" stroke="black" points="428,-68.5 628,-68.5 "/>
<text text-anchor="start" x="436" y="-55.5" font-family="Helvetica,sans-Serif" font-size="10.00">&#45; serialVersionUID</text>
<polyline fill="none" stroke="black" points="428,-47.5 628,-47.5 "/>
<text text-anchor="start" x="436" y="-34.5" font-family="Helvetica,sans-Serif" font-size="10.00">+ StrengthBonus()</text>
<text text-anchor="start" x="436" y="-21.5" font-family="Helvetica,sans-Serif" font-size="10.00"># areaBuff()</text>
<text text-anchor="start" x="436" y="-8.5" font-family="Helvetica,sans-Serif" font-size="10.00"># buff()</text>
</a>
</g>
<!-- Node1&#45;&gt;Node6 -->
<g id="edge10" class="edge"><title>Node1&#45;&gt;Node6</title>
<path fill="none" stroke="midnightblue" d="M404.496,-132.723C424.877,-118.246 446.077,-103.189 465.041,-89.7188"/>
<polygon fill="none" stroke="midnightblue" points="402.252,-130.023 396.126,-138.668 406.306,-135.73 402.252,-130.023"/>
</g>
<!-- Node2 -->
<g id="node2" class="node"><title>Node2</title>
<a xlink:href="classjdungeon_1_1core_1_1world_1_1_entity.html" target="_top" xlink:title="{jdungeon.core.world.Entity\n|&#45; w\l&#45; serialVersionUID\l|+ setWorld()\l+ getWorld()\l+ hitBy()\l+ hitsTo()\l+ near()\l+ clone()\l}">
<polygon fill="none" stroke="black" points="248,-304.5 248,-445.5 380,-445.5 380,-304.5 248,-304.5"/>
<text text-anchor="middle" x="314" y="-432.5" font-family="Helvetica,sans-Serif" font-size="10.00">jdungeon.core.world.Entity</text>
<polyline fill="none" stroke="black" points="248,-424.5 380,-424.5 "/>
<text text-anchor="start" x="256" y="-411.5" font-family="Helvetica,sans-Serif" font-size="10.00">&#45; w</text>
<text text-anchor="start" x="256" y="-398.5" font-family="Helvetica,sans-Serif" font-size="10.00">&#45; serialVersionUID</text>
<polyline fill="none" stroke="black" points="248,-390.5 380,-390.5 "/>
<text text-anchor="start" x="256" y="-377.5" font-family="Helvetica,sans-Serif" font-size="10.00">+ setWorld()</text>
<text text-anchor="start" x="256" y="-364.5" font-family="Helvetica,sans-Serif" font-size="10.00">+ getWorld()</text>
<text text-anchor="start" x="256" y="-351.5" font-family="Helvetica,sans-Serif" font-size="10.00">+ hitBy()</text>
<text text-anchor="start" x="256" y="-338.5" font-family="Helvetica,sans-Serif" font-size="10.00">+ hitsTo()</text>
<text text-anchor="start" x="256" y="-325.5" font-family="Helvetica,sans-Serif" font-size="10.00">+ near()</text>
<text text-anchor="start" x="256" y="-312.5" font-family="Helvetica,sans-Serif" font-size="10.00">+ clone()</text>
</a>
</g>
<!-- Node2&#45;&gt;Node1 -->
<g id="edge2" class="edge"><title>Node2&#45;&gt;Node1</title>
<path fill="none" stroke="midnightblue" d="M314,-294.354C314,-285.401 314,-276.334 314,-267.521"/>
<polygon fill="none" stroke="midnightblue" points="310.5,-294.394 314,-304.394 317.5,-294.394 310.5,-294.394"/>
</g>
<!-- Node3 -->
<g id="node4" class="node"><title>Node3</title>
<polygon fill="none" stroke="#bfbfbf" points="280.5,-482.5 280.5,-545.5 347.5,-545.5 347.5,-482.5 280.5,-482.5"/>
<text text-anchor="middle" x="314" y="-532.5" font-family="Helvetica,sans-Serif" font-size="10.00">Serializable</text>
<polyline fill="none" stroke="#bfbfbf" points="280.5,-524.5 347.5,-524.5 "/>
<text text-anchor="middle" x="314" y="-511.5" font-family="Helvetica,sans-Serif" font-size="10.00"> </text>
<polyline fill="none" stroke="#bfbfbf" points="280.5,-503.5 347.5,-503.5 "/>
<text text-anchor="middle" x="314" y="-490.5" font-family="Helvetica,sans-Serif" font-size="10.00"> </text>
</g>
<!-- Node3&#45;&gt;Node2 -->
<g id="edge4" class="edge"><title>Node3&#45;&gt;Node2</title>
<path fill="none" stroke="midnightblue" d="M314,-472.453C314,-463.942 314,-454.76 314,-445.553"/>
<polygon fill="none" stroke="midnightblue" points="310.5,-472.459 314,-482.459 317.5,-472.459 310.5,-472.459"/>
</g>
</g>
</svg>
