<?xml version="1.0" encoding="UTF-8" standalone="no"?>
<!DOCTYPE svg PUBLIC "-//W3C//DTD SVG 1.1//EN"
 "http://www.w3.org/Graphics/SVG/1.1/DTD/svg11.dtd">
<!-- Generated by graphviz version 2.26.3 (20100126.1600)
 -->
<!-- Title: G Pages: 1 -->
<svg width="174pt" height="376pt"
 viewBox="0.00 0.00 174.00 376.00" xmlns="http://www.w3.org/2000/svg" xmlns:xlink="http://www.w3.org/1999/xlink">
<g id="graph1" class="graph" transform="scale(1 1) rotate(0) translate(4 372)">
<title>G</title>
<!-- Node1 -->
<g id="node1" class="node"><title>Node1</title>
<polygon fill="#bfbfbf" stroke="black" points="-0.5,-0.5 -0.5,-89.5 166.5,-89.5 166.5,-0.5 -0.5,-0.5"/>
<text text-anchor="middle" x="83" y="-76.5" font-family="Helvetica,sans-Serif" font-size="10.00">jdungeon.core.world.scenery.Splat</text>
<polyline fill="none" stroke="black" points="-0.5,-68.5 166.5,-68.5 "/>
<text text-anchor="start" x="7.5" y="-55.5" font-family="Helvetica,sans-Serif" font-size="10.00">&#45; serialVersionUID</text>
<text text-anchor="start" x="7.5" y="-42.5" font-family="Helvetica,sans-Serif" font-size="10.00">&#45; singleton</text>
<polyline fill="none" stroke="black" points="-0.5,-34.5 166.5,-34.5 "/>
<text text-anchor="start" x="7.5" y="-21.5" font-family="Helvetica,sans-Serif" font-size="10.00">+ getInstance()</text>
<text text-anchor="start" x="7.5" y="-8.5" font-family="Helvetica,sans-Serif" font-size="10.00">&#45; Splat()</text>
</g>
<!-- Node2 -->
<g id="node2" class="node"><title>Node2</title>
<a xlink:href="classjdungeon_1_1core_1_1world_1_1_entity.html" target="_top" xlink:title="{jdungeon.core.world.Entity\n|&#45; w\l&#45; serialVersionUID\l|+ setWorld()\l+ getWorld()\l+ hitBy()\l+ hitsTo()\l+ near()\l+ clone()\l}">
<polygon fill="none" stroke="black" points="17,-126.5 17,-267.5 149,-267.5 149,-126.5 17,-126.5"/>
<text text-anchor="middle" x="83" y="-254.5" font-family="Helvetica,sans-Serif" font-size="10.00">jdungeon.core.world.Entity</text>
<polyline fill="none" stroke="black" points="17,-246.5 149,-246.5 "/>
<text text-anchor="start" x="25" y="-233.5" font-family="Helvetica,sans-Serif" font-size="10.00">&#45; w</text>
<text text-anchor="start" x="25" y="-220.5" font-family="Helvetica,sans-Serif" font-size="10.00">&#45; serialVersionUID</text>
<polyline fill="none" stroke="black" points="17,-212.5 149,-212.5 "/>
<text text-anchor="start" x="25" y="-199.5" font-family="Helvetica,sans-Serif" font-size="10.00">+ setWorld()</text>
<text text-anchor="start" x="25" y="-186.5" font-family="Helvetica,sans-Serif" font-size="10.00">+ getWorld()</text>
<text text-anchor="start" x="25" y="-173.5" font-family="Helvetica,sans-Serif" font-size="10.00">+ hitBy()</text>
<text text-anchor="start" x="25" y="-160.5" font-family="Helvetica,sans-Serif" font-size="10.00">+ hitsTo()</text>
<text text-anchor="start" x="25" y="-147.5" font-family="Helvetica,sans-Serif" font-size="10.00">+ near()</text>
<text text-anchor="start" x="25" y="-134.5" font-family="Helvetica,sans-Serif" font-size="10.00">+ clone()</text>
</a>
</g>
<!-- Node2&#45;&gt;Node1 -->
<g id="edge2" class="edge"><title>Node2&#45;&gt;Node1</title>
<path fill="none" stroke="midnightblue" d="M83,-116.149C83,-107.133 83,-98.2083 83,-89.8855"/>
<polygon fill="none" stroke="midnightblue" points="79.5001,-116.34 83,-126.34 86.5001,-116.34 79.5001,-116.34"/>
</g>
<!-- Node3 -->
<g id="node4" class="node"><title>Node3</title>
<polygon fill="none" stroke="#bfbfbf" points="49.5,-304.5 49.5,-367.5 116.5,-367.5 116.5,-304.5 49.5,-304.5"/>
<text text-anchor="middle" x="83" y="-354.5" font-family="Helvetica,sans-Serif" font-size="10.00">Serializable</text>
<polyline fill="none" stroke="#bfbfbf" points="49.5,-346.5 116.5,-346.5 "/>
<text text-anchor="middle" x="83" y="-333.5" font-family="Helvetica,sans-Serif" font-size="10.00"> </text>
<polyline fill="none" stroke="#bfbfbf" points="49.5,-325.5 116.5,-325.5 "/>
<text text-anchor="middle" x="83" y="-312.5" font-family="Helvetica,sans-Serif" font-size="10.00"> </text>
</g>
<!-- Node3&#45;&gt;Node2 -->
<g id="edge4" class="edge"><title>Node3&#45;&gt;Node2</title>
<path fill="none" stroke="midnightblue" d="M83,-294.453C83,-285.942 83,-276.76 83,-267.553"/>
<polygon fill="none" stroke="midnightblue" points="79.5001,-294.459 83,-304.459 86.5001,-294.459 79.5001,-294.459"/>
</g>
</g>
</svg>
