<?xml version="1.0" encoding="UTF-8" standalone="no"?>
<!DOCTYPE svg PUBLIC "-//W3C//DTD SVG 1.1//EN"
 "http://www.w3.org/Graphics/SVG/1.1/DTD/svg11.dtd">
<!-- Generated by graphviz version 2.26.3 (20100126.1600)
 -->
<!-- Title: G Pages: 1 -->
<svg width="924pt" height="2088pt"
 viewBox="0.00 0.00 924.00 2088.00" xmlns="http://www.w3.org/2000/svg" xmlns:xlink="http://www.w3.org/1999/xlink">
<g id="graph1" class="graph" transform="scale(1 1) rotate(0) translate(4 2084)">
<title>G</title>
<!-- Node1 -->
<g id="node1" class="node"><title>Node1</title>
<polygon fill="#bfbfbf" stroke="black" points="71.5,-712.5 71.5,-879.5 232.5,-879.5 232.5,-712.5 71.5,-712.5"/>
<text text-anchor="middle" x="152" y="-866.5" font-family="Helvetica,sans-Serif" font-size="10.00">jdungeon.parser.WorldAssembler</text>
<polyline fill="none" stroke="black" points="71.5,-858.5 232.5,-858.5 "/>
<text text-anchor="start" x="79.5" y="-845.5" font-family="Helvetica,sans-Serif" font-size="10.00">&#45; newWorld</text>
<text text-anchor="start" x="79.5" y="-832.5" font-family="Helvetica,sans-Serif" font-size="10.00">&#45; gameWorldsList</text>
<text text-anchor="start" x="79.5" y="-819.5" font-family="Helvetica,sans-Serif" font-size="10.00">&#45; occupiedPoints</text>
<polyline fill="none" stroke="black" points="71.5,-811.5 232.5,-811.5 "/>
<text text-anchor="start" x="79.5" y="-798.5" font-family="Helvetica,sans-Serif" font-size="10.00">+ createNewWorld()</text>
<text text-anchor="start" x="79.5" y="-785.5" font-family="Helvetica,sans-Serif" font-size="10.00">+ worldCreator()</text>
<text text-anchor="start" x="79.5" y="-772.5" font-family="Helvetica,sans-Serif" font-size="10.00">+ getWorldList()</text>
<text text-anchor="start" x="79.5" y="-759.5" font-family="Helvetica,sans-Serif" font-size="10.00">+ worldList()</text>
<text text-anchor="start" x="79.5" y="-746.5" font-family="Helvetica,sans-Serif" font-size="10.00">+ saveGame()</text>
<text text-anchor="start" x="79.5" y="-733.5" font-family="Helvetica,sans-Serif" font-size="10.00">+ loadGame()</text>
<text text-anchor="start" x="79.5" y="-720.5" font-family="Helvetica,sans-Serif" font-size="10.00">&#45; reset()</text>
</g>
<!-- Node2 -->
<g id="node2" class="node"><title>Node2</title>
<polygon fill="none" stroke="#bfbfbf" points="90,-1164.5 90,-1227.5 214,-1227.5 214,-1164.5 90,-1164.5"/>
<text text-anchor="middle" x="152" y="-1214.5" font-family="Helvetica,sans-Serif" font-size="10.00">HashMap&lt; String, File &gt;</text>
<polyline fill="none" stroke="#bfbfbf" points="90,-1206.5 214,-1206.5 "/>
<text text-anchor="middle" x="152" y="-1193.5" font-family="Helvetica,sans-Serif" font-size="10.00"> </text>
<polyline fill="none" stroke="#bfbfbf" points="90,-1185.5 214,-1185.5 "/>
<text text-anchor="middle" x="152" y="-1172.5" font-family="Helvetica,sans-Serif" font-size="10.00"> </text>
</g>
<!-- Node2&#45;&gt;Node1 -->
<g id="edge2" class="edge"><title>Node2&#45;&gt;Node1</title>
<path fill="none" stroke="#9a32cd" stroke-dasharray="5,2" d="M152,-1154.05C152,-1089.28 152,-963.677 152,-879.809"/>
<polygon fill="#9a32cd" stroke="#9a32cd" points="152,-1164.28 147.5,-1154.28 152,-1159.28 152,-1154.28 152,-1154.28 152,-1154.28 152,-1159.28 156.5,-1154.28 152,-1164.28 152,-1164.28"/>
<text text-anchor="middle" x="187.5" y="-902.5" font-family="Helvetica,sans-Serif" font-size="10.00">gameWorldsList</text>
</g>
<!-- Node3 -->
<g id="node4" class="node"><title>Node3</title>
<polygon fill="none" stroke="#bfbfbf" points="0,-1164.5 0,-1227.5 72,-1227.5 72,-1164.5 0,-1164.5"/>
<text text-anchor="middle" x="36" y="-1214.5" font-family="Helvetica,sans-Serif" font-size="10.00">Set&lt; Point &gt;</text>
<polyline fill="none" stroke="#bfbfbf" points="0,-1206.5 72,-1206.5 "/>
<text text-anchor="middle" x="36" y="-1193.5" font-family="Helvetica,sans-Serif" font-size="10.00"> </text>
<polyline fill="none" stroke="#bfbfbf" points="0,-1185.5 72,-1185.5 "/>
<text text-anchor="middle" x="36" y="-1172.5" font-family="Helvetica,sans-Serif" font-size="10.00"> </text>
</g>
<!-- Node3&#45;&gt;Node1 -->
<g id="edge4" class="edge"><title>Node3&#45;&gt;Node1</title>
<path fill="none" stroke="#9a32cd" stroke-dasharray="5,2" d="M36.3813,-1154.26C38.2195,-1095.16 46.4856,-984.669 81,-898 83.4347,-891.886 86.297,-885.781 89.4506,-879.77"/>
<polygon fill="#9a32cd" stroke="#9a32cd" points="36.1154,-1164.33 31.881,-1154.21 36.2474,-1159.33 36.3794,-1154.33 36.3794,-1154.33 36.3794,-1154.33 36.2474,-1159.33 40.8778,-1154.45 36.1154,-1164.33 36.1154,-1164.33"/>
<text text-anchor="middle" x="114.5" y="-902.5" font-family="Helvetica,sans-Serif" font-size="10.00">occupiedPoints</text>
</g>
<!-- Node4 -->
<g id="node6" class="node"><title>Node4</title>
<a xlink:href="classjdungeon_1_1core_1_1world_1_1_world.html" target="_top" xlink:title="{jdungeon.core.world.World\n|&#45; board\l&#45; player\l&#45; boss\l&#45; observers\l&#45; hurtEntities\l&#45; playerObserver\l&#45; bossObserver\l&#45; sizeX\l&#45; sizeY\l&#45; serialVersionUID\l|+ World()\l+ clone()\l+ getX()\l+ getY()\l+ getHurtEntities()\l+ subscribe()\l+ unsubscribe()\l+ add()\l+ add()\l+ add()\l+ add()\l+ remove()\l+ remove()\l+ getPlayer()\l+ getBoss()\l+ syncEvent()\l+ replace()\l~ addHurtEntity()\l~ removeHurtEntity()\l~ notifyChange()\l~ notifyChange()\l~ notifyChange()\l~ notifyChange()\l~ getEntityInPoint()\l# move()\l# moveDelta()\l# clearView()\l&#45; area()\l}">
<polygon fill="none" stroke="black" points="333,-930.5 333,-1461.5 465,-1461.5 465,-930.5 333,-930.5"/>
<text text-anchor="middle" x="399" y="-1448.5" font-family="Helvetica,sans-Serif" font-size="10.00">jdungeon.core.world.World</text>
<polyline fill="none" stroke="black" points="333,-1440.5 465,-1440.5 "/>
<text text-anchor="start" x="341" y="-1427.5" font-family="Helvetica,sans-Serif" font-size="10.00">&#45; board</text>
<text text-anchor="start" x="341" y="-1414.5" font-family="Helvetica,sans-Serif" font-size="10.00">&#45; player</text>
<text text-anchor="start" x="341" y="-1401.5" font-family="Helvetica,sans-Serif" font-size="10.00">&#45; boss</text>
<text text-anchor="start" x="341" y="-1388.5" font-family="Helvetica,sans-Serif" font-size="10.00">&#45; observers</text>
<text text-anchor="start" x="341" y="-1375.5" font-family="Helvetica,sans-Serif" font-size="10.00">&#45; hurtEntities</text>
<text text-anchor="start" x="341" y="-1362.5" font-family="Helvetica,sans-Serif" font-size="10.00">&#45; playerObserver</text>
<text text-anchor="start" x="341" y="-1349.5" font-family="Helvetica,sans-Serif" font-size="10.00">&#45; bossObserver</text>
<text text-anchor="start" x="341" y="-1336.5" font-family="Helvetica,sans-Serif" font-size="10.00">&#45; sizeX</text>
<text text-anchor="start" x="341" y="-1323.5" font-family="Helvetica,sans-Serif" font-size="10.00">&#45; sizeY</text>
<text text-anchor="start" x="341" y="-1310.5" font-family="Helvetica,sans-Serif" font-size="10.00">&#45; serialVersionUID</text>
<polyline fill="none" stroke="black" points="333,-1302.5 465,-1302.5 "/>
<text text-anchor="start" x="341" y="-1289.5" font-family="Helvetica,sans-Serif" font-size="10.00">+ World()</text>
<text text-anchor="start" x="341" y="-1276.5" font-family="Helvetica,sans-Serif" font-size="10.00">+ clone()</text>
<text text-anchor="start" x="341" y="-1263.5" font-family="Helvetica,sans-Serif" font-size="10.00">+ getX()</text>
<text text-anchor="start" x="341" y="-1250.5" font-family="Helvetica,sans-Serif" font-size="10.00">+ getY()</text>
<text text-anchor="start" x="341" y="-1237.5" font-family="Helvetica,sans-Serif" font-size="10.00">+ getHurtEntities()</text>
<text text-anchor="start" x="341" y="-1224.5" font-family="Helvetica,sans-Serif" font-size="10.00">+ subscribe()</text>
<text text-anchor="start" x="341" y="-1211.5" font-family="Helvetica,sans-Serif" font-size="10.00">+ unsubscribe()</text>
<text text-anchor="start" x="341" y="-1198.5" font-family="Helvetica,sans-Serif" font-size="10.00">+ add()</text>
<text text-anchor="start" x="341" y="-1185.5" font-family="Helvetica,sans-Serif" font-size="10.00">+ add()</text>
<text text-anchor="start" x="341" y="-1172.5" font-family="Helvetica,sans-Serif" font-size="10.00">+ add()</text>
<text text-anchor="start" x="341" y="-1159.5" font-family="Helvetica,sans-Serif" font-size="10.00">+ add()</text>
<text text-anchor="start" x="341" y="-1146.5" font-family="Helvetica,sans-Serif" font-size="10.00">+ remove()</text>
<text text-anchor="start" x="341" y="-1133.5" font-family="Helvetica,sans-Serif" font-size="10.00">+ remove()</text>
<text text-anchor="start" x="341" y="-1120.5" font-family="Helvetica,sans-Serif" font-size="10.00">+ getPlayer()</text>
<text text-anchor="start" x="341" y="-1107.5" font-family="Helvetica,sans-Serif" font-size="10.00">+ getBoss()</text>
<text text-anchor="start" x="341" y="-1094.5" font-family="Helvetica,sans-Serif" font-size="10.00">+ syncEvent()</text>
<text text-anchor="start" x="341" y="-1081.5" font-family="Helvetica,sans-Serif" font-size="10.00">+ replace()</text>
<text text-anchor="start" x="341" y="-1068.5" font-family="Helvetica,sans-Serif" font-size="10.00">~ addHurtEntity()</text>
<text text-anchor="start" x="341" y="-1055.5" font-family="Helvetica,sans-Serif" font-size="10.00">~ removeHurtEntity()</text>
<text text-anchor="start" x="341" y="-1042.5" font-family="Helvetica,sans-Serif" font-size="10.00">~ notifyChange()</text>
<text text-anchor="start" x="341" y="-1029.5" font-family="Helvetica,sans-Serif" font-size="10.00">~ notifyChange()</text>
<text text-anchor="start" x="341" y="-1016.5" font-family="Helvetica,sans-Serif" font-size="10.00">~ notifyChange()</text>
<text text-anchor="start" x="341" y="-1003.5" font-family="Helvetica,sans-Serif" font-size="10.00">~ notifyChange()</text>
<text text-anchor="start" x="341" y="-990.5" font-family="Helvetica,sans-Serif" font-size="10.00">~ getEntityInPoint()</text>
<text text-anchor="start" x="341" y="-977.5" font-family="Helvetica,sans-Serif" font-size="10.00"># move()</text>
<text text-anchor="start" x="341" y="-964.5" font-family="Helvetica,sans-Serif" font-size="10.00"># moveDelta()</text>
<text text-anchor="start" x="341" y="-951.5" font-family="Helvetica,sans-Serif" font-size="10.00"># clearView()</text>
<text text-anchor="start" x="341" y="-938.5" font-family="Helvetica,sans-Serif" font-size="10.00">&#45; area()</text>
</a>
</g>
<!-- Node4&#45;&gt;Node1 -->
<g id="edge6" class="edge"><title>Node4&#45;&gt;Node1</title>
<path fill="none" stroke="#9a32cd" stroke-dasharray="5,2" d="M327.77,-1069.38C296.872,-1015.88 259.656,-953.284 224,-898 220.123,-891.989 216.049,-885.833 211.894,-879.668"/>
<polygon fill="#9a32cd" stroke="#9a32cd" points="332.87,-1078.23 323.977,-1071.81 330.373,-1073.89 327.876,-1069.56 327.876,-1069.56 327.876,-1069.56 330.373,-1073.89 331.775,-1067.31 332.87,-1078.23 332.87,-1078.23"/>
<text text-anchor="middle" x="252" y="-902.5" font-family="Helvetica,sans-Serif" font-size="10.00">newWorld</text>
</g>
<!-- Node12 -->
<g id="node24" class="node"><title>Node12</title>
<a xlink:href="classjdungeon_1_1core_1_1world_1_1_entity.html" target="_top" xlink:title="{jdungeon.core.world.Entity\n|&#45; w\l&#45; serialVersionUID\l|+ setWorld()\l+ getWorld()\l+ hitBy()\l+ hitsTo()\l+ near()\l+ clone()\l}">
<polygon fill="none" stroke="black" points="333,-725.5 333,-866.5 465,-866.5 465,-725.5 333,-725.5"/>
<text text-anchor="middle" x="399" y="-853.5" font-family="Helvetica,sans-Serif" font-size="10.00">jdungeon.core.world.Entity</text>
<polyline fill="none" stroke="black" points="333,-845.5 465,-845.5 "/>
<text text-anchor="start" x="341" y="-832.5" font-family="Helvetica,sans-Serif" font-size="10.00">&#45; w</text>
<text text-anchor="start" x="341" y="-819.5" font-family="Helvetica,sans-Serif" font-size="10.00">&#45; serialVersionUID</text>
<polyline fill="none" stroke="black" points="333,-811.5 465,-811.5 "/>
<text text-anchor="start" x="341" y="-798.5" font-family="Helvetica,sans-Serif" font-size="10.00">+ setWorld()</text>
<text text-anchor="start" x="341" y="-785.5" font-family="Helvetica,sans-Serif" font-size="10.00">+ getWorld()</text>
<text text-anchor="start" x="341" y="-772.5" font-family="Helvetica,sans-Serif" font-size="10.00">+ hitBy()</text>
<text text-anchor="start" x="341" y="-759.5" font-family="Helvetica,sans-Serif" font-size="10.00">+ hitsTo()</text>
<text text-anchor="start" x="341" y="-746.5" font-family="Helvetica,sans-Serif" font-size="10.00">+ near()</text>
<text text-anchor="start" x="341" y="-733.5" font-family="Helvetica,sans-Serif" font-size="10.00">+ clone()</text>
</a>
</g>
<!-- Node4&#45;&gt;Node12 -->
<g id="edge30" class="edge"><title>Node4&#45;&gt;Node12</title>
<path fill="none" stroke="#9a32cd" stroke-dasharray="5,2" d="M399,-920.18C399,-900.997 399,-882.906 399,-866.776"/>
<polygon fill="#9a32cd" stroke="#9a32cd" points="399,-930.307 394.5,-920.307 399,-925.307 399,-920.307 399,-920.307 399,-920.307 399,-925.307 403.5,-920.307 399,-930.307 399,-930.307"/>
<text text-anchor="middle" x="403" y="-902.5" font-family="Helvetica,sans-Serif" font-size="10.00">w</text>
</g>
<!-- Node5 -->
<g id="node8" class="node"><title>Node5</title>
<polygon fill="none" stroke="#bfbfbf" points="615.5,-2016.5 615.5,-2079.5 682.5,-2079.5 682.5,-2016.5 615.5,-2016.5"/>
<text text-anchor="middle" x="649" y="-2066.5" font-family="Helvetica,sans-Serif" font-size="10.00">Serializable</text>
<polyline fill="none" stroke="#bfbfbf" points="615.5,-2058.5 682.5,-2058.5 "/>
<text text-anchor="middle" x="649" y="-2045.5" font-family="Helvetica,sans-Serif" font-size="10.00"> </text>
<polyline fill="none" stroke="#bfbfbf" points="615.5,-2037.5 682.5,-2037.5 "/>
<text text-anchor="middle" x="649" y="-2024.5" font-family="Helvetica,sans-Serif" font-size="10.00"> </text>
</g>
<!-- Node5&#45;&gt;Node4 -->
<g id="edge8" class="edge"><title>Node5&#45;&gt;Node4</title>
<path fill="none" stroke="midnightblue" d="M648.833,-2006.25C647.975,-1898.46 642.862,-1613.11 613,-1524 581.243,-1429.23 515.395,-1335.15 465.079,-1272.21"/>
<polygon fill="none" stroke="midnightblue" points="645.335,-2006.43 648.906,-2016.41 652.334,-2006.38 645.335,-2006.43"/>
</g>
<!-- Node6 -->
<g id="node10" class="node"><title>Node6</title>
<a xlink:href="interfacejdungeon_1_1core_1_1world_1_1_vulnerable_observer.html" target="_top" xlink:title="{jdungeon.core.world.VulnerableObserver\n||+ onDeath()\l}">
<polygon fill="none" stroke="black" points="412,-1713.5 412,-1776.5 604,-1776.5 604,-1713.5 412,-1713.5"/>
<text text-anchor="middle" x="508" y="-1763.5" font-family="Helvetica,sans-Serif" font-size="10.00">jdungeon.core.world.VulnerableObserver</text>
<polyline fill="none" stroke="black" points="412,-1755.5 604,-1755.5 "/>
<text text-anchor="middle" x="508" y="-1742.5" font-family="Helvetica,sans-Serif" font-size="10.00"> </text>
<polyline fill="none" stroke="black" points="412,-1734.5 604,-1734.5 "/>
<text text-anchor="start" x="420" y="-1721.5" font-family="Helvetica,sans-Serif" font-size="10.00">+ onDeath()</text>
</a>
</g>
<!-- Node5&#45;&gt;Node6 -->
<g id="edge12" class="edge"><title>Node5&#45;&gt;Node6</title>
<path fill="none" stroke="midnightblue" d="M623.217,-2007.5C621.397,-2004.32 619.637,-2001.13 618,-1998 577.549,-1920.78 539.017,-1825.49 520.12,-1776.84"/>
<polygon fill="none" stroke="midnightblue" points="620.362,-2009.55 628.451,-2016.39 626.394,-2006 620.362,-2009.55"/>
</g>
<!-- Node7 -->
<g id="node13" class="node"><title>Node7</title>
<a xlink:href="classjdungeon_1_1core_1_1world_1_1_board.html" target="_top" xlink:title="{jdungeon.core.world.Board\n|&#45; name\l&#45; cells\l&#45; entities\l&#45; sizeY\l&#45; sizeX\l&#45; serialVersionUID\l&#45; MAX_SIZE\l&#45; MIN_SIZE\l|+ Board()\l+ getSizeY()\l+ getSizeX()\l+ replace()\l+ setName()\l+ getName()\l+ iterator()\l+ filter()\l# neighbours()\l# neighbours()\l# in()\l# in()\l# add()\l# add()\l# remove()\l# contains()\l# move()\l# move()\l# getEntityPos()\l&#45; initMatrix()\l&#45; isValidPoint()\l&#45; isValidPoint()\l&#45; warpTo()\l}">
<polygon fill="none" stroke="black" points="698,-1525 698,-1965 830,-1965 830,-1525 698,-1525"/>
<text text-anchor="middle" x="764" y="-1952" font-family="Helvetica,sans-Serif" font-size="10.00">jdungeon.core.world.Board</text>
<polyline fill="none" stroke="black" points="698,-1944 830,-1944 "/>
<text text-anchor="start" x="706" y="-1931" font-family="Helvetica,sans-Serif" font-size="10.00">&#45; name</text>
<text text-anchor="start" x="706" y="-1918" font-family="Helvetica,sans-Serif" font-size="10.00">&#45; cells</text>
<text text-anchor="start" x="706" y="-1905" font-family="Helvetica,sans-Serif" font-size="10.00">&#45; entities</text>
<text text-anchor="start" x="706" y="-1892" font-family="Helvetica,sans-Serif" font-size="10.00">&#45; sizeY</text>
<text text-anchor="start" x="706" y="-1879" font-family="Helvetica,sans-Serif" font-size="10.00">&#45; sizeX</text>
<text text-anchor="start" x="706" y="-1866" font-family="Helvetica,sans-Serif" font-size="10.00">&#45; serialVersionUID</text>
<text text-anchor="start" x="706" y="-1853" font-family="Helvetica,sans-Serif" font-size="10.00">&#45; MAX_SIZE</text>
<text text-anchor="start" x="706" y="-1840" font-family="Helvetica,sans-Serif" font-size="10.00">&#45; MIN_SIZE</text>
<polyline fill="none" stroke="black" points="698,-1832 830,-1832 "/>
<text text-anchor="start" x="706" y="-1819" font-family="Helvetica,sans-Serif" font-size="10.00">+ Board()</text>
<text text-anchor="start" x="706" y="-1806" font-family="Helvetica,sans-Serif" font-size="10.00">+ getSizeY()</text>
<text text-anchor="start" x="706" y="-1793" font-family="Helvetica,sans-Serif" font-size="10.00">+ getSizeX()</text>
<text text-anchor="start" x="706" y="-1780" font-family="Helvetica,sans-Serif" font-size="10.00">+ replace()</text>
<text text-anchor="start" x="706" y="-1767" font-family="Helvetica,sans-Serif" font-size="10.00">+ setName()</text>
<text text-anchor="start" x="706" y="-1754" font-family="Helvetica,sans-Serif" font-size="10.00">+ getName()</text>
<text text-anchor="start" x="706" y="-1741" font-family="Helvetica,sans-Serif" font-size="10.00">+ iterator()</text>
<text text-anchor="start" x="706" y="-1728" font-family="Helvetica,sans-Serif" font-size="10.00">+ filter()</text>
<text text-anchor="start" x="706" y="-1715" font-family="Helvetica,sans-Serif" font-size="10.00"># neighbours()</text>
<text text-anchor="start" x="706" y="-1702" font-family="Helvetica,sans-Serif" font-size="10.00"># neighbours()</text>
<text text-anchor="start" x="706" y="-1689" font-family="Helvetica,sans-Serif" font-size="10.00"># in()</text>
<text text-anchor="start" x="706" y="-1676" font-family="Helvetica,sans-Serif" font-size="10.00"># in()</text>
<text text-anchor="start" x="706" y="-1663" font-family="Helvetica,sans-Serif" font-size="10.00"># add()</text>
<text text-anchor="start" x="706" y="-1650" font-family="Helvetica,sans-Serif" font-size="10.00"># add()</text>
<text text-anchor="start" x="706" y="-1637" font-family="Helvetica,sans-Serif" font-size="10.00"># remove()</text>
<text text-anchor="start" x="706" y="-1624" font-family="Helvetica,sans-Serif" font-size="10.00"># contains()</text>
<text text-anchor="start" x="706" y="-1611" font-family="Helvetica,sans-Serif" font-size="10.00"># move()</text>
<text text-anchor="start" x="706" y="-1598" font-family="Helvetica,sans-Serif" font-size="10.00"># move()</text>
<text text-anchor="start" x="706" y="-1585" font-family="Helvetica,sans-Serif" font-size="10.00"># getEntityPos()</text>
<text text-anchor="start" x="706" y="-1572" font-family="Helvetica,sans-Serif" font-size="10.00">&#45; initMatrix()</text>
<text text-anchor="start" x="706" y="-1559" font-family="Helvetica,sans-Serif" font-size="10.00">&#45; isValidPoint()</text>
<text text-anchor="start" x="706" y="-1546" font-family="Helvetica,sans-Serif" font-size="10.00">&#45; isValidPoint()</text>
<text text-anchor="start" x="706" y="-1533" font-family="Helvetica,sans-Serif" font-size="10.00">&#45; warpTo()</text>
</a>
</g>
<!-- Node5&#45;&gt;Node7 -->
<g id="edge16" class="edge"><title>Node5&#45;&gt;Node7</title>
<path fill="none" stroke="midnightblue" d="M678.625,-2007.85C680.561,-2004.59 682.381,-2001.28 684,-1998 689.25,-1987.36 694.254,-1976.31 699.007,-1965.02"/>
<polygon fill="none" stroke="midnightblue" points="675.643,-2006.02 673.286,-2016.35 681.57,-2009.74 675.643,-2006.02"/>
</g>
<!-- Node5&#45;&gt;Node12 -->
<g id="edge28" class="edge"><title>Node5&#45;&gt;Node12</title>
<path fill="none" stroke="midnightblue" d="M655.285,-2006.25C655.568,-2003.46 655.812,-2000.69 656,-1998 656.432,-1991.79 656.081,-1990.22 656,-1984 653.333,-1779.5 675.05,-1726.14 644,-1524 602.309,-1252.58 579.542,-1183.51 474,-930 465.188,-908.834 453.832,-886.766 442.637,-866.791"/>
<polygon fill="none" stroke="midnightblue" points="651.791,-2005.99 654.111,-2016.33 658.744,-2006.8 651.791,-2005.99"/>
</g>
<!-- Node6&#45;&gt;Node4 -->
<g id="edge10" class="edge"><title>Node6&#45;&gt;Node4</title>
<path fill="none" stroke="#9a32cd" stroke-dasharray="5,2" d="M499.69,-1703.14C489.223,-1650.43 470.348,-1555.36 451.746,-1461.67"/>
<polygon fill="#9a32cd" stroke="#9a32cd" points="501.669,-1713.11 495.307,-1704.18 500.695,-1708.21 499.721,-1703.3 499.721,-1703.3 499.721,-1703.3 500.695,-1708.21 504.135,-1702.43 501.669,-1713.11 501.669,-1713.11"/>
<text text-anchor="middle" x="494.5" y="-1497" font-family="Helvetica,sans-Serif" font-size="10.00">bossObserver</text>
<text text-anchor="middle" x="494.5" y="-1484" font-family="Helvetica,sans-Serif" font-size="10.00">playerObserver</text>
</g>
<!-- Node7&#45;&gt;Node4 -->
<g id="edge14" class="edge"><title>Node7&#45;&gt;Node4</title>
<path fill="none" stroke="#9a32cd" stroke-dasharray="5,2" d="M693.595,-1567.12C679.303,-1537.23 663.292,-1507.13 646,-1480 593.763,-1398.03 518.838,-1315.43 465.227,-1260.61"/>
<polygon fill="#9a32cd" stroke="#9a32cd" points="697.975,-1576.39 689.633,-1569.27 695.838,-1571.87 693.701,-1567.35 693.701,-1567.35 693.701,-1567.35 695.838,-1571.87 697.77,-1565.42 697.975,-1576.39 697.975,-1576.39"/>
<text text-anchor="middle" x="670.5" y="-1490.5" font-family="Helvetica,sans-Serif" font-size="10.00">board</text>
</g>
<!-- Node8 -->
<g id="node16" class="node"><title>Node8</title>
<polygon fill="none" stroke="#bfbfbf" points="809.5,-2016.5 809.5,-2079.5 916.5,-2079.5 916.5,-2016.5 809.5,-2016.5"/>
<text text-anchor="middle" x="863" y="-2066.5" font-family="Helvetica,sans-Serif" font-size="10.00">Map&lt; Entity, Point &gt;</text>
<polyline fill="none" stroke="#bfbfbf" points="809.5,-2058.5 916.5,-2058.5 "/>
<text text-anchor="middle" x="863" y="-2045.5" font-family="Helvetica,sans-Serif" font-size="10.00"> </text>
<polyline fill="none" stroke="#bfbfbf" points="809.5,-2037.5 916.5,-2037.5 "/>
<text text-anchor="middle" x="863" y="-2024.5" font-family="Helvetica,sans-Serif" font-size="10.00"> </text>
</g>
<!-- Node8&#45;&gt;Node7 -->
<g id="edge18" class="edge"><title>Node8&#45;&gt;Node7</title>
<path fill="none" stroke="#9a32cd" stroke-dasharray="5,2" d="M849.457,-2006.55C843.999,-1989.84 837.274,-1969.26 830.013,-1947.04"/>
<polygon fill="#9a32cd" stroke="#9a32cd" points="852.685,-2016.43 845.302,-2008.32 851.133,-2011.68 849.58,-2006.93 849.58,-2006.93 849.58,-2006.93 851.133,-2011.68 853.857,-2005.53 852.685,-2016.43 852.685,-2016.43"/>
<text text-anchor="middle" x="862" y="-1988.5" font-family="Helvetica,sans-Serif" font-size="10.00">entities</text>
</g>
<!-- Node9 -->
<g id="node18" class="node"><title>Node9</title>
<polygon fill="none" stroke="#bfbfbf" points="717.5,-2016.5 717.5,-2079.5 792.5,-2079.5 792.5,-2016.5 717.5,-2016.5"/>
<text text-anchor="middle" x="755" y="-2066.5" font-family="Helvetica,sans-Serif" font-size="10.00">Set&lt; Entity &gt;</text>
<polyline fill="none" stroke="#bfbfbf" points="717.5,-2058.5 792.5,-2058.5 "/>
<text text-anchor="middle" x="755" y="-2045.5" font-family="Helvetica,sans-Serif" font-size="10.00"> </text>
<polyline fill="none" stroke="#bfbfbf" points="717.5,-2037.5 792.5,-2037.5 "/>
<text text-anchor="middle" x="755" y="-2024.5" font-family="Helvetica,sans-Serif" font-size="10.00"> </text>
</g>
<!-- Node9&#45;&gt;Node7 -->
<g id="edge20" class="edge"><title>Node9&#45;&gt;Node7</title>
<path fill="none" stroke="#9a32cd" stroke-dasharray="5,2" d="M756.236,-2006.4C756.593,-1994.37 757.01,-1980.34 757.461,-1965.14"/>
<polygon fill="#9a32cd" stroke="#9a32cd" points="755.938,-2016.43 751.737,-2006.3 756.086,-2011.43 756.235,-2006.44 756.235,-2006.44 756.235,-2006.44 756.086,-2011.43 760.733,-2006.57 755.938,-2016.43 755.938,-2016.43"/>
<text text-anchor="middle" x="766.5" y="-1988.5" font-family="Helvetica,sans-Serif" font-size="10.00">cells</text>
</g>
<!-- Node10 -->
<g id="node20" class="node"><title>Node10</title>
<a xlink:href="classjdungeon_1_1core_1_1world_1_1creatures_1_1_monster.html" target="_top" xlink:title="{jdungeon.core.world.creatures.Monster\n|&#45; serialVersionUID\l|+ Monster()\l+ awardExperience()\l+ getExperience()\l+ hurtBy()\l&#45; computeHealth()\l&#45; computeStrength()\l}">
<polygon fill="none" stroke="black" points="267.5,-53 267.5,-181 452.5,-181 452.5,-53 267.5,-53"/>
<text text-anchor="middle" x="360" y="-168" font-family="Helvetica,sans-Serif" font-size="10.00">jdungeon.core.world.creatures.Monster</text>
<polyline fill="none" stroke="black" points="267.5,-160 452.5,-160 "/>
<text text-anchor="start" x="275.5" y="-147" font-family="Helvetica,sans-Serif" font-size="10.00">&#45; serialVersionUID</text>
<polyline fill="none" stroke="black" points="267.5,-139 452.5,-139 "/>
<text text-anchor="start" x="275.5" y="-126" font-family="Helvetica,sans-Serif" font-size="10.00">+ Monster()</text>
<text text-anchor="start" x="275.5" y="-113" font-family="Helvetica,sans-Serif" font-size="10.00">+ awardExperience()</text>
<text text-anchor="start" x="275.5" y="-100" font-family="Helvetica,sans-Serif" font-size="10.00">+ getExperience()</text>
<text text-anchor="start" x="275.5" y="-87" font-family="Helvetica,sans-Serif" font-size="10.00">+ hurtBy()</text>
<text text-anchor="start" x="275.5" y="-74" font-family="Helvetica,sans-Serif" font-size="10.00">&#45; computeHealth()</text>
<text text-anchor="start" x="275.5" y="-61" font-family="Helvetica,sans-Serif" font-size="10.00">&#45; computeStrength()</text>
</a>
</g>
<!-- Node10&#45;&gt;Node4 -->
<g id="edge22" class="edge"><title>Node10&#45;&gt;Node4</title>
<path fill="none" stroke="#9a32cd" stroke-dasharray="5,2" d="M348.512,-190.996C329.076,-327.611 294.559,-628.465 324,-880 326.294,-899.601 329.363,-919.749 332.952,-939.928"/>
<polygon fill="#9a32cd" stroke="#9a32cd" points="349.942,-181.052 352.973,-191.59 349.23,-186.001 348.519,-190.95 348.519,-190.95 348.519,-190.95 349.23,-186.001 344.065,-190.309 349.942,-181.052 349.942,-181.052"/>
<text text-anchor="middle" x="324" y="-684.5" font-family="Helvetica,sans-Serif" font-size="10.00">boss</text>
</g>
<!-- Node11 -->
<g id="node22" class="node"><title>Node11</title>
<a xlink:href="classjdungeon_1_1core_1_1world_1_1_vulnerable.html" target="_top" xlink:title="{jdungeon.core.world.Vulnerable\n|&#45; HP\l&#45; maxHP\l&#45; level\l&#45; strength\l&#45; strengthBonus\l&#45; observers\l&#45; serialVersionUID\l|+ Vulnerable()\l+ getLevel()\l+ getHP()\l+ hitBy()\l+ hitsTo()\l+ heal()\l+ hurtBy()\l+ getStrength()\l+ getRawStrength()\l+ getStrengthBonus()\l+ setStrength()\l+ setStrengthBonus()\l+ setMaxHealth()\l+ getMaxHealth()\l+ setLevel()\l+ awardExperience()\l+ getExperience()\l+ subscribe()\l+ unsubscribe()\l# die()\l}">
<polygon fill="none" stroke="black" points="440,-273 440,-661 592,-661 592,-273 440,-273"/>
<text text-anchor="middle" x="516" y="-648" font-family="Helvetica,sans-Serif" font-size="10.00">jdungeon.core.world.Vulnerable</text>
<polyline fill="none" stroke="black" points="440,-640 592,-640 "/>
<text text-anchor="start" x="448" y="-627" font-family="Helvetica,sans-Serif" font-size="10.00">&#45; HP</text>
<text text-anchor="start" x="448" y="-614" font-family="Helvetica,sans-Serif" font-size="10.00">&#45; maxHP</text>
<text text-anchor="start" x="448" y="-601" font-family="Helvetica,sans-Serif" font-size="10.00">&#45; level</text>
<text text-anchor="start" x="448" y="-588" font-family="Helvetica,sans-Serif" font-size="10.00">&#45; strength</text>
<text text-anchor="start" x="448" y="-575" font-family="Helvetica,sans-Serif" font-size="10.00">&#45; strengthBonus</text>
<text text-anchor="start" x="448" y="-562" font-family="Helvetica,sans-Serif" font-size="10.00">&#45; observers</text>
<text text-anchor="start" x="448" y="-549" font-family="Helvetica,sans-Serif" font-size="10.00">&#45; serialVersionUID</text>
<polyline fill="none" stroke="black" points="440,-541 592,-541 "/>
<text text-anchor="start" x="448" y="-528" font-family="Helvetica,sans-Serif" font-size="10.00">+ Vulnerable()</text>
<text text-anchor="start" x="448" y="-515" font-family="Helvetica,sans-Serif" font-size="10.00">+ getLevel()</text>
<text text-anchor="start" x="448" y="-502" font-family="Helvetica,sans-Serif" font-size="10.00">+ getHP()</text>
<text text-anchor="start" x="448" y="-489" font-family="Helvetica,sans-Serif" font-size="10.00">+ hitBy()</text>
<text text-anchor="start" x="448" y="-476" font-family="Helvetica,sans-Serif" font-size="10.00">+ hitsTo()</text>
<text text-anchor="start" x="448" y="-463" font-family="Helvetica,sans-Serif" font-size="10.00">+ heal()</text>
<text text-anchor="start" x="448" y="-450" font-family="Helvetica,sans-Serif" font-size="10.00">+ hurtBy()</text>
<text text-anchor="start" x="448" y="-437" font-family="Helvetica,sans-Serif" font-size="10.00">+ getStrength()</text>
<text text-anchor="start" x="448" y="-424" font-family="Helvetica,sans-Serif" font-size="10.00">+ getRawStrength()</text>
<text text-anchor="start" x="448" y="-411" font-family="Helvetica,sans-Serif" font-size="10.00">+ getStrengthBonus()</text>
<text text-anchor="start" x="448" y="-398" font-family="Helvetica,sans-Serif" font-size="10.00">+ setStrength()</text>
<text text-anchor="start" x="448" y="-385" font-family="Helvetica,sans-Serif" font-size="10.00">+ setStrengthBonus()</text>
<text text-anchor="start" x="448" y="-372" font-family="Helvetica,sans-Serif" font-size="10.00">+ setMaxHealth()</text>
<text text-anchor="start" x="448" y="-359" font-family="Helvetica,sans-Serif" font-size="10.00">+ getMaxHealth()</text>
<text text-anchor="start" x="448" y="-346" font-family="Helvetica,sans-Serif" font-size="10.00">+ setLevel()</text>
<text text-anchor="start" x="448" y="-333" font-family="Helvetica,sans-Serif" font-size="10.00">+ awardExperience()</text>
<text text-anchor="start" x="448" y="-320" font-family="Helvetica,sans-Serif" font-size="10.00">+ getExperience()</text>
<text text-anchor="start" x="448" y="-307" font-family="Helvetica,sans-Serif" font-size="10.00">+ subscribe()</text>
<text text-anchor="start" x="448" y="-294" font-family="Helvetica,sans-Serif" font-size="10.00">+ unsubscribe()</text>
<text text-anchor="start" x="448" y="-281" font-family="Helvetica,sans-Serif" font-size="10.00"># die()</text>
</a>
</g>
<!-- Node11&#45;&gt;Node10 -->
<g id="edge24" class="edge"><title>Node11&#45;&gt;Node10</title>
<path fill="none" stroke="midnightblue" d="M435.856,-287.191C418.872,-249.084 402.023,-211.282 388.534,-181.018"/>
<polygon fill="none" stroke="midnightblue" points="432.674,-288.649 439.942,-296.358 439.068,-285.799 432.674,-288.649"/>
</g>
<!-- Node15 -->
<g id="node32" class="node"><title>Node15</title>
<a xlink:href="classjdungeon_1_1core_1_1world_1_1_player.html" target="_top" xlink:title="{jdungeon.core.world.Player\n|&#45; experience\l&#45; name\l&#45; serialVersionUID\l|+ Player()\l+ setWorld()\l+ getName()\l+ setName()\l+ getExperienceForNextLevel()\l+ getExperience()\l+ moveLeft()\l+ moveRight()\l+ moveUp()\l+ moveDown()\l+ awardExperience()\l&#45; move()\l}">
<polygon fill="none" stroke="black" points="524,-1 524,-233 676,-233 676,-1 524,-1"/>
<text text-anchor="middle" x="600" y="-220" font-family="Helvetica,sans-Serif" font-size="10.00">jdungeon.core.world.Player</text>
<polyline fill="none" stroke="black" points="524,-212 676,-212 "/>
<text text-anchor="start" x="532" y="-199" font-family="Helvetica,sans-Serif" font-size="10.00">&#45; experience</text>
<text text-anchor="start" x="532" y="-186" font-family="Helvetica,sans-Serif" font-size="10.00">&#45; name</text>
<text text-anchor="start" x="532" y="-173" font-family="Helvetica,sans-Serif" font-size="10.00">&#45; serialVersionUID</text>
<polyline fill="none" stroke="black" points="524,-165 676,-165 "/>
<text text-anchor="start" x="532" y="-152" font-family="Helvetica,sans-Serif" font-size="10.00">+ Player()</text>
<text text-anchor="start" x="532" y="-139" font-family="Helvetica,sans-Serif" font-size="10.00">+ setWorld()</text>
<text text-anchor="start" x="532" y="-126" font-family="Helvetica,sans-Serif" font-size="10.00">+ getName()</text>
<text text-anchor="start" x="532" y="-113" font-family="Helvetica,sans-Serif" font-size="10.00">+ setName()</text>
<text text-anchor="start" x="532" y="-100" font-family="Helvetica,sans-Serif" font-size="10.00">+ getExperienceForNextLevel()</text>
<text text-anchor="start" x="532" y="-87" font-family="Helvetica,sans-Serif" font-size="10.00">+ getExperience()</text>
<text text-anchor="start" x="532" y="-74" font-family="Helvetica,sans-Serif" font-size="10.00">+ moveLeft()</text>
<text text-anchor="start" x="532" y="-61" font-family="Helvetica,sans-Serif" font-size="10.00">+ moveRight()</text>
<text text-anchor="start" x="532" y="-48" font-family="Helvetica,sans-Serif" font-size="10.00">+ moveUp()</text>
<text text-anchor="start" x="532" y="-35" font-family="Helvetica,sans-Serif" font-size="10.00">+ moveDown()</text>
<text text-anchor="start" x="532" y="-22" font-family="Helvetica,sans-Serif" font-size="10.00">+ awardExperience()</text>
<text text-anchor="start" x="532" y="-9" font-family="Helvetica,sans-Serif" font-size="10.00">&#45; move()</text>
</a>
</g>
<!-- Node11&#45;&gt;Node15 -->
<g id="edge38" class="edge"><title>Node11&#45;&gt;Node15</title>
<path fill="none" stroke="midnightblue" d="M565.008,-262.799C567.401,-252.828 569.763,-242.988 572.061,-233.411"/>
<polygon fill="none" stroke="midnightblue" points="561.536,-262.268 562.606,-272.808 568.343,-263.901 561.536,-262.268"/>
</g>
<!-- Node12&#45;&gt;Node11 -->
<g id="edge26" class="edge"><title>Node12&#45;&gt;Node11</title>
<path fill="none" stroke="midnightblue" d="M427.576,-715.645C433.6,-698.707 440.202,-680.141 447.001,-661.024"/>
<polygon fill="none" stroke="midnightblue" points="424.152,-714.827 424.099,-725.421 430.748,-717.172 424.152,-714.827"/>
</g>
<!-- Node13 -->
<g id="node28" class="node"><title>Node13</title>
<polygon fill="none" stroke="#bfbfbf" points="482.5,-764.5 482.5,-827.5 617.5,-827.5 617.5,-764.5 482.5,-764.5"/>
<text text-anchor="middle" x="550" y="-814.5" font-family="Helvetica,sans-Serif" font-size="10.00">Set&lt; VulnerableObserver &gt;</text>
<polyline fill="none" stroke="#bfbfbf" points="482.5,-806.5 617.5,-806.5 "/>
<text text-anchor="middle" x="550" y="-793.5" font-family="Helvetica,sans-Serif" font-size="10.00"> </text>
<polyline fill="none" stroke="#bfbfbf" points="482.5,-785.5 617.5,-785.5 "/>
<text text-anchor="middle" x="550" y="-772.5" font-family="Helvetica,sans-Serif" font-size="10.00"> </text>
</g>
<!-- Node13&#45;&gt;Node11 -->
<g id="edge32" class="edge"><title>Node13&#45;&gt;Node11</title>
<path fill="none" stroke="#9a32cd" stroke-dasharray="5,2" d="M545.703,-754.42C543.152,-729.732 539.712,-696.446 536.078,-661.282"/>
<polygon fill="#9a32cd" stroke="#9a32cd" points="546.74,-764.454 541.236,-754.97 546.226,-759.481 545.712,-754.507 545.712,-754.507 545.712,-754.507 546.226,-759.481 550.188,-754.044 546.74,-764.454 546.74,-764.454"/>
<text text-anchor="middle" x="561.5" y="-684.5" font-family="Helvetica,sans-Serif" font-size="10.00">observers</text>
</g>
<!-- Node14 -->
<g id="node30" class="node"><title>Node14</title>
<polygon fill="none" stroke="#bfbfbf" points="174,-1713.5 174,-1776.5 282,-1776.5 282,-1713.5 174,-1713.5"/>
<text text-anchor="middle" x="228" y="-1763.5" font-family="Helvetica,sans-Serif" font-size="10.00">Set&lt; MapObserver &gt;</text>
<polyline fill="none" stroke="#bfbfbf" points="174,-1755.5 282,-1755.5 "/>
<text text-anchor="middle" x="228" y="-1742.5" font-family="Helvetica,sans-Serif" font-size="10.00"> </text>
<polyline fill="none" stroke="#bfbfbf" points="174,-1734.5 282,-1734.5 "/>
<text text-anchor="middle" x="228" y="-1721.5" font-family="Helvetica,sans-Serif" font-size="10.00"> </text>
</g>
<!-- Node14&#45;&gt;Node4 -->
<g id="edge34" class="edge"><title>Node14&#45;&gt;Node4</title>
<path fill="none" stroke="#9a32cd" stroke-dasharray="5,2" d="M239.282,-1703.54C251.521,-1659.01 271.88,-1586.27 291,-1524 304.109,-1481.3 318.735,-1435.68 332.885,-1392.45"/>
<polygon fill="#9a32cd" stroke="#9a32cd" points="236.574,-1713.41 234.879,-1702.57 237.897,-1708.59 239.219,-1703.76 239.219,-1703.76 239.219,-1703.76 237.897,-1708.59 243.559,-1704.95 236.574,-1713.41 236.574,-1713.41"/>
<text text-anchor="middle" x="324.5" y="-1490.5" font-family="Helvetica,sans-Serif" font-size="10.00">observers</text>
</g>
<!-- Node15&#45;&gt;Node4 -->
<g id="edge36" class="edge"><title>Node15&#45;&gt;Node4</title>
<path fill="none" stroke="#9a32cd" stroke-dasharray="5,2" d="M629.869,-243.144C660.675,-397.46 695.307,-664.727 626,-880 594.483,-977.895 520.164,-1071.12 465.102,-1130.6"/>
<polygon fill="#9a32cd" stroke="#9a32cd" points="627.846,-233.145 634.239,-242.054 628.838,-238.045 629.829,-242.946 629.829,-242.946 629.829,-242.946 628.838,-238.045 625.418,-243.838 627.846,-233.145 627.846,-233.145"/>
<text text-anchor="middle" x="675.5" y="-684.5" font-family="Helvetica,sans-Serif" font-size="10.00">player</text>
</g>
<!-- Node16 -->
<g id="node35" class="node"><title>Node16</title>
<polygon fill="none" stroke="#bfbfbf" points="299.5,-1713.5 299.5,-1776.5 394.5,-1776.5 394.5,-1713.5 299.5,-1713.5"/>
<text text-anchor="middle" x="347" y="-1763.5" font-family="Helvetica,sans-Serif" font-size="10.00">Set&lt; Vulnerable &gt;</text>
<polyline fill="none" stroke="#bfbfbf" points="299.5,-1755.5 394.5,-1755.5 "/>
<text text-anchor="middle" x="347" y="-1742.5" font-family="Helvetica,sans-Serif" font-size="10.00"> </text>
<polyline fill="none" stroke="#bfbfbf" points="299.5,-1734.5 394.5,-1734.5 "/>
<text text-anchor="middle" x="347" y="-1721.5" font-family="Helvetica,sans-Serif" font-size="10.00"> </text>
</g>
<!-- Node16&#45;&gt;Node4 -->
<g id="edge40" class="edge"><title>Node16&#45;&gt;Node4</title>
<path fill="none" stroke="#9a32cd" stroke-dasharray="5,2" d="M350.964,-1703.14C355.958,-1650.43 364.962,-1555.36 373.837,-1461.67"/>
<polygon fill="#9a32cd" stroke="#9a32cd" points="350.021,-1713.11 346.484,-1702.73 350.492,-1708.13 350.964,-1703.16 350.964,-1703.16 350.964,-1703.16 350.492,-1708.13 355.443,-1703.58 350.021,-1713.11 350.021,-1713.11"/>
<text text-anchor="middle" x="397" y="-1490.5" font-family="Helvetica,sans-Serif" font-size="10.00">hurtEntities</text>
</g>
</g>
</svg>
