<?xml version="1.0" encoding="UTF-8" standalone="no"?>
<!DOCTYPE svg PUBLIC "-//W3C//DTD SVG 1.1//EN"
 "http://www.w3.org/Graphics/SVG/1.1/DTD/svg11.dtd">
<!-- Generated by graphviz version 2.26.3 (20100126.1600)
 -->
<!-- Title: G Pages: 1 -->
<svg width="230pt" height="394pt"
 viewBox="0.00 0.00 230.00 394.00" xmlns="http://www.w3.org/2000/svg" xmlns:xlink="http://www.w3.org/1999/xlink">
<g id="graph1" class="graph" transform="scale(1 1) rotate(0) translate(4 390)">
<title>G</title>
<!-- Node1 -->
<g id="node1" class="node"><title>Node1</title>
<polygon fill="#bfbfbf" stroke="black" points="37,-0.5 37,-271.5 213,-271.5 213,-0.5 37,-0.5"/>
<text text-anchor="middle" x="125" y="-258.5" font-family="Helvetica,sans-Serif" font-size="10.00">jdungeon.core.world.filter.BoardFilter</text>
<polyline fill="none" stroke="black" points="37,-250.5 213,-250.5 "/>
<text text-anchor="start" x="45" y="-237.5" font-family="Helvetica,sans-Serif" font-size="10.00">&#45; entries</text>
<text text-anchor="start" x="45" y="-224.5" font-family="Helvetica,sans-Serif" font-size="10.00">&#45; walk</text>
<polyline fill="none" stroke="black" points="37,-216.5 213,-216.5 "/>
<text text-anchor="start" x="45" y="-203.5" font-family="Helvetica,sans-Serif" font-size="10.00">+ BoardFilter()</text>
<text text-anchor="start" x="45" y="-190.5" font-family="Helvetica,sans-Serif" font-size="10.00">+ count()</text>
<text text-anchor="start" x="45" y="-177.5" font-family="Helvetica,sans-Serif" font-size="10.00">+ filter()</text>
<text text-anchor="start" x="45" y="-164.5" font-family="Helvetica,sans-Serif" font-size="10.00">+ get()</text>
<text text-anchor="start" x="45" y="-151.5" font-family="Helvetica,sans-Serif" font-size="10.00">+ hasNext()</text>
<text text-anchor="start" x="45" y="-138.5" font-family="Helvetica,sans-Serif" font-size="10.00">+ in()</text>
<text text-anchor="start" x="45" y="-125.5" font-family="Helvetica,sans-Serif" font-size="10.00">+ in()</text>
<text text-anchor="start" x="45" y="-112.5" font-family="Helvetica,sans-Serif" font-size="10.00">+ iterator()</text>
<text text-anchor="start" x="45" y="-99.5" font-family="Helvetica,sans-Serif" font-size="10.00">+ next()</text>
<text text-anchor="start" x="45" y="-86.5" font-family="Helvetica,sans-Serif" font-size="10.00">+ noPointsContaining()</text>
<text text-anchor="start" x="45" y="-73.5" font-family="Helvetica,sans-Serif" font-size="10.00">+ not()</text>
<text text-anchor="start" x="45" y="-60.5" font-family="Helvetica,sans-Serif" font-size="10.00">+ notIn()</text>
<text text-anchor="start" x="45" y="-47.5" font-family="Helvetica,sans-Serif" font-size="10.00">+ notIn()</text>
<text text-anchor="start" x="45" y="-34.5" font-family="Helvetica,sans-Serif" font-size="10.00">+ remove()</text>
<text text-anchor="start" x="45" y="-21.5" font-family="Helvetica,sans-Serif" font-size="10.00">+ where()</text>
<text text-anchor="start" x="45" y="-8.5" font-family="Helvetica,sans-Serif" font-size="10.00">~ toArray()</text>
</g>
<!-- Node2 -->
<g id="node2" class="node"><title>Node2</title>
<polygon fill="none" stroke="#bfbfbf" points="-0.5,-322.5 -0.5,-385.5 130.5,-385.5 130.5,-322.5 -0.5,-322.5"/>
<text text-anchor="middle" x="65" y="-372.5" font-family="Helvetica,sans-Serif" font-size="10.00">java::util::Iterator&lt; Entry &gt;</text>
<polyline fill="none" stroke="#bfbfbf" points="-0.5,-364.5 130.5,-364.5 "/>
<text text-anchor="middle" x="65" y="-351.5" font-family="Helvetica,sans-Serif" font-size="10.00"> </text>
<polyline fill="none" stroke="#bfbfbf" points="-0.5,-343.5 130.5,-343.5 "/>
<text text-anchor="middle" x="65" y="-330.5" font-family="Helvetica,sans-Serif" font-size="10.00"> </text>
</g>
<!-- Node2&#45;&gt;Node1 -->
<g id="edge2" class="edge"><title>Node2&#45;&gt;Node1</title>
<path fill="none" stroke="midnightblue" d="M76.3953,-312.597C79.7245,-300.501 83.5587,-286.57 87.5829,-271.949"/>
<polygon fill="none" stroke="midnightblue" points="73.0037,-311.731 73.7245,-322.301 79.7527,-313.588 73.0037,-311.731"/>
</g>
<!-- Node3 -->
<g id="node4" class="node"><title>Node3</title>
<polygon fill="none" stroke="#bfbfbf" points="148,-322.5 148,-385.5 222,-385.5 222,-322.5 148,-322.5"/>
<text text-anchor="middle" x="185" y="-372.5" font-family="Helvetica,sans-Serif" font-size="10.00">List&lt; Entry &gt;</text>
<polyline fill="none" stroke="#bfbfbf" points="148,-364.5 222,-364.5 "/>
<text text-anchor="middle" x="185" y="-351.5" font-family="Helvetica,sans-Serif" font-size="10.00"> </text>
<polyline fill="none" stroke="#bfbfbf" points="148,-343.5 222,-343.5 "/>
<text text-anchor="middle" x="185" y="-330.5" font-family="Helvetica,sans-Serif" font-size="10.00"> </text>
</g>
<!-- Node3&#45;&gt;Node1 -->
<g id="edge4" class="edge"><title>Node3&#45;&gt;Node1</title>
<path fill="none" stroke="#9a32cd" stroke-dasharray="5,2" d="M173.605,-312.597C170.276,-300.501 166.441,-286.57 162.417,-271.949"/>
<polygon fill="#9a32cd" stroke="#9a32cd" points="176.275,-322.301 169.283,-313.854 174.949,-317.48 173.622,-312.659 173.622,-312.659 173.622,-312.659 174.949,-317.48 177.96,-311.465 176.275,-322.301 176.275,-322.301"/>
<text text-anchor="middle" x="185" y="-294.5" font-family="Helvetica,sans-Serif" font-size="10.00">entries</text>
</g>
</g>
</svg>
