<?xml version="1.0" encoding="UTF-8" standalone="no"?>
<!DOCTYPE svg PUBLIC "-//W3C//DTD SVG 1.1//EN"
 "http://www.w3.org/Graphics/SVG/1.1/DTD/svg11.dtd">
<!-- Generated by graphviz version 2.26.3 (20100126.1600)
 -->
<!-- Title: G Pages: 1 -->
<svg width="172pt" height="264pt"
 viewBox="0.00 0.00 172.00 264.00" xmlns="http://www.w3.org/2000/svg" xmlns:xlink="http://www.w3.org/1999/xlink">
<g id="graph1" class="graph" transform="scale(1 1) rotate(0) translate(4 260)">
<title>G</title>
<!-- Node1 -->
<g id="node1" class="node"><title>Node1</title>
<polygon fill="#bfbfbf" stroke="black" points="0,-1 0,-155 164,-155 164,-1 0,-1"/>
<text text-anchor="middle" x="82" y="-142" font-family="Helvetica,sans-Serif" font-size="10.00">jdungeon.frontend.gui.GamePanel</text>
<polyline fill="none" stroke="black" points="0,-134 164,-134 "/>
<text text-anchor="start" x="8" y="-121" font-family="Helvetica,sans-Serif" font-size="10.00">~ columns</text>
<text text-anchor="start" x="8" y="-108" font-family="Helvetica,sans-Serif" font-size="10.00">&#45; rows</text>
<text text-anchor="start" x="8" y="-95" font-family="Helvetica,sans-Serif" font-size="10.00">&#45; cellSize</text>
<text text-anchor="start" x="8" y="-82" font-family="Helvetica,sans-Serif" font-size="10.00">&#45; color</text>
<text text-anchor="start" x="8" y="-69" font-family="Helvetica,sans-Serif" font-size="10.00">&#45; images</text>
<polyline fill="none" stroke="black" points="0,-61 164,-61 "/>
<text text-anchor="start" x="8" y="-48" font-family="Helvetica,sans-Serif" font-size="10.00">+ GamePanel()</text>
<text text-anchor="start" x="8" y="-35" font-family="Helvetica,sans-Serif" font-size="10.00">+ put()</text>
<text text-anchor="start" x="8" y="-22" font-family="Helvetica,sans-Serif" font-size="10.00">+ clear()</text>
<text text-anchor="start" x="8" y="-9" font-family="Helvetica,sans-Serif" font-size="10.00">+ paint()</text>
</g>
<!-- Node2 -->
<g id="node2" class="node"><title>Node2</title>
<polygon fill="none" stroke="#bfbfbf" points="58.5,-192.5 58.5,-255.5 105.5,-255.5 105.5,-192.5 58.5,-192.5"/>
<text text-anchor="middle" x="82" y="-242.5" font-family="Helvetica,sans-Serif" font-size="10.00">JPanel</text>
<polyline fill="none" stroke="#bfbfbf" points="58.5,-234.5 105.5,-234.5 "/>
<text text-anchor="middle" x="82" y="-221.5" font-family="Helvetica,sans-Serif" font-size="10.00"> </text>
<polyline fill="none" stroke="#bfbfbf" points="58.5,-213.5 105.5,-213.5 "/>
<text text-anchor="middle" x="82" y="-200.5" font-family="Helvetica,sans-Serif" font-size="10.00"> </text>
</g>
<!-- Node2&#45;&gt;Node1 -->
<g id="edge2" class="edge"><title>Node2&#45;&gt;Node1</title>
<path fill="none" stroke="midnightblue" d="M82,-182.288C82,-173.742 82,-164.491 82,-155.148"/>
<polygon fill="none" stroke="midnightblue" points="78.5001,-182.32 82,-192.32 85.5001,-182.32 78.5001,-182.32"/>
</g>
</g>
</svg>
