<?xml version="1.0" encoding="UTF-8" standalone="no"?>
<!DOCTYPE svg PUBLIC "-//W3C//DTD SVG 1.1//EN"
 "http://www.w3.org/Graphics/SVG/1.1/DTD/svg11.dtd">
<!-- Generated by graphviz version 2.26.3 (20100126.1600)
 -->
<!-- Title: G Pages: 1 -->
<svg width="798pt" height="210pt"
 viewBox="0.00 0.00 798.00 210.00" xmlns="http://www.w3.org/2000/svg" xmlns:xlink="http://www.w3.org/1999/xlink">
<g id="graph1" class="graph" transform="scale(1 1) rotate(0) translate(4 206)">
<title>G</title>
<!-- Node1 -->
<g id="node1" class="node"><title>Node1</title>
<a xlink:href="classjdungeon_1_1core_1_1world_1_1_entity.html" target="_top" xlink:title="jdungeon.core.world.Entity">
<polygon fill="none" stroke="black" points="0,-80.5 0,-101.5 132,-101.5 132,-80.5 0,-80.5"/>
<text text-anchor="middle" x="66" y="-88.5" font-family="Helvetica,sans-Serif" font-size="10.00">jdungeon.core.world.Entity</text>
</a>
</g>
<!-- Node2 -->
<g id="node3" class="node"><title>Node2</title>
<a xlink:href="classjdungeon_1_1core_1_1world_1_1bonus_1_1_bonus.html" target="_top" xlink:title="jdungeon.core.world.bonus.Bonus">
<polygon fill="none" stroke="black" points="170,-140.5 170,-161.5 334,-161.5 334,-140.5 170,-140.5"/>
<text text-anchor="middle" x="252" y="-148.5" font-family="Helvetica,sans-Serif" font-size="10.00">jdungeon.core.world.bonus.Bonus</text>
</a>
</g>
<!-- Node1&#45;&gt;Node2 -->
<g id="edge2" class="edge"><title>Node1&#45;&gt;Node2</title>
<path fill="none" stroke="midnightblue" d="M99.4277,-105.477C119.14,-113.668 144.709,-123.7 168,-131 179.015,-134.452 191.003,-137.637 202.382,-140.403"/>
<polygon fill="midnightblue" stroke="midnightblue" points="100.553,-102.153 89.9776,-101.505 97.8403,-108.607 100.553,-102.153"/>
</g>
<!-- Node6 -->
<g id="node11" class="node"><title>Node6</title>
<a xlink:href="classjdungeon_1_1core_1_1world_1_1scenery_1_1_splat.html" target="_top" xlink:title="jdungeon.core.world.scenery.Splat">
<polygon fill="none" stroke="black" points="168.5,-100.5 168.5,-121.5 335.5,-121.5 335.5,-100.5 168.5,-100.5"/>
<text text-anchor="middle" x="252" y="-108.5" font-family="Helvetica,sans-Serif" font-size="10.00">jdungeon.core.world.scenery.Splat</text>
</a>
</g>
<!-- Node1&#45;&gt;Node6 -->
<g id="edge10" class="edge"><title>Node1&#45;&gt;Node6</title>
<path fill="none" stroke="midnightblue" d="M142.097,-99.1824C150.706,-100.108 159.515,-101.055 168.216,-101.991"/>
<polygon fill="midnightblue" stroke="midnightblue" points="142.417,-95.6968 132.1,-98.1076 141.669,-102.657 142.417,-95.6968"/>
</g>
<!-- Node7 -->
<g id="node13" class="node"><title>Node7</title>
<a xlink:href="classjdungeon_1_1core_1_1world_1_1scenery_1_1_wall.html" target="_top" xlink:title="jdungeon.core.world.scenery.Wall">
<polygon fill="none" stroke="black" points="170,-60.5 170,-81.5 334,-81.5 334,-60.5 170,-60.5"/>
<text text-anchor="middle" x="252" y="-68.5" font-family="Helvetica,sans-Serif" font-size="10.00">jdungeon.core.world.scenery.Wall</text>
</a>
</g>
<!-- Node1&#45;&gt;Node7 -->
<g id="edge12" class="edge"><title>Node1&#45;&gt;Node7</title>
<path fill="none" stroke="midnightblue" d="M142.255,-82.8006C151.349,-81.8227 160.664,-80.8211 169.836,-79.8348"/>
<polygon fill="midnightblue" stroke="midnightblue" points="141.669,-79.3433 132.1,-83.8924 142.417,-86.3032 141.669,-79.3433"/>
</g>
<!-- Node8 -->
<g id="node15" class="node"><title>Node8</title>
<a xlink:href="classjdungeon_1_1core_1_1world_1_1_vulnerable.html" target="_top" xlink:title="jdungeon.core.world.Vulnerable">
<polygon fill="none" stroke="black" points="176,-20.5 176,-41.5 328,-41.5 328,-20.5 176,-20.5"/>
<text text-anchor="middle" x="252" y="-28.5" font-family="Helvetica,sans-Serif" font-size="10.00">jdungeon.core.world.Vulnerable</text>
</a>
</g>
<!-- Node1&#45;&gt;Node8 -->
<g id="edge14" class="edge"><title>Node1&#45;&gt;Node8</title>
<path fill="none" stroke="midnightblue" d="M99.4277,-76.5228C119.14,-68.332 144.709,-58.3002 168,-51 179.015,-47.5476 191.003,-44.3627 202.382,-41.5966"/>
<polygon fill="midnightblue" stroke="midnightblue" points="97.8403,-73.3934 89.9776,-80.4946 100.553,-79.8466 97.8403,-73.3934"/>
</g>
<!-- Node3 -->
<g id="node5" class="node"><title>Node3</title>
<a xlink:href="classjdungeon_1_1core_1_1world_1_1bonus_1_1_explorer_bonus.html" target="_top" xlink:title="jdungeon.core.world.bonus.ExplorerBonus">
<polygon fill="none" stroke="black" points="372,-180.5 372,-201.5 572,-201.5 572,-180.5 372,-180.5"/>
<text text-anchor="middle" x="472" y="-188.5" font-family="Helvetica,sans-Serif" font-size="10.00">jdungeon.core.world.bonus.ExplorerBonus</text>
</a>
</g>
<!-- Node2&#45;&gt;Node3 -->
<g id="edge4" class="edge"><title>Node2&#45;&gt;Node3</title>
<path fill="none" stroke="midnightblue" d="M319.84,-163.335C350.053,-168.828 385.265,-175.23 414.202,-180.491"/>
<polygon fill="midnightblue" stroke="midnightblue" points="320.267,-159.855 309.802,-161.51 319.015,-166.742 320.267,-159.855"/>
</g>
<!-- Node4 -->
<g id="node7" class="node"><title>Node4</title>
<a xlink:href="classjdungeon_1_1core_1_1world_1_1bonus_1_1_health_bonus.html" target="_top" xlink:title="jdungeon.core.world.bonus.HealthBonus">
<polygon fill="none" stroke="black" points="376,-140.5 376,-161.5 568,-161.5 568,-140.5 376,-140.5"/>
<text text-anchor="middle" x="472" y="-148.5" font-family="Helvetica,sans-Serif" font-size="10.00">jdungeon.core.world.bonus.HealthBonus</text>
</a>
</g>
<!-- Node2&#45;&gt;Node4 -->
<g id="edge6" class="edge"><title>Node2&#45;&gt;Node4</title>
<path fill="none" stroke="midnightblue" d="M344.492,-151C354.836,-151 365.391,-151 375.78,-151"/>
<polygon fill="midnightblue" stroke="midnightblue" points="344.233,-147.5 334.233,-151 344.233,-154.5 344.233,-147.5"/>
</g>
<!-- Node5 -->
<g id="node9" class="node"><title>Node5</title>
<a xlink:href="classjdungeon_1_1core_1_1world_1_1bonus_1_1_strength_bonus.html" target="_top" xlink:title="jdungeon.core.world.bonus.StrengthBonus">
<polygon fill="none" stroke="black" points="372,-100.5 372,-121.5 572,-121.5 572,-100.5 372,-100.5"/>
<text text-anchor="middle" x="472" y="-108.5" font-family="Helvetica,sans-Serif" font-size="10.00">jdungeon.core.world.bonus.StrengthBonus</text>
</a>
</g>
<!-- Node2&#45;&gt;Node5 -->
<g id="edge8" class="edge"><title>Node2&#45;&gt;Node5</title>
<path fill="none" stroke="midnightblue" d="M319.84,-138.665C350.053,-133.172 385.265,-126.77 414.202,-121.509"/>
<polygon fill="midnightblue" stroke="midnightblue" points="319.015,-135.258 309.802,-140.49 320.267,-142.145 319.015,-135.258"/>
</g>
<!-- Node9 -->
<g id="node17" class="node"><title>Node9</title>
<a xlink:href="classjdungeon_1_1core_1_1world_1_1creatures_1_1_monster.html" target="_top" xlink:title="jdungeon.core.world.creatures.Monster">
<polygon fill="none" stroke="black" points="379.5,-40.5 379.5,-61.5 564.5,-61.5 564.5,-40.5 379.5,-40.5"/>
<text text-anchor="middle" x="472" y="-48.5" font-family="Helvetica,sans-Serif" font-size="10.00">jdungeon.core.world.creatures.Monster</text>
</a>
</g>
<!-- Node8&#45;&gt;Node9 -->
<g id="edge16" class="edge"><title>Node8&#45;&gt;Node9</title>
<path fill="none" stroke="midnightblue" d="M338.212,-38.8374C351.686,-40.0623 365.66,-41.3327 379.272,-42.5702"/>
<polygon fill="midnightblue" stroke="midnightblue" points="338.295,-35.3307 328.02,-37.9109 337.662,-42.3019 338.295,-35.3307"/>
</g>
<!-- Node13 -->
<g id="node25" class="node"><title>Node13</title>
<a xlink:href="classjdungeon_1_1core_1_1world_1_1_player.html" target="_top" xlink:title="jdungeon.core.world.Player">
<polygon fill="none" stroke="black" points="405,-0.5 405,-21.5 539,-21.5 539,-0.5 405,-0.5"/>
<text text-anchor="middle" x="472" y="-8.5" font-family="Helvetica,sans-Serif" font-size="10.00">jdungeon.core.world.Player</text>
</a>
</g>
<!-- Node8&#45;&gt;Node13 -->
<g id="edge24" class="edge"><title>Node8&#45;&gt;Node13</title>
<path fill="none" stroke="midnightblue" d="M338.089,-23.1737C360.244,-21.1596 383.759,-19.0219 404.799,-17.1092"/>
<polygon fill="midnightblue" stroke="midnightblue" points="337.662,-19.6981 328.02,-24.0891 338.295,-26.6693 337.662,-19.6981"/>
</g>
<!-- Node10 -->
<g id="node19" class="node"><title>Node10</title>
<a xlink:href="classjdungeon_1_1core_1_1world_1_1creatures_1_1_dragon.html" target="_top" xlink:title="jdungeon.core.world.creatures.Dragon">
<polygon fill="none" stroke="black" points="608,-80.5 608,-101.5 790,-101.5 790,-80.5 608,-80.5"/>
<text text-anchor="middle" x="699" y="-88.5" font-family="Helvetica,sans-Serif" font-size="10.00">jdungeon.core.world.creatures.Dragon</text>
</a>
</g>
<!-- Node9&#45;&gt;Node10 -->
<g id="edge18" class="edge"><title>Node9&#45;&gt;Node10</title>
<path fill="none" stroke="midnightblue" d="M541.593,-63.263C572.857,-68.7721 609.375,-75.2071 639.363,-80.4913"/>
<polygon fill="midnightblue" stroke="midnightblue" points="542.097,-59.7981 531.642,-61.5095 540.882,-66.6919 542.097,-59.7981"/>
</g>
<!-- Node11 -->
<g id="node21" class="node"><title>Node11</title>
<a xlink:href="classjdungeon_1_1core_1_1world_1_1creatures_1_1_golem.html" target="_top" xlink:title="jdungeon.core.world.creatures.Golem">
<polygon fill="none" stroke="black" points="609.5,-40.5 609.5,-61.5 788.5,-61.5 788.5,-40.5 609.5,-40.5"/>
<text text-anchor="middle" x="699" y="-48.5" font-family="Helvetica,sans-Serif" font-size="10.00">jdungeon.core.world.creatures.Golem</text>
</a>
</g>
<!-- Node9&#45;&gt;Node11 -->
<g id="edge20" class="edge"><title>Node9&#45;&gt;Node11</title>
<path fill="none" stroke="midnightblue" d="M574.719,-51C586.225,-51 597.881,-51 609.207,-51"/>
<polygon fill="midnightblue" stroke="midnightblue" points="574.657,-47.5001 564.657,-51 574.657,-54.5001 574.657,-47.5001"/>
</g>
<!-- Node12 -->
<g id="node23" class="node"><title>Node12</title>
<a xlink:href="classjdungeon_1_1core_1_1world_1_1creatures_1_1_snake.html" target="_top" xlink:title="jdungeon.core.world.creatures.Snake">
<polygon fill="none" stroke="black" points="610,-0.5 610,-21.5 788,-21.5 788,-0.5 610,-0.5"/>
<text text-anchor="middle" x="699" y="-8.5" font-family="Helvetica,sans-Serif" font-size="10.00">jdungeon.core.world.creatures.Snake</text>
</a>
</g>
<!-- Node9&#45;&gt;Node12 -->
<g id="edge22" class="edge"><title>Node9&#45;&gt;Node12</title>
<path fill="none" stroke="midnightblue" d="M541.593,-38.737C572.857,-33.2279 609.375,-26.7929 639.363,-21.5087"/>
<polygon fill="midnightblue" stroke="midnightblue" points="540.882,-35.3081 531.642,-40.4905 542.097,-42.2019 540.882,-35.3081"/>
</g>
</g>
</svg>
