<?xml version="1.0" encoding="UTF-8" standalone="no"?>
<!DOCTYPE svg PUBLIC "-//W3C//DTD SVG 1.1//EN"
 "http://www.w3.org/Graphics/SVG/1.1/DTD/svg11.dtd">
<!-- Generated by graphviz version 2.26.3 (20100126.1600)
 -->
<!-- Title: G Pages: 1 -->
<svg width="334pt" height="70pt"
 viewBox="0.00 0.00 334.00 70.00" xmlns="http://www.w3.org/2000/svg" xmlns:xlink="http://www.w3.org/1999/xlink">
<g id="graph1" class="graph" transform="scale(1 1) rotate(0) translate(4 66)">
<title>G</title>
<!-- Node1 -->
<g id="node1" class="node"><title>Node1</title>
<a xlink:href="interfacejdungeon_1_1frontend_1_1_g_u_i.html" target="_top" xlink:title="jdungeon.frontend.GUI">
<polygon fill="none" stroke="black" points="25.5,-40.5 25.5,-61.5 140.5,-61.5 140.5,-40.5 25.5,-40.5"/>
<text text-anchor="middle" x="83" y="-48.5" font-family="Helvetica,sans-Serif" font-size="10.00">jdungeon.frontend.GUI</text>
</a>
</g>
<!-- Node2 -->
<g id="node3" class="node"><title>Node2</title>
<a xlink:href="classjdungeon_1_1frontend_1_1_game.html" target="_top" xlink:title="jdungeon.frontend.Game">
<polygon fill="none" stroke="black" points="202.5,-20.5 202.5,-41.5 325.5,-41.5 325.5,-20.5 202.5,-20.5"/>
<text text-anchor="middle" x="264" y="-28.5" font-family="Helvetica,sans-Serif" font-size="10.00">jdungeon.frontend.Game</text>
</a>
</g>
<!-- Node1&#45;&gt;Node2 -->
<g id="edge2" class="edge"><title>Node1&#45;&gt;Node2</title>
<path fill="none" stroke="midnightblue" d="M151.091,-43.4761C167.938,-41.6146 185.891,-39.6309 202.408,-37.8058"/>
<polygon fill="midnightblue" stroke="midnightblue" points="150.322,-40.0397 140.767,-44.6169 151.091,-46.9973 150.322,-40.0397"/>
</g>
<!-- Node3 -->
<g id="node4" class="node"><title>Node3</title>
<a xlink:href="interfacejdungeon_1_1core_1_1world_1_1_map_observer.html" target="_top" xlink:title="jdungeon.core.world.MapObserver">
<polygon fill="none" stroke="black" points="0.5,-0.5 0.5,-21.5 165.5,-21.5 165.5,-0.5 0.5,-0.5"/>
<text text-anchor="middle" x="83" y="-8.5" font-family="Helvetica,sans-Serif" font-size="10.00">jdungeon.core.world.MapObserver</text>
</a>
</g>
<!-- Node3&#45;&gt;Node2 -->
<g id="edge4" class="edge"><title>Node3&#45;&gt;Node2</title>
<path fill="none" stroke="midnightblue" d="M175.753,-21.2489C184.791,-22.2476 193.799,-23.243 202.417,-24.1952"/>
<polygon fill="midnightblue" stroke="midnightblue" points="175.879,-17.7416 165.555,-20.1221 175.11,-24.6993 175.879,-17.7416"/>
</g>
</g>
</svg>
