<?xml version="1.0" encoding="UTF-8" standalone="no"?>
<!DOCTYPE svg PUBLIC "-//W3C//DTD SVG 1.1//EN"
 "http://www.w3.org/Graphics/SVG/1.1/DTD/svg11.dtd">
<!-- Generated by graphviz version 2.26.3 (20100126.1600)
 -->
<!-- Title: G Pages: 1 -->
<svg width="266pt" height="172pt"
 viewBox="0.00 0.00 266.00 172.00" xmlns="http://www.w3.org/2000/svg" xmlns:xlink="http://www.w3.org/1999/xlink">
<g id="graph1" class="graph" transform="scale(1 1) rotate(0) translate(4 168)">
<title>G</title>
<!-- Node1 -->
<g id="node1" class="node"><title>Node1</title>
<polygon fill="#bfbfbf" stroke="black" points="30,-100.5 30,-163.5 228,-163.5 228,-100.5 30,-100.5"/>
<text text-anchor="middle" x="129" y="-150.5" font-family="Helvetica,sans-Serif" font-size="10.00">jdungeon.frontend.gui.GamePanelListener</text>
<polyline fill="none" stroke="black" points="30,-142.5 228,-142.5 "/>
<text text-anchor="middle" x="129" y="-129.5" font-family="Helvetica,sans-Serif" font-size="10.00"> </text>
<polyline fill="none" stroke="black" points="30,-121.5 228,-121.5 "/>
<text text-anchor="start" x="38" y="-108.5" font-family="Helvetica,sans-Serif" font-size="10.00">+ onMouseMoved()</text>
</g>
<!-- Node2 -->
<g id="node3" class="node"><title>Node2</title>
<polygon fill="none" stroke="#bfbfbf" points="0,-0.5 0,-63.5 258,-63.5 258,-0.5 0,-0.5"/>
<text text-anchor="middle" x="129" y="-50.5" font-family="Helvetica,sans-Serif" font-size="10.00">jdungeon.frontend.MapDrawer.BaseGamePanelListener</text>
<polyline fill="none" stroke="#bfbfbf" points="0,-42.5 258,-42.5 "/>
<text text-anchor="middle" x="129" y="-29.5" font-family="Helvetica,sans-Serif" font-size="10.00"> </text>
<polyline fill="none" stroke="#bfbfbf" points="0,-21.5 258,-21.5 "/>
<text text-anchor="start" x="8" y="-8.5" font-family="Helvetica,sans-Serif" font-size="10.00">+ onMouseMoved()</text>
</g>
<!-- Node1&#45;&gt;Node2 -->
<g id="edge2" class="edge"><title>Node1&#45;&gt;Node2</title>
<path fill="none" stroke="midnightblue" d="M129,-90.2111C129,-81.37 129,-72.1767 129,-63.778"/>
<polygon fill="none" stroke="midnightblue" points="125.5,-90.3593 129,-100.359 132.5,-90.3594 125.5,-90.3593"/>
</g>
</g>
</svg>
